<?xml version="1.0" standalone="no"?>
<!DOCTYPE svg PUBLIC "-//W3C//DTD SVG 20010904//EN"
 "http://www.w3.org/TR/2001/REC-SVG-20010904/DTD/svg10.dtd">
<svg version="1.0" xmlns="http://www.w3.org/2000/svg"
 width="850.000000pt" height="850.000000pt" viewBox="0 0 850.000000 850.000000"
 preserveAspectRatio="xMidYMid meet">
<metadata>
Created by potrace 1.14, written by Peter Selinger 2001-2017
</metadata>
<g transform="translate(0.000000,850.000000) scale(0.100000,-0.100000)"
fill="#000000" stroke="none">
<path d="M2728 8383 c-2 -5 -3 -37 -2 -73 3 -94 5 -261 5 -291 -1 -24 -8 -28
-62 -43 -33 -10 -68 -19 -77 -21 -89 -21 -150 -36 -162 -42 -8 -3 -23 -8 -33
-9 -9 -2 -66 -18 -125 -34 -59 -17 -116 -33 -127 -35 -11 -2 -78 -20 -150 -40
-71 -20 -137 -38 -145 -40 -85 -20 -117 -29 -126 -36 -6 -5 -13 -6 -16 -4 -3
3 -18 1 -34 -6 -16 -6 -38 -13 -49 -15 -34 -7 -57 -13 -150 -39 -105 -30 -117
-33 -147 -40 -12 -2 -81 -21 -152 -41 -72 -20 -137 -38 -146 -39 -8 -2 -49
-13 -90 -25 -41 -11 -82 -22 -90 -24 -130 -34 -214 -57 -217 -60 -3 -2 15 -62
38 -132 24 -71 44 -131 44 -134 1 -3 5 -14 9 -25 20 -51 27 -71 31 -90 4 -18
92 -276 96 -282 1 -2 3 -7 4 -13 1 -5 3 -11 5 -12 1 -2 3 -10 5 -18 2 -8 54
-163 115 -344 61 -181 108 -332 103 -336 -4 -5 -37 -11 -73 -15 -36 -4 -67 -8
-70 -10 -3 -2 -27 -6 -55 -10 -27 -3 -52 -8 -54 -11 -3 -3 -5 -55 -6 -116 l0
-111 -40 -11 -40 -12 0 -281 c-1 -155 -4 -285 -7 -289 -7 -7 -104 -32 -151
-39 -15 -2 -62 -12 -105 -21 l-77 -16 1 -2407 c1 -1323 2 -2411 3 -2418 1 -10
45 2 121 34 8 3 17 7 20 8 3 0 37 12 75 25 39 13 75 25 80 26 6 2 48 14 95 29
47 14 96 28 110 31 14 3 34 8 45 11 11 4 25 8 30 9 6 1 46 11 90 22 44 12 94
23 110 26 17 3 45 10 63 15 17 5 32 8 32 5 0 -3 8 0 18 5 10 5 36 12 58 15 40
5 73 12 102 20 9 3 33 7 52 10 41 7 85 14 120 21 60 12 78 15 120 21 25 3 47
7 50 9 3 2 30 6 60 10 30 3 62 8 70 10 8 3 35 7 60 10 48 6 335 43 385 50 17
2 62 7 100 10 39 4 81 8 94 10 13 2 58 7 100 10 42 3 94 8 116 10 22 3 74 7
115 10 41 3 100 8 130 10 30 2 100 7 155 10 55 3 138 8 185 11 47 2 108 6 137
7 l52 2 347 -347 c191 -191 350 -345 353 -343 3 3 160 159 347 346 l341 341
44 0 c95 -2 384 -18 494 -28 33 -2 89 -7 125 -9 36 -3 88 -7 115 -10 28 -3 84
-7 125 -10 41 -2 75 -5 75 -5 0 -3 36 -8 105 -14 41 -3 84 -8 95 -10 11 -2 51
-7 88 -11 37 -3 78 -9 90 -11 12 -3 42 -7 67 -9 25 -2 59 -6 75 -9 43 -8 83
-14 140 -21 28 -4 61 -9 75 -11 14 -3 66 -11 115 -20 90 -15 113 -19 170 -30
41 -7 165 -32 195 -38 14 -3 50 -11 80 -17 30 -6 125 -29 210 -50 85 -22 164
-42 174 -44 10 -2 33 -9 51 -15 18 -6 41 -12 51 -14 33 -7 158 -47 192 -62 18
-8 39 -14 47 -14 9 0 23 -4 33 -10 9 -5 41 -18 70 -29 l52 -19 1 21 c0 12 1
991 3 2175 l2 2153 -22 31 c-12 16 -39 47 -58 68 -20 22 -36 42 -36 45 0 4 -6
12 -12 19 -7 7 -32 35 -54 62 -106 126 -141 171 -150 189 -6 12 -9 170 -9 373
1 193 -1 352 -4 353 -3 0 -14 2 -23 5 -10 2 -26 6 -35 7 -13 3 -18 13 -18 35
0 18 -3 32 -8 32 -4 0 -5 5 -2 11 10 16 12 69 3 75 -4 3 -4 14 2 24 12 22 -10
49 -41 51 -27 2 -59 6 -61 8 -2 1 -16 4 -33 6 -117 12 -147 23 -128 47 6 7 20
45 32 83 13 39 25 77 28 85 4 8 7 17 8 20 4 18 48 149 55 165 8 20 160 470
165 490 1 6 5 17 8 25 11 26 167 494 167 501 0 5 -78 29 -170 53 -8 2 -42 11
-75 21 -33 9 -69 18 -80 20 -11 3 -69 18 -130 35 -60 17 -117 33 -125 35 -8 1
-42 10 -75 19 -33 9 -67 18 -75 21 -8 2 -42 11 -75 20 -82 22 -80 22 -170 46
-44 11 -87 23 -95 25 -36 9 -233 62 -365 98 -107 30 -159 44 -190 52 -5 1 -46
12 -90 24 -186 50 -218 59 -242 64 -7 1 -16 5 -19 9 -4 4 -16 7 -27 7 -18 0
-84 19 -96 27 -3 2 -4 47 -2 101 7 214 7 268 3 280 -3 9 -318 12 -1527 12
-838 0 -1525 -3 -1527 -7z"/>
</g>
</svg>
