<?xml version="1.0" standalone="no"?>
<!DOCTYPE svg PUBLIC "-//W3C//DTD SVG 20010904//EN"
 "http://www.w3.org/TR/2001/REC-SVG-20010904/DTD/svg10.dtd">
<svg version="1.0" xmlns="http://www.w3.org/2000/svg"
 width="839.000000pt" height="839.000000pt" viewBox="0 0 839.000000 839.000000"
 preserveAspectRatio="xMidYMid meet">
<metadata>
Created by potrace 1.14, written by Peter Selinger 2001-2017
</metadata>
<g transform="translate(0.000000,839.000000) scale(0.100000,-0.100000)"
fill="#000000" stroke="none">
<path d="M2667 8325 c-2 -5 -3 -46 -1 -90 9 -312 11 -298 -47 -309 -13 -3 -24
-5 -24 -6 0 -1 -13 -4 -30 -6 -16 -3 -35 -10 -42 -16 -7 -6 -13 -8 -13 -5 0 3
-15 1 -32 -4 -18 -6 -40 -12 -48 -14 -40 -11 -137 -36 -157 -40 -12 -3 -34
-10 -48 -15 -14 -5 -25 -7 -25 -4 0 4 -6 2 -12 -4 -7 -5 -29 -13 -48 -17 -19
-4 -84 -20 -144 -37 -59 -16 -118 -32 -130 -34 -29 -7 -38 -10 -57 -18 -9 -4
-27 -8 -41 -10 -13 -1 -28 -5 -33 -8 -6 -3 -23 -9 -40 -13 -16 -4 -37 -9 -45
-11 -8 -2 -42 -11 -75 -20 -33 -9 -67 -18 -75 -20 -49 -12 -267 -72 -280 -76
-15 -6 -146 -41 -165 -44 -5 -1 -30 -7 -55 -15 -25 -7 -49 -13 -55 -15 -5 -1
-46 -12 -90 -24 -44 -12 -96 -26 -115 -31 -19 -5 -42 -11 -50 -14 -8 -2 -39
-10 -67 -17 -29 -7 -53 -16 -53 -21 0 -4 20 -67 44 -140 186 -552 258 -765
266 -782 4 -11 11 -33 15 -50 4 -16 13 -43 20 -60 21 -48 117 -346 113 -350
-2 -2 -24 -7 -48 -10 -25 -3 -58 -8 -75 -11 -16 -3 -43 -7 -60 -10 -16 -3 -39
-6 -50 -9 -11 -2 -22 -4 -25 -4 -3 -1 -5 -49 -4 -108 0 -60 -3 -114 -9 -120
-5 -7 -22 -13 -38 -13 -16 0 -30 -6 -30 -12 -1 -7 -3 -139 -3 -292 l-2 -279
-74 -18 c-41 -9 -88 -19 -105 -22 -34 -6 -122 -25 -145 -32 -14 -5 -16 -254
-15 -2415 0 -1325 3 -2412 6 -2415 5 -4 62 13 137 40 7 2 16 5 20 6 4 0 12 5
17 9 6 5 22 11 35 13 14 3 54 15 90 27 60 20 149 46 257 75 110 28 184 46 213
51 19 3 38 8 42 11 10 5 41 12 89 18 20 2 48 9 63 15 15 5 45 12 67 15 22 3
50 7 62 10 27 6 75 15 102 20 11 2 63 11 115 20 104 18 125 21 185 30 23 3 50
7 60 9 33 6 118 18 145 21 32 3 114 14 160 21 19 3 53 6 75 8 22 2 60 6 85 10
98 12 171 19 310 30 41 3 91 8 110 11 36 5 152 13 295 20 44 3 118 7 165 10
47 3 122 7 168 9 l82 3 351 -351 c273 -273 353 -347 359 -335 5 9 160 166 344
351 l336 335 92 -3 c51 -2 134 -6 183 -9 50 -3 117 -7 150 -9 90 -5 233 -16
295 -22 30 -3 82 -7 115 -9 33 -2 60 -4 60 -5 0 -2 47 -8 125 -14 75 -7 122
-12 193 -21 20 -3 54 -7 75 -10 20 -3 56 -7 80 -10 77 -9 137 -17 157 -21 11
-2 38 -6 60 -9 64 -9 98 -13 135 -20 19 -3 87 -15 150 -26 63 -10 126 -21 140
-24 14 -3 41 -8 60 -11 19 -3 43 -7 52 -10 9 -3 27 -7 40 -10 23 -5 32 -7 98
-20 45 -8 48 -9 95 -21 60 -15 136 -33 169 -39 16 -3 37 -9 48 -15 10 -5 18
-7 18 -5 0 3 18 -1 40 -9 22 -8 44 -14 48 -15 4 0 21 -4 37 -9 17 -5 77 -24
135 -41 58 -17 114 -35 125 -40 30 -12 119 -44 130 -46 6 -1 18 -5 28 -9 12
-5 17 -2 18 11 0 11 2 989 3 2174 3 2042 2 2156 -15 2180 -9 14 -26 34 -36 45
-15 17 -68 80 -123 148 -8 10 -22 27 -30 37 -8 9 -26 32 -40 50 -14 19 -38 47
-54 63 -15 17 -31 42 -35 56 -4 14 -6 182 -6 374 1 328 0 347 -17 347 -10 0
-19 -1 -20 -2 -2 -1 -13 4 -26 11 -22 11 -23 18 -22 94 2 135 6 125 -47 133
-27 3 -55 8 -65 10 -31 5 -113 17 -128 19 -8 0 -16 4 -18 8 -5 10 8 69 18 82
8 12 32 96 30 109 -1 5 2 12 7 15 6 5 63 162 69 191 0 3 3 12 7 20 8 20 117
345 227 675 49 149 95 278 100 288 11 18 6 23 -35 30 -11 2 -27 7 -35 10 -8 3
-28 9 -45 13 -16 4 -34 8 -40 10 -5 2 -20 5 -31 8 -12 2 -39 9 -60 16 -60 17
-140 39 -166 44 -12 3 -72 19 -133 36 -102 29 -281 77 -315 85 -16 4 -176 47
-245 66 -22 6 -47 14 -55 17 -8 3 -22 6 -32 8 -9 2 -66 17 -126 33 -61 17
-145 40 -189 51 -43 12 -103 28 -133 36 -30 9 -66 17 -79 20 -14 3 -29 7 -33
10 -5 3 -24 8 -41 11 -18 3 -39 8 -47 13 -13 6 -79 24 -131 34 -8 2 -21 6 -29
9 -8 3 -35 11 -60 19 l-45 13 2 45 c1 25 3 113 5 195 l3 150 -1527 0 c-1036 0
-1529 -3 -1531 -10z"/>
</g>
</svg>
