<?xml version="1.0" encoding="UTF-8"?>
<!DOCTYPE svg PUBLIC "-//W3C//DTD SVG 1.1//EN" "http://www.w3.org/Graphics/SVG/1.1/DTD/svg11.dtd">
<!-- Creator: CorelDRAW X7 -->
<svg xmlns="http://www.w3.org/2000/svg" xml:space="preserve" width="210mm" height="206.5mm" version="1.1" style="shape-rendering:geometricPrecision; text-rendering:geometricPrecision; image-rendering:optimizeQuality; fill-rule:evenodd; clip-rule:evenodd"
viewBox="0 0 21000 20650"
 xmlns:xlink="http://www.w3.org/1999/xlink">
 <defs>
  <style type="text/css">
   <![CDATA[
    .fil0 {fill:black}
   ]]>
  </style>
 </defs>
 <g id="Vrstva_x0020_1">
  <metadata id="CorelCorpID_0Corel-Layer"/>
  <path class="fil0" d="M3500 13521c956,511 1881,1093 2753,1738 186,123 112,361 -134,316l-2585 -188c-232,-32 -403,-229 -403,-462l0 -5 48 -1143c27,-200 133,-289 321,-256zm14314 1399l0 0zm-3121 339c871,-645 1796,-1227 2752,-1738 188,-33 294,56 322,256l47 1143 0 5c0,233 -171,430 -402,462l-2586 188c-246,45 -320,-193 -133,-316zm2301 2613l1036 0 -2 -9c571,0 817,-263 817,-1025l0 -13173c335,33 504,108 586,279l0 3812 735 0c459,-1 831,-373 832,-832l0 -2245c-1,-450 -359,-818 -808,-833 -67,-647 -342,-839 -1367,-890 -140,-1140 -913,-1983 -2328,-2528 -3211,-610 -8960,-555 -11990,0 -1408,546 -2185,1389 -2329,2528 -1016,48 -1298,237 -1368,890 -449,15 -806,383 -808,833l0 2245c1,459 373,831 832,832l735 0 0 -3802c82,-174 245,-253 586,-287l0 13308c45,562 335,893 940,904l875 0 5 0c-3,36 -5,72 -5,109l0 1519c0,619 506,1125 1124,1125l760 0c618,0 1124,-506 1124,-1125l0 -1519c0,-37 -2,-73 -5,-109l5 0 7014 0 0 0c-3,36 -5,72 -5,109l0 1519c0,619 506,1125 1124,1125l760 0c618,0 1124,-506 1124,-1125l0 -1519c0,-39 -2,-78 -6,-116l7 0zm472 -6588c-4801,1458 -9195,1398 -13993,0 -190,-52 -342,-154 -342,-342l0 -7383c0,-189 153,-342 342,-342l0 4 13993 0c189,0 342,153 342,342l0 7379c0,185 -152,289 -342,342zm-23 5104c248,0 450,201 450,450 0,248 -202,449 -450,449 -248,0 -450,-201 -450,-449 0,-249 202,-450 450,-450zm-13925 -8c248,0 450,201 450,450 0,248 -202,450 -450,450 -249,0 -450,-202 -450,-450 0,-249 201,-450 450,-450zm5303 -423l3356 0c75,0 137,61 137,137l0 603c0,76 -62,138 -137,138l-3356 0c-75,0 -137,-62 -137,-138l0 -603c0,-76 62,-137 137,-137zm3951 -13640l-4546 0c-146,0 -265,-120 -265,-266l0 -741c0,-146 119,-265 265,-265l4546 0c146,0 266,119 266,265l0 741c0,146 -120,266 -266,266z"/>
 </g>
</svg>
