<?xml version="1.0" encoding="UTF-8"?>
<!DOCTYPE svg PUBLIC "-//W3C//DTD SVG 1.1//EN" "http://www.w3.org/Graphics/SVG/1.1/DTD/svg11.dtd">
<!-- Creator: CorelDRAW X7 -->
<svg xmlns="http://www.w3.org/2000/svg" xml:space="preserve" width="210mm" height="248mm" version="1.1" style="shape-rendering:geometricPrecision; text-rendering:geometricPrecision; image-rendering:optimizeQuality; fill-rule:evenodd; clip-rule:evenodd"
viewBox="0 0 21000 24800"
 xmlns:xlink="http://www.w3.org/1999/xlink">
 <defs>
  <style type="text/css">
   <![CDATA[
    .fil0 {fill:black}
   ]]>
  </style>
 </defs>
 <g id="Vrstva_x0020_1">
  <metadata id="CorelCorpID_0Corel-Layer"/>
  <path class="fil0" d="M17465 15403c-4798,1457 -9194,1397 -13993,0 -189,-50 -338,-153 -338,-339l0 -7390c0,-186 150,-337 338,-337l0 6 13993 0c184,1 334,149 339,333l0 7388c0,186 -151,289 -339,339zm-4693 -8983l-4546 0c-146,0 -265,-120 -265,-266l0 -741c0,-146 119,-265 265,-265l4546 0c146,0 266,119 266,265l0 741c0,146 -120,266 -266,266zm4221 15565l1034 0c0,6 813,15 819,-1026l0 -13170c336,30 503,107 586,278l0 3813 734 0c459,-1 831,-373 832,-832l0 -2255c-2,-449 -358,-817 -806,-833 -71,-647 -361,-838 -1369,-889 -141,-1132 -913,-1975 -2330,-2522 -1171,-204 -2368,-333 -3554,-380l1416 -4151 -1209 0 -1419 4099 -1896 0 1411 -4099 -1210 0 -1420 4129c-1373,42 -2750,183 -4110,403 -1417,546 -2193,1388 -2327,2527 -1016,51 -1298,238 -1369,891 -448,16 -804,384 -806,833l0 2247c1,459 373,831 832,832l736 0 0 -3813c81,-175 248,-254 584,-286l0 13301c47,571 335,893 940,903l882 0 0 1630c4,640 522,1157 1161,1159l681 0c639,-2 1157,-520 1159,-1159l0 -1630 1770 0c16,-71 79,-123 157,-123l3263 0c75,0 138,53 155,123l1673 0 0 1630c2,640 521,1158 1160,1159l682 0c639,-1 1157,-519 1158,-1159l0 -1630zm-89 -1070c0,-249 201,-450 450,-450 248,0 450,201 450,450 0,248 -202,450 -450,450 -249,0 -450,-202 -450,-450zm-2222 -1828c872,-645 1797,-1227 2753,-1738 188,-33 294,56 321,256l48 1143 0 5c0,233 -171,430 -403,462l-2585 188c-246,45 -320,-193 -134,-316zm-11098 1378c248,0 450,201 450,450 0,248 -202,450 -450,450 -249,0 -450,-202 -450,-450 0,-249 201,-450 450,-450zm-84 -3116c956,511 1881,1093 2753,1738 186,123 112,361 -134,316l-2585 -188c-232,-32 -403,-229 -403,-462l0 -5 48 -1143c27,-200 133,-289 321,-256zm8820 4636l-3575 0c-3,12 -4,24 -4,36l0 546c0,88 71,160 159,160l3265 0c88,0 159,-72 159,-160l0 -546c0,-12 -2,-24 -4,-36z"/>
 </g>
</svg>
