<?xml version="1.0" encoding="UTF-8"?>
<!DOCTYPE svg PUBLIC "-//W3C//DTD SVG 1.1//EN" "http://www.w3.org/Graphics/SVG/1.1/DTD/svg11.dtd">
<!-- Creator: CorelDRAW X7 -->
<svg xmlns="http://www.w3.org/2000/svg" xml:space="preserve" width="210mm" height="225mm" version="1.1" style="shape-rendering:geometricPrecision; text-rendering:geometricPrecision; image-rendering:optimizeQuality; fill-rule:evenodd; clip-rule:evenodd"
viewBox="0 0 21000 22500"
 xmlns:xlink="http://www.w3.org/1999/xlink">
 <defs>
  <style type="text/css">
   <![CDATA[
    .fil0 {fill:black}
   ]]>
  </style>
 </defs>
 <g id="Vrstva_x0020_1">
  <metadata id="CorelCorpID_0Corel-Layer"/>
  <path class="fil0" d="M11082 11208c324,0 588,264 588,590 0,324 -264,587 -588,587 -325,0 -588,-263 -588,-587 0,-326 263,-590 588,-590zm-86 -6901c-504,0 -912,408 -912,910l0 5216 0 0c-419,307 -692,803 -692,1365 0,932 756,1689 1690,1689 86,0 172,-6 256,-20l0 0 2250 2252c179,178 413,267 646,267 232,0 466,-89 643,-267 357,-355 357,-932 0,-1289l-2170 -2170 0 0c42,-148 64,-303 64,-462 0,-635 -348,-1186 -863,-1476l0 -5105c0,-502 -409,-910 -912,-910zm2 -4261c-20,0 -40,0 -61,1l-952 64c-28,2 -56,5 -84,9l-943 152c-28,3 -56,10 -82,17l-925 238c-28,7 -54,15 -82,25l-898 322c-26,9 -53,20 -78,33l-865 403c-25,12 -50,26 -75,40l-823 483c-25,14 -48,29 -72,46l-774 557c-23,16 -45,34 -66,53l-722 625c-20,19 -42,39 -60,59l-659 690c-21,20 -39,42 -56,64l-593 749c-17,22 -34,45 -49,68l-520 801c-16,23 -30,48 -43,73l-444 845c-14,25 -25,50 -36,76l-364 883c-11,26 -21,52 -30,80l-281 912c-7,27 -14,55 -20,83l-195 933c-6,28 -9,56 -13,84l-108 948c-3,29 -5,57 -5,85l-20 954c0,28 0,58 3,86l68 950c2,30 7,58 11,86l157 941c5,28 11,55 17,83l245 923c6,27 16,54 25,80l327 897c11,26 22,53 33,77l411 863c11,26 25,51 39,74l488 821c14,25 30,48 47,71l561 771c17,23 34,45 53,67l631 716c19,21 39,42 59,61l695 655c19,18 39,35 59,52l656 518c20,16 39,30 61,44l695 464c20,14 42,26 63,38l731 405c22,13 45,23 67,34l761 345c24,11 45,20 68,28l788 282c24,8 47,15 70,22l808 217c24,8 49,12 72,17l823 150c24,5 49,8 73,11l832 84c25,3 49,5 74,5l836 15c5,0 11,0 17,0 19,0 38,0 56,-1l835 -52c25,-1 49,-4 74,-7l827 -120c25,-4 50,-8 73,-14l816 -186c23,-6 48,-12 71,-20l798 -251c23,-8 46,-16 69,-25l774 -317c24,-9 45,-18 67,-29l746 -379c23,-10 45,-23 65,-35l714 -436c20,-14 42,-28 60,-42l677 -493c20,-14 38,-30 57,-47l633 -546c19,-15 37,-32 54,-49l587 -598c17,-17 34,-35 49,-54l537 -642c15,-19 31,-37 45,-58l482 -684c290,-411 193,-980 -218,-1270 -160,-113 -343,-168 -525,-168 -287,0 -567,135 -746,387l-461 653 -488 585 -535 542 -577 498 -615 450 -650 397 -681 345 -705 287 -726 229 -743 171 -754 108 -762 47 -761 -14 -759 -76 -749 -138 -735 -199 -719 -256 -693 -314 -667 -370 -634 -423 -596 -470 -634 -599 -576 -653 -512 -704 -443 -748 -374 -786 -300 -816 -222 -842 -142 -858 -64 -867 17 -871 98 -865 178 -852 256 -831 332 -804 405 -771 475 -729 540 -682 600 -628 658 -571 705 -509 751 -439 788 -369 819 -293 842 -218 860 -138 868 -57 869 23 864 103 852 183 830 262 802 336 767 410 726 479 680 545 495 478 -621 -117c-56,-9 -112,-15 -167,-15 -429,0 -810,305 -892,741 -92,493 232,968 726,1061l2922 546c56,11 112,16 168,16 207,0 409,-72 573,-204 207,-169 329,-420 334,-687l56 -2891c9,-501 -390,-915 -891,-925 -6,0 -12,-1 -18,-1 -493,0 -898,395 -908,892l-6 282 -535 -516c-20,-21 -42,-39 -64,-56l-744 -599c-22,-17 -45,-34 -68,-50l-798 -524c-23,-15 -48,-31 -73,-43l-842 -450c-25,-14 -50,-25 -76,-36l-879 -371c-27,-11 -53,-20 -81,-29l-911 -286c-26,-9 -54,-15 -80,-21l-934 -202c-28,-5 -56,-9 -84,-14l-948 -113c-28,-3 -55,-5 -83,-6l-956 -25c-8,0 -15,0 -23,0z"/>
 </g>
</svg>
