<?xml version="1.0" encoding="UTF-8"?>
<!DOCTYPE svg PUBLIC "-//W3C//DTD SVG 1.1//EN" "http://www.w3.org/Graphics/SVG/1.1/DTD/svg11.dtd">
<!-- Creator: CorelDRAW X7 -->
<svg xmlns="http://www.w3.org/2000/svg" xml:space="preserve" width="210mm" height="42.5mm" version="1.1" style="shape-rendering:geometricPrecision; text-rendering:geometricPrecision; image-rendering:optimizeQuality; fill-rule:evenodd; clip-rule:evenodd"
viewBox="0 0 21000 4250"
 xmlns:xlink="http://www.w3.org/1999/xlink">
 <defs>
  <style type="text/css">
   <![CDATA[
    .fil0 {fill:black}
   ]]>
  </style>
 </defs>
 <g id="Vrstva_x0020_1">
  <metadata id="CorelCorpID_0Corel-Layer"/>
  <path class="fil0" d="M18448 87l0 4102 826 0 0 -1337 849 1337 877 0 -889 -1382 854 -1349 -876 0 -815 1302 0 -2747 -826 74zm-15317 1279c-758,0 -1119,575 -1119,1338l0 171c0,763 361,1336 1119,1336 412,0 671,-205 786,-470l0 413 790 0 0 -2728 -790 0 0 416c-121,-263 -374,-476 -786,-476zm-292 1521l0 -193c0,-408 148,-677 532,-677 338,0 511,246 511,636l0 275c0,390 -173,637 -511,637 -384,0 -532,-271 -532,-678zm-838 -753l70 -678 -689 0 0 -418c0,-253 75,-366 332,-366l368 0 0 -636c-161,-21 -323,-29 -483,-29 -768,0 -1043,361 -1043,1043l0 406 -556 0 0 678 556 0 0 2053 826 0 0 -2053 619 0zm4299 -768c-969,0 -1410,523 -1410,1359l0 127c0,838 441,1359 1410,1359 322,0 626,-68 792,-183l-182 -585c-173,83 -362,126 -553,126 -445,0 -640,-257 -640,-700l0 -161c0,-441 193,-700 640,-700 191,3 380,46 553,128l182 -585c-166,-115 -470,-185 -792,-185zm2125 2c-902,0 -1343,509 -1343,1283l0 242c0,803 390,1324 1437,1324 394,0 842,-86 1059,-201l-150 -566c-242,104 -568,166 -878,166 -458,0 -624,-166 -643,-538l1739 0 0 -437c0,-756 -372,-1273 -1221,-1273zm-516 1168c0,-367 144,-601 516,-603 361,0 482,238 482,535l0 68 -998 0zm1942 -2451l0 4102 780 0 0 -413c113,263 401,470 813,470 758,0 1123,-575 1123,-1336l2 -173c0,-763 -367,-1336 -1125,-1336 -384,0 -646,195 -767,435l0 -1825 -826 76zm823 2593c0,-390 185,-631 524,-631 396,0 544,286 544,670l0 207c0,384 -148,671 -544,671 -339,0 -524,-242 -524,-630l0 -287zm3390 -1312c-912,0 -1359,569 -1359,1355l0 137c0,785 447,1353 1361,1353 911,0 1359,-568 1359,-1353l0 -137c0,-786 -448,-1355 -1361,-1355zm-534 1297c0,-361 148,-648 534,-648 386,0 533,287 533,648l0 253c0,361 -149,646 -533,646 -384,0 -534,-285 -534,-646l0 -253zm3387 -1297c-913,0 -1361,569 -1361,1355l0 137c0,785 448,1353 1361,1353 911,0 1359,-568 1359,-1353l0 -137c0,-786 -448,-1355 -1359,-1355zm-534 1297c0,-361 148,-648 534,-648 384,0 532,287 532,648l0 253c0,361 -148,646 -532,646 -386,0 -534,-285 -534,-646l0 -253z"/>
 </g>
</svg>
