<?xml version="1.0" encoding="UTF-8"?>
<!DOCTYPE svg PUBLIC "-//W3C//DTD SVG 1.1//EN" "http://www.w3.org/Graphics/SVG/1.1/DTD/svg11.dtd">
<!-- Creator: CorelDRAW X7 -->
<svg xmlns="http://www.w3.org/2000/svg" xml:space="preserve" width="210mm" height="278.5mm" version="1.1" style="shape-rendering:geometricPrecision; text-rendering:geometricPrecision; image-rendering:optimizeQuality; fill-rule:evenodd; clip-rule:evenodd"
viewBox="0 0 21000 27850"
 xmlns:xlink="http://www.w3.org/1999/xlink">
 <defs>
  <style type="text/css">
   <![CDATA[
    .fil0 {fill:black}
   ]]>
  </style>
 </defs>
 <g id="Vrstva_x0020_1">
  <metadata id="CorelCorpID_0Corel-Layer"/>
  <path class="fil0" d="M15340 10575l-9682 0c-1042,0 -1894,-852 -1894,-1893l0 -2986c0,-1042 852,-1894 1894,-1894l9682 0c1042,0 1894,852 1894,1894l0 2986c0,1041 -852,1893 -1894,1893zm-9303 12380l9053 0 1025 1571 -11142 0 1064 -1571zm-2064 3046l13101 0 1129 1731 2795 0 -4261 -6571 769 0c1077,0 1960,-882 1960,-1959l0 -17219c0,-1077 -883,-1960 -1960,-1960l-13852 0c-1077,0 -1957,883 -1959,1960l0 17219c0,1077 882,1959 1959,1959l790 0 -4444 6666 2736 0 1237 -1826zm422 -10733l2138 0c347,0 631,284 631,631l0 2138c0,347 -284,631 -631,631l-2138 0c-347,0 -631,-284 -631,-631l0 -2138c0,-347 284,-631 631,-631zm10070 0l2138 0c347,0 631,284 631,631l0 2138c0,347 -284,631 -631,631l-2138 0c-347,0 -631,-284 -631,-631l0 -2138c0,-347 284,-631 631,-631zm-2174 -12254l-3584 0c-207,0 -376,-169 -376,-376l0 -1376c0,-207 169,-376 376,-376l3584 0c206,0 375,169 375,376l0 1376c0,207 -169,376 -375,376z"/>
 </g>
</svg>
