<?xml version="1.0" encoding="UTF-8"?>
<!DOCTYPE svg PUBLIC "-//W3C//DTD SVG 1.1//EN" "http://www.w3.org/Graphics/SVG/1.1/DTD/svg11.dtd">
<!-- Creator: CorelDRAW X7 -->
<svg xmlns="http://www.w3.org/2000/svg" xml:space="preserve" width="210mm" height="196mm" version="1.1" style="shape-rendering:geometricPrecision; text-rendering:geometricPrecision; image-rendering:optimizeQuality; fill-rule:evenodd; clip-rule:evenodd"
viewBox="0 0 21000 19600"
 xmlns:xlink="http://www.w3.org/1999/xlink">
 <defs>
  <style type="text/css">
   <![CDATA[
    .fil0 {fill:black}
   ]]>
  </style>
 </defs>
 <g id="Vrstva_x0020_1">
  <metadata id="CorelCorpID_0Corel-Layer"/>
  <path class="fil0" d="M19197 17957l-17394 0 0 -11828 17394 0 0 11828zm-1039 -3519l-4227 0 0 2636 4227 0 0 -2636zm-5544 0l-4228 0 0 2636 4228 0 0 -2636zm-5545 0l-4227 0 0 2636 4227 0 0 -2636zm11089 -3679l-4227 0 0 2637 4227 0 0 -2637zm-5544 0l-4228 0 0 2637 4228 0 0 -2637zm-5545 0l-4227 0 0 2637 4227 0 0 -2637zm11089 -3678l-4227 0 0 2636 4227 0 0 -2636zm-5544 0l-4228 0 0 2636 4228 0 0 -2636zm-5545 0l-4227 0 0 2636 4227 0 0 -2636zm8778 -2843c559,0 1015,-448 1015,-996l0 -2236c0,-548 -456,-996 -1015,-996 -559,0 -1015,448 -1015,996l0 2236c0,548 456,996 1015,996zm-10604 0c558,0 1016,-448 1016,-996l0 -2236c0,-548 -458,-996 -1016,-996 -558,0 -1015,448 -1015,996l0 2236c0,548 457,996 1015,996zm13712 -2188l-1490 0 0 1088c0,859 -717,1563 -1594,1563 -877,0 -1594,-704 -1594,-1563l0 -1088 -7416 0 0 1088c0,859 -717,1563 -1593,1563 -877,0 -1594,-704 -1594,-1563l0 -1088 -1629 0c-1125,0 -2045,902 -2045,2005l0 13529c0,1103 920,2006 2045,2006l16910 0c1125,0 2045,-903 2045,-2006l0 -13529c0,-1103 -920,-2005 -2045,-2005z"/>
 </g>
</svg>
