<?xml version="1.0" encoding="UTF-8"?>
<!DOCTYPE svg PUBLIC "-//W3C//DTD SVG 1.1//EN" "http://www.w3.org/Graphics/SVG/1.1/DTD/svg11.dtd">
<!-- Creator: CorelDRAW X7 -->
<svg xmlns="http://www.w3.org/2000/svg" xml:space="preserve" width="210mm" height="59.8mm" version="1.1" style="shape-rendering:geometricPrecision; text-rendering:geometricPrecision; image-rendering:optimizeQuality; fill-rule:evenodd; clip-rule:evenodd"
viewBox="0 0 21000 5980"
 xmlns:xlink="http://www.w3.org/1999/xlink">
 <defs>
  <style type="text/css">
   <![CDATA[
    .fil0 {fill:black}
   ]]>
  </style>
 </defs>
 <g id="Vrstva_x0020_1">
  <metadata id="CorelCorpID_0Corel-Layer"/>
  <path class="fil0" d="M2164 1479l-15 1914c0,145 3,317 18,392 15,72 39,133 66,169 30,36 64,63 118,75 51,12 329,46 344,-60 18,-127 21,-265 165,-781 227,-805 525,-1197 664,-1335 24,-21 54,-24 51,15 -6,175 -27,615 -39,989 -39,1000 141,1187 401,1187 199,0 479,-199 781,-699 186,-311 367,-615 500,-835 90,81 193,172 295,271 239,226 317,437 266,642 -42,157 -190,314 -455,160 -76,-48 -112,-81 -187,-133 -43,-27 -106,-36 -145,-6 -100,76 -154,169 -187,287 -30,114 84,175 202,229 102,45 323,87 461,93 549,19 989,-265 1294,-994 54,630 286,985 693,985 268,0 540,-346 660,-690 33,139 82,259 148,362 310,494 916,389 1218,-30 93,-130 108,-178 108,-178 46,395 362,533 546,533 205,0 413,-96 561,-428 18,36 36,70 57,103 311,494 917,386 1218,-33 15,-18 27,-37 39,-52l6 260c0,0 -171,156 -277,256 -467,428 -823,754 -850,1133 -33,483 359,664 654,688 317,24 585,-151 751,-395 144,-214 241,-675 235,-1131l-9 -663c163,-193 347,-434 518,-714 187,-308 383,-721 486,-1044 0,0 175,3 359,-9 60,-6 75,6 63,52 -12,51 -232,898 -30,1465 135,386 446,512 630,512 214,0 419,-162 530,-404 16,28 28,52 43,76 313,494 913,386 1221,-30 66,-97 105,-178 105,-178 66,410 386,536 567,536 190,0 371,-78 515,-422 7,151 16,275 31,314 9,24 63,57 102,69 175,67 353,33 419,21 45,-9 79,-45 85,-141 12,-248 6,-664 81,-971 127,-516 241,-718 298,-817 31,-57 67,-67 70,-6 3,117 6,467 54,937 36,347 85,552 121,615 105,187 235,196 340,196 67,0 205,-21 193,-138 -6,-58 6,-410 130,-923 81,-334 214,-633 265,-744 18,-40 24,-7 24,0 -9,229 -30,979 61,1389 126,555 494,618 621,618 271,0 494,-208 570,-753 24,-127 -4,-229 -85,-229 -63,0 -90,66 -114,171 -82,377 -166,462 -278,462 -123,0 -235,-184 -265,-558 -21,-296 -18,-832 12,-1372 3,-111 -24,-217 -323,-325 -126,-46 -313,-115 -404,108 -259,627 -361,1128 -386,1330 -3,9 -15,12 -18,-12 -15,-163 -48,-459 -54,-1077 0,-123 -24,-226 -160,-307 -87,-58 -349,-154 -443,-36 -81,93 -178,346 -277,648 -79,244 -136,407 -136,407 0,0 3,-657 3,-908 0,-93 -66,-123 -84,-132 -88,-24 -260,-67 -335,-67 -90,0 -111,52 -111,124 0,9 -16,868 -16,1468l0 85c-48,274 -211,648 -388,648 -175,0 -260,-157 -260,-868 0,-420 12,-600 18,-899 3,-175 12,-310 12,-338 -3,-93 -162,-141 -238,-156 -75,-18 -138,-24 -190,-21 -72,3 -123,51 -123,114l0 103c-94,-145 -241,-248 -341,-278 -268,-81 -549,-9 -760,287 -166,232 -268,497 -307,880 -27,277 -18,561 33,799 -60,271 -178,380 -305,380 -183,0 -316,-302 -301,-820 9,-341 78,-579 154,-929 33,-145 6,-223 -58,-298 -60,-67 -186,-103 -370,-61 -130,34 -317,64 -486,91 0,0 12,-42 18,-115 46,-377 -364,-346 -497,-226 -79,73 -130,157 -151,311 -33,241 166,355 166,355 -66,299 -223,685 -389,965 -87,151 -154,263 -241,383l0 -133c-3,-624 6,-1115 9,-1293 3,-175 12,-304 12,-332 -3,-69 -42,-96 -124,-126 -75,-30 -159,-48 -247,-57 -114,-13 -181,48 -181,117l0 97c-93,-145 -241,-248 -340,-278 -269,-78 -549,-9 -757,287 -169,232 -278,560 -311,874 -27,295 -21,543 18,754 -45,211 -165,431 -304,431 -175,0 -277,-157 -277,-872 0,-416 12,-596 21,-898 3,-175 9,-307 9,-338 -3,-90 -163,-138 -235,-156 -79,-18 -145,-24 -196,-21 -70,6 -118,66 -118,111l0 106c-93,-145 -241,-248 -341,-278 -268,-78 -545,-6 -759,287 -136,193 -248,404 -308,874 -15,136 -21,262 -21,380 -54,337 -298,726 -497,726 -115,0 -227,-226 -227,-708 0,-642 40,-1553 46,-1643 0,0 250,-3 301,-6 124,0 238,3 407,-6 82,-3 163,-305 79,-341 -40,-18 -317,-33 -429,-36 -93,0 -349,-18 -349,-18l27 -672c6,-52 -63,-79 -103,-97 -96,-42 -184,-60 -286,-81 -142,-31 -205,0 -217,117 -18,181 -27,712 -27,712 -106,0 -459,-21 -561,-21 -97,0 -202,413 -66,419 153,6 419,9 594,18 0,0 -6,928 -6,1215l0 87c-100,510 -444,781 -444,781 76,-335 -75,-588 -346,-802 -100,-78 -299,-226 -519,-389 0,0 127,-126 241,-380 79,-181 85,-386 -114,-431 -323,-75 -594,163 -673,419 -60,196 -30,344 94,498 6,9 18,21 27,33 -72,142 -175,331 -259,479 -238,410 -416,736 -552,736 -108,0 -108,-329 -108,-639 0,-266 18,-667 36,-1080 6,-138 -64,-217 -178,-286 -70,-42 -217,-127 -305,-127 -129,0 -500,15 -853,1034 -42,130 -130,362 -130,362l7 -1224c0,-27 -16,-54 -49,-75 -60,-30 -217,-97 -362,-97 -66,0 -99,30 -99,94zm-528 1905c15,-383 12,-989 15,-1335 0,-320 7,-1252 -6,-1812 -3,-139 -382,-281 -563,-205 -431,178 -905,687 -1052,1323 -190,811 596,1152 660,1040 75,-132 -142,-178 -184,-597 -57,-539 196,-1145 512,-1411 58,-48 55,19 55,148 0,226 -12,2267 -12,2692 0,576 -25,757 -67,938 -42,184 -111,304 -60,353 60,51 314,-76 458,-278 175,-244 235,-536 244,-856zm7058 0c-102,-331 -69,-781 -27,-1025 63,-362 223,-618 473,-594 254,24 380,353 347,953 -15,289 -72,530 -163,705 -166,320 -488,419 -630,-39zm2490 0c-93,-313 -72,-720 -24,-977 61,-334 205,-642 471,-642 256,0 382,284 346,959 -12,274 -84,546 -160,699 -159,320 -494,419 -633,-39zm4369 0c-79,-250 -82,-669 -27,-1019 57,-356 214,-627 473,-600 256,24 374,353 347,962 -15,298 -82,531 -163,696 -160,320 -492,419 -630,-39zm-4251 1942c57,-323 338,-652 742,-1049l0 307c-3,497 -82,932 -251,1058 -238,181 -557,45 -491,-316z"/>
 </g>
</svg>
