<?xml version="1.0" encoding="UTF-8"?>
<!DOCTYPE svg PUBLIC "-//W3C//DTD SVG 1.1//EN" "http://www.w3.org/Graphics/SVG/1.1/DTD/svg11.dtd">
<!-- Creator: CorelDRAW X7 -->
<svg xmlns="http://www.w3.org/2000/svg" xml:space="preserve" width="210mm" height="167mm" version="1.1" style="shape-rendering:geometricPrecision; text-rendering:geometricPrecision; image-rendering:optimizeQuality; fill-rule:evenodd; clip-rule:evenodd"
viewBox="0 0 21000 16700"
 xmlns:xlink="http://www.w3.org/1999/xlink">
 <defs>
  <style type="text/css">
   <![CDATA[
    .fil0 {fill:black}
   ]]>
  </style>
 </defs>
 <g id="Vrstva_x0020_1">
  <metadata id="CorelCorpID_0Corel-Layer"/>
  <path class="fil0" d="M13980 12594c751,-456 1419,-1020 1994,-1650l0 -3c1170,-1285 1962,-2855 2280,-4401 323,-1564 165,-3107 -570,-4318 -218,-357 -483,-687 -800,-974 -902,-824 -1945,-1217 -3001,-1225 -1097,-8 -2198,398 -3163,1166 -418,333 -763,720 -1031,1144 -684,1073 -891,2395 -670,3768 218,1355 854,2760 1865,4029 733,921 1666,1769 2775,2475 103,65 228,57 321,-11zm-11165 -2494l5353 0c345,0 624,-279 624,-623 0,-343 -279,-622 -624,-622l-5832 0c-308,0 -564,222 -613,516l-1703 6528c-86,332 113,671 445,757 52,13 104,20 156,20l0 1 19757 0c343,0 622,-279 622,-622 0,-68 -10,-133 -31,-195l-1645 -6128c-89,-332 -430,-529 -762,-440 -331,89 -528,429 -439,761l1444 5379 -18143 0 1391 -5332zm10859 -2619c-1346,0 -2437,-1092 -2437,-2438 0,-1345 1091,-2437 2437,-2437 1346,0 2436,1092 2436,2437 0,1346 -1090,2438 -2436,2438z"/>
 </g>
</svg>
