<?xml version="1.0" encoding="UTF-8"?>
<!DOCTYPE svg PUBLIC "-//W3C//DTD SVG 1.1//EN" "http://www.w3.org/Graphics/SVG/1.1/DTD/svg11.dtd">
<!-- Creator: CorelDRAW X7 -->
<svg xmlns="http://www.w3.org/2000/svg" xml:space="preserve" width="210mm" height="42.37mm" version="1.1" style="shape-rendering:geometricPrecision; text-rendering:geometricPrecision; image-rendering:optimizeQuality; fill-rule:evenodd; clip-rule:evenodd"
viewBox="0 0 21000 4237"
 xmlns:xlink="http://www.w3.org/1999/xlink">
 <defs>
  <style type="text/css">
   <![CDATA[
    .fil0 {fill:white;fill-rule:nonzero}
   ]]>
  </style>
 </defs>
 <g id="Vrstva_x0020_1">
  <metadata id="CorelCorpID_0Corel-Layer"/>
  <g id="_2368046199904">
   <g vector-effect="non-scaling-stroke">
    <g>
     <path class="fil0" d="M1714 665c-257,0 -332,113 -332,366l0 418 689 0 -70 678 -619 0 0 2053 -826 0 0 -2053 -556 0 0 -678 556 0 0 -406c0,-682 275,-1043 1043,-1043 160,0 322,8 483,29l0 636 -368 0z" vector-effect="non-scaling-stroke"/>
    </g>
    <g>
     <path class="fil0" d="M2012 2697c0,-763 361,-1338 1119,-1338 412,0 665,213 786,476l0 -416 790 0 0 2728 -790 0 0 -413c-115,265 -374,470 -786,470 -758,0 -1119,-573 -1119,-1336l0 -171zm827 183c0,407 148,678 532,678 338,0 511,-247 511,-637l0 -275c0,-390 -173,-636 -511,-636 -384,0 -532,269 -532,677l0 193z" vector-effect="non-scaling-stroke"/>
    </g>
    <g>
     <path class="fil0" d="M6300 1359c322,0 626,70 792,185l-182 585c-173,-82 -362,-125 -553,-128 -447,0 -640,259 -640,700l0 161c0,443 195,700 640,700 191,0 380,-43 553,-126l182 585c-166,115 -470,183 -792,183 -969,0 -1410,-521 -1410,-1359l0 -127c0,-836 441,-1359 1410,-1359z" vector-effect="non-scaling-stroke"/>
    </g>
    <g>
     <path class="fil0" d="M7082 2886l0 -242c0,-774 441,-1283 1343,-1283 849,0 1221,517 1221,1273l0 437 -1739 0c19,372 185,538 643,538 310,0 636,-62 878,-166l150 566c-217,115 -665,201 -1059,201 -1047,0 -1437,-521 -1437,-1324zm827 -357l998 0 0 -68c0,-297 -121,-535 -482,-535 -372,2 -516,236 -516,603l0 0z" vector-effect="non-scaling-stroke"/>
    </g>
    <g>
     <path class="fil0" d="M12567 2901c0,761 -365,1336 -1123,1336 -412,0 -700,-207 -813,-470l0 413 -780 0 0 -4102 826 -76 0 1825c121,-240 383,-435 767,-435 758,0 1125,573 1125,1336l-2 173zm-825 -191c0,-384 -148,-670 -544,-670 -339,0 -524,241 -524,631l0 287c0,388 185,630 524,630 396,0 544,-287 544,-671l0 -207z" vector-effect="non-scaling-stroke"/>
    </g>
    <g>
     <path class="fil0" d="M12705 2851l0 -137c0,-786 447,-1355 1359,-1355 913,0 1361,569 1361,1355l0 137c0,785 -448,1353 -1359,1353 -914,0 -1361,-568 -1361,-1353zm1892 -195c0,-361 -147,-648 -533,-648 -386,0 -534,287 -534,648l0 253c0,361 150,646 534,646 384,0 533,-285 533,-646l0 -253z" vector-effect="non-scaling-stroke"/>
    </g>
    <g>
     <path class="fil0" d="M15556 2851l0 -137c0,-786 448,-1355 1361,-1355 911,0 1359,569 1359,1355l0 137c0,785 -448,1353 -1359,1353 -913,0 -1361,-568 -1361,-1353zm1893 -195c0,-361 -148,-648 -532,-648 -386,0 -534,287 -534,648l0 253c0,361 148,646 534,646 384,0 532,-285 532,-646l0 -253z" vector-effect="non-scaling-stroke"/>
    </g>
    <g>
     <polygon class="fil0" points="19274,2753 20089,1451 20965,1451 20111,2800 21000,4182 20123,4182 19274,2845 19274,4182 18448,4182 18448,80 19274,6 " vector-effect="non-scaling-stroke"/>
    </g>
   </g>
  </g>
 </g>
</svg>
