<?xml version="1.0" encoding="UTF-8"?>
<!DOCTYPE svg PUBLIC "-//W3C//DTD SVG 1.1//EN" "http://www.w3.org/Graphics/SVG/1.1/DTD/svg11.dtd">
<!-- Creator: CorelDRAW X7 -->
<svg xmlns="http://www.w3.org/2000/svg" xml:space="preserve" width="210mm" height="157.5mm" version="1.1" style="shape-rendering:geometricPrecision; text-rendering:geometricPrecision; image-rendering:optimizeQuality; fill-rule:evenodd; clip-rule:evenodd"
viewBox="0 0 21000 15750"
 xmlns:xlink="http://www.w3.org/1999/xlink">
 <defs>
  <style type="text/css">
   <![CDATA[
    .fil0 {fill:black}
   ]]>
  </style>
 </defs>
 <g id="Vrstva_x0020_1">
  <metadata id="CorelCorpID_0Corel-Layer"/>
  <path class="fil0" d="M1738 5862c-1876,-954 -1661,-2017 224,-1906l422 792 870 -2706c342,-1064 911,-2030 2027,-2030l11125 0c1116,0 1759,947 2029,2029l653 2623 376 -708c1938,-112 2110,1014 59,1986l334 511c1348,1386 1222,3837 1011,7260l0 1391c0,349 -285,634 -634,634l-2705 0c-349,0 -634,-285 -634,-634l0 -776 -12787 0 0 776c0,349 -285,634 -634,634l-2705 0c-349,0 -634,-285 -634,-634l0 -1728c0,-34 3,-66 7,-99 -205,-2627 -494,-6062 1596,-7415l0 0zm3454 4182l-2403 -303c-567,-63 -719,176 -526,665l259 631c84,162 195,280 325,362 152,94 335,140 539,149l2143 17c517,-2 741,-209 579,-684 -133,-446 -438,-726 -916,-837l0 0zm4101 -1010l2461 0c146,0 265,119 265,265l0 0c0,145 -119,264 -265,264l-2461 0c-145,0 -264,-119 -264,-264l0 0c-2,-146 117,-265 264,-265l0 0zm6081 3479l2461 0c145,0 265,120 265,265l0 0c0,145 -120,265 -265,265l-2461 0c-145,0 -265,-120 -265,-265l0 0c0,-145 118,-265 265,-265l0 0zm434 -2469l2403 -303c567,-63 719,176 526,665l-259 631c-84,162 -195,280 -325,362 -152,94 -335,140 -538,149l-2144 17c-517,-2 -741,-209 -579,-684 133,-446 438,-726 916,-837l0 0zm-12662 2469l2461 0c145,0 265,120 265,265l0 0c0,145 -120,265 -265,265l-2461 0c-145,0 -265,-120 -265,-265l0 0c0,-145 120,-265 265,-265l0 0zm140 -7169l14838 0 -655 -2721c-179,-829 -695,-1546 -1546,-1546l-10273 0c-849,0 -1285,736 -1547,1546l-817 2721 0 128 0 -128 0 0z"/>
 </g>
</svg>
