<?xml version="1.0" encoding="UTF-8"?>
<!DOCTYPE svg PUBLIC "-//W3C//DTD SVG 1.1//EN" "http://www.w3.org/Graphics/SVG/1.1/DTD/svg11.dtd">
<!-- Creator: CorelDRAW X7 -->
<svg xmlns="http://www.w3.org/2000/svg" xml:space="preserve" width="70mm" height="21mm" version="1.1" style="shape-rendering:geometricPrecision; text-rendering:geometricPrecision; image-rendering:optimizeQuality; fill-rule:evenodd; clip-rule:evenodd"
viewBox="0 0 7000 2100"
 xmlns:xlink="http://www.w3.org/1999/xlink">
 <defs>
  <style type="text/css">
   <![CDATA[
    .str0 {stroke:white}
    .fil0 {fill:white;fill-rule:nonzero}
   ]]>
  </style>
 </defs>
 <g id="Vrstva_x0020_1">
  <metadata id="CorelCorpID_0Corel-Layer"/>
  <g id="_2368041749536">
   <path class="fil0 str0" d="M376 69c-143,59 -300,228 -349,439 -63,269 198,382 219,345 25,-44 -47,-59 -61,-198 -19,-179 65,-380 170,-468 19,-16 18,6 18,49 0,75 -4,752 -4,893 0,191 -8,251 -22,311 -14,61 -37,101 -20,117 20,17 104,-25 152,-92 58,-81 78,-178 81,-284 5,-127 4,-328 5,-443 0,-106 2,-415 -2,-601 -1,-46 -127,-93 -187,-68l0 0 0 0zm5063 894c-5,99 -27,176 -54,231 -53,106 -163,139 -209,-13 -26,-83 -27,-222 -9,-338 19,-118 71,-208 157,-199 85,8 124,117 115,319l0 0 0 0zm-1427 616c-1,165 -27,309 -83,351 -79,60 -185,15 -163,-105 19,-107 112,-216 246,-348 0,0 0,30 0,102l0 0 0 0zm-22 -617c-4,91 -28,181 -53,232 -53,106 -164,139 -210,-13 -31,-104 -24,-239 -8,-324 20,-111 68,-213 156,-213 85,0 127,94 115,318l0 0 0 0zm-826 -2c-5,96 -24,176 -54,234 -55,106 -162,139 -209,-13 -34,-110 -23,-259 -9,-340 21,-120 74,-205 157,-197 84,8 126,117 115,316l0 0 0 0zm3788 112c-21,0 -30,22 -38,57 -27,125 -55,153 -92,153 -41,0 -78,-61 -88,-185 -7,-98 -6,-276 4,-455 1,-37 -8,-72 -107,-108 -42,-15 -104,-38 -134,36 -86,208 -120,374 -128,441 -1,3 -5,4 -6,-4 -5,-54 -16,-152 -18,-357 0,-41 -8,-75 -53,-102 -29,-19 -116,-51 -147,-12 -27,31 -59,115 -92,215 -26,81 -45,135 -45,135 0,0 1,-218 1,-301 0,-31 -22,-41 -28,-44 -29,-8 -86,-22 -111,-22 -30,0 -37,17 -37,41 0,3 -5,288 -5,487 0,8 0,18 0,28 -16,91 -70,215 -129,215 -58,0 -86,-52 -86,-288 0,-139 4,-199 6,-298 1,-58 4,-103 4,-112 -1,-31 -54,-47 -79,-52 -25,-6 -46,-8 -63,-7 -24,1 -41,17 -41,38 0,12 0,34 0,34 -31,-48 -80,-82 -113,-92 -89,-27 -182,-3 -252,95 -55,77 -89,165 -102,292 -9,92 -6,186 11,265 -20,90 -59,126 -101,126 -61,0 -105,-100 -100,-272 3,-113 26,-192 51,-308 11,-48 2,-74 -19,-99 -20,-22 -62,-34 -123,-20 -43,11 -105,21 -161,30 0,0 4,-14 6,-38 15,-125 -121,-115 -165,-75 -26,24 -43,52 -50,103 -11,80 55,118 55,118 -22,99 -74,227 -129,320 -29,50 -51,87 -80,127 0,-15 0,-30 0,-44 -1,-207 2,-370 3,-429 1,-58 4,-101 4,-110 -1,-23 -14,-32 -41,-42 -25,-10 -53,-16 -82,-19 -38,-4 -60,16 -60,39 0,5 0,32 0,32 -31,-48 -80,-82 -113,-92 -89,-26 -182,-3 -251,95 -56,77 -92,186 -103,290 -9,98 -7,180 6,250 -15,70 -55,143 -101,143 -58,0 -92,-52 -92,-289 0,-138 4,-198 7,-298 1,-58 3,-102 3,-112 -1,-30 -54,-46 -78,-52 -26,-6 -48,-8 -65,-7 -23,2 -39,22 -39,37l0 35c-31,-48 -80,-82 -113,-92 -89,-26 -181,-2 -252,95 -45,64 -82,134 -102,290 -5,45 -7,87 -7,126 -18,112 -99,241 -165,241 -38,0 -75,-75 -75,-235 0,-213 13,-515 15,-545 0,0 83,-1 100,-2 41,0 79,1 135,-2 27,-1 54,-101 26,-113 -13,-6 -105,-11 -142,-12 -31,0 -116,-6 -116,-6 0,0 8,-202 9,-223 2,-17 -21,-26 -34,-32 -32,-14 -61,-20 -95,-27 -47,-10 -68,0 -72,39 -6,60 -9,236 -9,236 -35,0 -152,-7 -186,-7 -32,0 -67,137 -22,139 51,2 139,3 197,6 0,0 -2,308 -2,403 0,10 0,20 0,29 -33,169 -147,259 -147,259 25,-111 -25,-195 -115,-266 -33,-26 -99,-75 -172,-129 0,0 42,-42 80,-126 26,-60 28,-128 -38,-143 -107,-25 -197,54 -223,139 -20,65 -10,114 31,165 2,3 6,7 9,11 -24,47 -58,110 -86,159 -79,136 -138,244 -183,244 -36,0 -36,-109 -36,-212 0,-88 6,-221 12,-358 2,-46 -21,-72 -59,-95 -23,-14 -72,-42 -101,-42 -43,0 -166,5 -283,343 -14,43 -43,120 -43,120l2 -406c0,-9 -5,-18 -16,-25 -20,-10 -72,-32 -120,-32 -22,0 -33,10 -33,31l-5 635c0,48 1,105 6,130 5,24 13,44 22,56 10,12 21,21 39,25 17,4 109,15 114,-20 6,-42 7,-88 55,-259 75,-267 174,-397 220,-443 8,-7 18,-8 17,5 -2,58 -9,204 -13,328 -13,332 47,394 133,394 66,0 159,-66 259,-232 62,-103 122,-204 166,-277 30,27 64,57 98,90 79,75 105,145 88,213 -14,52 -63,104 -151,53 -25,-16 -37,-27 -62,-44 -14,-9 -35,-12 -48,-2 -33,25 -51,56 -62,95 -10,38 28,58 67,76 34,15 107,29 153,31 182,6 328,-88 429,-330 18,209 95,327 230,327 89,0 179,-115 219,-229 11,46 27,86 49,120 103,164 304,129 404,-10 31,-43 36,-59 36,-59 15,131 120,177 181,177 68,0 137,-32 186,-142 6,12 12,23 19,34 103,164 304,128 404,-11 5,-6 9,-12 13,-17l2 86c0,0 -57,52 -92,85 -155,142 -273,250 -282,376 -11,160 119,220 217,228 105,8 194,-50 249,-131 48,-71 80,-224 78,-375 -1,-61 -2,-137 -3,-220 54,-64 115,-144 172,-237 62,-102 127,-239 161,-346 0,0 58,1 119,-3 20,-2 25,2 21,17 -4,17 -77,298 -10,486 45,128 148,170 209,170 71,0 139,-54 176,-134 5,9 9,17 14,25 104,164 303,128 405,-10 22,-32 35,-59 35,-59 22,136 128,178 188,178 63,0 123,-26 171,-140 2,50 5,91 10,104 3,8 21,19 34,23 58,22 117,11 139,7 15,-3 26,-15 28,-47 4,-82 2,-220 27,-322 42,-171 80,-238 99,-271 10,-19 22,-22 23,-2 1,39 2,155 18,311 12,115 28,183 40,204 35,62 78,65 113,65 22,0 68,-7 64,-46 -2,-19 2,-136 43,-306 27,-111 71,-210 88,-247 6,-13 8,-2 8,0 -3,76 -10,325 20,461 42,184 164,205 206,205 90,0 164,-69 189,-250 8,-42 -1,-76 -28,-76l0 0 0 0zm0 0l0 0 0 0 0 0z" vector-effect="non-scaling-stroke"/>
  </g>
 </g>
</svg>
