<?xml version="1.0" encoding="UTF-8"?>
<!DOCTYPE svg PUBLIC "-//W3C//DTD SVG 1.1//EN" "http://www.w3.org/Graphics/SVG/1.1/DTD/svg11.dtd">
<!-- Creator: CorelDRAW X7 -->
<svg xmlns="http://www.w3.org/2000/svg" xml:space="preserve" width="200mm" height="150mm" version="1.1" style="shape-rendering:geometricPrecision; text-rendering:geometricPrecision; image-rendering:optimizeQuality; fill-rule:evenodd; clip-rule:evenodd"
viewBox="0 0 20000 15000"
 xmlns:xlink="http://www.w3.org/1999/xlink">
 <defs>
  <style type="text/css">
   <![CDATA[
    .fil0 {fill:black}
   ]]>
  </style>
 </defs>
 <g id="Vrstva_x0020_1">
  <metadata id="CorelCorpID_0Corel-Layer"/>
  <path class="fil0" d="M14749 9750c-499,547 -1079,1036 -1730,1432 -81,59 -189,66 -279,9 -962,-612 -1771,-1348 -2407,-2147 -877,-1101 -1429,-2320 -1618,-3495 -192,-1191 -12,-2338 581,-3269 233,-368 532,-704 895,-993 837,-666 1792,-1018 2744,-1011 916,7 1821,348 2603,1063 275,249 505,535 694,845 638,1050 775,2389 495,3746 -276,1341 -963,2703 -1978,3818l0 2 0 0zm-6772 -1812c299,0 541,242 541,540 0,298 -242,540 -541,540l-4644 0 -1207 4626 15740 0 -1253 -4667c-77,-288 94,-583 381,-660 288,-77 584,94 661,382l1427 5316c18,54 27,110 27,169 0,298 -242,540 -540,540l-17140 0 0 -1c-45,0 -90,-6 -135,-17 -288,-75 -461,-369 -386,-657l1477 -5663c43,-255 265,-448 532,-448l5060 0zm4776 -5421c1168,0 2114,947 2114,2114 0,1168 -946,2115 -2114,2115 -1167,0 -2114,-947 -2114,-2115 0,-1167 947,-2114 2114,-2114z"/>
 </g>
 <g id="Vrstva_x0020_2" visibility="hidden">
  <metadata id="CorelCorpID_1Corel-Layer"/>
  <path class="fil0" d="M16427 13528l-12854 0 0 -8741 12854 0 0 8741zm-768 -2601l-3124 0 0 1948 3124 0 0 -1948zm-4097 0l-3124 0 0 1948 3124 0 0 -1948zm-4097 0l-3124 0 0 1948 3124 0 0 -1948zm8194 -2718l-3124 0 0 1948 3124 0 0 -1948zm-4097 0l-3124 0 0 1948 3124 0 0 -1948zm-4097 0l-3124 0 0 1948 3124 0 0 -1948zm8194 -2718l-3124 0 0 1948 3124 0 0 -1948zm-4097 0l-3124 0 0 1948 3124 0 0 -1948zm-4097 0l-3124 0 0 1948 3124 0 0 -1948zm6486 -2101c413,0 750,-331 750,-736l0 -1652c0,-405 -337,-736 -750,-736 -413,0 -750,331 -750,736l0 1652c0,405 337,736 750,736zm-7836 0c413,0 751,-331 751,-736l0 -1652c0,-405 -338,-736 -751,-736 -412,0 -750,331 -750,736l0 1652c0,405 338,736 750,736zm10133 -1617l-1101 0 0 804c0,635 -530,1155 -1178,1155 -648,0 -1178,-520 -1178,-1155l0 -804 -5480 0 0 804c0,635 -530,1155 -1177,1155 -648,0 -1178,-520 -1178,-1155l0 -804 -1204 0c-831,0 -1511,667 -1511,1482l0 9997c0,815 680,1482 1511,1482l12496 0c831,0 1511,-667 1511,-1482l0 -9997c0,-815 -680,-1482 -1511,-1482z"/>
  <path class="fil0" d="M10375 7473c209,0 379,170 379,380 0,209 -170,379 -379,379 -209,0 -379,-170 -379,-379 0,-210 170,-380 379,-380zm-55 -4449c-325,0 -588,263 -588,587l0 3362 0 0c-270,198 -446,518 -446,880 0,601 487,1089 1089,1089 56,0 111,-4 165,-13l0 0 1451 1452c115,115 266,172 416,172 150,0 301,-57 415,-172 230,-229 230,-601 0,-831l-1399 -1399 0 0c27,-95 41,-195 41,-298 0,-409 -224,-764 -556,-951l0 -3291c0,-324 -264,-587 -588,-587zm1 -2747c-13,0 -26,0 -39,1l-614 41c-18,1 -36,3 -54,6l-608 98c-18,2 -36,6 -53,11l-596 153c-18,5 -35,10 -53,16l-579 208c-17,6 -34,13 -50,21l-558 260c-16,8 -32,17 -48,26l-531 311c-16,9 -31,19 -46,30l-499 359c-15,10 -29,22 -43,34l-465 403c-13,12 -27,25 -39,38l-425 445c-13,13 -25,27 -36,41l-382 483c-11,14 -22,29 -32,44l-335 516c-10,15 -19,31 -28,47l-286 545c-9,16 -16,32 -23,49l-235 569c-7,17 -13,34 -19,52l-181 588c-5,17 -9,35 -13,53l-126 602c-4,18 -6,36 -8,54l-70 611c-2,19 -3,37 -3,55l-13 615c0,18 0,37 2,55l44 613c1,19 4,37 7,55l101 607c3,18 7,35 11,53l158 595c4,18 10,35 16,52l211 578c7,17 14,34 21,50l265 556c7,17 16,33 25,48l315 529c9,16 19,31 30,46l362 497c11,15 22,29 34,43l407 462c12,13 25,27 38,39l448 422c12,12 25,23 38,34l423 334c13,10 25,19 39,28l448 299c13,9 27,17 41,25l471 261c14,8 29,15 43,22l491 222c15,7 29,13 44,18l508 182c15,5 30,10 45,14l521 140c15,5 31,8 46,11l531 97c15,3 31,5 47,7l536 54c16,2 32,3 48,3l539 10c3,0 7,0 11,0 12,0 24,0 36,-1l538 -33c16,-1 32,-3 48,-5l533 -77c16,-3 32,-5 47,-9l526 -120c15,-4 31,-8 46,-13l514 -162c15,-5 30,-10 45,-16l499 -204c15,-6 29,-12 43,-19l481 -244c15,-7 29,-15 42,-23l460 -281c13,-9 27,-18 39,-27l436 -318c13,-9 25,-19 37,-30l408 -352c12,-10 24,-21 35,-32l378 -385c11,-11 22,-23 32,-35l346 -414c10,-12 20,-24 29,-37l311 -441c187,-265 124,-632 -141,-819 -103,-73 -221,-108 -338,-108 -185,0 -366,87 -481,249l-297 421 -315 377 -345 350 -372 321 -396 290 -419 256 -439 222 -455 185 -468 148 -479 110 -486 70 -491 30 -491 -9 -489 -49 -483 -89 -474 -128 -463 -165 -447 -203 -430 -238 -409 -273 -384 -303 -409 -386 -371 -421 -330 -454 -286 -482 -241 -507 -193 -526 -143 -543 -92 -553 -41 -559 11 -561 63 -558 115 -549 165 -536 214 -518 261 -497 306 -470 348 -440 387 -405 424 -368 455 -328 484 -283 508 -238 528 -189 543 -140 554 -89 560 -37 560 15 557 66 549 118 535 169 517 217 495 264 468 309 438 351 319 308 -400 -75c-36,-6 -72,-10 -108,-10 -276,0 -522,197 -575,478 -59,318 150,624 468,684l1884 352c36,7 72,10 108,10 134,0 264,-46 370,-131 133,-109 212,-271 215,-443l36 -1864c6,-323 -251,-590 -574,-596 -4,0 -8,-1 -12,-1 -318,0 -579,255 -585,575l-4 182 -345 -333c-13,-13 -27,-25 -41,-36l-480 -386c-14,-11 -29,-22 -44,-32l-514 -338c-15,-10 -31,-20 -47,-28l-543 -290c-16,-9 -32,-16 -49,-23l-567 -239c-17,-7 -34,-13 -52,-19l-587 -184c-17,-6 -35,-10 -52,-14l-602 -130c-18,-3 -36,-6 -54,-9l-611 -73c-18,-2 -36,-3 -54,-4l-616 -16c-5,0 -10,0 -15,0z"/>
 </g>
</svg>
