<?xml version="1.0" encoding="UTF-8"?>
<!DOCTYPE svg PUBLIC "-//W3C//DTD SVG 1.1//EN" "http://www.w3.org/Graphics/SVG/1.1/DTD/svg11.dtd">
<!-- Creator: CorelDRAW X7 -->
<svg xmlns="http://www.w3.org/2000/svg" xml:space="preserve" width="210mm" height="158mm" version="1.1" style="shape-rendering:geometricPrecision; text-rendering:geometricPrecision; image-rendering:optimizeQuality; fill-rule:evenodd; clip-rule:evenodd"
viewBox="0 0 21000 15800"
 xmlns:xlink="http://www.w3.org/1999/xlink">
 <defs>
  <style type="text/css">
   <![CDATA[
    .fil0 {fill:black}
   ]]>
  </style>
 </defs>
 <g id="Vrstva_x0020_1">
  <metadata id="CorelCorpID_0Corel-Layer"/>
  <path class="fil0" d="M1962 3981c-1885,-111 -2100,952 -224,1906 -2090,1353 -1801,4788 -1596,7415 -4,33 -7,65 -7,99l0 1728c0,349 285,634 634,634l2705 0c349,0 634,-285 634,-634l0 -776 12787 0 0 776c0,349 285,634 634,634l2705 0c349,0 634,-285 634,-634l0 -1391c211,-3423 337,-5874 -1011,-7260l-334 -511c2051,-972 1879,-2098 -59,-1986l-376 708 -653 -2623c-270,-1082 -913,-2029 -2029,-2029l-11125 0c-1116,0 -1685,966 -2027,2030l-870 2706 -422 -792zm827 5785l2403 303c478,111 783,391 916,837 162,475 -62,682 -579,684l-2143 -17c-204,-9 -387,-55 -539,-149 -130,-82 -241,-200 -325,-362l-259 -631c-193,-489 -41,-728 526,-665zm6504 -707l2461 0c146,0 265,119 265,265 0,145 -119,264 -265,264l-2461 0c-145,0 -264,-119 -264,-264 -2,-146 117,-265 264,-265zm5599 1847c133,-446 438,-726 916,-837l2403 -303c567,-63 719,176 526,665l-259 631c-84,162 -195,280 -325,362 -152,94 -335,140 -538,149l-2144 17c-517,-2 -741,-209 -579,-684zm482 1632l2461 0c145,0 265,120 265,265 0,145 -120,265 -265,265l-2461 0c-145,0 -265,-120 -265,-265 0,-145 118,-265 265,-265zm-12228 0l2461 0c145,0 265,120 265,265 0,145 -120,265 -265,265l-2461 0c-145,0 -265,-120 -265,-265 0,-145 120,-265 265,-265zm14978 -7169l-14838 0 817 -2721c262,-810 698,-1546 1547,-1546l10273 0c851,0 1367,717 1546,1546l655 2721z"/>
 </g>
</svg>
