<?xml version="1.0" encoding="UTF-8"?>
<!DOCTYPE svg PUBLIC "-//W3C//DTD SVG 1.1//EN" "http://www.w3.org/Graphics/SVG/1.1/DTD/svg11.dtd">
<!-- Creator: CorelDRAW X8 -->
<svg xmlns="http://www.w3.org/2000/svg" xml:space="preserve" width="210mm" height="199.172mm" version="1.1" style="shape-rendering:geometricPrecision; text-rendering:geometricPrecision; image-rendering:optimizeQuality; fill-rule:evenodd; clip-rule:evenodd"
viewBox="0 0 21000 19917"
 xmlns:xlink="http://www.w3.org/1999/xlink">
 <defs>
  <style type="text/css">
   <![CDATA[
    .fil1 {fill:black;fill-rule:nonzero}
    .fil0 {fill:#30FF00;fill-rule:nonzero}
   ]]>
  </style>
 </defs>
 <g id="Vrstva_x0020_1">
  <metadata id="CorelCorpID_0Corel-Layer"/>
  <g id="_1718097437248">
   <path class="fil0" d="M13225 5574c0,1047 -133,1935 -408,2680 -271,742 -662,1345 -1172,1816 -510,470 -1132,812 -1864,1034 -728,217 -1598,328 -2605,328l-2716 0c-195,0 -359,-58 -488,-169 -133,-115 -200,-301 -200,-559l0 -9923c0,-257 67,-444 200,-555 129,-115 293,-173 488,-173l2916 0c1016,0 1877,120 2583,360 705,235 1300,586 1784,1052 483,465 852,1042 1105,1726 253,688 377,1482 377,2383zm-2397 84c0,-541 -62,-1038 -186,-1504 -129,-462 -328,-861 -608,-1203 -280,-337 -635,-603 -1069,-794 -440,-187 -1008,-284 -1722,-284l-1168 0 0 7722 1208 0c630,0 1167,-80 1597,-244 431,-165 795,-413 1087,-742 289,-332 502,-741 648,-1233 142,-493 213,-1065 213,-1718zm7576 2610c0,519 -49,985 -142,1398 -102,408 -262,763 -497,1051 -231,293 -533,515 -910,666 -373,155 -839,231 -1393,231 -174,0 -347,-13 -520,-40 -173,-27 -333,-62 -475,-102 -146,-40 -270,-84 -377,-133 -102,-45 -173,-85 -208,-124 -36,-40 -67,-80 -89,-120 -27,-40 -44,-93 -62,-165 -18,-66 -27,-150 -36,-252 -4,-98 -9,-222 -9,-378 0,-195 5,-368 14,-506 9,-137 22,-248 44,-324 22,-79 49,-137 89,-168 35,-31 84,-49 146,-49 49,0 111,18 182,58 71,40 151,80 240,124 89,40 191,80 306,120 115,40 253,57 413,57 160,0 297,-17 421,-66 120,-44 218,-120 298,-226 80,-107 142,-253 177,-440 45,-177 67,-413 67,-701l0 -7828c0,-58 18,-107 58,-151 35,-49 97,-85 181,-111 85,-31 205,-53 356,-67 155,-18 341,-22 563,-22 222,0 408,4 555,22 151,14 266,36 355,67 93,26 155,62 195,111 40,44 58,93 58,151l0 7917z"/>
   <path class="fil1" d="M4118 17956c0,31 -9,57 -26,84 -18,27 -49,44 -98,58 -49,17 -115,26 -200,35 -79,9 -190,13 -324,13 -133,0 -244,-4 -328,-8 -84,-9 -155,-18 -209,-31 -53,-18 -97,-40 -128,-67 -31,-22 -58,-58 -80,-102l-1474 -2339 0 2348c0,35 -13,62 -31,89 -17,26 -53,44 -102,62 -48,13 -111,26 -190,35 -80,9 -182,13 -302,13 -125,0 -227,-4 -306,-13 -76,-9 -142,-22 -191,-35 -49,-18 -80,-36 -102,-62 -18,-27 -27,-54 -27,-89l0 -6537c0,-36 9,-62 27,-89 22,-27 53,-49 102,-67 49,-17 115,-31 191,-44 79,-9 181,-13 306,-13 120,0 222,4 302,13 79,13 142,27 190,44 49,18 85,40 102,67 18,27 31,53 31,89l0 3892 1310 -1766c31,-40 57,-71 93,-103 31,-31 75,-53 129,-71 53,-13 124,-31 204,-35 80,-9 186,-13 310,-13 120,0 227,4 311,13 84,4 151,22 204,35 49,18 84,36 102,63 22,26 31,57 31,93 0,49 -9,102 -35,160 -27,53 -62,115 -111,177l-1296 1473 1504 2321c36,67 67,125 85,174 17,44 26,88 26,133zm4416 9c0,44 -18,79 -49,106 -35,27 -89,49 -160,58 -71,13 -173,17 -315,17 -151,0 -257,-4 -324,-17 -71,-9 -119,-31 -146,-58 -27,-27 -40,-62 -40,-106l0 -356c-186,196 -391,347 -626,458 -231,106 -492,159 -776,159 -236,0 -453,-26 -648,-88 -196,-63 -369,-156 -511,-276 -146,-119 -257,-270 -337,-448 -80,-182 -120,-390 -120,-626 0,-261 54,-483 151,-674 102,-191 253,-346 453,-470 204,-125 448,-218 750,-276 297,-62 639,-93 1034,-93l435 0 0 -266c0,-138 -14,-262 -45,-368 -26,-103 -75,-191 -137,-258 -67,-71 -151,-120 -258,-155 -106,-31 -244,-49 -399,-49 -209,0 -395,22 -559,67 -164,48 -306,102 -435,155 -124,58 -231,111 -315,155 -85,45 -151,71 -204,71 -40,0 -71,-13 -98,-35 -27,-22 -53,-58 -71,-102 -18,-40 -31,-94 -40,-156 -9,-66 -18,-133 -18,-208 0,-102 9,-187 27,-244 18,-58 49,-111 93,-160 49,-49 129,-102 244,-160 116,-58 253,-111 409,-160 155,-53 323,-93 510,-124 182,-31 373,-44 568,-44 346,0 643,31 892,97 244,71 448,173 608,315 160,142 275,324 351,546 71,222 106,484 106,790l0 2983zm-1229 -1904l-480 0c-199,0 -372,13 -514,44 -142,31 -258,75 -346,138 -94,57 -156,128 -196,213 -44,84 -62,182 -62,288 0,186 58,333 173,439 120,107 280,160 488,160 178,0 338,-44 484,-133 151,-93 297,-222 453,-395l0 -754zm5325 -2135c0,120 0,218 -9,293 -4,75 -17,138 -26,177 -14,45 -36,76 -54,89 -22,18 -48,27 -84,27 -27,0 -58,-5 -89,-18 -31,-13 -71,-22 -111,-40 -44,-13 -88,-22 -137,-35 -49,-14 -107,-18 -164,-18 -71,0 -138,13 -209,44 -71,27 -142,71 -217,133 -76,58 -151,138 -236,236 -79,102 -168,222 -261,368l0 2765c0,35 -9,62 -27,89 -22,26 -53,44 -102,62 -49,13 -116,26 -191,35 -80,9 -182,13 -306,13 -120,0 -222,-4 -302,-13 -80,-9 -142,-22 -191,-35 -49,-18 -84,-36 -102,-62 -18,-27 -31,-54 -31,-89l0 -4434c0,-35 9,-62 27,-88 17,-27 44,-45 88,-63 45,-13 98,-31 165,-35 71,-9 155,-13 257,-13 107,0 195,4 262,13 71,4 124,22 164,35 36,18 67,36 80,63 18,26 27,53 27,88l0 551c115,-165 226,-302 328,-409 102,-106 200,-190 293,-257 93,-62 186,-107 279,-129 94,-26 187,-35 280,-35 40,0 89,0 138,4 48,5 102,14 155,27 53,9 98,26 138,40 39,13 71,26 88,44 18,18 31,36 40,58 9,18 14,44 22,80 5,35 9,88 14,155 4,71 4,164 4,284zm3395 3586c0,146 -9,257 -26,337 -18,76 -45,133 -71,164 -32,31 -76,58 -134,85 -57,22 -128,44 -204,62 -75,18 -160,31 -253,44 -93,9 -182,13 -275,13 -248,0 -466,-31 -648,-93 -182,-62 -333,-159 -452,-293 -120,-128 -209,-293 -262,-492 -58,-200 -85,-435 -85,-706l0 -2272 -537 0c-66,0 -115,-40 -146,-115 -36,-80 -49,-209 -49,-395 0,-94 0,-178 9,-244 9,-67 22,-116 40,-156 13,-40 35,-66 62,-84 27,-13 53,-22 89,-22l532 0 0 -994c0,-31 9,-63 27,-89 18,-27 53,-49 98,-67 48,-17 115,-31 195,-40 84,-9 182,-13 302,-13 124,0 226,4 306,13 80,9 146,23 195,40 45,18 80,40 98,67 18,26 31,58 31,89l0 994 958 0c36,0 67,9 89,22 27,18 45,44 62,84 18,40 31,89 36,156 9,66 13,150 13,244 0,186 -18,315 -49,395 -35,75 -80,115 -142,115l-967 0 0 2081c0,244 35,426 111,546 80,120 213,182 408,182 67,0 124,-4 178,-18 53,-13 102,-26 142,-40 40,-13 75,-26 106,-39 27,-14 53,-18 76,-18 17,0 40,4 57,18 18,13 31,35 40,71 9,31 22,79 27,142 9,57 13,133 13,226zm3466 603l-537 1567c-31,84 -111,142 -244,182 -133,35 -324,53 -581,53 -129,0 -236,-4 -315,-18 -80,-8 -138,-31 -182,-57 -36,-27 -58,-58 -62,-98 -5,-40 4,-89 31,-142l590 -1487c-45,-17 -84,-48 -116,-88 -35,-45 -62,-89 -79,-133l-1523 -4079c-40,-115 -62,-204 -62,-266 0,-62 18,-107 58,-142 40,-36 106,-58 200,-76 97,-13 222,-17 377,-17 142,0 253,0 333,4 84,9 151,22 195,40 44,18 80,49 102,93 27,40 49,98 71,178l1043 2964 18 0 945 -3026c18,-85 44,-142 75,-173 31,-27 85,-45 160,-63 71,-13 200,-17 382,-17 142,0 262,4 355,17 97,18 164,40 213,76 40,35 62,84 62,146 0,62 -9,133 -35,218l-1474 4344z"/>
  </g>
 </g>
</svg>
