<?xml version="1.0" encoding="UTF-8"?>
<!DOCTYPE svg PUBLIC "-//W3C//DTD SVG 1.1//EN" "http://www.w3.org/Graphics/SVG/1.1/DTD/svg11.dtd">
<!-- Creator: CorelDRAW X7 -->
<svg xmlns="http://www.w3.org/2000/svg" xml:space="preserve" width="210mm" height="225mm" version="1.1" style="shape-rendering:geometricPrecision; text-rendering:geometricPrecision; image-rendering:optimizeQuality; fill-rule:evenodd; clip-rule:evenodd"
viewBox="0 0 21000 22500"
 xmlns:xlink="http://www.w3.org/1999/xlink">
 <defs>
  <style type="text/css">
   <![CDATA[
    .str0 {stroke:#04013A;stroke-width:280.17}
    .fil1 {fill:#04013A}
    .fil4 {fill:#D9DADA}
    .fil0 {fill:#FEFEFE}
    .fil2 {fill:#04013A;fill-rule:nonzero}
    .fil8 {fill:#1B4581;fill-rule:nonzero}
    .fil10 {fill:#1F4992;fill-rule:nonzero}
    .fil7 {fill:#E22424;fill-rule:nonzero}
    .fil9 {fill:#E42D24;fill-rule:nonzero}
    .fil3 {fill:#FEFEFE;fill-rule:nonzero}
    .fil5 {fill:url(#id0)}
    .fil6 {fill:url(#id1)}
   ]]>
  </style>
  <linearGradient id="id0" gradientUnits="userSpaceOnUse" x1="10498" y1="16148" x2="10498" y2="12550">
   <stop offset="0" style="stop-opacity:1; stop-color:#727271"/>
   <stop offset="1" style="stop-opacity:1; stop-color:#D9DADA"/>
  </linearGradient>
  <linearGradient id="id1" gradientUnits="userSpaceOnUse" xlink:href="#id0" x1="10498" y1="19688" x2="10498" y2="17596.5">
  </linearGradient>
 </defs>
 <g id="Vrstva_x0020_1">
  <metadata id="CorelCorpID_0Corel-Layer"/>
  <g id="_2118933106912">
   <path class="fil0 str0" d="M14386 1444l5545 1495 -1259 3727 761 119 0 571 226 36 0 1849 12 14c185,228 369,454 556,679l331 401 0 520c0,814 0,1630 0,2446 0,814 0,1628 0,2442l0 709 -9 8 0 474c0,173 0,348 0,521l0 1735c0,175 0,347 0,522l0 1894c-1875,-701 -4837,-1195 -8264,-1324l-1785 1785 -1785 -1785c-3427,129 -6391,623 -8266,1324l0 -3524 -7 2 0 -1777c0,-1003 0,-2005 0,-3008 0,-1003 0,-2007 0,-3010l0 -1169 899 -191 0 -1525 216 -36 2 -621 757 -117 -1247 -3691 5545 -1495c-4,-147 -8,-294 -12,-441l-13 -570 567 0c1116,0 2230,0 3344,0 1114,0 2228,0 3344,0l567 0 -13 570c-4,147 -8,294 -12,441z"/>
   <path class="fil1" d="M1005 20768c0,-3693 -10,-7382 -10,-11085l705 -146c66,-14 131,-28 195,-42l0 -1503c453,-74 905,-141 1358,-201l-1469 -4354 4961 -1338 120 3903 43 1420 381 -310 -133 -6010c1114,0 2230,0 3344,0 1114,0 2228,0 3344,0l-133 6010 383 306 41 -1416c42,-1300 82,-2601 122,-3903l4959 1338 -1467 4344c453,62 903,127 1356,201l0 1570 135 167c185,229 371,457 560,683l205 246 0 322c0,3318 -12,6491 -12,9798 -1922,-613 -4730,-1036 -7924,-1141l-1569 1566 -1569 -1566c-3196,105 -6004,528 -7926,1141z"/>
   <path class="fil2" d="M3745 17040c0,377 0,754 0,1129 -87,104 -172,205 -260,308 -317,58 -633,121 -951,187 0,375 0,752 0,1130 -174,37 -345,77 -518,115 0,-926 0,-1851 0,-2778 488,-111 979,-212 1469,-304 88,72 173,145 260,213zm-518 357c-230,44 -462,91 -693,139 0,203 0,405 0,608 231,-48 463,-96 693,-139 0,-203 0,-405 0,-608zm1994 1420c-253,31 -503,67 -753,103 -42,181 -83,361 -125,542 -179,28 -357,58 -536,87 260,-969 518,-1937 778,-2902 173,-26 344,-50 518,-74 259,896 519,1789 777,2686 -165,18 -328,38 -493,58 -55,-167 -111,-336 -166,-500zm-145 -503c-78,-260 -155,-520 -231,-778 -77,280 -155,562 -232,844 153,-24 308,-44 463,-66zm2072 -212c-158,12 -317,24 -474,38 0,347 0,695 0,1042 -175,14 -347,32 -518,48 0,-926 0,-1853 0,-2778 488,-46 979,-85 1469,-121 85,83 173,165 258,244 0,318 0,637 0,955 -85,93 -173,185 -258,276 123,429 244,854 367,1281 -182,12 -365,24 -546,33 -101,-341 -200,-679 -298,-1018zm-474 -485c228,-17 461,-37 691,-55 0,-230 0,-463 0,-693 -230,18 -463,36 -691,56 0,230 0,462 0,692zm3391 -1113c0,754 0,1505 0,2257 -87,87 -173,177 -258,266 -492,8 -981,24 -1471,44 0,-927 0,-1853 0,-2780 490,-18 979,-34 1471,-44 85,86 171,173 258,257zm-518 268c-232,6 -463,12 -691,19 0,580 0,1158 0,1736 228,-8 459,-14 691,-20 0,-578 0,-1156 0,-1735zm2593 -511c0,840 0,1680 0,2518 -87,85 -173,169 -258,254 -403,-8 -808,-14 -1211,-14 -88,-87 -173,-175 -260,-262 0,-838 0,-1676 0,-2515 172,0 345,-2 520,0 0,752 0,1505 0,2255 228,2 459,6 691,10 0,-753 0,-1505 0,-2258 171,4 343,8 518,12zm2075 372c0,319 0,637 0,955 -60,53 -115,107 -173,162 58,62 113,124 173,185 0,318 0,637 0,955 -88,82 -173,161 -258,242 -493,-31 -981,-59 -1472,-79 0,-927 0,-1852 0,-2780 491,22 979,48 1472,80 85,95 170,188 258,280zm-518 224c-233,-14 -463,-28 -691,-40 0,203 0,407 0,608 228,12 458,26 691,40 0,-203 0,-403 0,-608zm0 1735c0,-202 0,-403 0,-607 -233,-14 -463,-28 -691,-40 0,203 0,405 0,608 228,12 458,25 691,39zm1384 -2142c0,927 0,1852 0,2778 -175,-16 -348,-32 -521,-48 0,-927 0,-1850 0,-2780 173,18 346,34 521,50zm2072 532c0,145 0,290 0,433 -172,-26 -345,-52 -518,-79 0,-56 0,-114 0,-173 -230,-32 -460,-64 -693,-94 0,578 0,1158 0,1736 233,30 463,61 693,95 0,-57 0,-117 0,-173 173,26 346,52 518,78 0,145 0,290 0,433 -87,73 -172,147 -260,222 -403,-62 -806,-115 -1209,-167 -87,-97 -175,-194 -260,-290 0,-750 0,-1505 0,-2257 85,-76 173,-153 260,-228 403,49 806,105 1209,164 88,100 173,199 260,300zm864 415c0,203 0,405 0,608 173,31 346,67 520,103 0,175 0,347 0,520 -174,-38 -347,-71 -520,-105 0,204 0,407 0,609 403,80 806,165 1211,257 0,172 0,347 0,520 -576,-129 -1153,-246 -1729,-352 0,-925 0,-1850 0,-2777 576,105 1153,222 1729,351 0,175 0,347 0,520 -405,-89 -808,-176 -1211,-254z"/>
   <path class="fil2" d="M3140 11456c0,441 0,880 0,1319 375,-72 750,-135 1130,-199 0,378 0,753 0,1130 -380,62 -755,127 -1130,197 0,438 0,879 0,1316 877,-155 1755,-288 2633,-399 0,375 0,752 0,1126 -1255,166 -2508,377 -3761,641 0,-1003 0,-2005 0,-3008 0,-1003 0,-2007 0,-3010 1253,-264 2506,-477 3761,-641 0,377 0,754 0,1129 -878,112 -1756,245 -2633,399zm6040 4261c-270,-573 -540,-1145 -812,-1715 -262,596 -527,1189 -789,1787 -401,30 -804,59 -1205,97 230,-526 463,-1056 691,-1578 230,-525 463,-1049 693,-1569 -463,-963 -923,-1922 -1384,-2873 401,-36 804,-67 1205,-95 256,544 515,1088 775,1636 254,-572 508,-1138 766,-1710 395,-10 792,-16 1189,-20 -452,999 -903,2000 -1356,3007 235,500 475,1000 707,1501 236,504 473,1006 709,1511 -397,3 -792,9 -1189,21zm5553 -5299c0,816 0,1632 0,2444 -191,173 -379,346 -566,518 -689,-45 -1378,-83 -2069,-107 0,816 0,1630 0,2444 -377,-12 -752,-16 -1127,-20 0,-1002 0,-2005 0,-3010 0,-1002 0,-2005 0,-3008 1064,18 2130,60 3196,128 187,202 375,409 566,611zm-1130 479c-502,-30 -1002,-54 -1505,-68 0,439 0,878 0,1314 503,18 1003,40 1505,68 0,-437 0,-876 0,-1314zm5643 236c0,816 0,1632 0,2446 0,814 0,1630 0,2444 -191,147 -377,292 -566,439 -879,-175 -1755,-322 -2633,-447 -188,-210 -375,-419 -563,-631 0,-814 0,-1628 0,-2444 0,-814 0,-1628 0,-2444 188,-165 375,-332 563,-499 878,125 1754,274 2633,447 189,230 375,461 566,689zm-2635 71c0,630 0,1255 0,1883 0,627 0,1252 0,1878 503,75 1005,163 1505,254 0,-625 0,-1253 0,-1880 0,-626 0,-1251 0,-1881 -500,-93 -1002,-178 -1505,-254z"/>
   <path class="fil3" d="M3011 11292c0,440 0,879 0,1318 375,-69 750,-135 1129,-198 0,377 0,752 0,1129 -379,62 -754,127 -1129,197 0,441 0,879 0,1316 877,-155 1755,-288 2632,-399 0,375 0,753 0,1128 -1254,165 -2507,375 -3760,639 0,-1002 0,-2005 0,-3008 0,-1002 0,-2005 0,-3010 1253,-264 2506,-476 3760,-641 0,377 0,754 0,1130 -877,111 -1755,246 -2632,399zm6040 4261c-270,-574 -540,-1146 -812,-1716 -263,596 -527,1189 -789,1787 -401,30 -804,62 -1205,97 230,-526 463,-1054 691,-1578 230,-524 463,-1046 693,-1569 -463,-963 -923,-1920 -1384,-2871 401,-37 804,-69 1205,-97 256,544 515,1088 773,1636 256,-570 510,-1138 768,-1707 395,-12 792,-18 1189,-22 -452,998 -903,2001 -1356,3006 235,502 475,1000 707,1501 236,504 473,1006 709,1511 -397,4 -792,10 -1189,22zm5553 -5298c0,816 0,1630 0,2442 -191,173 -379,346 -566,519 -689,-46 -1380,-82 -2069,-108 0,816 0,1631 0,2445 -377,-10 -752,-16 -1127,-20 0,-1003 0,-2006 0,-3008 0,-1003 0,-2008 0,-3010 1064,20 2130,59 3196,127 187,204 375,409 566,613zm-1130 477c-502,-30 -1002,-52 -1505,-68 0,439 0,878 0,1317 503,16 1003,37 1505,67 0,-439 0,-877 0,-1316zm5643 238c0,814 0,1630 0,2446 0,812 0,1628 0,2442 -191,147 -377,292 -566,439 -879,-173 -1757,-322 -2633,-447 -188,-210 -375,-419 -563,-631 0,-814 0,-1628 0,-2442 0,-816 0,-1630 0,-2446 188,-165 375,-332 563,-497 876,123 1754,272 2633,445 189,232 375,461 566,691zm-2635 72c0,627 0,1254 0,1880 0,627 0,1253 0,1880 503,75 1005,161 1505,252 0,-625 0,-1253 0,-1880 0,-625 0,-1251 0,-1880 -500,-92 -1002,-179 -1505,-252z"/>
   <path class="fil4" d="M5421 10698c0,-228 0,-455 0,-681 -1110,151 -2218,340 -3316,568 0,943 0,1886 0,2829 0,912 0,1825 0,2736 1100,-224 2206,-411 3316,-562 0,-228 0,-454 0,-681 -792,106 -1584,227 -2373,366l-260 45 0 -264c0,-439 0,-877 0,-1316l0 -183 183 -34c314,-59 629,-115 947,-168 0,-227 0,-453 0,-679 -290,49 -578,101 -866,154l-264 48 0 -266c0,-439 0,-878 0,-1318l0 -185 185 -34c812,-143 1630,-268 2448,-375zm1880 4716c243,-556 489,-1112 735,-1666l197 -443 206 437c250,528 500,1056 751,1584 234,-6 468,-10 702,-12 -186,-401 -375,-800 -561,-1199 -235,-502 -473,-1001 -707,-1503l-44 -91 42 -94c403,-895 808,-1792 1213,-2688 -234,4 -467,8 -699,12 -238,528 -475,1054 -711,1582l-196 439 -207 -435c-234,-500 -472,-998 -709,-1499 -242,18 -484,36 -728,58 417,860 832,1721 1245,2583l43 91 -41 94c-231,522 -463,1044 -691,1568 -181,411 -364,824 -542,1235 234,-20 468,-38 702,-53zm7081 -5071c-149,-163 -298,-324 -447,-485 -957,-59 -1914,-97 -2871,-117 0,927 0,1854 0,2784 0,929 0,1858 0,2789 228,2 457,6 685,10 0,-738 0,-1477 0,-2216l0 -230 228 8c661,24 1321,60 1980,103 141,-131 282,-260 425,-389 0,-752 0,-1505 0,-2257zm-685 389c0,439 0,877 0,1316l0 234 -235 -13c-500,-28 -1000,-50 -1499,-68l-214 -6 0 -214c0,-439 0,-878 0,-1317l0 -230 228 8c503,16 1007,40 1509,67l211 12 0 211zm4799 5327c133,-103 266,-207 399,-310 0,-778 0,-1555 0,-2333 0,-790 0,-1578 0,-2367 -157,-188 -312,-377 -465,-567 -810,-159 -1624,-296 -2442,-413 -137,121 -274,242 -411,363 0,780 0,1563 0,2345 0,786 0,1572 0,2359 151,168 302,337 453,506 824,119 1646,258 2466,417zm-548 -786c-499,-90 -997,-177 -1497,-253l-189 -27 0 -191c0,-627 0,-1255 0,-1880 0,-628 0,-1255 0,-1880l0 -259 254 38c506,76 1009,163 1511,254l183 34 0 185c0,627 0,1255 0,1880 0,627 0,1255 0,1880l0 266 -262 -47z"/>
   <path class="fil5" d="M2105 13297l0 117c0,912 0,1825 0,2736 1100,-224 2206,-411 3316,-562 0,-228 0,-454 0,-681 -792,106 -1584,227 -2373,366l-260 45 0 -264c0,-439 0,-877 0,-1316l0 -183 183 -34c314,-59 629,-115 947,-168l0 -344c-605,86 -1209,181 -1813,288zm16790 2452l0 -36 0 -35 0 -38 0 -36 0 -36 0 -37 0 -36 0 -38 0 -35 0 -36 0 -38 0 -36 0 -35 0 -38 0 -36 0 -38 0 -35 0 -36 0 -38 0 -36 0 -35 0 -38 0 -36 0 -37 0 -36 0 -36 0 -38 0 -35 0 -36 0 -38 0 -36 0 -37 0 -36 0 -36 0 -38 0 -35 0 -36 0 -38 0 -35 0 -38 0 -36 0 -36 0 -37 0 -36 0 -36 0 -38 0 -35 0 -36 0 -38 0 -36 0 -37 0 -36 0 -36 0 -37 0 -36 0 -36 0 -38 0 -35 0 -38 0 -36 0 -36 0 -37 0 -36 0 -36 0 -131c-229,-40 -457,-79 -685,-115l0 4c0,627 0,1255 0,1880l0 266 -262 -47c-499,-90 -997,-177 -1497,-253l-189 -27 0 -191c0,-627 0,-1255 0,-1880l0 -28c-228,-28 -457,-54 -685,-77l0 2319c151,168 302,337 453,506 824,119 1646,258 2466,417 133,-103 266,-207 399,-310zm-11046 -3125c255,-14 509,-26 763,-36l12 24c234,502 472,1001 707,1503 186,399 375,798 561,1199 -234,2 -468,6 -702,12 -251,-528 -501,-1056 -751,-1584l-206 -437 -197 443c-246,554 -492,1110 -735,1666 -234,15 -468,33 -702,53 178,-411 361,-824 542,-1235 228,-524 460,-1046 691,-1568l17 -40zm3215 -74c1070,12 2142,60 3212,145 -107,98 -212,195 -319,294 -659,-43 -1319,-79 -1980,-103l-228 -8 0 230c0,739 0,1478 0,2216 -228,-4 -457,-8 -685,-10l0 -2764z"/>
   <path class="fil3" d="M3622 16958c0,378 0,753 0,1128 -87,105 -174,207 -260,310 -318,57 -633,121 -951,186 0,376 0,753 0,1128 -175,40 -345,80 -518,117 0,-925 0,-1852 0,-2777 488,-112 979,-213 1469,-304 86,71 173,143 260,212zm-518 356c-230,43 -463,93 -693,139 0,204 0,405 0,607 230,-45 463,-93 693,-139 0,-202 0,-403 0,-607zm1993 1419c-252,34 -502,68 -752,106 -42,180 -83,361 -125,540 -179,27 -357,57 -536,87 260,-969 518,-1936 778,-2901 173,-26 344,-49 518,-73 258,893 517,1789 777,2684 -165,20 -328,38 -493,58 -55,-167 -111,-334 -167,-501zm-144 -500c-78,-260 -155,-520 -231,-780 -77,280 -155,562 -232,843 153,-21 308,-43 463,-63zm2070 -214c-156,11 -315,23 -472,37 0,350 0,695 0,1043 -175,16 -348,31 -520,49 0,-927 0,-1852 0,-2779 490,-44 979,-86 1471,-120 85,84 173,165 258,245 0,317 0,635 0,955 -85,93 -173,184 -258,276 121,427 244,853 367,1280 -182,10 -365,22 -546,34 -101,-341 -200,-681 -300,-1020zm-472 -483c228,-20 459,-38 691,-56 0,-232 0,-462 0,-692 -232,17 -463,35 -691,55 0,230 0,463 0,693zm3391 -1114c0,753 0,1505 0,2256 -87,89 -173,176 -258,266 -492,10 -981,26 -1471,45 0,-927 0,-1852 0,-2779 490,-20 979,-36 1471,-44 85,85 171,171 258,256zm-518 268c-232,6 -463,12 -691,20 0,580 0,1158 0,1735 228,-8 459,-13 691,-19 0,-580 0,-1158 0,-1736zm2593 -510c0,840 0,1678 0,2516 -87,85 -173,170 -258,256 -405,-8 -808,-14 -1211,-16 -88,-86 -173,-173 -260,-260 0,-838 0,-1678 0,-2518 172,0 345,0 518,0 0,755 0,1507 0,2258 230,2 460,6 693,10 0,-753 0,-1505 0,-2258 170,2 343,8 518,12zm2075 371c0,318 0,638 0,955 -60,54 -115,107 -173,161 58,64 113,123 173,187 0,317 0,635 0,955 -88,79 -173,161 -258,240 -493,-30 -981,-58 -1472,-79 0,-926 0,-1851 0,-2778 491,20 979,48 1472,79 85,96 170,189 258,280zm-520 225c-231,-14 -461,-30 -691,-40 0,202 0,405 0,607 230,10 460,26 691,40 0,-202 0,-405 0,-607zm0 1735c0,-203 0,-405 0,-608 -231,-14 -461,-29 -691,-39 0,202 0,405 0,605 230,12 460,28 691,42zm1383 -2142c0,925 0,1852 0,2777 -172,-18 -345,-33 -518,-49 0,-926 0,-1851 0,-2778 173,16 346,32 518,50zm2075 530c0,147 0,292 0,435 -172,-26 -345,-54 -518,-80 0,-55 0,-115 0,-173 -230,-31 -461,-63 -693,-95 0,578 0,1158 0,1735 232,32 463,64 693,96 0,-58 0,-115 0,-173 173,26 346,52 518,79 0,145 0,288 0,433 -87,74 -172,147 -260,221 -403,-60 -806,-114 -1209,-165 -87,-97 -175,-195 -260,-292 0,-751 0,-1503 0,-2256 85,-77 173,-152 260,-230 403,52 806,105 1209,165 88,101 173,200 260,300zm864 415c0,204 0,405 0,607 173,34 345,68 518,105 0,173 0,346 0,519 -173,-36 -345,-72 -518,-104 0,205 0,405 0,608 403,79 806,165 1211,256 0,175 0,348 0,522 -576,-129 -1153,-246 -1729,-351 0,-925 0,-1851 0,-2778 576,105 1153,223 1729,352 0,172 0,347 0,520 -405,-92 -808,-177 -1211,-256z"/>
   <path class="fil4" d="M3303 18293c69,-82 139,-165 208,-247 0,-345 0,-689 0,-1034 -59,-50 -119,-99 -179,-149 -444,85 -887,177 -1328,274 0,852 0,1702 0,2551 97,-22 197,-43 296,-65 0,-348 0,-695 0,-1041l0 -91 89 -18c304,-61 608,-123 914,-180zm-179 -263c-230,44 -461,94 -691,139l-133 28 0 -137c0,-202 0,-405 0,-607l0 -92 89 -18c231,-45 463,-93 693,-139l133 -23 0 133c0,202 0,405 0,607l0 94 -91 15zm713 1299c97,-16 194,-32 292,-48 35,-157 71,-311 107,-468l18 -74 75 -12c250,-35 502,-71 755,-103l91 -12 28 88c45,137 91,276 139,413 89,-10 180,-20 272,-32 -239,-822 -475,-1644 -713,-2466 -117,16 -234,32 -352,47 -238,890 -476,1777 -712,2667zm546 -1060c77,-282 155,-564 232,-846l103 -375 111 373c76,260 153,520 231,780l36 123 -128 18c-154,20 -309,42 -462,66l-169 25 46 -164zm3266 -1728c-64,-59 -127,-119 -189,-178 -439,31 -879,67 -1318,107 0,852 0,1703 0,2555 99,-8 198,-18 298,-28 0,-313 0,-627 0,-941l0 -101 101 -8c157,-16 316,-26 474,-38l90 -8 26 88c91,311 182,623 274,933 105,-6 212,-12 319,-20 -109,-381 -220,-764 -329,-1148l-18 -59 44 -48c77,-79 152,-161 228,-242 0,-288 0,-576 0,-864zm-1209 995c0,-230 0,-463 0,-693l0 -103 101 -8c230,-20 461,-38 691,-56l121 -10 0 122c0,230 0,460 0,692l0 104 -103 8c-231,18 -461,35 -691,55l-119 10 0 -121zm1884 1336c437,-16 874,-29 1310,-37 66,-68 131,-135 197,-203 0,-721 0,-1441 0,-2164 -66,-64 -129,-127 -193,-191 -438,8 -875,22 -1314,40 0,852 0,1704 0,2555zm1209 -2182c0,578 0,1156 0,1736l0 107 -107 2c-230,8 -461,14 -691,22l-113 4 0 -116c0,-577 0,-1157 0,-1735l0 -107 107 -4c230,-8 461,-14 691,-20l113 -2 0 113zm1060 2137c374,0 747,6 1120,12 66,-62 129,-126 193,-189 0,-786 0,-1575 0,-2361 -100,-4 -199,-6 -298,-8 0,715 0,1430 0,2145l0 111 -111 -2c-231,-4 -461,-6 -691,-8l-109 0 0 -111c0,-715 0,-1432 0,-2147 -100,0 -199,0 -298,0 0,787 0,1575 0,2361 65,66 129,131 194,197zm3388 -2232c-68,-72 -133,-143 -201,-216 -435,-28 -870,-52 -1306,-72 0,852 0,1706 0,2557 440,20 879,44 1318,72 63,-60 125,-117 189,-177 0,-288 0,-574 0,-862 -48,-51 -96,-103 -143,-154l-74 -82 78 -73c45,-44 91,-88 139,-131 0,-286 0,-574 0,-862zm-298 181c0,202 0,405 0,607l0 117 -117 -6c-231,-16 -461,-29 -689,-41l-106 -4 0 -106c0,-202 0,-405 0,-607l0 -115 116 4c230,10 460,26 692,39l104 6 0 106zm-117 1844c-231,-14 -461,-28 -689,-40l-106 -4 0 -107c0,-200 0,-403 0,-605l0 -117 116 5c230,10 460,26 692,40l104 6 0 105c0,203 0,405 0,608l0 117 -117 -8zm982 375c100,10 199,20 298,28 0,-852 0,-1703 0,-2553 -99,-10 -198,-20 -298,-30 0,852 0,1704 0,2555zm2075 -1836c100,16 199,30 298,45 0,-87 0,-174 0,-264 -69,-77 -139,-156 -206,-236 -374,-55 -745,-105 -1118,-153 -62,54 -123,109 -185,163 0,721 0,1444 0,2164 68,76 135,153 205,229 373,47 746,97 1119,152 62,-51 124,-103 185,-154 0,-96 0,-191 0,-286 -99,-16 -198,-30 -298,-46 0,14 0,30 0,44l0 127 -127 -18c-230,-32 -460,-64 -691,-93l-97 -14 0 -98c0,-577 0,-1155 0,-1735l0 -127 127 18c230,32 463,61 693,95l95 12 0 97c0,26 0,52 0,78zm1680 1251c0,-98 0,-197 0,-294 -143,-30 -286,-58 -429,-86l-91 -15 0 -94c0,-202 0,-405 0,-607l0 -135 133 25c361,72 721,147 1080,227 0,-97 0,-195 0,-292 -502,-111 -1005,-214 -1509,-308 0,852 0,1702 0,2552 504,93 1007,196 1509,305 0,-97 0,-196 0,-294 -373,-83 -749,-162 -1124,-236l-89 -18 0 -91c0,-203 0,-405 0,-608l0 -133 133 24c129,24 258,50 387,78z"/>
   <path class="fil6" d="M3303 18293c47,-56 93,-112 141,-165 -481,71 -961,151 -1440,236l0 1324c97,-22 197,-43 296,-65 0,-348 0,-695 0,-1041l0 -91 89 -18c304,-61 608,-123 914,-180zm15693 1395l0 -4 0 -6 0 -4 0 -4 0 -5 0 -4 0 -4 0 -6 0 -4 0 -4 0 -4 0 -6 0 -4 0 -4 0 -6 0 -4 0 -4 0 -6 0 -4 0 -4 0 -6 0 -4 0 -4 0 -6 0 -4 0 -4 0 -6 0 -4 0 -4 0 -4 0 -6 0 -4 0 -4 0 -6 0 -3 0 -4 0 -6 0 -4 0 -4 0 -6 0 -4 0 -4 0 -6 0 -4 0 -4 0 -4 0 -6 0 -4 0 -4 0 -6 0 -4 0 -4 0 -6 0 -4 0 -4 0 -6 0 -4 0 -4 0 -6 0 -4 0 -4 0 -4 0 -6 0 -4c-373,-83 -749,-162 -1124,-236l-89 -18 0 -91c0,-203 0,-405 0,-608l0 -133 133 24c129,24 258,50 387,78l0 -177c-272,-46 -544,-87 -816,-127l0 1277c504,93 1007,196 1509,305zm-14810 -1665c91,-14 183,-26 274,-38l-77 284 -46 164 169 -25c153,-24 308,-46 462,-66l128 -18 -36 -123c-28,-93 -56,-186 -84,-278 98,-12 195,-24 292,-34 115,398 231,795 346,1192 -92,12 -183,22 -272,32 -48,-137 -94,-276 -139,-413l-28 -88 -91 12c-253,32 -505,68 -755,103l-75 12 -18 74c-36,157 -72,311 -107,468 -98,16 -195,32 -292,48 115,-437 232,-872 349,-1306zm1956 -223c413,-38 826,-71 1237,-99l16 53c109,384 220,767 329,1148 -107,8 -214,14 -319,20 -92,-310 -183,-622 -274,-933l-26 -88 -90 8c-158,12 -317,22 -474,38l-101 8 0 101c0,314 0,628 0,941 -100,10 -199,20 -298,28l0 -1225zm2182 -151c99,-6 198,-10 298,-14l0 810 0 116 113 -4c230,-8 461,-14 691,-22l107 -2 0 -107 0 -818c99,-2 199,-4 298,-6l0 1030c-66,68 -131,135 -197,203 -436,8 -873,21 -1310,37l0 -1223zm2075 -51c99,-2 198,-2 298,0l0 818 0 111 109 0c230,2 460,4 691,8l111 2 0 -111 0 -816c99,2 198,3 298,5l0 1035c-64,63 -127,127 -193,189 -373,-6 -746,-12 -1120,-12 -65,-66 -129,-131 -194,-197l0 -1032zm2075 37c444,18 889,44 1332,74l32 34c47,51 95,103 143,154 0,288 0,574 0,862 -64,60 -126,117 -189,177 -439,-28 -878,-52 -1318,-72l0 -1229zm2074 131c100,8 199,16 298,26l0 1231c-99,-8 -198,-18 -298,-28l0 -1229zm864 80c99,10 199,22 296,32l0 843 0 98 97 14c231,29 461,61 691,93l127 18 0 -127c0,-14 0,-30 0,-44 100,16 199,30 298,46 0,95 0,190 0,286 -61,51 -123,103 -185,154 -373,-55 -746,-105 -1119,-152 -70,-76 -137,-153 -205,-229l0 -1032zm-1846 774c-231,-14 -461,-28 -689,-40l-106 -4 0 -107c0,-200 0,-403 0,-605l0 -117 116 5c230,10 460,26 692,40l104 6 0 105c0,203 0,405 0,608l0 117 -117 -8z"/>
   <path class="fil0" d="M6356 2629c-1330,369 -2652,735 -3979,1100 294,929 892,2726 1198,3651 113,346 228,691 345,1037l330 57c-106,-315 -211,-629 -316,-945 -306,-927 -903,-2722 -1195,-3651 1205,-334 2408,-665 3617,-1001l0 -248z"/>
   <path class="fil0" d="M14644 2629c1330,369 2652,735 3979,1100 -294,929 -892,2732 -1198,3659 -113,346 -228,691 -345,1035l-330 59c106,-315 211,-631 316,-945 306,-927 903,-2730 1195,-3659 -1205,-334 -2408,-665 -3617,-1001l0 -248z"/>
   <path class="fil0" d="M7470 6020l-28 -4624c1912,0 3826,0 5740,0l-246 246c-1731,0 -3462,0 -5194,0l26 4148 -298 230z"/>
   <path class="fil2" d="M6886 7742c-39,41 -27,31 0,2l0 -2zm-242 1463c-476,44 -975,97 -1499,163l-387 45 0 -3536 306 -37c853,-106 1713,-187 2412,-231 62,-4 155,-8 270,-16 691,-39 -95,-4 717,-33 75,-2 155,-4 266,-8 85,-4 173,-6 268,-8l18 -2 0 -2 212 -4 127 -4 0 2 4 0c249,-4 501,-6 757,-8 597,-4 1177,0 1493,8 320,10 631,20 933,32 1168,45 681,-2 2027,127 197,17 383,35 536,51l239 26 61 228c68,245 133,489 199,733 166,610 -56,-206 198,733l105 389c175,641 235,867 292,1078l137 500 -514 -65c-73,-10 30,4 -252,-30 -109,-14 -195,-24 -248,-30 -985,-113 -223,-39 -1058,-105 -108,-10 -199,-16 -274,-22 -106,-8 -197,-16 -274,-20l-10 -2 -268 -14c-320,-17 -628,-33 -924,-45 -313,-14 -621,-24 -923,-32l-119 -4 -230 -2c-96,-2 -189,-2 -278,-4 -96,0 -189,-2 -280,-2 -959,-4 105,-8 -785,4 -89,0 -176,2 -266,4 -81,0 -168,2 -264,4 -421,8 -266,2 -615,16 -193,8 -399,16 -618,26 -1000,47 -754,27 -1491,97z"/>
   <path class="fil3" d="M6878 6266c0,163 0,326 0,487 0,163 0,325 0,488 -59,64 -119,127 -176,191 57,56 117,109 176,165 0,163 0,325 0,486 0,163 0,326 0,489 -89,95 -176,192 -266,287 -502,48 -1004,102 -1507,163 0,-472 0,-947 0,-1419 0,-473 0,-945 0,-1420 503,-62 1005,-115 1507,-163 90,82 177,163 266,246zm-532 312c-236,22 -474,48 -708,74 0,206 0,413 0,621 234,-28 472,-52 708,-75 0,-207 0,-413 0,-620zm0 1773c0,-206 0,-413 0,-621 -236,24 -474,47 -708,75 0,207 0,413 0,620 234,-26 472,-50 708,-74zm2661 -2462c0,429 0,858 0,1287 0,429 0,858 0,1286 -89,92 -179,183 -266,274 -415,16 -828,34 -1241,58 -89,-81 -179,-165 -266,-248 0,-429 0,-858 0,-1285 0,-429 0,-858 0,-1288 177,-12 353,-22 530,-32 0,383 0,768 0,1151 0,386 0,771 0,1154 238,-12 475,-24 711,-34 0,-383 0,-768 0,-1151 0,-386 0,-769 0,-1154 177,-6 353,-12 532,-18zm1372 1755c-163,0 -324,2 -485,2 0,179 0,356 0,532 0,179 0,356 0,533 -178,2 -355,6 -532,8 0,-473 0,-946 0,-1418 0,-475 0,-947 0,-1420 503,-8 1005,-12 1507,-10 88,90 177,179 266,268 0,163 0,326 0,489 0,163 0,325 0,488 -89,88 -178,175 -266,262 62,223 125,445 187,667 61,223 125,445 189,668 -187,-2 -374,-4 -560,-4 -52,-177 -104,-356 -153,-533 -52,-176 -101,-355 -153,-532zm-485 -530c237,-2 473,-2 709,-2 0,-236 0,-472 0,-709 -236,-2 -472,0 -709,2 0,237 0,473 0,709zm3560 -627c-202,284 -409,570 -611,854 -205,287 -409,573 -612,863 407,16 816,36 1223,60 0,179 0,355 0,532 -617,-34 -1237,-60 -1854,-77 0,-177 0,-354 0,-533 204,-289 409,-581 613,-869 203,-288 409,-576 614,-864 -409,-16 -818,-30 -1227,-40 0,-176 0,-355 0,-532 617,16 1237,40 1854,74 0,178 0,355 0,532zm1736 1922c-258,-28 -517,-54 -775,-76 -41,173 -83,348 -127,521 -182,-14 -365,-28 -548,-42 131,-465 264,-927 397,-1390 133,-461 266,-923 400,-1384 176,16 355,34 532,52 133,486 266,977 397,1463 133,490 266,979 399,1469 -169,-22 -338,-43 -505,-61 -57,-185 -115,-370 -170,-552zm-149 -548c-40,-141 -80,-284 -119,-425 -38,-141 -80,-284 -119,-425 -40,133 -80,268 -120,401 -37,133 -79,268 -117,401 157,16 316,32 475,48z"/>
   <polygon class="fil1" points="4877,7936 4877,8796 1893,9261 1895,8063 1895,8063 1897,7037 4879,6572 "/>
   <polygon class="fil1" points="16115,8830 16111,6606 19095,7073 19097,8131 19097,9296 "/>
   <g>
    <polygon class="fil7" points="16452,8540 18760,8901 18758,8133 16452,7771 "/>
    <polygon class="fil3" points="16452,7771 18758,8133 18758,7362 16451,7001 "/>
    <polygon class="fil8" points="16452,8540 17604,7952 16451,7001 "/>
   </g>
   <g>
    <polygon class="fil9" points="2234,8863 4542,8506 4540,7994 2232,8351 "/>
    <polygon class="fil10" points="2232,8351 4540,7994 4540,7482 2232,7839 "/>
    <polygon class="fil3" points="2232,7839 4540,7482 4538,6969 2232,7327 "/>
    <path class="fil3" d="M3037 8421l-6 -2 -10 -2c-2,0 -66,-20 -135,-62 -42,-26 -78,-55 -106,-87 -37,-42 -63,-88 -77,-135 -34,-111 -12,-493 -10,-510 0,-8 6,-14 16,-16l655 -102c8,-2 14,4 16,12 0,16 24,391 -10,513 -14,51 -40,105 -75,158 -30,40 -66,82 -108,120 -69,65 -131,103 -135,105l-8 4 -7 4z"/>
    <path class="fil9" d="M3342 7547l-611 95c0,0 -22,368 10,475 57,192 296,262 296,262 0,0 240,-145 295,-355 32,-116 10,-477 10,-477z"/>
    <polygon class="fil3" points="3181,7851 3062,7869 3062,7779 3144,7767 3185,7773 3185,7696 3144,7716 3062,7728 3062,7674 3076,7609 2995,7621 3011,7682 3011,7736 2929,7748 2888,7742 2888,7819 2929,7801 3011,7787 3011,7877 2892,7895 2848,7889 2848,7966 2892,7948 3011,7928 3011,8081 3062,8073 3062,7920 3181,7902 3225,7908 3225,7831 "/>
    <path class="fil10" d="M3037 8379c0,0 164,-99 252,-252 -20,-32 -50,-48 -84,-44 -25,4 -49,22 -69,48 -20,-48 -56,-78 -99,-72 -42,6 -80,48 -100,104 -18,-20 -43,-30 -69,-26 -34,4 -64,32 -84,69 90,125 253,173 253,173z"/>
   </g>
  </g>
 </g>
</svg>
