<?xml version="1.0" encoding="UTF-8"?>
<!DOCTYPE svg PUBLIC "-//W3C//DTD SVG 1.1//EN" "http://www.w3.org/Graphics/SVG/1.1/DTD/svg11.dtd">
<!-- Creator: CorelDRAW X7 -->
<svg xmlns="http://www.w3.org/2000/svg" xml:space="preserve" width="210mm" height="155mm" version="1.1" style="shape-rendering:geometricPrecision; text-rendering:geometricPrecision; image-rendering:optimizeQuality; fill-rule:evenodd; clip-rule:evenodd"
viewBox="0 0 21000 15500"
 xmlns:xlink="http://www.w3.org/1999/xlink">
 <defs>
  <style type="text/css">
   <![CDATA[
    .fil3 {fill:#CCAF6E}
    .fil2 {fill:black;fill-rule:nonzero}
    .fil1 {fill:black;fill-rule:nonzero}
    .fil0 {fill:#CCAF6E;fill-rule:nonzero}
   ]]>
  </style>
 </defs>
 <g id="Vrstva_x0020_1">
  <metadata id="CorelCorpID_0Corel-Layer"/>
  <g id="_2453241712976">
   <g>
    <path class="fil0" d="M10566 5068l0 -145 -4617 0 0 2182 2135 0 0 2039c-475,206 -1060,301 -1692,301 -2197,0 -3415,-1470 -3415,-3526 0,-2007 1391,-3493 3289,-3493 1090,0 1991,442 2513,1043l30 -34 1008 -2431c-948,-599 -2258,-966 -3646,-966 -3415,0 -6071,2293 -6071,5881 0,3526 2577,5897 6150,5897 545,0 1069,-39 1564,-112l2752 -6636z"/>
    <path class="fil0" d="M3226 15284l0 -1095 -852 0 0 403 394 0 0 376c-87,38 -195,56 -312,56 -406,0 -630,-272 -630,-651 0,-371 256,-645 607,-645 201,0 367,82 464,193l315 -359c-172,-167 -473,-275 -797,-275 -630,0 -1121,424 -1121,1086 0,651 476,1089 1136,1089 318,0 595,-73 796,-178zm1924 -607c0,-476 -368,-768 -809,-768 -438,0 -805,292 -805,768 0,475 367,779 805,779 441,0 809,-304 809,-779zm-462 0c0,186 -119,376 -344,376 -225,0 -344,-190 -344,-376 0,-187 117,-371 341,-371 225,0 347,184 347,371zm1626 -362l0 -359 -341 0 0 -383 -470 0 0 383 -231 0 0 359 234 0 0 613c0,309 128,516 516,516 102,0 213,-20 277,-44l-5 -350c-35,15 -94,23 -140,23 -138,0 -181,-70 -181,-204l0 -554 341 0z"/>
    <polygon class="fil1" points="20463,11816 15815,623 13191,623 8496,11816 11436,11816 14456,3611 17460,11816 "/>
    <path class="fil2" d="M9197 15409l-858 -2066 -484 0 -867 2066 543 0 152 -406 799 0 161 406 554 0zm-852 -805l-519 0 262 -710 257 710zm2417 805l0 -1453 -479 0 0 785c0,166 -90,312 -257,312 -175,0 -216,-146 -216,-309l0 -788 -481 0 0 899c0,291 137,595 528,595 204,0 371,-114 438,-242l6 0 0 201 461 0zm1234 -1094l0 -359 -341 0 0 -383 -470 0 0 383 -231 0 0 359 234 0 0 613c0,309 128,516 516,516 102,0 213,-20 278,-44l-6 -350c-35,15 -94,23 -140,23 -137,0 -181,-70 -181,-204l0 -554 341 0zm1664 1094l0 -899c0,-292 -137,-595 -531,-595 -202,0 -354,108 -418,225l-6 0 0 -937 -478 0 0 2206 478 0 0 -785c0,-172 94,-309 260,-309 172,0 213,143 213,306l0 788 482 0zm747 -893c11,-149 146,-277 330,-277 189,0 286,125 286,277l-616 0zm1056 184c0,-496 -300,-791 -729,-791 -441,0 -785,304 -785,779 0,491 362,768 799,768 295,0 523,-111 660,-310l-333 -210c-64,88 -169,152 -321,152 -172,0 -333,-114 -347,-274l1053 0c3,-35 3,-76 3,-114zm1734 709l0 -899c0,-292 -140,-595 -531,-595 -202,0 -368,114 -435,242l-6 0 0 -201 -464 0 0 1453 481 0 0 -788c0,-166 88,-312 257,-312 172,0 216,146 216,306l0 794 482 0zm1223 -1094l0 -359 -342 0 0 -383 -470 0 0 383 -230 0 0 359 233 0 0 613c0,309 129,516 517,516 102,0 213,-20 277,-44l-6 -350c-35,15 -93,23 -140,23 -137,0 -181,-70 -181,-204l0 -554 342 0zm744 -823c0,-146 -123,-263 -274,-263 -155,0 -275,123 -275,263 0,143 120,262 275,262 151,0 274,-113 274,-262zm-35 1917l0 -1453 -479 0 0 1453 479 0zm1657 -1304c-113,-117 -332,-196 -539,-196 -453,0 -812,301 -812,773 0,482 356,774 815,774 213,0 417,-70 536,-187l-265 -324c-58,70 -164,108 -260,108 -210,0 -341,-169 -341,-371 0,-201 134,-373 335,-373 97,0 202,47 254,117l277 -321z"/>
   </g>
   <polygon class="fil3" points="14479,7921 13279,6789 11363,4982 10501,7036 10566,7096 12490,8917 14479,10803 18467,7008 20900,4693 20150,2821 17659,5062 15639,6879 "/>
  </g>
 </g>
</svg>
