<?xml version="1.0" encoding="UTF-8"?>
<!DOCTYPE svg PUBLIC "-//W3C//DTD SVG 1.1//EN" "http://www.w3.org/Graphics/SVG/1.1/DTD/svg11.dtd">
<!-- Creator: CorelDRAW X8 -->
<svg xmlns="http://www.w3.org/2000/svg" xml:space="preserve" width="210mm" height="64.437mm" version="1.1" style="shape-rendering:geometricPrecision; text-rendering:geometricPrecision; image-rendering:optimizeQuality; fill-rule:evenodd; clip-rule:evenodd"
viewBox="0 0 21000 6444"
 xmlns:xlink="http://www.w3.org/1999/xlink">
 <defs>
  <style type="text/css">
   <![CDATA[
    .fil2 {fill:black}
    .fil0 {fill:black;fill-rule:nonzero}
    .fil1 {fill:#E31E24;fill-rule:nonzero}
   ]]>
  </style>
 </defs>
 <g id="Vrstva_x0020_1">
  <metadata id="CorelCorpID_0Corel-Layer"/>
  <g id="_1766980888528">
   <path class="fil0" d="M10877 5966l0 -478 356 0c172,0 254,122 254,244 -10,143 -82,234 -254,234l-356 0zm691 -234c0,-152 -112,-315 -335,-315l-437 0 0 1006 81 0 0 -376 274 0 346 376 102 0 -356 -386c213,0 325,-142 325,-305zm8924 163l0 71 355 0 0 285c-91,71 -203,111 -304,111 -295,0 -448,-203 -448,-437 0,-233 153,-447 448,-447 111,0 233,41 315,122l50 -41c-101,-101 -244,-152 -365,-152 -316,0 -529,203 -519,518 0,275 173,509 519,509 142,0 264,-51 376,-163l0 -376 -427 0zm-722 356l-671 -834 -40 0 0 1006 81 0 0 -833 681 833 30 0 0 -1006 -81 0 0 834zm-1006 172l81 0 0 -1006 -81 0 0 1006zm-945 -935l355 0 0 935 82 0 0 -935 366 0 0 -71 -803 0 0 71zm-793 468l589 0 0 -71 -589 0 0 -397 620 0 0 -71 -691 0 0 1006 711 0 0 -71 -640 0 0 -396zm-224 -529l0 -10 -91 0 -488 458 0 -458 -71 0 0 1006 71 0 0 -498 528 498 102 0 0 -10 -549 -508 498 -478zm-1504 539l0 -478 356 0c173,0 254,122 254,244 -10,143 -81,234 -254,234l-356 0zm691 -234c0,-152 -112,-315 -335,-315l-437 0 0 1006 81 0 0 -376 274 0 346 376 102 0 -356 -386c213,0 325,-142 325,-305zm-1667 376l275 -609 264 609 -539 0zm234 -691l-457 1006 91 0 102 -244 600 0 111 244 82 0 -448 -1006 -81 0zm-1047 590l-376 -590 -101 0 0 1006 81 0 0 -894 386 589 31 0 376 -589 0 894 81 0 0 -1006 -92 0 -386 590zm-1819 -519l366 0 0 935 71 0 0 -935 366 0 0 -71 -803 0 0 71zm-1586 885c-284,0 -426,-224 -426,-448 0,-244 142,-447 426,-447 285,0 427,214 427,447 0,224 -142,448 -427,448zm0 -966c-335,0 -508,244 -508,518 0,265 173,519 508,519 336,0 509,-254 509,-519 0,-274 -173,-518 -509,-518zm-955 600l-366 0 0 -519 366 0c325,0 325,519 0,519zm0 -590l-447 0 0 1006 81 0 0 -345 366 0c427,0 427,-661 0,-661zm-1006 458c-163,-31 -305,-61 -305,-194 0,-152 183,-193 305,-193 112,0 223,11 305,132l61 -40c-102,-142 -224,-173 -366,-173 -163,0 -386,71 -376,285 0,183 183,213 366,254 162,30 325,61 325,213 0,173 -193,214 -315,214 -122,0 -285,-61 -346,-183l-61 30c71,153 254,224 407,224 162,0 396,-61 396,-285 0,-213 -203,-244 -396,-284z"/>
   <path class="fil1" d="M5094 5102c-529,539 -1220,803 -1911,803 -10,0 -30,0 -41,0l2755 -2754c0,10 0,30 0,40 0,691 -265,1383 -803,1911zm-4625 -1911c0,-701 265,-1392 793,-1921 529,-528 1220,-792 1921,-792 31,0 61,0 91,0l-2805 2805c0,-31 0,-61 0,-92zm5855 -467c-92,-651 -397,-1281 -895,-1779 -488,-488 -1097,-782 -1728,-894 -975,-163 -2012,142 -2764,894 -752,752 -1057,1789 -895,2765 112,630 407,1240 895,1728 498,498 1128,802 1778,894 956,142 1972,-153 2714,-894 742,-742 1037,-1759 895,-2714z"/>
   <path class="fil2" d="M14658 2510l-1332 0 0 -1656 1332 0c1128,0 1128,1656 0,1656zm0 813c2297,0 2297,-3313 0,-3323l-143 0 -30 0c-681,0 -1362,10 -2043,10l0 4696 884 0 0 -1383 1332 0z"/>
   <path class="fil2" d="M17920 10l-2104 4696 956 0 406 -884 2460 0 396 884 966 0 -2114 -4696 -966 0zm1362 2988l-1748 0 874 -2002 874 2002z"/>
   <path class="fil2" d="M11812 3323c0,-294 -193,-874 -752,-1046 437,-193 620,-539 620,-905 0,-945 -701,-1362 -1626,-1362l-2226 0 0 4696 2226 0c975,0 1758,-336 1758,-1383zm-1758 -650c366,0 884,224 884,650 0,438 -518,559 -884,559l-1352 0 0 -1209 1352 0zm0 -772l-1352 0 0 -1088 1352 0c569,0 742,366 742,579 0,275 -183,509 -742,509z"/>
  </g>
 </g>
</svg>
