<?xml version="1.0" encoding="UTF-8"?>
<!DOCTYPE svg PUBLIC "-//W3C//DTD SVG 1.1//EN" "http://www.w3.org/Graphics/SVG/1.1/DTD/svg11.dtd">
<!-- Creator: CorelDRAW X8 -->
<svg xmlns="http://www.w3.org/2000/svg" xml:space="preserve" width="210mm" height="42.448mm" version="1.1" style="shape-rendering:geometricPrecision; text-rendering:geometricPrecision; image-rendering:optimizeQuality; fill-rule:evenodd; clip-rule:evenodd"
viewBox="0 0 21000 4245"
 xmlns:xlink="http://www.w3.org/1999/xlink">
 <defs>
  <style type="text/css">
   <![CDATA[
    .str0 {stroke:black;stroke-width:151.33;stroke-linejoin:round}
    .fil0 {fill:none}
    .fil3 {fill:black;fill-rule:nonzero}
    .fil1 {fill:white;fill-rule:nonzero}
    .fil2 {fill:url(#id0)}
   ]]>
  </style>
  <linearGradient id="id0" gradientUnits="userSpaceOnUse" x1="20708.5" y1="1352.65" x2="20708.5" y2="2929.52">
   <stop offset="0" style="stop-opacity:1; stop-color:#C7EAFB"/>
   <stop offset="1" style="stop-opacity:1; stop-color:#FEFEFE"/>
  </linearGradient>
 </defs>
 <g id="Vrstva_x0020_1">
  <metadata id="CorelCorpID_0Corel-Layer"/>
  <g id="_1767005700592">
   <path class="fil0 str0" d="M21000 60l-605 1801 0 1016 -763 0 0 -1016 -583 -1801 763 0c112,553 179,919 194,1106 45,-299 127,-665 232,-1106l762 0zm-2055 0l0 568 -486 0 0 2249 -829 0 0 -2249 -486 0 0 -568 1801 0zm-3004 486l0 620c97,0 157,-8 194,-30 37,-22 60,-97 60,-217l0 -157c0,-89 -23,-149 -53,-179 -37,-23 -104,-37 -201,-37zm-822 -486l582 0c389,0 651,15 793,45 134,22 254,89 336,201 90,112 134,284 134,524 0,216 -29,366 -97,440 -60,75 -179,120 -358,135 164,37 269,90 328,149 53,60 90,113 105,165 15,52 22,187 22,418l0 740 -769 0 0 -934c0,-149 -15,-247 -45,-284 -23,-37 -97,-52 -209,-52l0 1270 -822 0 0 -2817zm-1054 1808c-45,-314 -82,-710 -127,-1180 -82,538 -135,934 -157,1180l284 0zm433 -1808l479 2817 -852 0 -38 -508 -299 0 -45 508 -859 0 418 -2817 1196 0zm-1696 0l-471 1270 516 1547 -852 0 -337 -1210 0 1210 -822 0 0 -2817 822 0 0 1098 367 -1098 777 0zm-2205 1905l-1046 0 0 -485 1046 0 0 485zm-1270 -1905l0 1883c0,284 0,463 -8,546 -7,74 -37,149 -89,216 -53,60 -128,105 -217,135 -90,22 -232,37 -411,37l-411 0 0 -493c45,0 82,7 104,7 60,0 105,-15 142,-37 30,-30 53,-60 60,-97 0,-37 8,-112 8,-217l0 -1980 822 0zm-2683 0l1382 0 0 568 -553 0 0 530 516 0 0 538 -516 0 0 613 606 0 0 568 -1435 0 0 -2817zm-187 0l-471 1270 516 1547 -852 0 -336 -1210 0 1210 -830 0 0 -2817 830 0 0 1098 366 -1098 777 0zm-3109 725c0,-127 -7,-217 -22,-254 -15,-30 -53,-53 -98,-53 -44,0 -82,15 -104,45 -23,30 -30,120 -30,262l0 1315c0,164 7,262 22,299 15,37 45,60 105,60 52,0 90,-23 105,-68 15,-44 22,-149 22,-313l0 -1293zm830 926c0,284 -8,479 -23,598 -15,120 -60,224 -142,322 -75,97 -187,171 -321,224 -135,52 -292,82 -471,82 -172,0 -321,-30 -456,-75 -142,-52 -246,-127 -329,-224 -82,-97 -134,-202 -149,-321 -15,-112 -23,-322 -23,-606l0 -485c0,-277 8,-479 23,-598 15,-120 60,-224 142,-322 82,-97 187,-171 321,-224 135,-52 292,-82 471,-82 172,0 321,30 456,75 142,52 246,127 329,224 82,97 134,209 149,321 15,120 23,322 23,606l0 485zm-2220 -1651l0 2817 -830 0 0 -1181 -246 0 0 1181 -830 0 0 -2817 830 0 0 1009 246 0 0 -1009 830 0z"/>
   <path class="fil1" d="M21000 60l-605 1801 0 1016 -763 0 0 -1016 -583 -1801 755 0c120,553 187,919 202,1106 45,-299 127,-665 232,-1106l762 0zm-2055 0l0 568 -486 0 0 2249 -829 0 0 -2249 -486 0 0 -568 1801 0zm-3004 486l0 620c97,0 157,-8 194,-30 37,-22 60,-97 60,-217l0 -157c0,-89 -15,-149 -53,-179 -37,-23 -104,-37 -201,-37zm-822 -486l582 0c389,0 651,15 793,45 134,22 246,89 336,201 90,112 134,284 134,524 0,216 -29,366 -97,440 -60,75 -179,120 -358,135 164,37 269,90 328,149 53,60 90,113 105,165 15,52 22,187 22,411l0 747 -769 0 0 -934c0,-149 -15,-247 -45,-284 -23,-37 -97,-52 -209,-52l0 1270 -822 0 0 -2817zm-1054 1808c-45,-314 -82,-710 -127,-1180 -82,538 -135,934 -157,1180l284 0zm433 -1808l479 2817 -852 0 -38 -508 -299 0 -45 508 -859 0 418 -2817 1196 0zm-1696 0l-471 1270 516 1547 -852 0 -337 -1210 0 1210 -822 0 0 -2817 822 0 0 1098 367 -1098 777 0zm-2205 1905l-1046 0 0 -485 1046 0 0 485zm-1270 -1905l0 1883c0,284 0,463 -8,546 -7,74 -37,149 -89,216 -53,60 -128,105 -217,135 -90,22 -232,37 -411,37l-411 0 0 -493c45,0 82,7 104,7 60,0 105,-15 142,-37 30,-30 53,-60 60,-97 0,-37 8,-112 8,-217l0 -1980 822 0zm-2683 0l1382 0 0 568 -553 0 0 530 516 0 0 538 -516 0 0 613 606 0 0 568 -1435 0 0 -2817zm-187 0l-471 1270 516 1547 -852 0 -336 -1210 0 1210 -830 0 0 -2817 830 0 0 1098 366 -1098 777 0zm-3109 725c0,-127 -7,-217 -22,-254 -15,-30 -53,-53 -98,-53 -44,0 -82,15 -104,45 -23,30 -30,120 -30,262l0 1315c0,164 7,262 22,299 15,37 45,60 105,60 52,0 90,-23 105,-68 15,-44 22,-149 22,-313l0 -1293zm830 926c0,284 -8,479 -23,598 -15,120 -60,224 -142,322 -75,97 -187,171 -321,224 -135,52 -292,82 -471,82 -172,0 -321,-30 -456,-75 -142,-52 -246,-127 -329,-224 -82,-97 -134,-202 -149,-321 -15,-112 -23,-322 -23,-606l0 -485c0,-277 8,-479 23,-598 15,-120 60,-224 142,-322 82,-97 187,-171 321,-224 135,-52 292,-82 471,-82 172,0 321,30 456,75 142,52 246,127 329,224 82,97 134,209 149,321 15,120 23,322 23,606l0 485zm-2220 -1651l0 2817 -830 0 0 -1181 -246 0 0 1181 -830 0 0 -2817 830 0 0 1009 246 0 0 -1009 830 0z"/>
   <path class="fil2" d="M19468 1360l164 501 0 1016 763 0 0 -1016 172 -501 -1099 0zm-16254 1577l7 0 7 0c180,0 329,-30 464,-82l0 0c134,-53 246,-127 321,-224l0 0c82,-98 127,-202 142,-322l0 0c15,-119 23,-314 23,-598l0 0 0 -351 -830 0 0 718c0,164 -7,269 -22,313l0 0c-15,45 -53,68 -105,68l0 0c-60,0 -90,-23 -105,-60l0 0c-15,-37 -22,-135 -22,-299l0 0 0 -740 -830 0 0 351c0,284 8,494 23,606l0 0c15,119 67,224 149,321l0 0c83,97 187,172 329,224l0 0c135,45 284,75 449,75zm-3162 -1577l0 1517 830 0 0 -1181 246 0 0 1181 830 0 0 -1517 -1906 0zm17578 1517l829 0 0 -1517 -829 0 0 1517zm-2511 -1517l0 1517 822 0 0 -1270c112,0 186,15 209,52l0 0c30,37 45,135 45,284l0 0 0 934 769 0 0 -747c0,-224 -7,-359 -22,-411l0 0c-15,-52 -52,-105 -105,-165l0 0c-59,-59 -164,-112 -328,-149l0 0c97,-8 171,-22 239,-45l0 0 -1629 0zm-1114 0c15,187 37,359 60,508l0 0 -284 0c7,-127 30,-299 60,-508l0 0 -733 0 -224 1517 859 0 45 -508 299 0 38 508 852 0 -262 -1517 -710 0zm-3169 0l0 1517 822 0 0 -1210 337 1210 852 0 -509 -1517 -1502 0zm-2331 0l0 680c0,105 -8,180 -8,217l0 0c-7,37 -30,67 -60,97l0 0c-37,22 -82,37 -142,37l0 0c-22,0 -59,-7 -112,-7l0 0 0 493 419 0c179,0 321,-15 411,-37l0 0c89,-30 164,-75 217,-135l0 0c52,-67 82,-142 89,-216l0 0c8,-83 8,-262 8,-546l0 0 0 -583 -822 0zm-1861 0l0 1517 1435 0 0 -568 -606 0 0 -613 516 0 0 -336 -1345 0zm-2160 0l0 1517 830 0 0 -1210 336 1210 852 0 -508 -1517 -1510 0zm5067 605l1046 0 0 -485 -1046 0 0 485z"/>
   <path class="fil3" d="M149 4230l-149 0 0 -665 187 0 164 276c38,53 68,120 105,202l0 0c-8,-75 -15,-164 -15,-276l0 -202 149 0 0 665 -164 0c-120,-194 -187,-314 -209,-351 -23,-45 -45,-90 -75,-142l0 0c0,82 7,179 7,291l0 202z"/>
   <polygon class="fil3" points="1151,3826 1151,3953 882,3953 882,4103 1181,4103 1181,4230 725,4230 725,3565 1166,3565 1166,3692 882,3692 882,3826 "/>
   <path class="fil3" d="M1427 3983l0 -418 157 0 0 418c0,90 -15,150 -59,195 -38,44 -105,67 -187,67 -45,0 -82,-8 -120,-23l15 -119c30,7 60,15 82,15 45,0 75,-15 90,-38 15,-22 22,-52 22,-97z"/>
   <path class="fil3" d="M2003 3520l-112 0 -105 -127 105 0 60 67 52 -67 104 0 -104 127zm-314 680l37 -127c60,30 120,45 180,45 30,0 59,-8 82,-23 15,-7 30,-30 30,-52 0,-15 -15,-37 -30,-45 -15,-15 -45,-30 -90,-45 -134,-44 -194,-104 -194,-194 0,-60 22,-112 67,-149 52,-38 112,-53 194,-53 68,0 135,8 187,30l-37 127c-52,-22 -97,-37 -150,-37 -37,0 -59,7 -74,22 -23,8 -30,23 -30,45 0,15 7,30 22,45 15,7 53,30 112,45 60,22 105,52 135,82 30,30 45,75 45,120 0,59 -23,112 -75,149 -45,37 -120,60 -209,60 -75,0 -142,-15 -202,-45z"/>
   <polygon class="fil3" points="2287,4230 2444,4230 2444,3565 2287,3565 "/>
   <path class="fil3" d="M2735 3677l0 187 67 0c38,0 68,-15 90,-30 23,-15 38,-38 38,-67 0,-30 -15,-53 -30,-68 -23,-15 -53,-22 -90,-22 -37,0 -60,0 -75,0zm-157 553l0 -658c60,-7 127,-15 217,-15 105,0 179,23 224,53 45,37 67,82 67,142 0,37 -14,74 -37,104 -22,30 -52,45 -90,60l0 0c45,22 75,60 98,127 29,120 52,179 52,187l-157 0c-15,-23 -30,-75 -52,-157 -8,-37 -23,-67 -38,-82 -15,-15 -45,-23 -74,-23l-53 0 0 262 -157 0z"/>
   <path class="fil3" d="M3483 3520l-113 0 -104 -127 104 0 60 67 53 -67 104 0 -104 127zm-307 680l30 -127c60,30 120,45 179,45 38,0 60,-8 83,-23 22,-7 30,-30 30,-52 0,-15 -8,-37 -30,-45 -15,-15 -45,-30 -90,-45 -135,-44 -194,-104 -194,-194 0,-60 22,-112 67,-149 52,-38 112,-53 194,-53 75,0 135,8 187,30l-37 127c-53,-22 -97,-37 -150,-37 -30,0 -60,7 -75,22 -22,8 -29,23 -29,45 0,15 7,30 22,45 15,7 52,30 112,45 60,22 112,52 135,82 30,30 44,75 44,120 0,59 -22,112 -74,149 -45,37 -120,60 -202,60 -82,0 -150,-15 -202,-45z"/>
   <path class="fil3" d="M3856 3393l-82 127 127 0 120 -127 -165 0zm-89 837l156 0 0 -665 -156 0 0 665z"/>
   <path class="fil3" d="M4417 4230l-142 0 0 -665 187 0 164 276c30,53 60,120 97,202l0 0c-7,-75 -7,-164 -7,-276l0 -202 142 0 0 665 -165 0c-119,-194 -187,-314 -209,-351 -22,-45 -45,-90 -67,-142l-8 0c8,82 8,179 8,291l0 202z"/>
   <path class="fil3" d="M5186 3946l157 0c-44,-127 -67,-217 -82,-269l0 0 -37 127 -38 142zm180 112l-202 0 -52 172 -165 0 217 -665 209 0 225 665 -172 0 -60 -172z"/>
   <path class="fil3" d="M5844 3938l0 187c8,0 30,0 60,0 45,0 82,-7 105,-22 22,-15 37,-45 37,-75 0,-30 -15,-52 -37,-67 -30,-15 -68,-23 -113,-23l-52 0zm0 -261l0 149 52 0c38,0 75,-7 98,-22 22,-8 29,-30 29,-60 0,-45 -37,-75 -112,-75 -30,0 -52,0 -67,8zm-157 553l0 -658c53,-7 127,-15 202,-15 112,0 187,23 232,53 44,29 67,67 67,119 0,30 -15,60 -30,82 -22,30 -52,45 -90,60l0 0c45,15 83,30 105,60 22,30 37,67 37,105 0,59 -30,104 -74,142 -53,37 -142,59 -277,59 -67,0 -127,0 -172,-7z"/>
   <path class="fil3" d="M6412 3393l-90 127 127 0 128 -127 -165 0zm-97 837l157 0 0 -665 -157 0 0 665z"/>
   <path class="fil3" d="M6771 3684l0 434c7,0 22,0 52,0 82,0 142,-15 187,-60 37,-37 60,-97 60,-172 0,-67 -15,-119 -60,-157 -37,-30 -90,-52 -164,-52 -30,0 -60,0 -75,7zm-157 546l0 -658c67,-7 134,-15 217,-15 142,0 246,30 313,90 60,60 98,142 98,232 0,119 -38,201 -112,269 -75,59 -187,89 -337,89 -67,0 -127,0 -179,-7z"/>
   <path class="fil3" d="M7346 4230l0 -665 157 0 0 291c15,-30 38,-52 53,-75l156 -216 195 0 -232 284 247 381 -187 0 -172 -284 -60 67 0 217 -157 0z"/>
   <path class="fil3" d="M8191 3946l157 0c-45,-127 -68,-217 -83,-269l0 0 -29 127 -45 142zm179 112l-202 0 -52 172 -164 0 216 -665 210 0 224 665 -172 0 -60 -172z"/>
   <polygon class="fil3" points="8901,3565 9058,3565 9058,3819 9334,3819 9334,3565 9491,3565 9491,4230 9334,4230 9334,3953 9058,3953 9058,4230 8901,4230 "/>
   <path class="fil3" d="M9760 3901c0,67 15,120 45,157 37,45 75,60 127,60 60,0 97,-15 135,-60 29,-37 44,-90 44,-157 0,-67 -15,-120 -52,-164 -30,-38 -67,-60 -127,-60 -52,0 -90,22 -127,60 -30,44 -45,97 -45,164zm516 -7c0,104 -30,186 -90,254 -67,59 -149,97 -254,97 -105,0 -187,-38 -247,-97 -59,-68 -89,-142 -89,-247 0,-97 30,-179 97,-247 60,-67 142,-97 247,-97 104,0 186,30 246,90 60,67 90,149 90,247z"/>
   <path class="fil3" d="M10380 4230l0 -665 157 0 0 291c23,-30 45,-52 60,-75l157 -216 194 0 -231 284 246 381 -186 0 -180 -284 -60 67 0 217 -157 0z"/>
   <polygon class="fil3" points="11449,3826 11449,3953 11188,3953 11188,4103 11479,4103 11479,4230 11031,4230 11031,3565 11464,3565 11464,3692 11188,3692 11188,3826 "/>
   <path class="fil3" d="M11733 3983l0 -418 157 0 0 418c0,90 -22,150 -60,195 -45,44 -104,67 -194,67 -45,0 -82,-8 -120,-23l23 -119c30,7 52,15 82,15 37,0 67,-15 82,-38 15,-22 30,-52 30,-97z"/>
   <path class="fil3" d="M12152 3901c0,67 15,120 52,157 30,45 75,60 127,60 52,0 97,-15 127,-60 30,-37 45,-90 45,-157 0,-67 -15,-120 -45,-164 -30,-38 -75,-60 -127,-60 -52,0 -97,22 -127,60 -37,44 -52,97 -52,164zm523 -7c0,104 -30,186 -97,254 -68,59 -150,97 -255,97 -97,0 -179,-38 -246,-97 -60,-68 -90,-142 -90,-247 0,-97 30,-179 97,-247 68,-67 150,-97 247,-97 105,0 187,30 247,90 67,67 97,149 97,247z"/>
   <path class="fil3" d="M13116 4230l-187 0 -232 -665 180 0c89,306 142,478 149,523l0 0c15,-75 37,-157 67,-247l90 -276 172 0 -239 665z"/>
   <path class="fil3" d="M13706 3393l164 0 -119 127 -127 0 82 -127zm52 837l-164 0 0 -277 -224 -388 187 0c82,187 127,276 127,291 15,-45 59,-142 127,-291l179 0 -232 388 0 277z"/>
   <path class="fil3" d="M14565 4095l23 112c-45,23 -105,38 -179,38 -120,0 -210,-38 -277,-97 -67,-60 -97,-142 -97,-239 0,-105 37,-195 105,-255 74,-67 164,-97 283,-97 75,0 135,8 172,30l-30 120c-44,-15 -89,-30 -134,-30 -75,0 -127,22 -172,60 -37,37 -60,97 -60,164 0,67 23,120 60,157 45,37 97,60 172,60 52,0 97,-8 134,-23z"/>
   <polygon class="fil3" points="14700,3565 14857,3565 14857,3819 15126,3819 15126,3565 15283,3565 15283,4230 15126,4230 15126,3953 14857,3953 14857,4230 14700,4230 "/>
   <path class="fil3" d="M15627 4230l0 -665 157 0 0 291c22,-30 44,-52 59,-75l157 -216 195 0 -232 284 247 381 -187 0 -180 -284 -59 67 0 217 -157 0z"/>
   <path class="fil3" d="M16479 3946l157 0c-45,-127 -68,-217 -83,-269l0 0 -37 127 -37 142zm179 112l-209 0 -45 172 -164 0 216 -665 209 0 217 665 -164 0 -60 -172z"/>
   <path class="fil3" d="M17136 3677l0 187 60 0c45,0 75,-15 97,-30 23,-15 30,-38 30,-67 0,-30 -7,-53 -30,-68 -15,-15 -45,-22 -82,-22 -37,0 -67,0 -75,0zm-157 553l0 -658c60,-7 127,-15 210,-15 104,0 179,23 224,53 45,37 67,82 67,142 0,37 -7,74 -30,104 -22,30 -52,45 -89,60l0 0c44,22 74,60 89,127 38,120 60,179 60,187l-164 0c-8,-23 -30,-75 -45,-157 -8,-37 -23,-67 -38,-82 -15,-15 -44,-23 -82,-23l-45 0 0 262 -157 0z"/>
   <polygon class="fil3" points="18018,3826 18018,3953 17757,3953 17757,4103 18048,4103 18048,4230 17600,4230 17600,3565 18033,3565 18033,3692 17757,3692 17757,3826 "/>
   <polygon class="fil3" points="18295,4230 18295,3692 18108,3692 18108,3565 18653,3565 18653,3692 18452,3692 18452,4230 "/>
   <path class="fil3" d="M19259 4230l-187 0 -224 -665 172 0c97,306 142,478 149,523l8 0c14,-75 37,-157 67,-247l89 -276 165 0 -239 665z"/>
   <path class="fil3" d="M20574 3677l0 187 60 0c45,0 75,-15 97,-30 22,-15 30,-38 30,-67 0,-30 -8,-53 -30,-68 -15,-15 -45,-22 -82,-22 -38,0 -68,0 -75,0zm-157 553l0 -658c52,-7 127,-15 209,-15 105,0 180,23 225,53 44,37 67,82 67,142 0,37 -8,74 -30,104 -23,30 -52,45 -90,60l0 0c45,22 75,60 90,127 37,120 52,179 60,187l-165 0c-7,-23 -30,-75 -45,-157 -7,-37 -22,-67 -37,-82 -22,-15 -45,-23 -82,-23l-45 0 0 262 -157 0z"/>
   <path class="fil3" d="M20178 3520l-120 0 -104 -127 112 0 52 67 52 -67 113 0 -105 127zm105 575l29 112c-52,23 -112,38 -186,38 -120,0 -210,-38 -277,-97 -60,-60 -97,-142 -97,-239 0,-105 37,-195 112,-255 67,-67 164,-97 277,-97 74,0 134,8 179,30l-37 120c-38,-15 -90,-30 -135,-30 -67,0 -127,22 -164,60 -45,37 -68,97 -68,164 0,67 23,120 68,157 37,37 89,60 164,60 52,0 97,-8 135,-23z"/>
  </g>
 </g>
</svg>
