<?xml version="1.0" encoding="UTF-8"?>
<!DOCTYPE svg PUBLIC "-//W3C//DTD SVG 1.1//EN" "http://www.w3.org/Graphics/SVG/1.1/DTD/svg11.dtd">
<!-- Creator: CorelDRAW X8 -->
<svg xmlns="http://www.w3.org/2000/svg" xml:space="preserve" width="210mm" height="74.702mm" version="1.1" style="shape-rendering:geometricPrecision; text-rendering:geometricPrecision; image-rendering:optimizeQuality; fill-rule:evenodd; clip-rule:evenodd"
viewBox="0 0 21000 7470"
 xmlns:xlink="http://www.w3.org/1999/xlink">
 <defs>
  <style type="text/css">
   <![CDATA[
    .fil0 {fill:#89393A;fill-rule:nonzero}
    .fil1 {fill:#BC2C2C;fill-rule:nonzero}
   ]]>
  </style>
 </defs>
 <g id="Vrstva_x0020_1">
  <metadata id="CorelCorpID_0Corel-Layer"/>
  <g id="_2151665912016">
   <g>
    <polygon class="fil0" points="4487,2586 5342,5795 6574,5795 7437,2586 8315,5795 9453,5795 8134,0 6754,0 5931,3375 5163,0 3783,0 2394,5818 1354,1565 0,1565 1570,7470 3211,7470 "/>
    <polygon class="fil1" points="6574,5795 8134,0 6754,0 5342,5795 "/>
    <polygon class="fil1" points="5163,0 3783,0 2394,5818 1354,1565 0,1565 1570,7470 3211,7470 "/>
   </g>
   <g>
    <path class="fil0" d="M11594 2110l760 1007 -659 0 -620 -871 0 871 -547 0 0 -1972 547 0 0 852 627 -852 652 0 -760 965zm2187 678l-699 0 -108 329 -578 0 721 -1962 633 0 716 1962 -577 0 -108 -329zm-139 -413l-211 -638 -213 638 424 0zm1988 742l-399 -728 -54 0 0 728 -549 0 0 -1972 866 0c157,0 291,28 402,82 110,57 194,132 248,228 57,96 85,204 85,326 0,136 -38,256 -115,357 -75,101 -186,171 -329,214l448 765 -603 0zm-453 -1094l270 0c153,0 228,-68 228,-206 0,-66 -19,-115 -56,-153 -40,-38 -97,-56 -172,-56l-270 0 0 415zm2751 -878l0 439 -530 0 0 1533 -545 0 0 -1533 -528 0 0 -439 1603 0zm1978 0l-694 1345 0 627 -545 0 0 -627 -697 -1345 627 0 347 754 345 -754 617 0z"/>
    <path class="fil0" d="M12816 3833l0 1962 -542 0 0 -1113 -364 1113 -471 0 -364 -1113 0 1113 -547 0 0 -1962 669 0 486 1274 469 -1274 664 0zm1305 1962l-396 -728 -57 0 0 728 -547 0 0 -1972 864 0c157,0 294,28 404,82 110,57 192,132 249,228 54,96 82,204 82,326 0,136 -38,256 -113,357 -77,101 -185,171 -328,213l448 766 -606 0zm-453 -1094l270 0c153,0 228,-68 228,-207 0,-63 -19,-115 -56,-152 -38,-38 -94,-57 -172,-57l-270 0 0 416zm3089 1094l-547 0 -725 -1099 0 1099 -547 0 0 -1967 547 0 725 1112 0 -1112 547 0 0 1967zm1370 -1007l761 1007 -660 0 -619 -871 0 871 -549 0 0 -1972 549 0 0 852 626 -852 653 0 -761 965zm2185 678l-697 0 -108 329 -577 0 721 -1962 631 0 718 1962 -577 0 -111 -329zm-136 -411l-211 -640 -214 640 425 0z"/>
    <polygon class="fil0" points="15619,3499 15773,3499 15849,3675 15926,3499 16076,3499 15912,3776 15781,3776 "/>
   </g>
  </g>
 </g>
</svg>
