<?xml version="1.0" encoding="UTF-8"?>
<!DOCTYPE svg PUBLIC "-//W3C//DTD SVG 1.1//EN" "http://www.w3.org/Graphics/SVG/1.1/DTD/svg11.dtd">
<!-- Creator: CorelDRAW X7 -->
<svg xmlns="http://www.w3.org/2000/svg" xml:space="preserve" width="210mm" height="86.284mm" version="1.1" style="shape-rendering:geometricPrecision; text-rendering:geometricPrecision; image-rendering:optimizeQuality; fill-rule:evenodd; clip-rule:evenodd"
viewBox="0 0 21000 8628"
 xmlns:xlink="http://www.w3.org/1999/xlink">
 <defs>
  <style type="text/css">
   <![CDATA[
    .fil1 {fill:black;fill-rule:nonzero}
    .fil0 {fill:#001D60;fill-rule:nonzero}
    .fil3 {fill:#A37D5C;fill-rule:nonzero}
    .fil5 {fill:#CC0A0F;fill-rule:nonzero}
    .fil6 {fill:#CCB078;fill-rule:nonzero}
    .fil4 {fill:#F0CC8A;fill-rule:nonzero}
    .fil2 {fill:white;fill-rule:nonzero}
   ]]>
  </style>
 </defs>
 <g id="Vrstva_x0020_1">
  <metadata id="CorelCorpID_0Corel-Layer"/>
  <g id="_2608424738384">
   <path class="fil0" d="M8510 2875l122 0c41,0 75,-3 102,-8 27,-5 49,-14 67,-26 18,-12 32,-28 42,-48 10,-21 18,-46 24,-76 4,-24 6,-47 6,-68 0,-49 -14,-83 -42,-102 -29,-19 -73,-28 -131,-28l-120 0 -70 356zm-79 401l-85 445 -510 0 314 -1606 588 0c212,0 373,37 483,112 110,74 164,192 164,355 0,45 -4,94 -13,149 -18,108 -50,197 -96,267 -46,70 -102,125 -169,167 -67,41 -144,70 -230,86 -87,17 -179,25 -279,25l-167 0z"/>
   <path class="fil0" d="M10229 3328c47,0 86,-5 118,-14 33,-10 60,-29 83,-57 22,-28 41,-67 57,-119 16,-52 31,-121 46,-207 18,-99 27,-178 27,-236 0,-76 -14,-126 -42,-153 -29,-26 -72,-39 -129,-39 -45,0 -84,5 -116,14 -32,10 -61,30 -85,59 -24,29 -44,70 -61,122 -16,52 -32,120 -47,204 -18,98 -27,176 -27,235 0,75 14,125 43,152 28,26 73,39 133,39zm841 -385c-29,153 -67,282 -116,386 -49,105 -110,189 -182,253 -72,64 -156,110 -253,138 -97,27 -207,41 -331,41 -224,0 -392,-48 -504,-145 -112,-97 -168,-248 -168,-452 0,-83 9,-174 27,-273 29,-155 68,-285 117,-389 48,-105 109,-189 181,-253 72,-64 156,-110 253,-138 96,-27 206,-41 331,-41 224,0 392,49 504,146 112,98 168,250 168,456 0,81 -9,171 -27,271z"/>
   <path class="fil0" d="M11785 2115l523 0 -191 986c-23,112 -53,208 -90,287 -37,79 -83,144 -140,194 -58,50 -126,87 -205,109 -79,23 -171,34 -276,34 -90,0 -169,0 -238,-1 -68,-1 -120,-3 -154,-6l160 -421c30,1 58,2 83,2l84 0c76,0 134,-15 173,-44 39,-29 66,-81 79,-154l192 -986z"/>
   <path class="fil0" d="M12989 2548l-144 740 95 0c58,0 109,-4 152,-13 43,-8 79,-25 109,-51 30,-25 56,-62 76,-111 20,-49 38,-114 53,-195 6,-35 10,-66 13,-94 3,-28 5,-53 5,-75 0,-41 -5,-74 -16,-101 -10,-26 -27,-47 -50,-62 -22,-15 -51,-25 -85,-30 -35,-5 -75,-8 -122,-8l-86 0zm278 -762l137 -140 424 0 -347 334 -490 0 -214 -334 406 0 84 140zm-709 329l591 0c241,0 423,48 546,143 123,96 185,249 185,459 0,69 -7,143 -20,221 -26,161 -68,292 -127,394 -58,101 -130,180 -215,238 -85,57 -182,96 -291,118 -109,22 -227,33 -355,33l-627 0 313 -1606z"/>
   <polygon class="fil0" points="15508,3137 15096,3137 14983,3721 14460,3721 14773,2115 15297,2115 15186,2679 15599,2679 15709,2115 16232,2115 15919,3721 15396,3721 "/>
   <path class="fil0" d="M16828 2841l158 0c39,0 72,-2 99,-7 27,-4 50,-12 67,-23 19,-12 32,-27 42,-45 10,-19 18,-43 24,-71 5,-23 7,-43 7,-61 0,-45 -15,-77 -44,-95 -30,-18 -74,-27 -132,-27l-156 0 -65 329zm76 383l-151 0 -97 497 -487 0 314 -1606 627 0c94,0 180,9 256,26 76,17 140,44 194,80 53,36 94,83 123,140 28,57 42,126 42,207 0,21 0,43 -2,66 -1,22 -4,46 -9,70 -21,123 -63,221 -125,293 -62,72 -137,126 -222,162l198 562 -503 0 -158 -497z"/>
   <path class="fil0" d="M18871 1644l503 0 -383 336 -429 0 309 -336zm-367 1380l254 0 -36 -474 -218 474zm284 390l-463 0 -140 307 -525 0 844 -1606 604 0 221 1606 -519 0 -22 -307z"/>
   <polygon class="fil0" points="20423,2541 20193,3721 19669,3721 19900,2541 19403,2541 19566,2115 21000,2115 20838,2541 "/>
   <polygon class="fil0" points="9048,5855 8355,5855 8165,6836 7286,6836 7813,4138 8692,4138 8506,5086 9199,5086 9385,4138 10264,4138 9738,6836 8859,6836 "/>
   <path class="fil0" d="M11534 6177c78,0 144,-8 199,-25 54,-16 100,-48 138,-95 38,-46 70,-113 96,-200 27,-88 53,-203 78,-347 30,-167 46,-299 46,-398 0,-126 -25,-212 -72,-256 -48,-44 -121,-66 -216,-66 -76,0 -141,8 -196,25 -54,16 -101,49 -142,98 -40,49 -74,117 -102,205 -28,87 -54,201 -80,343 -30,164 -45,295 -45,394 0,126 24,211 72,255 48,45 122,67 224,67zm1413 -648c-48,258 -113,474 -195,650 -82,175 -184,317 -305,424 -122,107 -264,184 -427,231 -163,47 -348,70 -555,70 -376,0 -658,-81 -846,-244 -189,-163 -283,-416 -283,-760 0,-139 15,-292 46,-458 48,-260 113,-478 195,-654 82,-176 184,-317 305,-424 121,-108 263,-185 424,-231 162,-47 347,-70 557,-70 376,0 659,82 847,246 188,164 282,419 282,765 0,137 -15,288 -45,455z"/>
   <polygon class="fil0" points="14216,5154 15054,4138 16020,4138 14875,5472 15614,6836 14591,6836 14091,5794 13890,6836 13064,6836 13591,4138 14417,4138 "/>
   <polygon class="fil0" points="15841,6836 16368,4138 18444,4138 18183,4817 17077,4817 17012,5139 18096,5139 17838,5809 16883,5809 16815,6158 18085,6158 17827,6836 "/>
   <path class="fil0" d="M18545 6128l-32 0c-43,0 -90,-2 -141,-4l-269 708c59,5 145,8 260,10 20,0 42,0 64,0l118 -714z"/>
   <path class="fil0" d="M19399 4138l-322 1656c-23,124 -67,210 -132,260 -15,11 -32,20 -50,29l-25 758c133,-7 252,-24 357,-54 133,-38 247,-99 343,-184 96,-85 175,-193 237,-326 61,-133 111,-293 149,-483l322 -1656 -879 0z"/>
   <path class="fil0" d="M18803 6112c-45,10 -94,15 -150,15l-16 0 -118 716c76,0 156,1 244,1 5,0 10,-1 16,-1l24 -731z"/>
   <path class="fil1" d="M2855 8537c-42,0 -79,-29 -89,-70 -1,-3 -80,-340 -179,-561l-54 -120 -16 14c-17,15 -38,23 -60,23l-15 -2c-27,-4 -50,-21 -64,-45 -4,-6 -92,-164 -141,-358 -3,-12 -6,-24 -9,-35 -9,4 -19,7 -28,8l-13 1c-24,0 -48,-10 -65,-28 -6,-6 -141,-148 -198,-377 -5,-19 -9,-37 -13,-53 -10,7 -22,12 -34,15 -7,2 -14,3 -21,3 -24,0 -47,-10 -64,-27 -19,-18 -81,-96 -111,-322 -23,-170 -42,-270 -68,-350 -13,29 -39,49 -70,54l-13 1c-27,0 -53,-12 -70,-32 -5,-6 -120,-145 -130,-386 -7,-163 -38,-252 -70,-316l-12 43c-8,27 -28,50 -54,60 -11,4 -22,6 -34,6 -16,0 -33,-4 -48,-13 -7,-5 -185,-116 -271,-305 -34,-75 -67,-168 -93,-250 -13,15 -30,26 -49,31 -7,2 -14,2 -21,2 -17,0 -33,-4 -48,-13 -8,-5 -200,-124 -200,-418 0,-80 -1,-152 -2,-214 -18,17 -40,25 -63,25 -22,0 -44,-8 -62,-24 -29,-27 -96,-122 -76,-404 10,-148 34,-274 54,-362 -35,11 -51,19 -51,19 -13,6 -26,9 -40,9 -12,0 -24,-2 -35,-7 -24,-10 -43,-30 -51,-54 -6,-18 -56,-183 91,-460 72,-138 140,-272 185,-364 -20,-5 -42,-12 -64,-21 -106,-45 -155,-102 -164,-113 -18,-23 -24,-53 -16,-82 8,-28 30,-51 57,-60 3,-1 108,-44 200,-221 36,-69 68,-121 96,-162l-12 -4c-67,-24 -90,-35 -96,-38 -28,-14 -47,-42 -50,-74 -2,-32 12,-62 38,-81 1,-1 110,-81 151,-206 46,-138 220,-285 367,-379 -28,-19 -48,-37 -59,-55 -22,-35 -18,-81 11,-111 4,-5 111,-116 318,-274 106,-82 225,-150 319,-198 -63,-60 -83,-94 -89,-106 -15,-30 -13,-66 7,-93 17,-25 45,-39 74,-39l11 1c14,0 92,-3 281,-58 168,-50 326,-62 434,-63 -36,-50 -52,-78 -53,-81 -16,-28 -15,-63 2,-90 16,-28 46,-45 78,-45l1 0c13,0 306,5 467,35 -15,-23 -22,-36 -22,-37 -16,-28 -16,-61 0,-89 16,-28 45,-45 76,-46l7 0c32,0 204,5 367,109 61,39 110,73 148,100 32,-41 79,-80 144,-101 129,-40 213,-42 222,-42 37,0 75,18 89,53 10,25 10,51 -1,73 79,-24 180,-46 274,-46 42,0 81,4 115,13l66 17c113,29 182,47 219,47l7 0c36,-3 54,-11 54,-11 12,-5 25,-7 37,-7 29,0 58,13 75,38 25,35 22,83 -7,114l-2 2c109,4 215,25 314,64 266,102 536,202 538,203 37,13 61,50 60,89 -2,40 -29,73 -67,84 0,0 -12,4 -28,13 55,24 115,59 166,108 110,105 182,149 259,196 70,43 120,56 121,56 33,8 59,35 67,68 7,34 -4,69 -31,91 -6,4 -21,17 -41,31 75,54 158,138 213,264 108,243 155,326 213,426 46,78 80,102 81,102 33,20 49,59 40,97 -9,39 -43,66 -82,70 0,0 -8,1 -21,2 21,42 39,92 54,150 50,203 77,282 124,367 27,49 42,67 47,73 29,20 45,56 38,92 -8,43 -46,74 -89,74 -5,0 -25,0 -54,-2 4,12 7,24 10,37 35,150 70,249 111,312 42,65 69,90 69,90 26,24 36,62 25,96 -10,33 -40,58 -75,63 0,0 -24,3 -60,3 -34,0 -66,-3 -96,-9 2,18 14,98 14,98 14,103 21,154 59,240 38,89 55,114 56,115 22,28 25,65 9,97 -16,30 -48,48 -82,48l-4 0c-12,-1 -117,-5 -185,-19 -1,56 -5,120 -15,180 -23,131 -41,246 -28,331 13,90 17,116 18,119 6,33 -6,68 -34,89 -16,13 -36,19 -56,19 -13,0 -26,-2 -38,-8 -14,-7 -75,-36 -122,-72 -21,40 -48,90 -83,149 -42,72 -55,121 -69,173 -17,60 -34,122 -91,203l-95 133c-17,24 -45,38 -74,38l-5 0c-31,-2 -59,-20 -74,-47 -3,-5 -21,-36 -39,-72 -14,21 -30,45 -47,72 -92,145 -179,403 -180,406 -9,28 -32,50 -61,59 -8,2 -17,3 -25,3 -21,0 -42,-7 -58,-21 -4,-4 -29,-24 -55,-51 -17,30 -38,62 -63,99 -121,176 -148,229 -163,281 -17,62 -31,129 -31,130 -7,34 -32,61 -65,70 -8,2 -16,3 -24,3 -25,0 -50,-10 -67,-29 -2,-2 -33,-36 -65,-73 -31,40 -71,82 -123,119 -111,77 -162,165 -186,224 -28,69 -51,134 -51,134 -10,30 -36,52 -67,59 -6,1 -12,2 -18,2 -25,0 -49,-11 -67,-29 -13,-14 -47,-52 -76,-93 -23,28 -51,57 -81,84 -76,68 -167,278 -174,333l-9 71c-5,34 -29,63 -63,74 -9,3 -18,5 -28,5 -24,0 -48,-11 -66,-29 -18,-19 -34,-37 -47,-54 -19,24 -41,52 -67,83 -113,135 -122,183 -132,238 -12,63 -13,88 -13,89 -1,31 -19,61 -46,77 -15,8 -30,12 -46,12 -15,0 -30,-4 -44,-12 -7,-4 -55,-32 -98,-70 -18,46 -40,104 -64,177 -73,212 -110,442 -110,444 -7,43 -43,75 -87,76l-3 0z"/>
   <path class="fil2" d="M2750 0l0 0 -9 0c-64,3 -122,37 -153,93 -11,19 -18,41 -21,62 -152,-14 -319,-17 -344,-18l-2 0c-64,0 -124,34 -156,89 -25,41 -32,89 -22,134 -92,9 -198,27 -309,59 -155,46 -228,53 -249,55 -12,-3 -24,-4 -36,-4 -52,0 -98,25 -134,69 -44,56 -42,134 -10,198 6,12 15,25 26,40 -75,43 -155,94 -229,150 -212,163 -324,279 -329,284 -55,58 -66,146 -27,215 -134,100 -268,231 -312,365 -31,94 -117,159 -118,160 -52,37 -80,99 -75,162 5,64 42,120 100,149 2,1 6,3 12,6 -13,22 -26,47 -40,74 -67,127 -137,169 -153,178 -58,16 -97,57 -117,115 -19,59 -1,121 38,169 15,19 67,78 172,128 -39,79 -88,174 -139,270 -161,305 -108,497 -96,533 17,50 54,92 103,111 15,6 29,10 44,12 -12,69 -23,149 -29,235 -20,295 46,423 105,478 28,26 63,41 98,46 0,32 0,65 0,100 0,338 219,481 244,496 29,17 61,26 95,26l15 0c20,57 42,114 65,164 96,210 285,331 307,344 29,18 62,27 95,27 22,0 44,-4 66,-12 6,37 11,80 13,132 12,267 137,423 151,440 35,42 86,65 140,65 8,0 17,-1 26,-2 11,57 22,127 35,218 31,238 99,337 137,374 31,32 73,51 117,53 66,229 196,369 211,385 28,29 65,48 103,54 54,187 136,333 140,340 27,48 73,81 127,90 11,2 21,3 31,3 11,0 22,-1 33,-3l14 33c96,212 173,541 174,544 19,82 93,140 177,140l6 0c87,-3 160,-67 174,-153 0,-2 36,-225 106,-429 7,-22 15,-43 21,-62l10 5c30,17 63,27 97,27 31,0 61,-8 89,-25 56,-35 89,-92 86,-157 1,-8 3,-31 11,-73 8,-45 15,-80 112,-197l3 -3c32,23 70,35 109,35 18,0 37,-2 55,-8 67,-22 116,-80 125,-149l9 -71c10,-52 92,-230 145,-277l15 -13c5,6 10,12 15,16 35,37 83,58 132,58 13,0 25,-2 38,-4 62,-13 113,-57 134,-117 0,-1 23,-64 50,-131 19,-48 61,-119 153,-184 26,-18 49,-37 70,-57 35,37 83,57 133,57 16,0 33,-2 49,-7 66,-18 116,-72 129,-139 0,-1 13,-65 30,-123 12,-41 37,-90 150,-255l9 -12c28,16 60,25 92,25 17,0 33,-2 50,-7 58,-16 104,-60 123,-117 20,-61 80,-224 142,-339 30,25 67,39 106,41l10 1c58,0 114,-29 148,-76l95 -133c67,-95 88,-171 104,-233 13,-47 25,-88 61,-150 13,-24 26,-46 38,-66 20,11 37,19 49,25 24,12 51,17 78,17 39,0 79,-13 111,-38 55,-43 81,-112 67,-179 0,0 -5,-25 -17,-113 -11,-73 7,-185 27,-304 6,-30 9,-61 12,-92 45,4 83,6 95,7l9 0c73,0 145,-35 174,-102 29,-68 21,-138 -30,-190 -6,-11 -21,-39 -45,-95 -31,-71 -37,-112 -50,-202 33,-1 56,-3 61,-4 74,-9 139,-58 159,-130 19,-71 -2,-142 -60,-187 -6,-7 -25,-28 -53,-71 -28,-44 -56,-116 -82,-218 59,-21 105,-72 117,-137 13,-67 -13,-134 -63,-175 -6,-7 -16,-22 -32,-51 -39,-72 -63,-135 -115,-345 -6,-24 -13,-48 -20,-70 43,-26 75,-67 83,-117 12,-81 -20,-153 -92,-187 -9,-9 -28,-30 -52,-72 -59,-99 -102,-177 -208,-416 -42,-95 -99,-170 -160,-230 28,-41 38,-93 26,-142 -17,-69 -69,-121 -138,-134 -1,0 -39,-11 -93,-44 -76,-47 -141,-87 -244,-185 -19,-18 -40,-35 -61,-50 14,-24 22,-51 24,-79 7,-82 -49,-156 -125,-185 -3,-1 -272,-100 -537,-202 -72,-28 -147,-48 -224,-59 0,-39 -13,-77 -38,-108 -37,-44 -88,-68 -138,-68 -30,0 -60,8 -88,26 -5,1 -13,2 -24,3 -25,0 -104,-20 -195,-44l-66 -17c-42,-11 -89,-16 -138,-16 -67,0 -135,9 -198,23 -30,-63 -94,-103 -164,-103 -17,0 -111,3 -249,47 -50,16 -93,40 -128,68 -26,-17 -55,-37 -88,-58 -180,-114 -364,-123 -416,-123zm0 182c25,0 175,4 318,95 156,99 227,161 227,161 0,0 24,-114 142,-152 118,-38 194,-38 194,-38 0,0 -19,24 -28,86 -10,61 4,85 4,85 0,0 209,-91 386,-91 32,0 64,3 93,10 169,44 251,67 307,67l14 -1c57,-4 86,-18 86,-18l-166 175c0,0 76,-21 190,-21 89,0 203,13 321,59 270,104 540,203 540,203 0,0 -52,14 -109,66 -57,52 -76,76 -76,76 0,0 171,24 284,133 114,108 190,156 275,208 85,52 146,66 146,66 0,0 -75,62 -123,81 -47,19 -66,19 -66,19 0,0 227,56 336,302 109,247 156,332 218,436 62,104 109,132 109,132 0,0 -33,4 -69,4 -28,0 -58,-2 -78,-8 -47,-14 -66,-29 -66,-29 0,0 113,90 166,299 52,208 80,293 132,388 52,94 76,104 76,104 0,0 -76,0 -138,-14 -61,-15 -90,-38 -90,-38 0,0 62,57 95,199 33,142 71,260 123,340 52,81 85,109 85,109 0,0 -20,3 -49,3 -29,0 -66,-3 -102,-12 -71,-19 -104,-29 -104,-29 0,0 9,62 28,194 19,133 24,195 71,303 48,109 67,133 67,133 0,0 -119,-5 -180,-19 -62,-14 -104,-52 -104,-52 0,0 14,170 -10,308 -24,137 -43,260 -28,359 14,100 19,123 19,123 0,0 -90,-42 -128,-80 -38,-38 -57,-66 -57,-66 0,0 -38,90 -137,260 -100,170 -62,237 -156,369l-95 133c0,0 -43,-76 -62,-123 -19,-48 -28,-95 -28,-95 0,0 -52,57 -152,213 -99,156 -189,426 -189,426 0,0 -57,-47 -85,-85 -28,-38 -47,-85 -47,-85 0,0 4,56 -119,236 -123,180 -156,242 -175,308 -19,66 -33,137 -33,137 0,0 -52,-57 -90,-104 -38,-47 -42,-85 -42,-85 0,0 -48,132 -176,222 -127,90 -189,194 -218,265 -28,71 -52,138 -52,138 0,0 -70,-76 -89,-123 -19,-48 -34,-90 -34,-90 0,0 -66,113 -160,199 -95,85 -195,317 -204,388l-10 71c0,0 -71,-76 -80,-105 -9,-28 -19,-61 -19,-61 0,0 -33,57 -151,199 -119,142 -138,203 -152,279 -14,76 -14,104 -14,104 0,0 -66,-38 -104,-80 -38,-43 -66,-81 -66,-81 0,0 -48,95 -123,317 -76,223 -114,459 -114,459 0,0 -81,-345 -185,-577l-104 -232 -109 95c0,0 -85,-152 -132,-336 -48,-185 -52,-251 -52,-251l-86 156c0,0 -123,-128 -175,-336 -52,-208 -71,-265 -71,-265 0,0 -56,76 -71,118l-14 43c0,0 -57,-57 -85,-270 -28,-213 -52,-322 -90,-417 -38,-94 -76,-132 -76,-132l-75 175c0,0 -100,-118 -109,-331 -10,-213 -57,-318 -105,-398 -47,-80 -94,-118 -94,-118l-62 222c0,0 -161,-99 -236,-265 -76,-165 -147,-435 -147,-435l-99 165c0,0 -157,-94 -157,-340 0,-246 -9,-426 -9,-426l-147 146c0,0 -66,-61 -47,-331 19,-270 85,-469 85,-469 0,0 -19,-5 -48,-5 -20,0 -44,3 -70,10 -67,19 -95,33 -95,33 0,0 -47,-137 85,-388 133,-251 246,-487 246,-487 0,0 -14,2 -38,2 -32,0 -81,-5 -132,-26 -90,-38 -128,-85 -128,-85 0,0 137,-48 251,-265 114,-218 180,-256 180,-256 0,0 -81,-14 -147,-38 -66,-23 -85,-33 -85,-33 0,0 133,-95 185,-251 52,-156 355,-369 482,-412 -161,-61 -184,-99 -184,-99 0,0 104,-109 307,-265 204,-156 464,-265 464,-265 0,0 -61,0 -128,-62 -66,-61 -80,-90 -80,-90 0,0 3,1 11,1 28,0 116,-6 306,-62 152,-45 302,-60 426,-60 72,0 136,6 185,12 -128,-142 -175,-227 -175,-227 0,0 326,5 473,38 147,33 189,57 189,57 0,0 -9,-47 -61,-118 -52,-71 -76,-114 -76,-114l4 0z"/>
   <path class="fil3" d="M4299 594c14,0 104,-24 236,-14 133,9 138,9 270,42 133,33 213,62 327,104 113,43 165,71 165,71 0,0 -71,71 -109,114l-37 43c0,0 198,42 317,146 118,104 208,161 270,204 61,42 94,61 94,61 0,0 -24,43 -109,67l-85 23c0,0 137,33 241,138 105,104 166,246 223,359 57,114 85,194 133,261 47,66 71,99 71,99 0,0 -100,-24 -128,-28 -29,-5 -62,-15 -62,-15 0,0 104,133 166,289 61,156 90,313 123,379 33,66 61,113 61,113 0,0 -99,-4 -137,-23 -38,-19 -57,-38 -57,-38 0,0 43,132 100,284 57,151 61,222 109,289l47 66c0,0 -85,19 -147,-5 -61,-24 -80,-38 -80,-38 0,0 19,85 42,204 24,118 24,170 62,270 38,99 57,165 57,165 0,0 -81,-9 -137,-14 -57,-5 -105,-38 -105,-38 0,0 10,133 -23,298 -33,166 -62,247 -43,336 19,90 24,128 24,128 0,0 -76,-47 -114,-80 -38,-33 -61,-66 -61,-66 0,0 -67,170 -128,284 -62,113 -95,236 -133,293 -38,57 -90,180 -99,166 -10,-14 -52,-104 -66,-138 -15,-33 -29,-56 -29,-56 0,0 -142,137 -208,279 -66,142 -152,355 -152,355 0,0 -33,-66 -66,-100l-33 -33c0,0 -99,138 -170,266 -71,127 -123,165 -142,236 -19,71 -43,142 -43,142 0,0 -28,-52 -66,-94 -38,-43 -52,-81 -52,-81 0,0 -71,123 -156,199 -86,75 -199,118 -237,232 -38,113 -57,175 -57,175 0,0 -28,-48 -71,-114 -43,-66 -57,-94 -57,-94 0,0 -57,89 -146,194 -90,104 -142,179 -180,284 -38,104 -57,161 -57,161 0,0 0,-29 -38,-71 -38,-43 -52,-71 -52,-71 0,0 -57,71 -137,170 -81,99 -176,208 -185,289 -9,80 -14,128 -14,128 0,0 -38,-53 -85,-95 -48,-43 -71,-66 -71,-66 0,0 -76,132 -123,284 -48,151 -109,397 -109,397 0,0 -62,-232 -152,-449 -90,-218 -123,-289 -123,-289 0,0 -51,73 -80,90 0,0 -94,-90 -147,-294 -52,-198 -47,-279 -47,-279l-123 166c0,0 -128,-176 -166,-379 -38,-203 -47,-227 -47,-227l-114 137c0,0 -47,-151 -80,-327 -34,-175 -29,-255 -86,-345 -57,-90 -71,-114 -71,-114l-85 147c0,0 -57,-85 -80,-218 -24,-132 4,-265 -67,-383 -71,-118 -165,-222 -165,-222l-71 217c0,0 -138,-57 -213,-251 -76,-194 -86,-284 -109,-355 -24,-71 -38,-99 -38,-99l-123 147c0,0 -128,-109 -128,-303 0,-194 -5,-332 -5,-379l0 -80 -151 137c0,0 -43,-246 -19,-417 24,-170 85,-326 85,-326 0,0 -128,-19 -165,-10 -38,10 -76,24 -76,24 0,0 33,-185 94,-322 62,-137 161,-256 209,-345 47,-90 52,-176 52,-176 0,0 -90,-9 -147,-28 -57,-19 -114,-57 -114,-57 0,0 166,-165 209,-251 42,-85 109,-198 146,-241l38 -43c0,0 -104,-42 -137,-57 -33,-14 -57,-28 -57,-28 0,0 142,-170 175,-256 34,-85 67,-118 166,-194 99,-75 317,-194 317,-194l-185 -104c0,0 280,-255 436,-355 156,-99 298,-170 298,-170 0,0 -99,-29 -123,-71 -23,-43 -42,-62 -42,-62 0,0 326,-61 516,-94 189,-33 279,-24 326,-19l47 4c0,0 -42,-71 -75,-127 -34,-57 -67,-100 -67,-100 0,0 166,-4 351,29 184,33 336,113 336,113 0,0 -85,-113 -119,-175 -33,-62 -66,-104 -66,-104 0,0 142,0 275,90 132,90 218,194 232,189 14,-5 38,-90 85,-132 47,-43 123,-57 166,-62 42,-5 61,-14 61,-14 0,0 -38,57 -28,118l9 62c0,0 109,-38 161,-62 52,-23 218,-47 346,-28 127,19 194,52 241,61 47,10 85,10 85,10 0,0 -71,47 -90,80 -19,34 -23,81 -23,81z"/>
   <path class="fil4" d="M3734 1578c0,0 110,54 202,135 93,82 221,220 267,256 46,35 78,67 110,71 32,3 21,-18 124,-46 103,-29 220,-103 330,-128 110,-25 309,-29 416,11 106,39 213,81 287,163 75,81 146,188 192,280 46,93 74,188 89,288 14,99 -36,216 -86,287 -49,71 -181,128 -273,199 -92,71 -142,114 -163,160 -22,46 -39,67 -39,67 0,0 156,139 234,249 78,110 238,256 206,667 -18,224 -43,345 -128,508 -85,163 -227,295 -408,419 -181,124 -486,309 -643,408 -156,100 -305,266 -444,433 -138,167 -223,377 -401,501 -177,124 -344,191 -546,209 -203,18 -512,-3 -725,-64 -213,-60 -316,-92 -394,-241 -78,-149 -78,-419 -88,-579 -11,-159 -40,-241 -114,-412 -75,-170 -142,-255 -142,-255 0,0 -373,-220 -540,-377 -166,-156 -301,-347 -355,-635 -53,-287 -21,-497 43,-671 64,-174 202,-323 398,-408 195,-85 372,-107 450,-135l79 -28c0,0 -125,-107 -228,-245 -103,-139 -198,-370 -99,-544 99,-173 277,-383 362,-443 85,-61 135,-107 248,-78 114,28 132,10 242,64 110,53 213,120 295,138 81,18 64,32 124,14 60,-18 81,-64 220,-113 138,-50 234,-82 234,-82 0,0 -131,85 -160,121 -28,35 -70,156 -70,156 0,0 81,-29 145,-39 64,-11 99,-18 99,-18 0,0 -14,53 0,128 15,74 47,120 47,120l106 -71c0,0 32,40 43,111 10,71 49,230 49,230 0,0 100,-67 164,-216 64,-149 57,-227 57,-227 0,0 28,7 88,49 61,43 103,68 103,68 0,0 14,-167 -21,-309 -36,-142 -53,-181 -53,-181l67 35z"/>
   <path class="fil2" d="M3028 2246c15,24 28,74 28,152 0,79 -142,451 -227,572 -85,121 -309,394 -387,469 -78,74 -206,152 -305,106 -100,-46 -185,-153 -192,-245 -7,-92 -18,-202 46,-302 64,-99 167,-234 270,-351 103,-117 177,-238 326,-341 150,-103 203,-110 252,-113 50,-4 146,-15 189,53z"/>
   <path class="fil1" d="M4923 3699c0,0 38,9 104,71 67,61 161,189 161,189 0,0 -127,57 -189,104 -61,48 -113,76 -113,76l37 -440z"/>
   <path class="fil2" d="M5581 3850c0,0 24,90 43,175 19,86 14,119 14,119 0,0 -255,-109 -350,-142l-95 -33c0,0 -75,-114 -114,-152 -37,-38 -118,-113 -118,-113 0,0 218,28 336,52 119,23 284,94 284,94z"/>
   <path class="fil5" d="M5596 4409c0,0 -105,-85 -280,-142 -175,-57 -402,-118 -402,-118 0,0 14,-38 85,-86 71,-47 170,-109 170,-109 0,0 147,38 242,71 94,34 218,90 218,90 0,0 4,38 9,138 5,99 -42,156 -42,156z"/>
   <path class="fil5" d="M3981 5247c0,0 -99,184 -141,260 -43,76 -147,227 -223,355 -76,128 -260,284 -260,284 0,0 -228,19 -573,5 -346,-14 -630,-95 -630,-95 0,0 -42,-208 -85,-407 -42,-199 -142,-355 -142,-355 0,0 81,28 190,38 108,9 208,28 288,14 81,-14 166,-38 213,-85 48,-47 76,-76 76,-76 0,0 24,100 95,137 71,38 322,100 582,76 260,-24 483,-94 610,-151z"/>
   <path class="fil1" d="M2841 5801c-71,-5 -62,-100 -204,-100 -142,0 -312,289 133,327 445,38 516,-178 454,-232 -189,-166 -241,14 -383,5z"/>
   <polygon class="fil2" points="3674,5375 3522,5687 3432,5393 "/>
   <polygon class="fil2" points="2277,5332 2202,5578 2055,5308 "/>
   <path class="fil2" d="M2126 6028c24,9 312,118 606,127 293,10 606,5 606,5 0,0 -119,142 -299,199 -179,57 -274,62 -430,38 -156,-24 -299,-52 -369,-123 -71,-71 -114,-246 -114,-246z"/>
   <path class="fil1" d="M706 3737c14,5 213,203 213,203 0,0 -90,52 -118,114 -29,61 -81,123 -81,123 0,0 -28,-166 -28,-270 0,-104 14,-170 14,-170z"/>
   <path class="fil2" d="M1321 3732l-9 180 -393 28c0,0 -242,-208 -213,-203 28,4 251,-62 402,-48 152,15 213,43 213,43z"/>
   <path class="fil5" d="M1288 4111c0,0 -265,-15 -402,28 -137,43 -166,38 -166,38 0,0 62,-104 109,-156 47,-52 90,-81 90,-81l393 -28 -24 199z"/>
   <path class="fil0" d="M2463 3403c-150,-34 -238,-218 -195,-413 43,-195 200,-326 351,-292 113,25 190,134 204,269 5,46 -298,449 -360,436z"/>
   <path class="fil1" d="M2720 3085c-28,127 -130,212 -228,191 -99,-22 -156,-143 -127,-269 27,-127 130,-212 228,-191 99,22 155,142 127,269z"/>
   <path class="fil2" d="M2512 2920c-27,35 -65,51 -83,36 -19,-15 -12,-55 15,-90 28,-35 66,-51 84,-36 19,15 12,55 -16,90z"/>
   <path class="fil6" d="M1926 1902c-11,0 -23,1 -34,3 -107,21 -206,71 -228,128 -21,57 -56,149 -56,149 0,0 64,-135 198,-178 47,-14 89,-21 126,-21 71,0 126,25 173,71 71,71 120,107 120,107l-147 -24 -30 -5c0,0 -14,64 28,121 43,57 100,106 100,106l-362 135c0,0 49,71 106,100 57,28 64,92 64,92l142 -142c0,0 -52,12 -105,12 -17,0 -35,-1 -51,-5 -64,-14 -93,-50 -93,-50 0,0 284,-120 334,-163l50 -43c0,0 -100,-42 -135,-78 -36,-35 113,-49 192,-71 78,-21 113,-85 113,-85 0,0 -25,10 -65,10 -36,0 -83,-8 -133,-38 -96,-57 -208,-131 -307,-131z"/>
   <path class="fil1" d="M3707 3552c-18,-38 99,66 327,19 227,-47 326,-99 369,-175 42,-76 80,-76 38,24 -43,99 -157,217 -374,222 -218,5 -327,-19 -360,-90z"/>
   <path class="fil1" d="M2254 3514c-119,29 -204,-75 -251,-142 -47,-66 -57,-170 -28,-279 28,-109 194,-293 312,-454 118,-161 293,-313 407,-379 114,-66 248,-65 289,-24 99,100 14,379 -71,530 -85,152 -265,403 -369,521 -105,118 -171,199 -289,227zm1051 2651c0,0 -237,265 -673,204 -435,-62 -444,-209 -468,-299 0,0 104,76 506,100 403,23 635,-5 635,-5zm170 -753c0,0 66,-4 147,-14 -24,81 -109,227 -109,227l-38 -213zm-1363 -66l137 19 -61 171c0,0 -15,-34 -34,-76 -19,-43 -42,-114 -42,-114zm94 284l90 -260c0,0 119,9 232,-33 114,-43 166,-100 166,-100 0,0 -9,95 189,147 199,52 365,43 450,38l85 -5c0,0 19,57 43,166 23,109 19,180 75,104 57,-76 147,-298 147,-298 0,0 190,-62 261,-95 -81,123 -213,284 -275,407 -62,123 -147,218 -203,284 -57,66 -100,123 -100,123 0,0 -379,52 -663,19 -284,-33 -530,-104 -530,-104 0,0 -38,-57 -61,-274 -24,-218 -123,-422 -123,-422l71 14c0,0 4,24 42,114 38,90 104,175 104,175zm2959 -2348c0,0 -81,-52 -156,-146 -76,-95 -100,-138 -100,-138 0,0 114,-28 135,-113 21,-85 14,-142 14,-142 0,0 -49,57 -149,35 -99,-21 -142,-64 -142,-64 0,0 71,-35 85,-120 15,-86 0,-128 0,-128 0,0 -42,57 -120,14 -78,-43 -121,-99 -121,-99 0,0 142,-36 248,-86 107,-49 256,-106 327,-63 71,42 142,120 163,177l22 57c0,0 21,-78 -78,-199 -100,-121 -242,-114 -313,-85 -71,28 -177,99 -284,121 -106,21 -206,-8 -206,-8 0,0 36,128 128,192 92,64 170,50 170,50 0,0 29,42 -21,99 -50,57 -106,78 -106,78 0,0 99,93 184,107 85,14 156,-7 156,-7 0,0 22,21 -42,78 -64,57 -135,64 -135,64 0,0 64,120 142,213 78,92 192,149 334,312 142,164 213,242 234,291l21 50c0,0 -113,-64 -326,-106 -213,-43 -334,-36 -334,-36 0,0 -28,106 -36,248 -7,142 0,242 0,242 0,0 306,28 483,121 178,92 242,142 242,142 0,0 7,305 -355,596 -362,291 -817,497 -1065,753 -249,255 -448,646 -682,788 -234,142 -653,177 -1037,85 -383,-92 -539,-220 -553,-547 -15,-326 -36,-525 -121,-696 -85,-170 -142,-227 -142,-227 0,0 78,57 163,85 85,29 135,50 135,50 0,0 107,156 142,447 36,292 14,490 284,590 270,99 582,142 838,-29 256,-170 433,-404 582,-674 149,-270 213,-384 519,-547 305,-163 454,-326 525,-440 71,-114 -21,28 -135,114 -114,85 -440,312 -682,425 -241,114 -532,171 -802,171 -270,0 -447,-78 -454,-185 -7,-106 7,-390 7,-390 0,0 326,-114 596,-270 270,-156 263,-298 227,-504 -35,-206 -28,-802 78,-1172 107,-369 213,-539 384,-511 170,29 248,227 248,227 0,0 -56,-291 -255,-298 -199,-7 -348,206 -412,447 -64,242 -142,661 -135,860 7,198 21,426 21,426 0,0 -284,-142 -695,-185 -412,-43 -696,-14 -696,-14 0,0 234,-227 475,-497 242,-270 417,-530 469,-810 40,-217 28,-343 -177,-336 -206,7 -446,223 -559,379 -114,156 -303,334 -374,502 -83,196 -26,357 88,464 113,106 215,75 215,75 0,0 -151,145 -208,244 -57,99 -135,277 71,476 206,199 539,483 539,483 0,0 0,206 7,298 8,92 0,120 0,120 0,0 -92,107 -362,93 -269,-14 -511,-85 -774,-220 -262,-135 -613,-433 -698,-618 -82,-179 -80,-251 -80,-251 0,0 97,-54 288,-76 192,-21 284,-21 284,-21 0,0 0,-71 22,-213 21,-142 14,-192 14,-192 0,0 -142,-42 -341,-35 -199,7 -277,35 -277,35 0,0 -28,-227 149,-411 178,-185 419,-270 675,-327 256,-57 426,-241 518,-341 93,-99 107,-142 107,-142 0,0 -57,36 -135,36 -78,0 -121,-15 -121,-15 0,0 156,-35 284,-134 128,-100 156,-142 156,-142 0,0 -106,35 -170,7 -64,-29 -99,-71 -99,-71 0,0 234,64 362,-57 127,-121 99,-256 319,-355 220,-100 249,-107 249,-107 0,0 -142,71 -185,164 -43,92 -50,127 -50,127 0,0 64,-28 164,-49l99 -22c0,0 0,79 28,171l29 92 114 -92c0,0 28,21 56,184 29,164 29,199 29,199 0,0 99,-49 184,-234 85,-185 78,-241 78,-241 0,0 78,28 128,78l50 49c0,0 64,-191 -43,-475 0,0 192,78 299,199 106,120 234,276 333,269 100,-7 348,-170 554,-177 206,-7 461,28 603,213 142,184 228,333 228,504 0,170 -93,326 -270,419 -178,92 -291,255 -291,255zm426 696c9,81 14,118 14,118 0,0 -123,-61 -237,-99 -113,-38 -142,-47 -142,-47l-217 -227c0,0 123,9 284,56 161,48 269,86 269,86 0,0 19,33 29,113zm-687 133l29 -398c0,0 5,-9 99,90 95,99 128,142 128,142 0,0 -52,24 -132,80 -81,57 -124,86 -124,86zm711 161c-10,75 -15,104 -15,104 0,0 -99,-71 -293,-147 -194,-76 -355,-104 -355,-104l246 -147c0,0 161,47 274,100 114,52 138,70 138,70 0,0 14,48 5,124zm-4341 -332l-14 128c0,0 -384,5 -478,66 0,0 75,-142 127,-161 52,-18 365,-33 365,-33zm-341 -23c0,0 -128,-133 -194,-166 0,0 156,-38 298,-33 142,5 246,28 246,28l0 147 -350 24zm-218 -128c0,0 10,0 81,61 71,62 94,90 94,90 0,0 -89,62 -118,123l-28 62c0,0 -43,-118 -29,-336zm786 -1089c-71,-104 -170,-232 -165,-388 4,-156 75,-308 222,-450 147,-142 222,-269 398,-246 175,24 241,62 359,137 118,76 270,81 270,81 0,0 -38,66 -71,128 -33,61 -66,128 -170,94 -104,-33 -218,-156 -388,-165 -171,-10 -270,90 -313,175 -42,85 -42,166 -42,166 0,0 56,-152 118,-213 61,-62 194,-128 274,-90 81,37 142,75 228,118 85,43 151,57 151,57 0,0 -19,19 -109,33 -90,14 -218,-28 -218,-28 0,0 -18,42 29,94 47,52 156,81 156,81 0,0 -5,23 -123,85 -118,61 -298,118 -298,118 0,0 57,52 128,66 71,15 123,0 123,0 0,0 -48,105 -156,176 -109,71 -218,141 -218,141 0,0 -114,-66 -185,-170zm3986 365c104,-81 175,-100 246,-242 71,-142 33,-284 0,-430 -33,-147 -157,-294 -308,-431 -151,-138 -416,-161 -573,-138 -156,24 -326,133 -468,176 -142,42 -185,-57 -261,-138 -75,-80 -156,-146 -260,-236 -104,-90 -232,-104 -232,-104 0,0 47,56 76,231 28,176 19,247 19,247 0,0 -33,-24 -90,-67 -57,-42 -90,-56 -90,-56 0,0 5,108 -66,246 -71,137 -142,208 -142,208 0,0 -15,-81 -33,-208 -19,-128 -53,-147 -53,-147l-123 61c0,0 -23,-61 -28,-142 -5,-80 28,-90 28,-90 0,0 -42,10 -118,15 -76,4 -142,28 -142,28 0,0 24,-28 71,-95 47,-66 104,-61 152,-99 47,-38 52,-80 52,-80 0,0 -157,56 -299,94 -142,38 -137,85 -198,109 -62,24 -175,19 -346,-90 -170,-109 -341,-146 -487,-99 -147,47 -308,232 -436,431 -128,198 -114,364 -42,530 71,165 288,345 288,345 0,0 -90,38 -355,114 -265,76 -449,222 -539,454 -90,232 -76,611 -19,843 57,232 222,397 416,573 194,175 431,279 431,279 0,0 66,52 142,213 76,161 123,331 133,606 9,274 42,388 151,516 109,127 388,208 625,236 236,29 520,10 719,-42 199,-52 355,-176 450,-317 95,-142 331,-455 416,-559 86,-104 389,-298 597,-421 208,-123 412,-237 601,-445 189,-208 232,-403 265,-644 33,-241 -47,-525 -128,-639 -80,-114 -307,-346 -307,-346 52,-99 161,-170 265,-250z"/>
   <path class="fil1" d="M6608 3675c0,0 -33,-28 -85,-109 -52,-80 -90,-198 -123,-340 -33,-142 -94,-199 -94,-199 0,0 28,23 89,38 62,14 138,14 138,14 0,0 -24,-10 -76,-104 -52,-95 -81,-180 -133,-388 -52,-209 -165,-299 -165,-299 0,0 19,14 66,29 47,14 147,5 147,5 0,0 -48,-29 -109,-133 -62,-104 -109,-189 -218,-436 -109,-246 -336,-302 -336,-302 0,0 19,0 66,-19 48,-19 123,-81 123,-81 0,0 -61,-14 -146,-66 -85,-52 -161,-100 -275,-208 -113,-109 -284,-133 -284,-133 0,0 19,-24 76,-76 57,-52 109,-66 109,-66 0,0 -270,-99 -540,-203 -270,-105 -511,-38 -511,-38l166 -175c0,0 -29,14 -86,19 -56,4 -137,-19 -321,-67 -185,-47 -478,81 -478,81 0,0 -15,-24 -5,-86 9,-61 28,-85 28,-85 0,0 -76,0 -194,38 -118,38 -142,152 -142,152 0,0 -71,-62 -227,-161 -156,-100 -322,-95 -322,-95 0,0 24,43 76,114 52,71 61,118 61,118 0,0 -42,-24 -189,-57 -147,-33 -473,-38 -473,-38 0,0 47,86 175,227 -133,-18 -369,-23 -611,48 -241,71 -317,61 -317,61 0,0 14,29 80,90 67,62 128,62 128,62 0,0 -260,109 -464,265 -203,156 -307,265 -307,265 0,0 23,38 184,99 -127,43 -430,256 -482,412 -52,156 -185,251 -185,251 0,0 19,9 85,33 66,24 147,38 147,38 0,0 -66,38 -180,256 -114,217 -251,265 -251,265 0,0 38,47 128,85 90,38 170,24 170,24 0,0 -113,236 -246,487 -132,251 -85,388 -85,388 0,0 28,-14 95,-33 66,-19 118,-5 118,-5 0,0 -66,199 -85,469 -19,270 47,331 47,331l147 -146c0,0 9,179 9,426 0,246 157,340 157,340l99 -165c0,0 71,269 147,435 75,166 236,265 236,265l62 -222c0,0 47,38 94,118 48,81 95,185 105,398 9,213 109,331 109,331l75 -175c0,0 38,38 76,132 38,95 62,204 90,417 28,213 85,270 85,270l14 -43c15,-42 71,-118 71,-118 0,0 19,57 71,265 52,208 175,336 175,336l86 -156c0,0 4,66 52,251 47,184 132,336 132,336l109 -95 104 232c104,232 185,577 185,577 0,0 38,-236 114,-459 75,-222 123,-317 123,-317 0,0 28,38 66,81 38,42 104,80 104,80 0,0 0,-28 14,-104 14,-76 33,-137 152,-279 118,-142 151,-199 151,-199 0,0 10,33 19,62 10,28 80,104 80,104l10 -71c9,-71 109,-303 204,-389 94,-85 160,-198 160,-198 0,0 15,42 34,90 19,47 89,123 89,123 0,0 24,-67 52,-138 29,-71 91,-175 218,-265 128,-90 175,-222 175,-222 0,0 5,38 43,85 38,47 90,104 90,104 0,0 14,-71 33,-137 19,-66 52,-128 175,-308 123,-180 119,-236 119,-236 0,0 19,47 47,85 28,38 85,85 85,85 0,0 90,-270 189,-426 100,-156 152,-213 152,-213 0,0 9,47 28,95 19,47 62,123 62,123l95 -133c94,-132 56,-199 156,-369 99,-170 137,-260 137,-260 0,0 19,28 57,66 38,38 128,80 128,80 0,0 -5,-23 -19,-123 -15,-99 4,-222 28,-359 24,-138 9,-308 9,-308 0,0 43,38 105,52 61,14 180,19 180,19 0,0 -19,-24 -67,-133 -47,-108 -52,-170 -71,-303 -19,-132 -28,-194 -28,-194 0,0 33,10 104,29 71,19 151,9 151,9zm-1353 2050c-43,109 -76,184 -76,184 0,0 -38,-38 -62,-85 -23,-47 -42,-104 -42,-104 0,0 -29,114 -85,208 -57,95 -147,190 -194,303 -48,114 -71,180 -71,180 0,0 -43,-38 -67,-99 -23,-62 -33,-104 -33,-104 0,0 -42,127 -118,208 -76,80 -137,104 -218,208 -80,104 -132,237 -132,237 0,0 -19,-38 -57,-114 -38,-76 -43,-118 -43,-118 0,0 -90,132 -165,232 -76,99 -138,180 -185,265 -47,85 -52,170 -52,170 0,0 -38,-57 -57,-113 -19,-57 -14,-81 -14,-81 0,0 -29,81 -109,175 -81,95 -180,209 -223,303 -42,95 -47,142 -47,142 0,0 -28,-33 -66,-75 -38,-43 -71,-90 -71,-90 0,0 -62,90 -109,227 -47,137 -85,241 -104,326 -19,86 -14,71 -14,71 0,0 -19,-71 -133,-350 -113,-279 -137,-308 -137,-308 0,0 -14,38 -57,67 -42,28 -52,47 -52,47 0,0 -76,-118 -114,-326 -37,-209 -37,-289 -47,-303 -9,-15 -52,37 -85,104 -33,66 -47,85 -47,85 0,0 -76,-95 -114,-246 -38,-152 -43,-185 -62,-275 -19,-90 -28,-118 -28,-118 0,0 -28,38 -62,85 -33,47 -52,66 -52,66 0,0 -23,-142 -71,-350 -47,-208 -52,-232 -94,-308 -43,-75 -85,-127 -85,-127 0,0 -15,47 -43,90 -28,42 -47,85 -47,85 0,0 -38,-119 -43,-270 -5,-151 -28,-251 -95,-360 -66,-109 -184,-232 -184,-232 0,0 -14,71 -38,142 -24,71 -28,123 -28,123 0,0 -124,-94 -180,-274 -57,-180 -114,-313 -128,-369 -14,-57 -19,-86 -19,-86 0,0 -62,67 -90,104 -28,38 -47,67 -47,67 0,0 -76,-24 -86,-175 -9,-152 -14,-275 -9,-398 5,-123 -9,-194 -9,-194 0,0 -43,43 -100,85 -57,43 -80,62 -80,62 0,0 -33,-185 9,-403 43,-217 100,-345 100,-345 0,0 -43,-5 -119,-10 -76,-4 -142,15 -142,15 0,0 33,-218 166,-417 132,-199 151,-256 180,-322 28,-66 28,-109 28,-109 0,0 -57,0 -128,-4 -71,-5 -137,-24 -137,-24 0,0 133,-95 194,-251 62,-156 95,-194 161,-246 66,-52 85,-76 85,-76 0,0 -47,10 -118,-14 -71,-24 -123,-38 -123,-38 0,0 94,-99 123,-194 28,-95 128,-208 279,-293 152,-86 279,-171 279,-171 0,0 -75,-38 -132,-61 -57,-24 -76,-38 -76,-38 0,0 171,-190 369,-303 199,-114 431,-208 431,-208 0,0 -90,-48 -142,-67 -52,-19 -80,-47 -80,-47 0,0 189,-33 355,-76 165,-42 317,-42 421,-33 104,10 147,19 147,19 0,0 -48,-66 -86,-118 -38,-52 -75,-119 -75,-119 0,0 146,-14 350,43 203,57 298,76 298,76 0,0 -33,-62 -80,-142 -48,-81 -71,-114 -71,-114 0,0 151,38 251,114 99,75 194,146 194,146 0,0 33,43 80,-56 47,-100 118,-105 152,-114l33 -9c0,0 -14,47 -5,99 9,52 28,76 28,76 0,0 89,-48 237,-81 128,-28 241,-28 383,10 143,38 157,28 157,28 0,0 -10,19 -67,71 -57,52 -28,99 -28,99 0,0 237,-37 416,0 180,38 318,76 436,133 118,57 147,62 147,62 0,0 -67,37 -114,80 -47,43 -42,81 -42,81 0,0 123,28 241,89 118,62 161,105 251,176 90,71 189,113 189,113 0,0 14,19 -76,43 -90,23 -146,38 -146,38 0,0 123,38 203,94 81,57 185,142 260,303 76,161 124,242 171,327 47,85 66,113 66,113 0,0 -33,-4 -104,-19 -71,-14 -104,-37 -104,-37 0,0 57,71 109,165 52,95 109,204 156,351 47,146 57,184 71,222l14 38c0,0 -38,33 -90,5 -52,-29 -94,-62 -94,-62 0,0 61,90 90,208 28,119 47,161 85,270 38,109 90,185 90,185 0,0 -57,19 -119,-10 -61,-28 -90,-57 -90,-57 0,0 29,114 38,237 10,123 29,199 48,289 19,90 52,137 52,137 0,0 -48,-9 -109,-23 -62,-15 -133,-72 -133,-72 0,0 33,67 24,195 -10,127 -14,194 -33,288 -19,95 -29,171 -29,213 0,43 5,76 5,76 0,0 -38,-24 -76,-71 -38,-47 -61,-80 -61,-80 0,0 -24,85 -85,217 -62,133 -90,156 -128,261 -38,104 -57,151 -90,208 -33,57 -52,71 -52,71 0,0 -24,-57 -47,-109 -24,-52 -38,-95 -38,-95 0,0 -76,86 -128,166l-175 289z"/>
  </g>
 </g>
</svg>
