<?xml version="1.0" encoding="UTF-8"?>
<!DOCTYPE svg PUBLIC "-//W3C//DTD SVG 1.1//EN" "http://www.w3.org/Graphics/SVG/1.1/DTD/svg11.dtd">
<!-- Creator: CorelDRAW X7 -->
<svg xmlns="http://www.w3.org/2000/svg" xml:space="preserve" width="210mm" height="165mm" version="1.1" style="shape-rendering:geometricPrecision; text-rendering:geometricPrecision; image-rendering:optimizeQuality; fill-rule:evenodd; clip-rule:evenodd"
viewBox="0 0 21000 16500"
 xmlns:xlink="http://www.w3.org/1999/xlink">
 <defs>
  <style type="text/css">
   <![CDATA[
    .fil1 {fill:black;fill-rule:nonzero}
    .fil0 {fill:black;fill-rule:nonzero}
   ]]>
  </style>
 </defs>
 <g id="Vrstva_x0020_1">
  <metadata id="CorelCorpID_0Corel-Layer"/>
  <g id="_2453247465792">
   <g>
    <path class="fil0" d="M10437 16419l-3780 -5965 126 -80 3780 5965 0 80 -126 0zm126 -80c23,35 12,81 -23,103 -35,22 -81,12 -103,-23l126 -80zm3780 -5885l-3780 5965 -126 -80 3780 -5965 126 80z"/>
   </g>
   <g>
    <path class="fil0" d="M6783 10374l-126 80 -41 -63 127 -81 40 64zm3654 6045l-3780 -5965 126 -80 3780 5965 0 80 -126 0zm126 -80c23,35 12,81 -23,103 -35,22 -81,12 -103,-23l126 -80zm3780 -5885l-3780 5965 -126 -80 3780 -5965 126 80zm0 0l-126 -80 40 -64 127 81 -41 63zm4401 -7224l127 80 -41 63 -126 -80 40 -63zm2122 -3069l-1995 3149 -127 -80 1995 -3149 64 -35 63 115zm-127 -80c22,-35 69,-45 104,-23 35,22 45,68 23,103l-127 -80zm-10239 -35l10303 0 0 150 -10303 0 0 0 0 -150zm0 150c-41,0 -75,-33 -75,-75 0,-41 34,-75 75,-75l0 150zm-10303 -150l10303 0 0 150 -10303 0 -63 -35 63 -115zm0 150c-41,0 -75,-33 -75,-75 0,-41 34,-75 75,-75l0 150zm1931 3112l-1994 -3147 127 -80 1994 3146 -127 81zm0 0l127 -81 40 64 -127 80 -40 -63z"/>
   </g>
   <g>
    <path class="fil0" d="M7540 10308l-335 212 -106 -168 335 -212 106 168zm2792 5147l-3127 -4935 335 -212 3128 4935 0 212 -336 0zm336 -212c58,92 31,215 -62,273 -92,59 -215,32 -274,-61l336 -212zm3127 -4723l-3127 4935 -336 -212 3128 -4935 335 212zm0 0l-335 -212 106 -168 335 212 -106 168zm4193 -7359l336 213 -107 167 -335 -212 106 -168zm1889 -2239l-1553 2452 -336 -213 1554 -2451 168 -93 167 305zm-335 -212c59,-93 181,-121 274,-62 92,59 120,181 61,274l-335 -212zm-9042 -93l9210 0 0 397 -9210 0 0 0 0 -397zm0 397c-110,0 -198,-89 -198,-198 0,-110 88,-199 198,-199l0 397zm-9210 -397l9210 0 0 397 -9210 0 -167 -92 167 -305zm0 397c-109,0 -198,-89 -198,-198 0,-110 89,-199 198,-199l0 397zm1387 2360l-1554 -2452 335 -212 1554 2451 -335 213zm0 0l335 -213 106 168 -335 212 -106 -167z"/>
   </g>
   <path class="fil1" d="M2802 4958c0,-464 -377,-781 -1020,-781l-1306 0 -426 541 1791 0c199,0 314,90 314,236 0,143 -115,240 -314,240l-1791 0 0 1063 641 0 0 -531 1088 0c646,0 1023,-308 1023,-768zm2962 895c-143,-146 -221,-221 -292,-274 342,-68 544,-335 544,-659 0,-594 -597,-743 -1070,-743l-1336 0 -420 541 1809 0c221,0 355,81 355,243 0,143 -156,233 -355,233l-1809 0 0 1063 643 0 0 -550 989 0 463 550 862 0 -383 -404zm1327 -131l0 -283 1278 0 370 -472 -1648 0 0 -249 1347 0 416 -541 -2409 0 0 2080 2002 0 413 -535 -1769 0zm3162 -1358c-75,-137 -187,-221 -351,-221 -162,0 -308,93 -364,286l-538 1828 631 0 196 -724c62,-233 109,-408 140,-572 65,140 140,286 292,572l280 525c109,205 214,233 370,233 155,0 261,-28 370,-233l280 -522c143,-271 220,-429 289,-575 34,168 78,335 143,572l196 724 640 0 -525 -1828c-56,-193 -199,-286 -361,-286 -168,0 -280,87 -354,221l-333 590c-183,321 -264,473 -333,619 -71,-146 -152,-301 -335,-622l-333 -587zm3531 -187l-643 0 0 2080 643 0 0 -2080zm3171 0l-647 0 0 1172c0,293 -155,408 -649,408 -663,0 -793,-100 -793,-408l0 -1172 -641 0 0 1172c0,628 433,942 1434,942 864,0 1296,-314 1296,-942l0 -1172zm1421 187c-75,-137 -187,-221 -352,-221 -161,0 -307,93 -363,286l-538 1828 631 0 196 -724c62,-233 108,-408 140,-572 65,140 140,286 292,572l280 525c108,205 214,233 370,233 155,0 261,-28 370,-233l280 -522c143,-271 220,-429 289,-575 34,168 77,335 143,572l196 724 640 0 -525 -1828c-56,-193 -199,-286 -361,-286 -168,0 -280,87 -354,221l-333 590c-184,321 -264,473 -333,619 -71,-146 -152,-301 -336,-622l-332 -587zm-14423 4640c-351,0 -609,-202 -609,-498 0,-298 261,-507 609,-507l1045 0 413 -541 -1458 0c-721,0 -1253,411 -1253,1020 0,603 532,1060 1253,1060l1045 0 413 -534 -1458 0zm4943 534l-1300 -1881c-90,-130 -217,-233 -410,-233 -202,0 -330,112 -417,233l-1333 1881 761 0 977 -1380 373 550c68,100 155,227 211,302 -99,-6 -246,-6 -370,-6l-522 0 -389 534 2419 0zm2866 -404c-143,-146 -220,-221 -292,-273 342,-69 544,-336 544,-660 0,-593 -597,-743 -1069,-743l-1337 0 -420 541 1809 0c221,0 355,81 355,243 0,143 -156,233 -355,233l-1809 0 0 1063 643 0 0 -550 989 0 463 550 862 0 -383 -404zm3327 -656c0,-600 -526,-1020 -1253,-1020l-983 0 -410 541 1393 0c348,0 615,215 615,507 0,299 -258,498 -615,498l-747 0 0 -762 -646 0 0 1296 1393 0c721,0 1253,-457 1253,-1060zm1190 -189c-149,0 -221,-41 -221,-147 0,-105 72,-143 221,-143l1443 0 413 -541 -1806 0c-631,0 -893,255 -893,647 0,358 246,597 781,597l1131 0c153,0 221,44 221,149 0,109 -68,153 -221,153l-1573 0 -413 534 1937 0c634,0 892,-255 892,-681 0,-379 -274,-568 -780,-568l-1132 0z"/>
  </g>
 </g>
</svg>
