<?xml version="1.0" encoding="UTF-8"?>
<!DOCTYPE svg PUBLIC "-//W3C//DTD SVG 1.1//EN" "http://www.w3.org/Graphics/SVG/1.1/DTD/svg11.dtd">
<!-- Creator: CorelDRAW X8 -->
<svg xmlns="http://www.w3.org/2000/svg" xml:space="preserve" width="210mm" height="65.091mm" version="1.1" style="shape-rendering:geometricPrecision; text-rendering:geometricPrecision; image-rendering:optimizeQuality; fill-rule:evenodd; clip-rule:evenodd"
viewBox="0 0 21000 6509"
 xmlns:xlink="http://www.w3.org/1999/xlink">
 <defs>
  <style type="text/css">
   <![CDATA[
    .fil0 {fill:#126DA5;fill-rule:nonzero}
   ]]>
  </style>
 </defs>
 <g id="Vrstva_x0020_1">
  <metadata id="CorelCorpID_0Corel-Layer"/>
  <g id="_2849990266880">
   <path class="fil0" d="M4282 4534c-1148,51 -2236,-141 -3073,-534 -584,-282 -997,-655 -1209,-1058l61 1230c50,1199 1813,2156 3980,2146l644 -1814c-131,10 -272,20 -403,30z"/>
   <path class="fil0" d="M16091 2076c-10,80 -20,191 -70,342l-41 121c-100,333 -231,544 -352,635 -81,50 -162,81 -242,101 -222,50 -645,90 -877,30 -80,-30 -141,-60 -181,-111 -61,-60 -71,-151 -61,-272 21,-121 51,-252 101,-423 111,-333 222,-564 353,-675 101,-91 252,-151 453,-171 71,-10 151,-10 242,-10 222,0 393,40 514,110 121,71 171,172 161,323zm1522 -1965l-91 0 -776 0 -453 1441 0 0c-61,-252 -413,-373 -998,-373 -40,0 -80,0 -121,10 -211,0 -403,20 -544,50 -171,41 -322,111 -453,192 -151,81 -292,232 -413,433 -31,51 -61,111 -91,192 -50,131 -101,282 -161,473 -51,161 -91,292 -111,413 -30,121 -30,242 -10,353 20,121 80,222 171,292 30,30 71,61 111,81 181,90 453,131 836,131 252,0 474,-30 665,-81 232,-70 403,-181 544,-322l0 0 -121 373 867 0 1058 -3366 91 -292z"/>
   <path class="fil0" d="M19799 2983c-30,100 -91,191 -171,251 -81,71 -182,101 -292,121 -81,10 -192,21 -333,31l-161 0c-202,0 -343,-10 -444,-31 -90,-20 -161,-50 -181,-90 -30,-81 -30,-161 0,-272 30,-111 101,-202 192,-262 70,-51 151,-81 241,-91 71,0 192,-10 353,-20 40,0 81,0 131,0 232,0 413,20 544,70 131,51 171,141 121,293zm1048 -1592c-171,-141 -595,-212 -1270,-212l-121 0c-161,0 -312,10 -453,20 -252,20 -453,61 -605,121 -282,111 -473,333 -574,635l857 0c50,-121 110,-212 211,-272 41,-20 81,-30 111,-40 40,-11 71,-21 101,-21 60,-10 181,-10 373,-20 251,0 403,10 483,41 81,30 131,70 151,120 31,61 21,172 -30,343l-121 383 0 0c-20,-91 -131,-151 -232,-192 -100,-50 -211,-70 -332,-80 -111,-10 -242,-20 -393,-20l-60 0c-484,0 -847,60 -1079,181 -211,101 -362,272 -453,504 -20,40 -40,70 -50,121 -81,242 -61,433 50,554 10,10 20,20 30,30 141,141 464,212 968,212 231,0 433,-10 594,-30 71,-11 131,-21 181,-31 202,-40 353,-141 474,-292l-101 323 847 0 534 -1693c110,-323 70,-554 -91,-685z"/>
   <path class="fil0" d="M6298 4988c-41,-31 -101,-41 -172,-51 -70,0 -161,-10 -282,-10 -211,0 -363,10 -463,30 -81,21 -141,51 -192,101 -50,41 -91,91 -111,161l-10 41c-30,111 -20,191 30,231 41,31 101,51 192,61 81,10 201,20 383,20 101,0 171,10 221,30 51,20 61,61 51,121 -20,61 -51,91 -101,121 -101,30 -433,40 -524,0 -40,-20 -50,-70 -20,-161l-363 0c-20,81 -30,131 -20,181 0,41 20,71 51,111 40,30 100,50 181,61 80,0 191,10 322,10l20 0c101,0 192,0 262,-10 81,0 152,-21 232,-41 71,-20 141,-50 192,-101 60,-40 90,-100 121,-171 30,-101 30,-171 10,-211 -21,-51 -71,-91 -162,-111 -80,-20 -211,-30 -393,-30 -90,0 -171,0 -251,-11 -41,-10 -71,-20 -71,-40 -10,-20 -10,-40 0,-70 20,-51 50,-101 101,-121 50,-10 141,-20 252,-20 90,0 171,10 211,20 41,20 51,60 41,111l352 0c40,-121 10,-202 -90,-252z"/>
   <path class="fil0" d="M9522 5300c-20,131 -91,383 -182,474 -40,30 -110,60 -201,70 -30,0 -51,0 -91,0 -60,0 -121,0 -171,-10 -40,-20 -81,-30 -101,-60 -20,-31 -20,-61 -20,-101 20,-131 91,-393 202,-474 40,-30 100,-50 181,-70 40,0 80,0 131,0 60,0 101,0 141,10 30,10 60,20 81,50 30,20 40,61 30,111zm-81 -373c-121,0 -211,10 -302,41l-10 0c-81,30 -141,70 -202,141l0 0 51 -172 -363 0 -494 1572 363 0 201 -615 0 0c11,61 71,101 142,121 60,21 151,31 261,31l51 0c91,-10 171,-10 232,-31 70,-10 141,-40 201,-80 71,-41 131,-101 161,-182 41,-80 71,-171 111,-282 30,-121 51,-211 51,-272 10,-80 -21,-131 -71,-181 -81,-61 -201,-91 -383,-91z"/>
   <path class="fil0" d="M16746 4957c-40,-20 -111,-30 -212,-30 -191,0 -342,51 -443,161l0 0 51 -151 -343 0 -343 1099 343 0 212 -676c20,-90 70,-141 131,-171 50,-50 120,-60 211,-60 61,0 101,10 121,20 20,10 30,40 30,60 0,31 -10,81 -30,141l322 0 41 -90c20,-91 30,-161 10,-222 -20,-30 -61,-60 -101,-81z"/>
   <path class="fil0" d="M19849 4695l-352 0 -81 242 -181 0 -61 202 182 0 -182 564c-40,131 -30,222 20,272 31,30 81,50 152,50 70,11 151,21 241,21 202,0 343,-31 434,-101 80,-61 141,-171 191,-333l-312 0 -20 71c-31,101 -111,161 -232,161 -111,0 -151,-10 -121,-141l181 -564 575 0 60 -202 -574 0 80 -242z"/>
   <path class="fil0" d="M5038 1915l-856 0c40,-131 10,-222 -101,-262 -101,-31 -272,-51 -494,-51 -282,0 -484,20 -614,51 -121,50 -202,151 -252,292 -21,70 -21,121 -10,161 20,50 80,71 201,91 181,20 383,30 584,30 444,10 766,30 968,81 201,50 322,131 373,241 40,111 30,272 -31,494 -50,171 -141,312 -282,423 -131,101 -292,182 -463,232 -575,151 -1431,131 -2005,71 -192,-21 -343,-61 -444,-142 -70,-70 -111,-151 -131,-251 -20,-101 0,-232 51,-403l866 0c-60,191 -40,312 71,362 191,71 1027,71 1259,-20 101,-40 182,-131 222,-262 50,-151 10,-242 -101,-282 -121,-50 -302,-71 -534,-81 -423,-10 -746,-20 -937,-40 -212,-10 -363,-60 -453,-131 -131,-101 -162,-292 -71,-564l20 -71c61,-181 141,-312 262,-413 121,-101 282,-171 484,-221 232,-41 594,-71 1098,-71 292,0 514,10 685,20 172,20 313,51 423,111 232,121 303,322 212,605zm2025 -706l182 -584 -857 0 -191 584 -343 0 151 -413c0,0 0,0 0,0l202 -574c-635,-171 -1360,-252 -2146,-212 -2237,101 -4021,1149 -3960,2338 50,1189 1924,2065 4161,1965 171,-10 343,-21 514,-41l907 -2589 373 0 -423 1320c-91,302 -81,514 40,624 80,71 191,121 363,142 141,20 302,30 483,30l101 0c473,0 826,-81 1048,-232 181,-141 332,-403 453,-776l-755 0 -51 161c-80,252 -262,383 -554,383 -101,0 -181,-10 -232,-30 0,0 -10,0 -10,-10 -40,-10 -60,-40 -60,-81 -10,-50 10,-110 30,-201l423 -1330 1381 0 141 -474 -1371 0z"/>
   <polygon class="fil0" points="11577,3769 12413,3769 13220,1209 12373,1209 "/>
   <path class="fil0" d="M10801 1854c0,71 -30,181 -80,333l312 0 484 0 70 -212c10,-20 10,-40 20,-50 51,-202 61,-363 11,-474 0,-10 -11,-20 -11,-30 -50,-71 -120,-131 -221,-171 -81,-31 -202,-61 -353,-61 -40,-10 -91,-10 -141,-10 -474,0 -836,121 -1058,373l0 0 101 -343 -847 0 -806 2560 847 0 504 -1572c60,-192 151,-333 292,-423 131,-91 312,-131 524,-131 141,0 242,20 292,50 40,40 70,91 60,161z"/>
   <path class="fil0" d="M12937 5300c-10,50 -30,111 -50,191 -30,91 -50,152 -70,192 -21,40 -51,81 -81,101 -30,30 -81,50 -131,50 -20,0 -40,10 -61,10 -40,0 -70,0 -110,0 -71,0 -131,0 -182,-10 -40,-10 -70,-30 -90,-60 -10,-21 -10,-61 -10,-111 10,-41 30,-101 50,-172 20,-90 50,-151 70,-201 21,-50 51,-91 91,-101 40,-30 71,-40 111,-50 20,0 40,0 70,-10 31,0 71,0 111,0 71,0 131,0 172,10 40,10 70,20 90,50 20,20 31,61 20,111zm182 -332c-51,-11 -111,-21 -171,-31 -71,0 -142,-10 -232,-10 -61,0 -121,0 -172,10 -211,10 -362,51 -453,121 -60,41 -111,101 -151,171 -40,81 -81,172 -111,293 -50,181 -60,312 -10,383 20,50 60,70 121,90 50,20 121,30 181,41 71,0 151,10 242,10 71,0 121,0 181,-10 51,0 101,0 152,-11 80,-10 171,-30 241,-60 81,-50 152,-111 192,-191 50,-71 80,-172 121,-283 30,-131 50,-231 60,-292 10,-70 -20,-121 -70,-171 -31,-30 -71,-50 -121,-60z"/>
   <polygon class="fil0" points="13542,202 12655,323 12464,937 13310,937 "/>
   <polygon class="fil0" points="11829,635 11547,343 10600,403 9653,343 9371,635 10600,907 10600,907 10600,907 "/>
  </g>
 </g>
</svg>
