<?xml version="1.0" encoding="UTF-8"?>
<!DOCTYPE svg PUBLIC "-//W3C//DTD SVG 1.1//EN" "http://www.w3.org/Graphics/SVG/1.1/DTD/svg11.dtd">
<!-- Creator: CorelDRAW X8 -->
<svg xmlns="http://www.w3.org/2000/svg" xml:space="preserve" width="210mm" height="58.241mm" version="1.1" style="shape-rendering:geometricPrecision; text-rendering:geometricPrecision; image-rendering:optimizeQuality; fill-rule:evenodd; clip-rule:evenodd"
viewBox="0 0 21000 5824"
 xmlns:xlink="http://www.w3.org/1999/xlink">
 <defs>
  <style type="text/css">
   <![CDATA[
    .fil0 {fill:black}
    .fil1 {fill:#E31E24}
   ]]>
  </style>
 </defs>
 <g id="Vrstva_x0020_1">
  <metadata id="CorelCorpID_0Corel-Layer"/>
  <g id="_1767007705280">
   <path class="fil0" d="M7196 5424c1924,17 3821,142 4702,-927 410,-498 2209,-2609 2654,-3713 -320,-463 -730,-775 -1398,-784l-2155 3126c-348,499 -1327,1265 -3429,1398l-374 900z"/>
   <path class="fil0" d="M4587 3536c8,596 2511,1585 2760,970 205,-507 -2297,-1754 -2787,-1122l-365 1096c-9,908 2119,1692 2671,1184l312 -748c-632,169 -2752,-543 -2591,-1380z"/>
   <path class="fil0" d="M4435 5344c-276,-259 -365,-437 -481,-793l-3803 0 -151 784 4435 9z"/>
   <path class="fil1" d="M2725 3411l552 0c72,9 125,0 170,-18 44,-18 71,-44 98,-80 26,-36 44,-98 62,-160l116 -499 -98 0c-45,0 -89,-9 -116,-18 -36,-9 -62,-27 -80,-53 -27,-27 -54,-72 -71,-125l-223 -508c80,-17 151,-35 214,-62 62,-27 124,-53 169,-98 44,-36 89,-89 133,-142 45,-63 89,-143 125,-232 36,-98 62,-205 89,-312 18,-107 27,-222 27,-338 0,-98 -18,-196 -54,-276 -44,-80 -98,-143 -160,-196 -44,-27 -80,-45 -133,-62 -45,-18 -98,-27 -170,-36 -71,-9 -151,-9 -258,-9l-2066 0 -36 143c54,8 89,26 116,44 18,27 27,53 27,98l0 36 -18 71 -18 107 -534 2297 -27 107 -9 72 -9 35 0 27c0,36 9,71 36,107 18,26 44,53 80,62l36 18 35 0 72 0 124 0 998 0 35 -134c-53,-17 -89,-26 -107,-53 -26,-27 -35,-54 -35,-98l9 -71 26 -143 170 -721 365 1024c9,36 26,62 44,98 18,27 45,44 72,62l44 27c18,9 36,9 62,9l116 0zm-187 -2075c-18,27 -35,44 -71,62 -27,9 -62,18 -107,18l-151 0 124 -552 143 0c53,0 98,9 116,27 26,17 44,44 35,80l0 26 -9 27 -44 187c-9,54 -18,98 -36,125z"/>
   <path class="fil1" d="M4088 2805c27,27 53,54 80,63l36 9 44 8 71 0c27,0 63,0 116,0l1006 0 27 -133c-53,-18 -89,-27 -107,-54 -26,-17 -35,-53 -35,-89l0 -26 18 -63c0,-26 17,-71 26,-133l71 -410 348 0 -98 481 -9 45 -9 71c-9,27 -18,44 -18,71 0,18 -9,36 -9,53 9,36 18,72 36,107 18,27 44,54 80,63l36 9 44 8 63 0c35,0 71,0 124,0l1007 0 35 -133c-53,-18 -89,-36 -116,-54 -17,-17 -35,-53 -35,-97l9 -36 9 -62 26 -116 383 -1773 27 -106 9 -63 9 -35 0 -36c0,-36 -9,-71 -36,-98 -18,-36 -44,-53 -71,-71l-36 -9 -44 -9 -63 0 -124 0 -1007 0 -35 143c53,8 89,26 116,44 17,27 26,62 26,98l-9 71 -26 152 -152 641 -347 0 169 -722 27 -106 18 -72 0 -35 0 -27c0,-27 0,-44 -9,-71 -9,-27 -27,-45 -45,-63 -18,-17 -35,-26 -53,-35l-36 -9 -44 -9 -63 0 -124 0 -1007 0 -26 143c44,8 80,26 106,44 18,27 27,62 27,98 0,18 0,36 -9,71l-26 152 -383 1763 -27 107 -18 62 0 45 0 26c0,36 9,72 27,107z"/>
   <path class="fil1" d="M7962 695l-535 2288 -17 116 -18 63 0 35 -9 27c9,36 18,71 36,107 17,26 44,53 80,62l35 18 36 0 71 0 125 0 997 0 36 -134c-53,-9 -89,-26 -107,-53 -27,-18 -36,-54 -36,-89l0 -27 9 -62 36 -134 134 -596 213 -188 321 936c27,80 53,142 80,196 18,44 45,80 71,97 27,27 63,45 107,45 36,9 89,18 161,9l436 0c71,9 134,-9 178,-27 45,-18 89,-53 116,-107 27,-44 53,-107 71,-187l107 -445 -71 0c-63,0 -107,-9 -134,-18 -36,-9 -62,-26 -89,-62 -18,-36 -36,-80 -62,-143l-401 -1095 784 -730c62,-54 98,-98 124,-143 27,-35 36,-71 36,-107 0,-53 -18,-89 -53,-115 -45,-27 -107,-45 -179,-45l-1015 0 -27 125c54,18 89,53 89,89 0,18 -8,35 -26,62 -9,18 -36,45 -63,71l-472 472 98 -392 18 -115 18 -72 0 -35 0 -27c0,-18 0,-44 -9,-62 -9,-27 -27,-45 -44,-63 -18,-17 -36,-26 -54,-35l-35 -9 -45 -9 -62 0 -125 0 -1006 0 -27 143c44,8 80,26 107,44 18,27 35,62 26,98l0 71 -35 152z"/>
   <path class="fil1" d="M13795 4738l-303 0c-26,0 -53,-9 -71,-9 -18,-9 -27,-18 -35,-27 -9,-18 -9,-35 -18,-62l-80 0 -81 338c0,18 0,27 0,36l-9 36c0,35 18,71 36,89 18,26 62,44 107,53 53,9 125,9 205,9l374 0c98,0 169,0 231,-9 63,-9 125,-18 170,-36 44,-17 80,-35 115,-62 45,-35 81,-80 107,-133 27,-54 54,-125 72,-205l62 -232c9,-53 18,-107 18,-160 0,-45 -9,-80 -27,-116 -9,-36 -27,-71 -62,-107 -27,-27 -63,-53 -107,-80l-259 -169c-35,-18 -62,-45 -71,-62 -18,-9 -27,-27 -27,-45 0,-36 18,-62 45,-80 18,-9 62,-18 116,-18l249 0c45,0 80,-9 107,-18 27,-9 45,-27 62,-53 9,-27 27,-63 36,-116l62 -267 -703 0c-80,0 -143,9 -196,9 -54,9 -98,18 -134,35 -35,9 -71,27 -98,54 -35,26 -71,80 -107,142 -26,63 -53,134 -80,223l-26 142 -18 107 -9 98c0,45 9,89 18,125 17,36 35,62 71,89 27,36 71,62 125,98l240 142 62 36c18,18 27,27 36,36 0,9 0,26 0,35 0,45 -18,80 -53,98 -27,18 -81,36 -152,36z"/>
   <path class="fil1" d="M15211 3536l-320 1389 -18 62 -9 45 0 18 0 17c0,27 0,45 18,63 9,18 26,35 44,44l18 0 27 9c9,0 26,0 44,0l72 0 605 0 18 -80c-27,-9 -54,-18 -62,-36 -18,-8 -18,-26 -18,-53l0 -18c0,-9 0,-18 0,-35l18 -81 133 -561 205 0 -142 606 0 27 -9 44 -9 36 -9 35c0,27 9,45 27,63 8,18 26,35 44,44l18 0 27 9c8,0 26,0 44,0l71 0 606 0 27 -80c-36,-9 -63,-18 -72,-36 -17,-8 -17,-26 -17,-53 0,-9 0,-18 0,-27l9 -35c0,-18 8,-45 8,-72l321 -1380 18 -71c9,-18 9,-27 9,-36 0,-9 0,-18 0,-27l0 -17c0,-18 0,-45 -18,-63 -9,-18 -27,-26 -45,-35l-17 -9c-9,0 -18,0 -27,-9l-45 0 -71 0 -605 0 -18 89c26,9 53,18 62,27 9,17 18,35 18,62 0,9 0,18 -9,44l-18 81 -89 391 -205 0 107 -427 9 -71c9,-18 9,-36 9,-45l0 -18 0 -17c0,-18 0,-27 -9,-45 0,-9 -9,-27 -18,-36 -9,-8 -27,-17 -35,-17l-18 -9c-9,0 -18,0 -27,-9l-44 0 -72 0 -605 0 -18 89c27,9 53,18 62,27 18,17 18,35 18,62 0,9 0,18 0,36l-18 89z"/>
   <path class="fil1" d="M18008 4578c-9,35 -18,71 -27,98 -18,26 -27,44 -45,53 -9,9 -35,18 -53,18 -27,0 -53,-9 -71,-27 -9,-9 -18,-27 -18,-53l0 -36 9 -36 178 -765c9,-45 18,-81 27,-107 9,-18 26,-36 44,-45 18,-18 36,-18 54,-18 26,0 44,9 62,27 18,18 27,36 27,62l-9 36 0 45 -178 748zm-900 -330l-44 232 -27 196c-9,62 -18,106 -18,142 0,53 18,116 45,160 17,54 53,98 98,125 26,18 62,36 89,53 26,9 62,18 98,27 35,9 80,18 124,18 54,0 116,0 187,0l294 0 178 0 134 0 80 -9c27,-9 45,-18 62,-27l63 -26c35,-18 71,-45 107,-72 26,-35 53,-71 80,-115 18,-45 44,-107 71,-170 18,-71 45,-160 71,-258l89 -410c27,-115 45,-222 63,-293 9,-81 17,-143 17,-187 0,-72 -17,-134 -44,-187 -27,-63 -62,-98 -107,-134 -27,-18 -53,-36 -80,-45 -27,-17 -62,-26 -89,-35 -36,0 -71,-9 -116,-9 -44,-9 -89,-9 -142,-9l-446 0c-107,0 -196,9 -267,18 -71,18 -133,35 -187,71 -44,27 -89,62 -125,116 -35,44 -62,107 -89,178 -17,53 -35,116 -53,187 -27,71 -45,142 -62,223 -18,80 -36,160 -54,240z"/>
   <path class="fil1" d="M19370 3536l-320 1389 -18 62 -9 45 0 18 0 17c0,27 9,45 18,63 18,18 26,35 53,44l18 0c9,9 18,9 27,9l35 0 72 0 614 0 18 -80c-27,-9 -54,-18 -62,-36 -18,-8 -27,-35 -27,-53l9 -45 18 -89 89 -383 400 0c98,0 170,-8 241,-26 62,-18 116,-54 169,-89 45,-45 89,-107 125,-170 18,-35 35,-71 44,-106l45 -143c18,-44 26,-89 35,-142 18,-45 27,-98 27,-134 9,-45 9,-89 9,-116 0,-116 -36,-196 -98,-249 -71,-62 -169,-89 -303,-89l-1273 0 -18 89c36,9 53,18 71,27 9,17 18,35 18,62l-9 18 0 44 -18 63zm633 552l98 -463 89 0c35,0 53,9 71,26 18,9 18,36 27,63l0 26 -9 18 -36 169c-9,54 -27,98 -62,125 -27,27 -63,36 -107,36l-71 0z"/>
  </g>
 </g>
</svg>
