<?xml version="1.0" encoding="UTF-8"?>
<!DOCTYPE svg PUBLIC "-//W3C//DTD SVG 1.1//EN" "http://www.w3.org/Graphics/SVG/1.1/DTD/svg11.dtd">
<!-- Creator: CorelDRAW X8 -->
<svg xmlns="http://www.w3.org/2000/svg" xml:space="preserve" width="210mm" height="46.557mm" version="1.1" style="shape-rendering:geometricPrecision; text-rendering:geometricPrecision; image-rendering:optimizeQuality; fill-rule:evenodd; clip-rule:evenodd"
viewBox="0 0 21000 4656"
 xmlns:xlink="http://www.w3.org/1999/xlink">
 <defs>
  <style type="text/css">
   <![CDATA[
    .str1 {stroke:#E31E24;stroke-width:37.44}
    .str0 {stroke:#2B2A29;stroke-width:37.44}
    .fil0 {fill:black}
    .fil2 {fill:#FF0009}
    .fil3 {fill:white}
    .fil1 {fill:white;fill-rule:nonzero}
   ]]>
  </style>
 </defs>
 <g id="Vrstva_x0020_1">
  <metadata id="CorelCorpID_0Corel-Layer"/>
  <g id="_3004253049152">
   <polygon class="fil0 str0" points="0,0 21000,0 21000,4656 0,4656 "/>
   <path class="fil1" d="M6053 1685l142 0 0 567 552 0 0 -567 142 0 0 1286 -142 0 0 -592 -552 0 0 592 -142 0 0 -1286zm1291 45c67,-42 148,-63 242,-63 95,0 176,21 243,63 67,42 117,98 150,169 19,40 33,88 42,144 10,55 15,101 16,138 1,36 2,85 2,147 0,62 -1,111 -2,147 -1,36 -6,82 -16,138 -9,56 -23,104 -42,144 -33,71 -83,127 -150,169 -67,41 -148,62 -243,62 -94,0 -175,-21 -242,-62 -67,-42 -117,-98 -150,-169 -19,-40 -33,-88 -42,-144 -10,-56 -15,-102 -16,-138 -1,-36 -2,-85 -2,-147 0,-62 1,-111 2,-147 1,-37 6,-83 16,-138 9,-56 23,-104 42,-144 33,-71 83,-127 150,-169zm405 105c-44,-27 -98,-41 -163,-41 -64,0 -118,14 -162,41 -44,27 -77,64 -99,112 -15,32 -27,72 -34,120 -8,49 -12,90 -13,124 -2,34 -2,80 -2,137 0,57 0,102 2,137 1,34 5,75 13,123 7,48 19,88 34,120 22,48 55,86 99,113 44,27 98,40 162,40 65,0 119,-13 163,-40 44,-27 78,-65 99,-113 15,-32 27,-72 34,-120 8,-48 12,-89 13,-123 2,-35 2,-80 2,-137 0,-57 0,-103 -2,-137 -1,-34 -5,-75 -13,-124 -7,-48 -19,-88 -34,-120 -21,-48 -55,-85 -99,-112zm700 -105c67,-42 148,-63 243,-63 94,0 175,21 242,63 67,42 117,98 150,169 19,40 33,88 42,144 10,55 15,101 16,138 1,36 2,85 2,147 0,62 -1,111 -2,147 -1,36 -6,82 -16,138 -9,56 -23,104 -42,144 -33,71 -83,127 -150,169 -67,41 -148,62 -242,62 -95,0 -176,-21 -243,-62 -67,-42 -117,-98 -150,-169 -19,-40 -33,-88 -42,-144 -10,-56 -15,-102 -16,-138 -1,-36 -2,-85 -2,-147 0,-62 1,-111 2,-147 1,-37 6,-83 16,-138 9,-56 23,-104 42,-144 33,-71 83,-127 150,-169zm405 105c-44,-27 -98,-41 -162,-41 -65,0 -119,14 -163,41 -44,27 -77,64 -99,112 -15,32 -27,72 -34,120 -8,49 -12,90 -13,124 -2,34 -2,80 -2,137 0,57 0,102 2,137 1,34 5,75 13,123 7,48 19,88 34,120 22,48 55,86 99,113 44,27 98,40 163,40 64,0 118,-13 162,-40 44,-27 78,-65 99,-113 16,-32 27,-72 34,-120 8,-48 12,-89 13,-123 2,-35 2,-80 2,-137 0,-57 0,-103 -2,-137 -1,-34 -5,-75 -13,-124 -7,-48 -18,-88 -34,-120 -21,-48 -55,-85 -99,-112zm677 590l544 -740 160 0 -458 618 475 668 -168 0 -397 -567 -156 204 0 363 -141 0 0 -1286 141 0 0 740zm894 -740l708 0 0 127 -567 0 0 440 485 0 0 127 -485 0 0 465 567 0 0 127 -708 0 0 -1286zm1260 0c42,0 73,0 93,1 20,1 44,4 72,9 27,4 54,12 80,23 69,28 123,74 165,138 41,64 61,137 61,219 0,83 -21,157 -62,221 -42,64 -97,110 -167,137l252 538 -154 0 -230 -505 -266 0 0 505 -141 0 0 -1286 297 0zm0 127l-156 0 0 527 156 0c33,0 58,-1 74,-1 16,-1 34,-3 55,-6 21,-4 40,-8 56,-15 27,-12 51,-27 70,-47 20,-20 35,-41 45,-64 11,-23 18,-45 23,-67 4,-21 6,-43 6,-64 0,-21 -2,-42 -6,-64 -5,-22 -12,-44 -23,-67 -10,-23 -25,-44 -45,-64 -19,-20 -43,-35 -70,-47 -16,-6 -35,-11 -56,-14 -21,-4 -39,-6 -55,-6 -16,-1 -41,-1 -74,-1zm685 728l0 -121 454 0 0 121 -454 0zm869 -115l543 -740 161 0 -459 618 475 668 -168 0 -397 -567 -155 204 0 363 -142 0 0 -1286 142 0 0 740zm1483 108l-213 -657 -214 657 427 0zm-281 -848l136 0 436 1286 -148 0 -101 -311 -511 0 -100 311 -148 0 436 -1286zm1033 0c42,0 73,0 93,1 20,1 44,4 72,9 27,4 54,12 80,23 69,28 123,74 165,138 41,64 61,137 61,219 0,83 -20,157 -62,221 -42,64 -97,110 -167,137l252 538 -154 0 -230 -505 -265 0 0 505 -142 0 0 -1286 297 0zm0 127l-155 0 0 527 155 0c33,0 58,-1 74,-1 16,-1 34,-3 55,-6 21,-4 40,-8 56,-15 27,-12 51,-27 70,-47 20,-20 35,-41 45,-64 11,-23 18,-45 23,-67 4,-21 7,-43 7,-64 0,-21 -3,-42 -7,-64 -5,-22 -12,-44 -23,-67 -10,-23 -25,-44 -45,-64 -19,-20 -43,-35 -70,-47 -16,-6 -35,-11 -56,-14 -21,-4 -39,-6 -55,-6 -16,-1 -41,-1 -74,-1zm594 -128l843 0 0 127 -350 0 0 1160 -142 0 0 -1160 -351 0 0 -127zm898 1l154 0 301 675 302 -675 153 0 -384 826 0 460 -142 0 0 -460 -384 -826zm1065 1129c19,-19 43,-28 73,-28 29,0 53,9 72,28 18,18 28,42 28,72 0,29 -10,53 -28,72 -19,18 -43,28 -72,28 -30,0 -54,-10 -73,-28 -18,-19 -27,-43 -27,-72 0,-30 9,-54 27,-72zm825 -1147c123,0 236,37 340,110l-73 109c-86,-61 -175,-92 -267,-92 -126,0 -211,52 -256,155 -20,44 -32,97 -37,157 -6,61 -9,135 -9,222 0,87 3,161 9,222 5,60 17,113 37,157 45,103 130,154 256,154 111,0 210,-36 294,-108l80 106c-110,86 -235,129 -374,129 -94,0 -174,-21 -240,-62 -67,-42 -116,-99 -148,-171 -16,-37 -29,-81 -38,-133 -8,-53 -13,-99 -15,-139 -2,-41 -2,-92 -2,-155 0,-97 3,-180 10,-248 7,-69 22,-128 45,-179 33,-73 83,-130 150,-171 66,-42 145,-63 238,-63zm510 145l0 -127 746 0 0 91 -600 1068 619 0 0 127 -788 0 0 -92 600 -1067 -577 0z"/>
   <polygon class="fil2 str1" points="3336,2159 5000,2159 3356,3804 1691,3804 "/>
   <polygon class="fil3" points="2514,852 4178,852 2533,2496 869,2496 "/>
  </g>
 </g>
</svg>
