<?xml version="1.0" encoding="UTF-8"?>
<!DOCTYPE svg PUBLIC "-//W3C//DTD SVG 1.1//EN" "http://www.w3.org/Graphics/SVG/1.1/DTD/svg11.dtd">
<!-- Creator: CorelDRAW X8 -->
<svg xmlns="http://www.w3.org/2000/svg" xml:space="preserve" width="210mm" height="101.582mm" version="1.1" style="shape-rendering:geometricPrecision; text-rendering:geometricPrecision; image-rendering:optimizeQuality; fill-rule:evenodd; clip-rule:evenodd"
viewBox="0 0 21000 10158"
 xmlns:xlink="http://www.w3.org/1999/xlink">
 <defs>
  <style type="text/css">
   <![CDATA[
    .fil2 {fill:#171A63}
    .fil1 {fill:#C7CFD9}
    .fil3 {fill:#CF142B}
    .fil0 {fill:#FEFEFE}
   ]]>
  </style>
 </defs>
 <g id="Vrstva_x0020_1">
  <metadata id="CorelCorpID_0Corel-Layer"/>
  <g id="_2849989849968">
   <path class="fil0" d="M5488 3183c651,-392 791,-917 532,-1512 -399,266 -707,301 -1162,448 0,-7 273,-1554 273,-1554l-889 378 -623 -595 -651 686 -931 -518c0,0 532,1680 343,1743 -273,98 -497,266 -749,567 -483,112 -693,238 -1022,637 84,476 413,658 693,847 -42,-301 1246,-483 1316,-385 0,0 406,623 329,994 -434,308 -784,448 -1309,546 0,0 -70,182 -441,623 7,0 7,0 7,0 427,35 455,28 840,14 -210,182 -728,714 -1617,693 462,462 938,588 1148,651 -413,455 -812,798 -1407,1099 910,455 1792,350 2653,112 -140,399 -406,1078 -707,1372 2065,-280 2912,-1820 2968,-1897 49,168 161,427 126,1092 819,-798 1218,-1890 1218,-3066 196,147 518,378 910,826 -7,-1435 -574,-2674 -1848,-3801z"/>
   <path class="fil1" d="M735 8503c0,0 609,-35 1337,-623 0,0 -84,371 -420,574 0,0 847,112 1834,-476 0,0 -7,714 -294,1148 0,0 1169,-532 1932,-1960 0,0 357,504 427,1036 0,0 574,-798 525,-2758 0,0 371,119 630,336 0,0 -322,-840 -749,-1071 7,0 189,-49 406,63 0,0 -602,-1260 -1512,-1932 1848,889 2233,2331 2485,3843l-784 -560c0,0 -112,1988 -1316,3010l-147 -903c-1190,1442 -2688,1652 -2688,1652 0,0 217,-350 539,-1274 -343,182 -1813,245 -2205,-105z"/>
   <path class="fil1" d="M4998 3589c0,0 147,931 42,1673 0,0 -210,-294 -399,-378 0,0 420,672 -91,1631 0,0 -35,-665 -252,-1015 0,0 -805,1589 -2212,1386 0,0 161,-98 287,-392 0,0 -567,441 -1267,448 175,553 2149,574 2975,-371 0,0 154,602 84,980 1316,-959 1393,-2723 833,-3962z"/>
   <path class="fil1" d="M1666 5843c637,-91 1302,-448 1736,-924 7,0 14,91 -42,266 0,0 532,-518 532,-959 0,0 70,168 84,287 0,0 217,-259 154,-1288 210,952 231,1806 -875,2338 -1120,539 -1589,280 -1589,280z"/>
   <path class="fil1" d="M1428 3344c0,0 0,301 -210,483 616,-385 1554,-441 2163,231 0,0 -749,-392 -1316,-189 -567,203 -945,336 -945,336l-343 -483c0,0 469,-189 651,-378z"/>
   <path class="fil1" d="M5033 2742c308,-98 553,-252 672,-455 0,0 -105,42 -245,21 0,0 336,-105 546,-371 238,1057 -742,1197 -973,805z"/>
   <path class="fil1" d="M4627 2427c0,0 -532,-294 -1729,-196 1078,-455 2107,56 2107,56l-378 140z"/>
   <path class="fil2" d="M2380 2987c210,-350 539,-476 1288,-413 7,0 7,7 14,14 0,7 -7,7 -14,14 -217,70 -350,189 -497,322 -196,175 -532,175 -791,63z"/>
   <path class="fil1" d="M2562 1979c0,0 406,-378 1603,-357 0,0 -1127,-280 -1715,28l112 329z"/>
   <path class="fil1" d="M3038 1230c-252,-245 -595,-546 -805,-525 0,0 399,315 574,644 105,-7 224,-7 336,-7 -35,-35 -70,-70 -105,-112z"/>
   <path class="fil1" d="M3941 705c-133,-147 -336,-189 -336,-189l0 861c119,21 231,42 336,77 77,-77 147,-147 231,-224 105,-140 -98,-378 -231,-525z"/>
   <path class="fil1" d="M4998 712c0,0 -350,308 -567,728 203,7 385,28 532,56l168 -854 -133 70z"/>
   <path class="fil2" d="M6286 5780c70,1008 -217,2079 -854,2947 -7,-273 -84,-707 -231,-1113 -539,889 -1407,1617 -2443,1960 168,-329 343,-791 427,-1246 -770,357 -1645,420 -2450,175 203,-119 399,-252 574,-406 196,-161 371,-336 539,-525 749,105 1554,-112 2170,-707 7,413 -42,826 -133,1211 -7,14 0,21 7,28 7,0 21,0 28,0 1400,-931 1981,-2891 1078,-4515 427,1204 203,2562 -637,3577 21,-350 0,-777 -91,-1211 -609,1127 -2016,1561 -3164,987 511,-105 945,-399 1239,-784 238,-56 469,-133 686,-245 1869,-931 1288,-2163 1099,-2688 196,1050 189,1589 -1050,2261 -434,231 -917,357 -1414,357 56,-84 126,-217 147,-273 553,-105 1484,-581 1358,-973 -77,-259 -133,-413 -161,-511 -7,-28 -14,-49 -28,-77 154,14 294,28 399,49 -420,-476 -1596,-476 -2170,-84 -21,-7 -168,-56 -280,-210 322,-14 497,-420 497,-420 -532,301 -623,105 -623,105 154,-168 343,-287 581,-385 280,-91 560,-140 777,-175 7,0 14,-7 14,-14 7,-14 0,-21 -7,-28 -56,-35 -133,-70 -217,-98 336,-350 938,-777 2723,-504 -28,98 -105,217 -259,308 0,0 490,-63 980,-301 378,-168 609,-315 609,-315 49,966 -609,896 -609,896 378,-175 399,-490 399,-490 -385,245 -1155,420 -1155,420 1393,784 2310,2149 2527,3682 -280,-266 -595,-497 -882,-665zm-4053 -5075c273,147 518,259 805,525 210,-308 308,-511 567,-714 182,168 392,385 567,714 280,-245 567,-406 826,-518 -147,273 -238,686 -266,1211 -1008,-189 -1701,-112 -2170,56 -14,-77 -21,-147 -28,-217 378,-147 910,-224 1631,-140 -413,-231 -1218,-217 -1680,-112 -49,-273 -126,-532 -252,-805zm3507 2422c525,-322 784,-931 427,-1673 0,-7 -7,-7 -14,-7 -7,-7 -14,0 -21,0 -392,280 -749,441 -1085,546 35,-518 126,-1085 336,-1764 7,-7 0,-14 0,-21 -7,-7 -14,-7 -28,-7 -560,182 -805,336 -1113,546 -147,-273 -357,-497 -630,-742 -7,-7 -7,-7 -14,0 -273,238 -476,469 -630,728 -294,-203 -693,-322 -1155,-455 -7,0 -14,0 -21,7 -7,7 -7,21 -7,28 259,665 420,1155 469,1806 -343,189 -532,413 -637,546 -532,119 -847,378 -1148,742 -7,7 -7,14 -7,21 91,623 406,847 966,1176 7,0 21,0 28,-7 7,-7 7,-14 7,-21 -98,-287 28,-434 252,-504 154,-42 350,-70 553,-77 224,0 385,56 420,161l140 441c63,203 -336,511 -896,693 -119,35 -231,63 -343,84 -21,7 -35,21 -49,42 -70,175 -210,392 -483,693 -7,0 -7,14 0,21 0,7 7,14 14,14 231,56 462,77 693,77 -224,182 -483,308 -763,385 -301,77 -595,70 -728,49 -7,0 -14,7 -21,14 0,7 0,21 7,28 322,378 735,637 1183,777 -406,441 -896,798 -1428,1050 -7,0 -14,7 -14,14 0,14 7,21 14,21 805,448 1743,560 2632,315 -154,434 -378,868 -658,1246 -7,7 -7,21 -7,28 7,7 14,14 28,7 896,-84 1806,-476 2534,-1120 252,-224 490,-504 518,-546 63,329 77,700 42,1071 0,7 0,14 14,21 7,7 14,0 21,0 917,-826 1428,-1953 1484,-3108l0 -7c294,224 609,525 882,861 7,7 14,14 21,7 14,0 14,-7 14,-21 56,-1526 -567,-3087 -1799,-4186z"/>
   <path class="fil2" d="M763 4842c105,336 1337,196 1841,-399 -154,70 -406,196 -658,273 -532,175 -1015,175 -1050,14 -14,-70 21,-147 105,-238 -175,126 -266,252 -238,350z"/>
   <path class="fil2" d="M10717 3876l0 147c0,238 -154,378 -455,378 -301,0 -455,-140 -455,-378l0 -903c0,-238 154,-378 455,-378 301,0 455,140 455,378l0 147 602 0 0 -147c0,-609 -455,-910 -1057,-910 -609,0 -1057,301 -1057,910l0 903c0,609 448,910 1057,910 602,0 1057,-301 1057,-910l0 -147 -602 0zm-875 -1813l798 0 441 -553 -602 0 -231 287 -224 -287 -616 0 434 553zm1932 2835l1813 0 0 -532 -1211 0 0 -532 1134 0 0 -525 -1134 0 0 -532 1211 0 0 -525 -1813 0 0 2646zm3591 -756c0,203 -133,280 -413,280 -287,0 -420,-98 -420,-294l0 -63 -602 0 0 63c0,525 399,805 1022,805 623,0 1022,-280 1022,-833 0,-420 -273,-679 -728,-756l-441 -77c-161,-28 -273,-119 -273,-259 0,-210 133,-287 420,-287 280,0 413,98 413,294l0 63 609 0 0 -63c0,-518 -399,-805 -1022,-805 -623,0 -1022,287 -1022,840 0,413 273,672 728,756l441 70c154,28 266,126 266,266zm1057 756l609 0 0 -1197 847 1197 742 0 -987 -1386 910 -1260 -658 0 -854 1190 0 -1190 -609 0 0 2646zm3066 0l602 0 0 -833 910 -1813 -679 0 -532 1155 -525 -1155 -686 0 910 1813 0 833zm539 -2835l434 -553 -602 0 -357 553 525 0z"/>
   <path class="fil3" d="M9205 8412l602 0 0 -1064 910 0 0 1064 602 0 0 -2653 -602 0 0 1064 -910 0 0 -1064 -602 0 0 2653zm2604 -875c0,609 455,910 1064,910 602,0 1057,-301 1057,-910l0 -903c0,-609 -455,-910 -1057,-910 -609,0 -1064,301 -1064,910l0 903zm609 0l0 -903c0,-238 147,-378 455,-378 301,0 448,140 448,378l0 903c0,238 -147,378 -448,378 -308,0 -455,-140 -455,-378zm2002 875l609 0 0 -1197 840 1197 742 0 -987 -1386 917 -1267 -658 0 -854 1197 0 -1197 -609 0 0 2653zm2422 0l1813 0 0 -532 -1211 0 0 -532 1134 0 0 -525 -1134 0 0 -532 1211 0 0 -532 -1813 0 0 2653zm2534 -2121l875 0 0 1323c0,203 -112,301 -322,301 -217,0 -329,-98 -329,-301l0 -266 -602 0 0 266c0,567 413,833 903,833l49 0c490,0 903,-266 903,-833l0 -1855 -1477 0 0 532z"/>
  </g>
 </g>
</svg>
