<?xml version="1.0" encoding="UTF-8"?>
<!DOCTYPE svg PUBLIC "-//W3C//DTD SVG 1.1//EN" "http://www.w3.org/Graphics/SVG/1.1/DTD/svg11.dtd">
<!-- Creator: CorelDRAW X7 -->
<svg xmlns="http://www.w3.org/2000/svg" xml:space="preserve" width="209mm" height="61mm" version="1.1" style="shape-rendering:geometricPrecision; text-rendering:geometricPrecision; image-rendering:optimizeQuality; fill-rule:evenodd; clip-rule:evenodd"
viewBox="0 0 20900 6100"
 xmlns:xlink="http://www.w3.org/1999/xlink">
 <defs>
  <style type="text/css">
   <![CDATA[
    .fil0 {fill:black}
   ]]>
  </style>
 </defs>
 <g id="Vrstva_x0020_1">
  <metadata id="CorelCorpID_0Corel-Layer"/>
  <g id="_2428923923424">
   <g>
    <path class="fil0" d="M1630 19l1541 4298 -655 0 -270 -801 -1294 0 -285 801 -639 0 1602 -4298zm416 2942l-439 -1294 -455 1294 894 0z"/>
    <path class="fil0" d="M3933 281l0 1679c270,-254 570,-385 917,-385 185,0 362,38 531,115 170,77 316,178 439,301 124,123 224,277 301,447 69,169 108,354 108,539 0,200 -39,385 -108,562 -70,170 -170,324 -301,455 -131,131 -277,231 -454,300 -177,77 -362,116 -562,116 -239,0 -463,-54 -663,-170 -208,-108 -370,-262 -501,-454 -84,-131 -146,-270 -184,-409 -39,-138 -54,-315 -54,-523l0 -2573 531 0zm878 1833c-123,0 -231,23 -339,69 -108,47 -200,108 -277,185 -77,77 -139,170 -185,278 -46,107 -69,223 -69,346 0,123 23,239 69,339 46,108 108,200 185,277 77,78 169,139 270,185 100,47 215,70 339,70 123,0 231,-23 339,-70 107,-46 200,-107 277,-185 77,-77 138,-169 185,-277 46,-108 69,-223 69,-339 0,-123 -23,-239 -69,-354 -47,-108 -108,-200 -185,-285 -77,-77 -170,-139 -270,-185 -108,-31 -215,-54 -339,-54z"/>
    <path class="fil0" d="M7153 3424c23,315 185,470 485,470 131,0 231,-31 308,-101 77,-69 116,-154 116,-269 0,-108 -31,-193 -100,-247 -62,-54 -193,-108 -378,-154 -154,-38 -269,-77 -339,-108 -77,-30 -146,-77 -208,-131 -161,-131 -238,-308 -238,-539 0,-231 77,-416 223,-562 146,-147 339,-216 578,-216 177,0 331,46 470,131 138,85 239,200 285,339 23,54 31,108 38,162 8,54 8,123 8,208l-524 -139c-46,-146 -139,-223 -269,-223 -70,0 -131,23 -185,77 -47,54 -70,115 -70,185 0,92 31,154 85,200 62,46 177,92 347,131 77,23 146,38 200,54 54,15 100,31 139,46 38,15 69,31 100,54 31,23 61,38 92,69 93,70 162,162 216,278 54,107 77,231 77,354 0,131 -23,246 -77,362 -54,108 -123,208 -208,293 -93,84 -193,146 -308,192 -116,46 -247,70 -385,70 -147,0 -285,-24 -409,-70 -131,-46 -238,-115 -331,-200 -92,-85 -169,-185 -223,-300 -54,-116 -85,-239 -85,-370 0,-23 0,-46 8,-77 7,-31 7,-70 15,-108l547 139z"/>
    <polygon class="fil0" points="12368,281 12900,281 12900,4317 12368,4317 "/>
    <path class="fil0" d="M13993 1675l0 1425c0,77 8,162 24,239 15,77 30,146 53,200 47,100 116,185 224,247 108,61 216,92 339,92 123,0 239,-31 339,-100 100,-62 177,-146 215,-254 39,-100 62,-239 62,-424l0 -1425 532 0 0 1402c0,100 0,185 -8,262 -8,77 -16,146 -31,208 -15,61 -31,123 -54,169 -23,54 -46,108 -85,170 -100,169 -231,300 -400,393 -170,92 -370,138 -586,138 -223,0 -423,-46 -600,-146 -178,-100 -309,-231 -401,-408 -54,-116 -100,-231 -123,-347 -23,-115 -39,-262 -39,-439l0 -1402 539 0z"/>
    <path class="fil0" d="M16250 1675l278 0 0 -655 531 0 0 655 663 0 0 501 -663 0 0 616c0,100 0,193 8,262 8,77 8,139 23,200 8,62 23,108 39,154 15,46 38,93 61,131 108,177 293,277 555,301l0 577c-200,-15 -378,-54 -524,-115 -146,-70 -277,-170 -393,-301 -92,-108 -162,-215 -208,-323 -46,-116 -77,-239 -85,-385 0,-39 -7,-85 -7,-131 0,-47 0,-124 0,-224l0 -762 -278 0 0 -501z"/>
    <path class="fil0" d="M20495 3955c-277,301 -609,455 -1001,455 -201,0 -393,-39 -563,-108 -177,-70 -323,-170 -454,-301 -131,-131 -231,-277 -308,-446 -77,-170 -116,-355 -116,-555 0,-193 39,-378 116,-547 77,-169 177,-324 300,-454 131,-131 277,-232 447,-309 169,-77 346,-115 539,-115 139,0 270,23 401,54 131,38 254,92 362,162 107,69 208,154 300,254 92,100 162,208 216,331 46,108 84,223 108,354 23,131 30,293 30,493l-2249 0c23,93 54,177 116,255 54,77 123,146 200,200 77,54 162,100 254,131 93,31 193,46 301,46 130,0 238,-23 331,-62 92,-38 185,-123 292,-231l378 393zm-216 -1225c-23,-92 -61,-169 -115,-246 -54,-77 -116,-139 -185,-200 -69,-54 -154,-101 -239,-124 -85,-31 -177,-46 -277,-46 -201,0 -370,54 -524,170 -154,115 -254,261 -308,446l1648 0z"/>
   </g>
   <g>
    <g>
     <path class="fil0" d="M11821 3015c0,108 -15,208 -38,301 -16,77 -47,154 -77,231 -77,169 -178,323 -301,447 -131,123 -277,223 -447,300 -169,69 -354,108 -547,108 -200,0 -385,-39 -554,-116 -162,-69 -301,-161 -424,-277l501 -293c46,31 85,54 139,77 100,47 215,70 338,70 124,0 232,-23 339,-70 108,-46 201,-107 278,-185 77,-77 138,-169 185,-277 23,-54 38,-108 46,-162 8,-54 15,-115 15,-177 0,-15 0,-23 0,-38l393 -224 154 285z"/>
    </g>
    <polygon class="fil0" points="12037,3385 11790,3316 11251,3177 11005,3108 11659,2730 11821,3015 "/>
    <g>
     <g>
      <path class="fil0" d="M8994 2977c0,-108 16,-208 39,-301 15,-77 46,-154 77,-231 77,-169 177,-323 300,-446 131,-124 277,-224 447,-301 169,-69 354,-108 547,-108 200,0 385,39 554,116 162,69 301,162 424,277l-501 293c-46,-31 -84,-54 -138,-77 -100,-46 -216,-70 -339,-70 -123,0 -231,24 -339,70 -108,46 -200,108 -277,185 -77,77 -139,169 -185,277 -23,54 -39,108 -47,162 -7,54 -15,115 -15,177 0,15 0,23 0,38l-393 224 -154 -285z"/>
     </g>
     <polygon class="fil0" points="8778,2599 9033,2669 9564,2815 9811,2877 9156,3254 8994,2977 "/>
    </g>
   </g>
   <path class="fil0" d="M5882 5511l0 100c-54,-38 -100,-61 -154,-61 -62,0 -108,23 -154,61 -39,47 -62,93 -62,154 0,62 23,116 62,154 38,39 92,62 154,62 31,0 54,-8 77,-15 15,-8 23,-16 38,-23 16,-8 24,-16 39,-31l0 115c-54,31 -100,47 -154,47 -85,0 -154,-31 -216,-85 -61,-62 -84,-131 -84,-208 0,-77 23,-139 77,-200 61,-70 138,-108 231,-108 46,-8 92,7 146,38z"/>
   <path class="fil0" d="M7007 5919l-247 0 -61 139 -93 0 285 -616 277 616 -92 0 -69 -139zm-39 -84l-85 -193 -92 200 177 0 0 -7z"/>
   <path class="fil0" d="M8093 5812l177 246 -108 0 -169 -239 -16 0 0 239 -84 0 0 -578 100 0c77,0 131,16 169,47 39,30 54,77 54,123 0,38 -15,77 -38,108 -16,30 -47,46 -85,54zm-108 -70l31 0c85,0 123,-31 123,-92 0,-62 -38,-93 -123,-93l-31 0 0 185z"/>
   <path class="fil0" d="M9025 6058l0 -578 123 0c62,0 108,8 139,16 38,7 69,31 100,54 62,54 92,123 92,215 0,93 -30,162 -92,216 -31,31 -62,46 -100,54 -31,8 -77,15 -139,15l-123 0 0 8zm85 -85l38 0c39,0 69,-7 100,-15 23,-8 47,-23 70,-39 46,-38 61,-92 61,-154 0,-61 -23,-115 -61,-154 -39,-38 -93,-54 -170,-54l-38 0 0 416z"/>
   <path class="fil0" d="M11767 5511l0 100c-54,-38 -100,-61 -154,-61 -61,0 -108,23 -154,61 -38,47 -62,93 -62,154 0,62 24,116 62,154 39,39 93,62 154,62 31,0 54,-8 77,-15 16,-8 23,-16 39,-23 15,-8 23,-16 38,-31l0 115c-54,31 -100,47 -154,47 -85,0 -154,-31 -216,-85 -61,-62 -84,-131 -84,-208 0,-77 23,-139 77,-200 61,-70 138,-108 231,-108 46,-8 92,7 146,38z"/>
   <path class="fil0" d="M12507 5765c0,-84 31,-154 92,-208 62,-61 131,-84 216,-84 85,0 154,30 216,92 61,62 92,131 92,216 0,85 -31,154 -92,215 -62,62 -131,85 -216,85 -77,0 -139,-23 -200,-77 -77,-69 -108,-146 -108,-239zm84 0c0,62 24,116 62,162 46,39 93,62 146,62 62,0 116,-23 155,-62 38,-46 61,-92 61,-154 0,-62 -23,-115 -61,-154 -39,-38 -93,-62 -155,-62 -61,0 -107,24 -154,62 -30,39 -54,85 -54,146z"/>
   <polygon class="fil0" points="13970,5480 13970,5981 14140,5981 14140,6066 13878,6066 13878,5488 13970,5488 "/>
   <polygon class="fil0" points="15010,5480 15010,5981 15180,5981 15180,6066 14918,6066 14918,5488 15010,5488 "/>
   <polygon class="fil0" points="16243,5565 16012,5565 16012,5704 16235,5704 16235,5788 16012,5788 16012,5981 16243,5981 16243,6066 15919,6066 15919,5488 16243,5488 "/>
   <path class="fil0" d="M17414 5511l0 100c-54,-38 -100,-61 -154,-61 -62,0 -108,23 -154,61 -39,47 -62,93 -62,154 0,62 23,116 62,154 38,39 92,62 154,62 30,0 54,-8 77,-15 15,-8 23,-16 38,-23 16,-8 23,-16 39,-31l0 115c-54,31 -100,47 -154,47 -85,0 -154,-31 -216,-85 -62,-62 -85,-131 -85,-208 0,-77 23,-139 77,-200 62,-70 139,-108 231,-108 47,-8 100,7 147,38z"/>
   <polygon class="fil0" points="18346,5565 18346,6066 18261,6066 18261,5565 18130,5565 18130,5480 18484,5480 18484,5565 "/>
   <path class="fil0" d="M19131 5765c0,-84 31,-154 93,-208 62,-61 131,-84 216,-84 84,0 154,30 215,92 62,62 93,131 93,216 0,85 -31,154 -93,215 -61,62 -131,85 -215,85 -77,0 -139,-23 -201,-77 -77,-69 -108,-146 -108,-239zm93 0c0,62 23,116 62,162 46,39 92,62 146,62 62,0 115,-23 154,-62 38,-46 62,-92 62,-154 0,-62 -24,-115 -62,-154 -39,-38 -92,-62 -154,-62 -62,0 -108,24 -154,62 -39,39 -54,85 -54,146z"/>
   <path class="fil0" d="M20595 5812l177 246 -108 0 -169 -239 -15 0 0 239 -85 0 0 -578 100 0c77,0 131,16 169,47 39,30 54,77 54,123 0,38 -15,77 -38,108 -16,30 -46,46 -85,54zm-115 -70l30 0c85,0 124,-31 124,-92 0,-62 -39,-93 -124,-93l-30 0 0 185z"/>
  </g>
 </g>
</svg>
