<?xml version="1.0" encoding="UTF-8"?>
<!DOCTYPE svg PUBLIC "-//W3C//DTD SVG 1.1//EN" "http://www.w3.org/Graphics/SVG/1.1/DTD/svg11.dtd">
<!-- Creator: CorelDRAW X7 -->
<svg xmlns="http://www.w3.org/2000/svg" xml:space="preserve" width="210mm" height="72mm" version="1.1" style="shape-rendering:geometricPrecision; text-rendering:geometricPrecision; image-rendering:optimizeQuality; fill-rule:evenodd; clip-rule:evenodd"
viewBox="0 0 21000 7200"
 xmlns:xlink="http://www.w3.org/1999/xlink">
 <defs>
  <style type="text/css">
   <![CDATA[
    .fil0 {fill:black}
    .fil1 {fill:#00BFCB}
   ]]>
  </style>
 </defs>
 <g id="Vrstva_x0020_1">
  <metadata id="CorelCorpID_0Corel-Layer"/>
  <g id="_2453238711248">
   <g id="txt">
    <path class="fil0" d="M8180 5285l0 1045c0,527 -264,829 -773,829 -508,0 -772,-302 -772,-829l0 -1714c0,-528 264,-829 772,-829 509,0 773,301 773,829l0 320 -490 0 0 -353c0,-235 -103,-325 -268,-325 -165,0 -269,90 -269,325l0 1780c0,236 104,321 269,321 165,0 268,-85 268,-321l0 -607 -236 0 0 -471 726 0z"/>
    <path class="fil0" d="M9621 6716l0 -518c0,-306 -104,-419 -339,-419l-179 0 0 1343 -518 0 0 -3297 782 0c537,0 767,250 767,758l0 259c0,339 -108,561 -339,669 259,109 344,358 344,702l0 508c0,160 5,278 56,400l-527 0c-28,-84 -47,-136 -47,-405zm-518 -1408l202 0c194,0 311,-85 311,-349l0 -325c0,-235 -80,-339 -264,-339l-249 0 0 1013z"/>
    <path class="fil0" d="M11703 7121l-90 -598 -636 0 -90 598 -476 0 528 -3297 758 0 527 3297 -521 0zm-160 -1045l-250 -1667 -249 1667 499 0z"/>
    <path class="fil0" d="M13355 3825c518,0 773,287 773,814l0 1668c0,527 -255,814 -773,814l-819 0 0 -3296 819 0zm-300 2825l292 0c165,0 264,-84 264,-320l0 -1714c0,-235 -99,-321 -264,-321l-292 0 0 2355z"/>
    <polygon class="fil0" points="15047,3825 15047,7122 14529,7122 14529,3825 "/>
    <polygon class="fil0" points="15955,7121 15489,7121 15489,3825 16139,3825 16671,5798 16671,3825 17133,3825 17133,7122 16600,7122 15955,4734 "/>
    <path class="fil0" d="M19078 5285l0 1045c0,527 -264,829 -773,829 -508,0 -772,-302 -772,-829l0 -1714c0,-528 264,-829 772,-829 509,0 773,301 773,829l0 320 -490 0 0 -354c0,-235 -103,-324 -268,-324 -165,0 -268,89 -268,324l0 1781c0,236 103,321 268,321 165,0 268,-85 268,-321l0 -607 -236 0 0 -471 726 0z"/>
    <polygon class="fil0" points="10184,42 10660,42 10151,3339 9378,3339 8870,42 9393,42 9789,2731 "/>
    <polygon class="fil0" points="11488,42 11488,3339 10971,3339 10971,42 "/>
    <path class="fil0" d="M12972 2933l0 -518c0,-306 -103,-419 -339,-419l-179 0 0 1343 -518 0 0 -3297 782 0c537,0 768,249 768,758l0 259c0,339 -109,560 -340,669 259,108 344,358 344,702l0 508c0,160 5,278 56,400l-527 0c-28,-84 -47,-136 -47,-405zm-518 -1408l203 0c193,0 311,-85 311,-349l0 -325c0,-236 -81,-339 -264,-339l-250 0 0 1013z"/>
    <polygon class="fil0" points="15350,42 15350,513 14809,513 14809,3339 14291,3339 14291,513 13749,513 13749,42 "/>
    <path class="fil0" d="M16142 2584c0,236 103,321 268,321 165,0 269,-85 269,-321l0 -2542 489 0 0 2510c0,527 -264,829 -772,829 -509,0 -773,-302 -773,-829l0 -2510 518 0 0 2542 1 0z"/>
    <path class="fil0" d="M18746 3338l-89 -598 -636 0 -90 598 -476 0 528 -3297 759 0 527 3297 -523 0zm-160 -1045l-249 -1667 -250 1667 499 0z"/>
    <polygon class="fil0" points="20098,42 20098,2868 20950,2868 20950,3339 19580,3339 19580,42 "/>
   </g>
   <g>
    <polygon class="fil1" points="4138,5784 4138,5784 4136,5780 3525,4722 3366,4446 2594,3109 2367,2716 1981,2047 1594,1379 1209,710 2367,710 2367,41 50,41 436,710 823,1379 1209,2047 1209,2048 1822,3109 2367,4054 2593,4446 3366,5784 3525,6059 4136,7118 4138,7121 4751,6059 4910,5784 5683,4446 4910,4446 4751,4722 "/>
    <polygon class="fil1" points="2367,710 2367,1379 5909,1379 5524,2047 4910,3109 4751,3385 4138,4446 4910,4446 5682,3109 5909,2716 6295,2047 6682,1379 7067,710 "/>
    <polygon class="fil1" points="4751,3109 4751,2047 2753,2047 3366,3109 3525,3385 4136,4443 4136,3109 4138,3109 "/>
   </g>
  </g>
 </g>
</svg>
