<?xml version="1.0" encoding="UTF-8"?>
<!DOCTYPE svg PUBLIC "-//W3C//DTD SVG 1.1//EN" "http://www.w3.org/Graphics/SVG/1.1/DTD/svg11.dtd">
<!-- Creator: CorelDRAW X7 -->
<svg xmlns="http://www.w3.org/2000/svg" xml:space="preserve" width="210mm" height="50mm" version="1.1" style="shape-rendering:geometricPrecision; text-rendering:geometricPrecision; image-rendering:optimizeQuality; fill-rule:evenodd; clip-rule:evenodd"
viewBox="0 0 21000 5000"
 xmlns:xlink="http://www.w3.org/1999/xlink">
 <defs>
  <style type="text/css">
   <![CDATA[
    .fil2 {fill:#E84B3A}
    .fil0 {fill:#2C3E50;fill-rule:nonzero}
    .fil1 {fill:#B5C3D0;fill-rule:nonzero}
   ]]>
  </style>
 </defs>
 <g id="Vrstva_x0020_2">
  <metadata id="CorelCorpID_0Corel-Layer"/>
  <g id="_2738376963680">
   <path class="fil0" d="M8874 3525l0 -1847 -554 0 -448 1116 -448 -1116 -551 0 0 1847 393 0 0 -1294 520 1294 172 0 520 -1294 0 1294 396 0zm2087 0l-712 -1847 -492 0 -714 1847 448 0 116 -313 792 0 113 313 449 0zm-670 -659l-576 0 288 -795 288 795zm2336 659l-416 -704c200,-47 405,-221 405,-548 0,-343 -236,-595 -620,-595l-864 0 0 1847 393 0 0 -656 288 0 362 656 452 0zm-690 -1003l-412 0 0 -498 412 0c158,0 277,94 277,249 0,155 -119,249 -277,249zm2555 1003l-783 -981 733 -866 -484 0 -653 825 0 -825 -393 0 0 1847 393 0 0 -568 143 -172 560 740 484 0zm1486 0l0 -346 -913 0 0 -418 894 0 0 -347 -894 0 0 -390 913 0 0 -346 -1306 0 0 1847 1306 0zm1959 0l0 -1847 -393 0 0 1160 -855 -1160 -404 0 0 1847 393 0 0 -1205 880 1205 379 0z"/>
   <path class="fil1" d="M18447 3590c106,0 195,-89 195,-195 0,-106 -89,-196 -195,-196 -107,0 -196,90 -196,196 0,106 89,195 196,195zm993 3c239,0 383,-104 460,-213l-200 -186c-55,78 -139,126 -246,126 -185,0 -315,-138 -315,-340 0,-203 130,-338 315,-338 107,0 191,43 246,125l200 -188c-77,-106 -221,-210 -460,-210 -359,0 -617,254 -617,611 0,359 258,613 617,613zm1560 -29l0 -268 -542 0 532 -676 0 -222 -940 0 0 268 526 0 -526 668 0 230 950 0z"/>
   <path class="fil2" d="M0 4950l4997 0 0 -4900 -4997 0 0 4900zm1670 -1559l439 0 0 -787 341 453 209 0 341 -453 0 787 438 0 0 -1779 -323 0 -555 881c-13,9 -503,-780 -566,-881l-324 0 0 1779zm2673 891l-3689 0 0 -3564 3689 0 0 3564z"/>
  </g>
 </g>
</svg>
