<?xml version="1.0" encoding="UTF-8"?>
<!DOCTYPE svg PUBLIC "-//W3C//DTD SVG 1.1//EN" "http://www.w3.org/Graphics/SVG/1.1/DTD/svg11.dtd">
<!-- Creator: CorelDRAW X7 -->
<svg xmlns="http://www.w3.org/2000/svg" xml:space="preserve" width="210mm" height="105.305mm" version="1.1" style="shape-rendering:geometricPrecision; text-rendering:geometricPrecision; image-rendering:optimizeQuality; fill-rule:evenodd; clip-rule:evenodd"
viewBox="0 0 21000 10531"
 xmlns:xlink="http://www.w3.org/1999/xlink">
 <defs>
  <style type="text/css">
   <![CDATA[
    .fil0 {fill:#403B71;fill-rule:nonzero}
    .fil1 {fill:#89FEFD;fill-rule:nonzero}
   ]]>
  </style>
 </defs>
 <g id="Vrstva_x0020_2_x0020_-_x0020_Impact">
  <metadata id="CorelCorpID_0Corel-Layer"/>
  <g id="_2705409980288">
   <path class="fil0" d="M1656 9226l-581 0 137 -387c39,-113 58,-183 56,-211 -3,-28 -25,-42 -67,-42 -47,0 -83,17 -107,51 -25,34 -58,108 -97,220l-365 1034c-38,109 -56,179 -55,213 1,33 24,49 68,49 43,0 77,-16 102,-50 24,-33 58,-111 101,-233l99 -281 581 0 -31 87c-81,231 -156,395 -222,492 -66,96 -168,181 -305,254 -138,72 -288,109 -451,109 -170,0 -299,-31 -387,-93 -89,-61 -132,-146 -129,-255 2,-109 42,-272 119,-491l229 -651c57,-160 105,-280 144,-361 40,-80 99,-157 180,-232 81,-74 177,-133 289,-175 112,-43 231,-64 357,-64 170,0 299,33 387,99 88,66 132,148 132,246 0,99 -36,252 -110,460l-74 212z"/>
   <path id="1" class="fil0" d="M3067 9560c-79,224 -140,383 -184,476 -43,93 -106,178 -188,255 -83,77 -179,136 -288,178 -109,41 -226,62 -351,62 -119,0 -219,-20 -300,-59 -81,-39 -137,-97 -167,-175 -30,-78 -35,-163 -14,-255 22,-92 73,-253 154,-482l134 -381c79,-224 140,-382 183,-475 44,-94 106,-179 189,-256 83,-77 178,-136 287,-177 109,-42 227,-62 352,-62 119,0 219,20 300,59 81,39 137,97 167,175 30,78 35,163 14,254 -22,92 -73,253 -154,482l-134 381zm-323 -732c37,-103 55,-169 54,-198 -2,-29 -20,-44 -54,-44 -30,0 -57,12 -81,36 -23,23 -56,92 -96,206l-367 1040c-45,130 -68,209 -68,239 -1,31 18,46 56,46 38,0 69,-17 92,-52 23,-35 58,-118 104,-249l360 -1024z"/>
   <polygon id="2" class="fil0" points="4326,8254 3697,10037 4046,10037 3890,10483 2960,10483 3745,8254 "/>
   <polygon id="3" class="fil0" points="5397,8254 4769,10037 5118,10037 4961,10483 4031,10483 4817,8254 "/>
   <polygon id="4" class="fil0" points="5888,8254 6855,8254 6698,8699 6312,8699 6162,9125 6523,9125 6374,9547 6013,9547 5840,10037 6266,10037 6109,10483 5103,10483 "/>
   <path id="5" class="fil0" d="M8069 9226l-580 0 136 -387c40,-113 58,-183 56,-211 -3,-28 -25,-42 -67,-42 -47,0 -83,17 -107,51 -25,34 -57,108 -97,220l-364 1034c-39,109 -57,179 -56,213 1,33 24,49 68,49 43,0 77,-16 102,-50 24,-33 59,-111 102,-233l98 -281 581 0 -31 87c-81,231 -155,395 -222,492 -66,96 -168,181 -305,254 -138,72 -287,109 -451,109 -169,0 -299,-31 -387,-93 -88,-61 -132,-146 -129,-255 3,-109 42,-272 119,-491l230 -651c56,-160 104,-280 143,-361 40,-80 100,-157 181,-232 80,-74 177,-133 288,-175 112,-43 231,-64 357,-64 170,0 300,33 388,99 87,66 131,148 131,246 0,99 -36,252 -109,460l-75 212z"/>
   <polygon id="6" class="fil0" points="9786,8254 9629,8699 9288,8699 8659,10483 8079,10483 8707,8699 8364,8699 8520,8254 "/>
   <path id="7" class="fil0" d="M10779 9560c-79,224 -140,383 -183,476 -44,93 -106,178 -189,255 -83,77 -178,136 -287,178 -109,41 -227,62 -352,62 -119,0 -219,-20 -300,-59 -81,-39 -137,-97 -167,-175 -30,-78 -35,-163 -14,-255 22,-92 73,-253 154,-482l134 -381c79,-224 140,-382 183,-475 44,-94 107,-179 189,-256 83,-77 179,-136 288,-177 109,-42 226,-62 351,-62 119,0 219,20 300,59 81,39 137,97 167,175 30,78 35,163 14,254 -22,92 -73,253 -154,482l-134 381zm-322 -732c36,-103 54,-169 53,-198 -1,-29 -19,-44 -54,-44 -30,0 -56,12 -81,36 -23,23 -56,92 -96,206l-366 1040c-46,130 -69,209 -69,239 -1,31 18,46 56,46 38,0 69,-17 92,-52 23,-35 58,-118 104,-249l361 -1024z"/>
   <path id="8" class="fil0" d="M11457 8254l410 0c274,0 455,10 544,31 89,22 149,76 180,162 30,87 12,225 -55,415 -61,173 -123,290 -188,349 -63,60 -161,96 -292,107 105,29 169,67 191,115 23,47 32,92 27,132 -4,39 -38,149 -101,329l-208 589 -538 0 261 -742c42,-119 59,-193 50,-222 -8,-28 -52,-42 -131,-42l-355 1006 -580 0 785 -2229zm447 380l-175 496c65,0 113,-9 145,-27 32,-17 66,-76 100,-174l44 -122c25,-71 28,-118 11,-140 -17,-22 -59,-33 -125,-33z"/>
   <path id="9" class="fil0" d="M14481 9226l-580 0 136 -387c40,-113 58,-183 56,-211 -2,-28 -25,-42 -66,-42 -47,0 -83,17 -108,51 -25,34 -57,108 -97,220l-364 1034c-38,109 -57,179 -56,213 1,33 24,49 68,49 43,0 77,-16 102,-50 25,-33 59,-111 102,-233l99 -281 580 0 -30 87c-82,231 -156,395 -222,492 -67,96 -169,181 -306,254 -137,72 -287,109 -451,109 -169,0 -298,-31 -387,-93 -88,-61 -131,-146 -129,-255 3,-109 43,-272 120,-491l229 -651c57,-160 105,-280 144,-361 39,-80 99,-157 180,-232 81,-74 177,-133 289,-175 112,-43 230,-64 356,-64 171,0 300,33 388,99 87,66 131,148 132,246 0,99 -37,252 -110,460l-75 212z"/>
   <path id="10" class="fil0" d="M16031 8254l-454 2229 -592 0 110 -400 -209 0 -173 400 -599 0 1079 -2229 838 0zm-813 1434c62,-253 143,-565 243,-939 -208,429 -354,741 -440,939l197 0z"/>
   <path id="11" class="fil0" d="M16462 8254l410 0c273,0 455,10 544,31 89,22 149,76 180,162 30,87 12,225 -55,415 -61,173 -123,290 -188,349 -63,60 -161,96 -292,107 105,29 169,67 191,115 23,47 32,92 27,132 -4,39 -38,149 -101,329l-208 589 -538 0 261 -742c42,-119 59,-193 50,-222 -8,-28 -52,-42 -131,-42l-355 1006 -580 0 785 -2229zm447 380l-175 496c65,0 113,-9 145,-27 32,-17 66,-76 100,-174l44 -122c25,-71 28,-118 11,-140 -17,-22 -59,-33 -125,-33z"/>
   <path id="12" class="fil0" d="M17979 8254l434 0c279,0 464,13 554,38 89,26 149,69 180,127 30,59 40,124 27,196 -13,72 -56,214 -130,425l-275 780c-71,201 -127,334 -170,402 -42,67 -94,120 -154,158 -60,38 -127,65 -202,80 -74,15 -180,23 -319,23l-730 0 785 -2229zm447 380l-517 1468c82,0 139,-17 169,-50 31,-34 73,-125 125,-274l306 -867c35,-101 55,-165 59,-194 3,-29 -4,-49 -22,-63 -18,-13 -58,-20 -120,-20z"/>
   <path id="13" class="fil0" d="M20524 8930l-538 0 58 -165c27,-77 37,-126 31,-147 -6,-21 -25,-32 -57,-32 -35,0 -66,14 -94,43 -27,28 -51,71 -72,129 -26,74 -35,130 -28,167 6,38 45,83 116,137 202,153 320,279 352,378 32,98 10,256 -67,474 -56,159 -116,276 -179,351 -64,75 -157,138 -282,189 -124,51 -257,77 -398,77 -155,0 -276,-30 -366,-89 -88,-58 -133,-133 -136,-224 -1,-91 27,-220 86,-387l51 -146 538 0 -95 271c-29,84 -41,137 -34,161 6,24 29,36 68,36 38,0 72,-15 102,-46 29,-30 54,-75 75,-134 46,-131 59,-217 37,-257 -23,-40 -89,-108 -199,-203 -111,-95 -181,-164 -213,-208 -31,-43 -49,-103 -53,-179 -3,-76 15,-173 57,-291 60,-171 126,-296 197,-374 72,-79 163,-141 276,-185 113,-45 238,-67 375,-67 151,0 270,24 359,73 88,48 137,110 145,184 8,73 -18,199 -81,376l-31 88z"/>
   <path class="fil1" d="M5918 147l-1826 5183c-274,776 -457,1274 -552,1497 -95,222 -238,421 -431,601 -193,178 -414,302 -658,371 -245,68 -591,103 -1035,103l-1005 0 479 -1358c115,10 200,15 254,15 141,0 266,-35 372,-105 106,-70 184,-157 232,-260 49,-101 125,-299 229,-593l1921 -5454 2020 0z"/>
   <path id="1" class="fil1" d="M6702 147l1427 0c951,0 1582,36 1892,110 311,73 519,261 625,563 107,301 43,783 -190,1443 -212,603 -430,1008 -653,1216 -222,207 -562,331 -1017,372 363,100 586,232 665,399 79,165 110,318 94,457 -15,139 -133,522 -354,1147l-721 2048 -1873 0 909 -2580c147,-415 204,-672 174,-772 -29,-99 -181,-148 -457,-148l-1234 3500 -2019 0 2732 -7755zm1553 1324l-608 1725c226,0 394,-31 505,-93 112,-62 229,-265 350,-606l150 -427c87,-247 100,-408 40,-485 -59,-77 -206,-114 -437,-114z"/>
   <path id="2" class="fil1" d="M13823 6578l-466 1324 -4255 0 394 -1108c1987,-2061 3186,-3335 3597,-3825 412,-490 666,-873 762,-1146 74,-210 92,-367 57,-472 -36,-103 -127,-155 -274,-155 -147,0 -278,57 -391,172 -112,114 -228,341 -348,681l-259 735 -1735 0 100 -282c152,-433 296,-777 428,-1027 132,-250 331,-496 591,-738 261,-242 555,-427 880,-551 325,-124 683,-186 1075,-186 770,0 1284,191 1545,572 259,382 287,864 82,1448 -157,444 -433,913 -830,1408 -396,495 -1421,1544 -3074,3150l2121 0z"/>
   <path id="3" class="fil1" d="M20762 2216l-1931 0c127,-363 205,-592 229,-685 26,-95 15,-175 -33,-239 -46,-63 -130,-96 -249,-96 -99,0 -192,31 -279,92 -85,60 -149,137 -193,233 -44,97 -117,289 -219,579l-434 1233c172,-206 372,-361 599,-464 229,-103 484,-153 765,-153 355,0 635,96 838,287 206,191 297,420 276,688 -21,268 -111,631 -272,1087l-217 616c-191,542 -354,946 -488,1210 -136,265 -332,510 -592,734 -259,225 -569,400 -927,524 -359,125 -747,187 -1165,187 -521,0 -922,-72 -1204,-216 -281,-144 -465,-350 -551,-619 -85,-270 -91,-553 -16,-850 73,-296 262,-872 563,-1727l378 -1072c324,-921 555,-1539 692,-1849 137,-311 351,-607 644,-883 293,-277 633,-487 1018,-625 386,-139 799,-208 1240,-208 542,0 957,88 1244,263 286,177 446,425 485,743 37,321 -30,724 -201,1210zm-2781 2411c96,-273 131,-461 106,-562 -25,-103 -107,-153 -246,-153 -136,0 -253,49 -349,145 -98,98 -196,288 -295,570l-493 1399c-120,341 -169,564 -146,670 22,104 103,157 242,157 83,0 186,-41 304,-123 118,-80 241,-299 367,-655l510 -1448z"/>
   <path class="fil0" d="M5666 243l-1826 5183c-273,776 -457,1274 -552,1496 -94,223 -238,422 -431,602 -193,178 -413,302 -658,371 -245,68 -590,102 -1035,102l-1004 0 478 -1357c116,9 201,14 255,14 140,0 265,-34 371,-104 107,-70 185,-157 232,-260 49,-101 125,-299 229,-593l1922 -5454 2019 0z"/>
   <path id="1" class="fil0" d="M6451 243l1426 0c951,0 1582,36 1893,109 310,74 519,262 625,564 106,301 42,783 -190,1443 -213,603 -431,1008 -654,1215 -222,208 -561,332 -1017,373 364,100 587,232 665,399 79,165 110,318 94,457 -15,139 -133,521 -354,1147l-721 2047 -1872 0 909 -2580c146,-415 204,-671 173,-771 -28,-99 -181,-148 -457,-148l-1233 3499 -2020 0 2733 -7754zm1553 1323l-608 1726c225,0 393,-31 505,-93 112,-62 229,-265 349,-607l150 -426c87,-247 100,-408 41,-485 -60,-77 -207,-115 -437,-115z"/>
   <path id="2" class="fil0" d="M13571 6674l-466 1323 -4255 0 394 -1107c1987,-2061 3186,-3335 3598,-3825 411,-491 665,-873 761,-1146 74,-211 92,-367 57,-472 -36,-103 -127,-155 -274,-155 -147,0 -278,57 -390,171 -113,115 -228,342 -348,682l-259 735 -1736 0 100 -283c153,-433 296,-776 429,-1026 132,-250 330,-496 590,-738 262,-242 555,-427 880,-551 325,-124 683,-186 1076,-186 769,0 1283,191 1545,572 259,382 287,864 81,1447 -156,445 -433,914 -829,1409 -397,495 -1422,1544 -3074,3150l2120 0z"/>
   <path id="3" class="fil0" d="M20510 2311l-1931 0c128,-362 205,-591 230,-684 25,-95 14,-175 -34,-239 -46,-63 -129,-96 -249,-96 -99,0 -192,31 -278,91 -85,61 -150,138 -194,234 -44,96 -117,289 -218,578l-435 1234c172,-206 372,-361 600,-464 229,-103 484,-154 765,-154 354,0 634,97 838,288 205,191 296,420 275,688 -21,268 -111,631 -271,1086l-217 616c-192,543 -355,946 -489,1211 -136,265 -332,510 -592,734 -259,225 -569,400 -927,524 -359,124 -747,187 -1165,187 -521,0 -922,-72 -1203,-216 -281,-144 -465,-350 -552,-619 -84,-270 -91,-553 -16,-850 74,-296 262,-873 563,-1727l378 -1072c325,-922 555,-1539 692,-1850 138,-310 351,-606 645,-882 292,-278 632,-487 1018,-626 385,-139 798,-207 1239,-207 543,0 958,88 1244,263 286,176 447,425 485,743 37,321 -30,724 -201,1209zm-2781 2412c96,-273 132,-461 107,-562 -26,-103 -108,-154 -247,-154 -135,0 -252,49 -348,146 -99,98 -196,287 -296,570l-493 1399c-120,341 -169,563 -146,670 22,104 103,156 242,156 83,0 186,-40 305,-122 118,-80 241,-299 366,-655l510 -1448z"/>
  </g>
 </g>
</svg>
