<?xml version="1.0" encoding="UTF-8"?>
<!DOCTYPE svg PUBLIC "-//W3C//DTD SVG 1.1//EN" "http://www.w3.org/Graphics/SVG/1.1/DTD/svg11.dtd">
<!-- Creator: CorelDRAW X8 -->
<svg xmlns="http://www.w3.org/2000/svg" xml:space="preserve" width="210mm" height="154.188mm" version="1.1" style="shape-rendering:geometricPrecision; text-rendering:geometricPrecision; image-rendering:optimizeQuality; fill-rule:evenodd; clip-rule:evenodd"
viewBox="0 0 21000 15419"
 xmlns:xlink="http://www.w3.org/1999/xlink">
 <defs>
  <style type="text/css">
   <![CDATA[
    .fil1 {fill:none}
    .fil0 {fill:white}
   ]]>
  </style>
 </defs>
 <g id="Vrstva_x0020_1">
  <metadata id="CorelCorpID_0Corel-Layer"/>
  <g id="_3004297809680">
   <path class="fil0" d="M15443 8195l-2397 -6878 -8806 3068 2397 6878 8806 -3068zm-4947 -3389l0 0 626 0 0 1450c334,-430 807,-1028 1129,-1450l767 0 -1072 1265 1136 1875 -767 0 -811 -1453 -378 417 0 1040 -634 0 0 -3144 4 0zm-3618 0l960 0c225,735 506,1831 590,2309l4 0c68,-409 430,-1566 667,-2309l923 0 0 3144 -618 0 0 -1176 0 0c0,-534 8,-1177 24,-1526l-24 0c-141,651 -462,1811 -735,2702l-558 0c-201,-747 -534,-2068 -663,-2710l-28 0c28,365 40,1052 40,1594l0 1116 -586 0 0 -3144 4 0z"/>
   <polygon class="fil0" points="13604,0 4999,2999 5176,3501 13279,679 15567,7244 16069,7071 "/>
   <path class="fil1" d="M7464 6830c0,-542 -12,-1225 -40,-1594l28 0c129,642 458,1963 663,2710l554 0c269,-891 590,-2052 735,-2702l24 0c-12,353 -24,996 -24,1526l0 0 0 1180 618 0 0 -3144 -923 0c-233,743 -599,1900 -667,2309l-4 0c-88,-478 -365,-1574 -590,-2309l-960 0 0 3144 586 0 0 -1120z"/>
   <path class="fil1" d="M11130 6914l378 -417 811 1453 767 0 -1136 -1875 1072 -1265 -767 0c-322,422 -795,1020 -1129,1450l0 -1450 -626 0 0 0 0 3140 634 0 0 -1036 -4 0z"/>
   <g>
    <path class="fil0" d="M2136 13315l-442 0c-100,0 -160,48 -184,148l-249 1028c-8,40 -20,97 -32,169 -12,72 -20,112 -24,120l-41 0c-20,-128 -36,-225 -52,-289l-253 -1028c-20,-96 -80,-148 -180,-148l-442 0c-109,0 -165,56 -169,168l-68 1896 430 0 60 -1707 52 0 313 1277c20,96 81,145 185,145l301 0c104,0 165,-49 185,-145l309 -1277 52 0 68 1707 430 0 -80 -1892c-4,-116 -60,-172 -169,-172z"/>
    <path class="fil0" d="M3501 13275c-333,0 -562,76 -690,228 -129,153 -193,434 -193,844 0,409 64,690 193,843 128,152 357,229 690,229 334,0 562,-77 691,-229 128,-153 193,-434 193,-843 0,-410 -65,-691 -193,-844 -129,-152 -357,-228 -691,-228zm318 1626c-57,96 -165,144 -318,144 -152,0 -261,-48 -317,-144 -56,-97 -84,-285 -84,-558 0,-273 28,-458 84,-554 56,-97 165,-149 317,-149 153,0 261,48 318,149 56,96 84,281 84,554 4,277 -28,461 -84,558z"/>
    <path class="fil0" d="M4863 14889c0,104 -65,160 -197,160l-141 0 -52 306c84,40 213,60 377,60 149,0 261,-40 346,-121 80,-80 124,-196 124,-345l0 -1630 0 0 -453 0 0 1570 -4 0z"/>
    <path class="fil0" d="M6123 13708c20,-24 57,-36 109,-36l791 0 20 -337c-189,-20 -506,-28 -956,-28 -136,0 -249,36 -329,112 -80,76 -125,177 -125,305l0 1249c4,129 45,229 125,305 80,77 193,113 329,113 450,0 771,-12 956,-32l-20 -334 0 0 -791 0c-48,0 -85,-12 -109,-36 -20,-24 -32,-64 -32,-120l0 -398 823 0 0 -329 -823 0 0 -313c0,-57 12,-97 32,-121z"/>
    <path class="fil0" d="M8990 14495c-44,-72 -100,-132 -172,-180l0 -12c64,-49 116,-105 148,-165l534 -823 -494 0 -522 827 -176 0c12,-76 20,-157 20,-245l0 -582 -454 0 0 2064 454 0 0 -711c0,-52 -8,-117 -20,-197l176 0 542 908 450 0 20 -61 -506 -823z"/>
    <path class="fil0" d="M10665 13315l-430 0c-36,0 -72,12 -100,32 -33,24 -49,52 -57,88l-574 1883 36 61 410 0 148 -542 707 0 149 542 461 0 -594 -1944c-20,-80 -72,-120 -156,-120zm-474 1168l172 -630c5,-20 13,-56 25,-101 12,-44 16,-76 20,-96l80 0c4,28 16,96 40,193l173 630 -510 0 0 4z"/>
    <polygon class="fil0" points="9480,15379 9536,15379 9496,15318 "/>
    <path class="fil0" d="M12708 14423l0 -16c141,-16 241,-68 306,-157 64,-88 92,-204 92,-357 0,-233 -56,-390 -173,-478 -116,-88 -313,-132 -590,-132 -337,0 -602,8 -787,28l0 2068 450 0 0 -807 321 4c60,0 108,12 141,36 32,24 60,72 80,136l156 631 482 0 -180 -643c-41,-172 -141,-277 -298,-313zm-132 -265c-44,40 -125,60 -245,60l-329 0 0 0 0 0 0 -578 329 -4c120,0 205,20 245,60 44,40 64,117 64,229 4,117 -20,193 -64,233z"/>
    <polygon class="fil0" points="13230,13684 13845,13684 13845,15379 14302,15379 14302,13684 14917,13684 14917,13315 13230,13315 "/>
    <rect class="fil0" x="15106" y="13315" width="454" height="2064"/>
    <polygon class="fil0" points="16776,13170 17230,12777 17105,12604 16696,12841 16672,12841 16258,12604 16133,12777 16591,13170 "/>
    <path class="fil0" d="M16704 15017c-149,0 -253,-48 -306,-140 -56,-97 -84,-273 -84,-530 0,-261 28,-438 84,-530 57,-97 157,-141 306,-141 224,0 417,4 582,16l40 -341c-181,-44 -389,-68 -618,-68 -318,0 -542,80 -675,241 -128,160 -193,437 -193,827 0,393 65,670 193,827 129,160 353,241 675,241 261,0 481,-28 662,-85l-40 -337c-145,12 -349,20 -626,20z"/>
    <path class="fil0" d="M18715 13315l-522 827 -176 0c12,-76 20,-157 20,-245l0 -582 -454 0 0 2064 454 0 0 -711c0,-52 -8,-117 -20,-197l176 0 546 908 510 0 -542 -884c-44,-72 -100,-132 -172,-180l0 -12c64,-49 116,-105 148,-165l518 -803 -12 -20 -474 0z"/>
    <path class="fil0" d="M20530 13315l-345 755c-24,64 -52,152 -76,261l-28 0c-33,-129 -57,-217 -77,-261l-345 -755 -450 0 -12 20 671 1361 0 683 457 0 0 -683 675 -1381 -470 0z"/>
    <polygon class="fil0" points="19185,13315 19197,13335 19209,13315 "/>
   </g>
  </g>
 </g>
</svg>
