<?xml version="1.0" encoding="UTF-8"?>
<!DOCTYPE svg PUBLIC "-//W3C//DTD SVG 1.1//EN" "http://www.w3.org/Graphics/SVG/1.1/DTD/svg11.dtd">
<!-- Creator: CorelDRAW X8 -->
<svg xmlns="http://www.w3.org/2000/svg" xml:space="preserve" width="210mm" height="39.409mm" version="1.1" style="shape-rendering:geometricPrecision; text-rendering:geometricPrecision; image-rendering:optimizeQuality; fill-rule:evenodd; clip-rule:evenodd"
viewBox="0 0 21000 3941"
 xmlns:xlink="http://www.w3.org/1999/xlink">
 <defs>
  <style type="text/css">
   <![CDATA[
    .fil0 {fill:black;fill-rule:nonzero}
   ]]>
  </style>
 </defs>
 <g id="Vrstva_x0020_1">
  <metadata id="CorelCorpID_0Corel-Layer"/>
  <g id="_2256954117984">
   <g>
    <path class="fil0" d="M3979 2671l-256 0 0 -391 -901 0 0 391 -256 0 0 -796c0,-116 17,-223 53,-320 35,-98 84,-182 148,-252 63,-70 137,-125 223,-165 87,-39 180,-58 282,-58l578 0c18,0 34,4 50,11 16,7 30,17 42,31 11,13 21,29 27,47 7,17 10,36 10,56l0 1446zm-1157 -679l901 0 0 -624 -451 0c-7,0 -24,2 -49,4 -26,2 -55,10 -88,20 -33,10 -68,25 -105,47 -37,22 -71,51 -102,89 -30,38 -56,85 -76,141 -20,57 -30,125 -30,206l0 117zm2867 -377c0,65 -7,124 -22,176 -14,52 -33,98 -58,137 -24,39 -53,73 -85,102 -32,28 -66,50 -101,69 -35,18 -71,31 -107,39 -36,8 -69,13 -101,13l535 520 -396 0 -534 -520 -184 0 0 -289 579 0c32,-3 62,-11 89,-23 26,-12 49,-28 68,-49 19,-21 35,-46 45,-75 10,-29 16,-63 16,-100l0 -183c0,-16 -2,-28 -6,-36 -3,-9 -8,-15 -13,-19 -6,-5 -11,-7 -18,-8 -6,-1 -12,-1 -17,-1l-846 0 0 1303 -256 0 0 -1446c0,-20 3,-39 9,-56 7,-18 16,-34 28,-47 11,-14 25,-24 41,-31 15,-7 33,-11 51,-11l973 0c57,0 105,11 145,35 39,23 71,52 96,87 24,35 42,73 53,114 11,41 16,79 16,115l0 184zm1524 -247l-565 0 0 1303 -256 0 0 -1303 -566 0 0 -288 1387 0 0 288zm447 1303l-257 0 0 -1591 257 0 0 1591zm1565 0l-925 0c-23,0 -49,-3 -76,-9 -28,-7 -55,-17 -81,-30 -27,-13 -52,-30 -76,-52 -25,-21 -46,-46 -65,-76 -19,-30 -34,-65 -45,-105 -11,-39 -16,-84 -16,-133l0 -782c0,-26 2,-55 8,-85 6,-31 14,-61 26,-92 12,-29 27,-58 46,-85 19,-28 42,-52 69,-73 26,-21 57,-38 92,-51 35,-12 74,-18 118,-18l925 0 0 288 -925 0c-34,0 -59,10 -76,30 -19,20 -28,50 -28,89l0 779c0,37 9,66 28,86 18,20 43,30 76,30l925 0 0 289zm-951 -2134l343 199 343 -199 120 186 -463 295 -462 -295 119 -186zm2675 2134l-364 0 -577 -651 -180 0 0 -290 180 0 577 -650 364 0 -727 795 727 796zm-1224 0l-256 0 0 -1591 256 0 0 1591zm2771 0l-256 0 0 -391 -901 0 0 391 -257 0 0 -796c0,-116 19,-223 54,-320 35,-98 84,-182 148,-252 63,-70 138,-125 223,-165 87,-39 181,-58 283,-58l577 0c17,0 34,4 50,11 16,7 30,17 41,31 12,13 22,29 28,47 7,17 10,36 10,56l0 1446zm-1157 -679l901 0 0 -624 -450 0c-9,0 -25,2 -50,4 -26,2 -55,10 -88,20 -33,10 -68,25 -105,47 -37,22 -71,51 -102,89 -31,38 -56,85 -76,141 -20,57 -30,125 -30,206l0 117zm1013 -1269l-514 207 -69 -166 475 -311 108 270zm1855 892c0,65 -8,124 -23,176 -14,52 -34,98 -58,137 -25,39 -53,73 -86,102 -31,28 -65,50 -101,69 -34,18 -70,31 -106,39 -36,8 -69,13 -101,13l536 520 -397 0 -534 -520 -184 0 0 -289 579 0c33,-3 62,-11 88,-23 27,-12 50,-28 70,-49 19,-21 34,-46 44,-75 11,-29 16,-63 16,-100l0 -183c0,-16 -1,-28 -5,-36 -4,-9 -9,-15 -14,-19 -6,-5 -12,-7 -18,-8 -6,-1 -12,-1 -17,-1l-846 0 0 1303 -256 0 0 -1446c0,-20 3,-39 10,-56 6,-18 15,-34 27,-47 11,-14 25,-24 41,-31 16,-7 33,-11 51,-11l973 0c57,0 105,11 144,35 40,23 72,52 97,87 25,35 42,73 53,114 11,41 17,79 17,115l0 184zm1669 933c0,20 -4,39 -10,57 -7,18 -16,34 -28,46 -11,14 -25,24 -41,31 -16,8 -32,12 -50,12 -16,0 -32,-4 -47,-11 -17,-7 -31,-18 -44,-32l-936 -1101 0 1121 -257 0 0 -1468c0,-30 8,-56 23,-80 14,-25 33,-43 57,-54 24,-12 49,-14 74,-9 26,6 48,20 67,41l936 1100 0 -1121 256 0 0 1468zm1685 123l-257 0 0 -391 -900 0 0 391 -257 0 0 -796c0,-116 18,-223 53,-320 36,-98 85,-182 148,-252 63,-70 138,-125 224,-165 86,-39 180,-58 282,-58l577 0c18,0 35,4 51,11 16,7 29,17 41,31 12,13 21,29 28,47 6,17 10,36 10,56l0 1446zm-1157 -679l900 0 0 -624 -450 0c-8,0 -25,2 -50,4 -25,2 -54,10 -88,20 -33,10 -67,25 -105,47 -36,22 -70,51 -101,89 -31,38 -57,85 -77,141 -20,57 -29,125 -29,206l0 117zm1640 533c0,20 -4,39 -11,56 -7,18 -15,33 -27,46 -12,13 -25,23 -41,31 -16,7 -31,11 -49,11 -17,0 -34,-4 -50,-11 -15,-8 -29,-18 -40,-31 -11,-13 -21,-28 -27,-46 -7,-17 -10,-36 -10,-56 0,-19 3,-37 10,-55 6,-17 16,-32 27,-45 11,-13 25,-23 40,-31 16,-8 33,-12 50,-12 18,0 33,4 49,12 16,8 29,18 41,31 12,13 20,28 27,45 7,18 11,36 11,55zm1494 146l-925 0c-24,0 -49,-3 -76,-9 -27,-7 -54,-17 -81,-30 -26,-13 -52,-30 -76,-52 -25,-21 -46,-46 -65,-76 -19,-30 -33,-65 -45,-105 -11,-39 -17,-84 -17,-133l0 -782c0,-26 3,-55 9,-85 5,-31 14,-61 25,-92 12,-29 28,-58 47,-85 20,-28 42,-52 69,-73 27,-21 57,-38 92,-51 35,-12 74,-18 118,-18l925 0 0 288 -925 0c-33,0 -59,10 -77,30 -17,20 -26,50 -26,89l0 779c0,37 9,66 27,86 18,20 43,30 76,30l925 0 0 289zm1451 -1505c10,26 14,53 9,82 -3,28 -14,52 -31,73l-846 1061 866 0 0 289 -1154 0c-26,0 -49,-8 -70,-24 -21,-16 -38,-37 -48,-63 -11,-25 -15,-53 -11,-81 5,-28 15,-52 32,-73l847 -1062 -868 0 0 -288 1157 0c25,0 49,7 70,24 21,15 37,36 47,62z"/>
    <g>
     <path class="fil0" d="M7068 3598c0,27 -5,50 -13,71 -8,21 -21,37 -36,51 -16,14 -33,24 -55,31 -21,7 -43,10 -68,10 -14,0 -29,-1 -43,-3 -13,-4 -25,-7 -36,-11 -10,-3 -19,-8 -26,-12 -7,-5 -12,-9 -15,-13 -4,-3 -6,-9 -8,-17 -2,-7 -3,-19 -3,-35 0,-10 1,-18 1,-24 0,-6 2,-12 2,-15 2,-4 4,-6 5,-8 2,0 4,-1 7,-1 3,0 8,2 14,7 6,4 14,9 24,14 9,5 20,11 33,15 12,4 27,7 43,7 10,0 19,-1 26,-3 8,-3 15,-7 21,-11 5,-5 10,-10 13,-17 3,-7 4,-16 4,-25 0,-11 -2,-20 -8,-28 -5,-7 -13,-14 -21,-19 -9,-6 -20,-11 -31,-16 -12,-5 -24,-10 -35,-16 -12,-6 -24,-13 -35,-21 -12,-8 -22,-17 -31,-28 -9,-12 -16,-25 -22,-41 -5,-16 -8,-35 -8,-57 0,-22 4,-44 11,-62 7,-19 18,-35 32,-49 14,-13 31,-23 51,-31 20,-7 43,-11 68,-11 12,0 24,1 36,3 12,3 22,5 32,8 9,3 18,6 23,10 7,4 12,7 15,10 3,3 4,5 6,7 1,4 2,7 2,11 1,3 2,7 2,13 0,5 1,12 1,20 0,10 -1,18 -1,24 0,6 -1,10 -2,14 -1,4 -3,6 -4,7 -2,1 -4,2 -7,2 -2,0 -6,-2 -12,-5 -5,-4 -13,-8 -21,-12 -9,-4 -18,-9 -30,-12 -11,-4 -24,-5 -38,-5 -10,0 -19,0 -26,3 -8,3 -14,6 -19,11 -4,4 -8,10 -10,15 -2,7 -4,14 -4,21 0,10 3,20 9,27 5,8 13,14 22,19 9,6 20,11 31,16 12,5 24,11 36,16 12,6 24,13 35,21 12,7 23,17 32,29 9,10 16,24 22,39 5,16 9,35 9,56zm551 -109c0,42 -4,80 -12,113 -7,34 -19,63 -33,86 -14,24 -32,42 -53,55 -22,12 -45,18 -72,18 -14,0 -26,-1 -37,-4 -12,-3 -23,-8 -33,-14 -11,-7 -21,-16 -32,-26 -9,-10 -20,-23 -30,-37l0 51c0,5 -2,8 -3,10 -2,3 -5,5 -8,7 -4,2 -9,3 -15,3 -7,1 -14,2 -23,2 -9,0 -16,-1 -22,-2 -7,0 -11,-1 -15,-3 -4,-2 -6,-4 -8,-7 -1,-2 -2,-5 -2,-9l0 -695c0,-4 1,-7 3,-10 2,-3 4,-5 9,-7 4,-2 10,-3 17,-4 7,-2 16,-2 27,-2 11,0 20,0 27,2 7,1 13,2 16,4 5,2 8,4 10,7 2,3 3,6 3,10l0 260c10,-11 20,-21 30,-30 10,-9 20,-16 30,-21 10,-6 20,-9 31,-12 10,-2 22,-4 33,-4 30,0 55,7 75,21 20,14 37,33 50,56 13,24 22,51 28,83 6,31 9,65 9,99zm-116 10c0,-21 -1,-39 -4,-58 -2,-19 -6,-35 -12,-50 -7,-14 -15,-26 -24,-34 -10,-9 -23,-13 -38,-13 -8,0 -15,1 -22,3 -7,3 -14,7 -22,14 -7,5 -15,13 -23,22 -8,10 -17,22 -25,36l0 156c16,23 30,42 44,54 15,12 30,19 46,19 14,0 27,-4 36,-14 10,-8 19,-19 26,-34 6,-14 11,-30 14,-48 3,-18 4,-35 4,-53zm640 -17c0,17 -3,28 -9,36 -6,8 -14,12 -25,12l-241 0c0,20 2,38 6,54 4,17 10,31 19,42 9,11 20,20 34,26 14,6 30,9 49,9 20,0 37,-2 52,-6 14,-3 27,-7 38,-11 10,-3 20,-7 27,-10 7,-4 13,-6 17,-6 2,0 5,1 6,2 2,1 4,4 5,7 1,3 2,7 3,13 0,6 0,13 0,22 0,8 0,15 0,20 0,6 -1,10 -2,13 0,5 -1,8 -2,10 -2,3 -3,6 -5,8 -2,3 -7,6 -16,10 -8,4 -19,9 -32,13 -14,4 -29,8 -46,11 -17,3 -36,4 -55,4 -35,0 -66,-5 -93,-15 -26,-11 -48,-27 -66,-48 -18,-22 -31,-49 -40,-82 -8,-32 -12,-71 -12,-115 0,-41 4,-80 14,-113 9,-34 22,-62 39,-86 18,-23 39,-41 64,-53 25,-12 53,-19 85,-19 33,0 61,6 85,17 23,12 42,29 57,49 15,21 27,45 34,73 7,28 10,59 10,92l0 21zm-108 -37c1,-38 -5,-67 -19,-88 -13,-22 -34,-32 -62,-32 -15,0 -27,3 -37,9 -11,6 -19,15 -27,26 -6,11 -12,23 -15,37 -4,15 -6,31 -7,48l167 0zm-37 -419c2,-4 4,-7 6,-9 3,-3 6,-5 9,-6 4,-1 8,-2 14,-3 5,0 12,-1 21,-1 12,0 21,1 27,2 7,1 11,3 13,6 1,3 2,6 1,11 -2,5 -5,9 -9,16l-70 118c-2,4 -4,6 -7,9 -3,2 -7,4 -11,5 -5,1 -10,2 -16,2 -7,1 -15,1 -24,1 -9,0 -17,0 -24,-1 -6,0 -11,-2 -15,-3 -5,-1 -8,-3 -11,-5 -3,-2 -5,-5 -6,-8l-71 -118c-4,-7 -7,-11 -8,-16 -1,-5 -1,-8 1,-11 2,-3 6,-5 13,-6 6,-1 15,-2 27,-2 9,0 16,1 22,1 5,1 10,2 13,3 3,2 6,3 8,6 2,2 4,5 6,9l45 79 46 -79zm562 278c0,13 -1,23 -2,32 0,7 -1,14 -2,18 -1,5 -3,8 -5,10 -2,1 -4,2 -7,2 -3,0 -5,0 -8,-2 -3,-1 -6,-2 -10,-3 -4,-2 -7,-4 -12,-4 -5,-2 -10,-3 -15,-3 -6,0 -13,2 -18,5 -7,3 -13,8 -20,14 -7,6 -13,15 -21,26 -7,10 -14,23 -23,39l0 294c0,3 -1,6 -3,9 -2,3 -4,5 -9,6 -4,2 -10,4 -17,4 -7,1 -16,2 -27,2 -11,0 -20,-1 -27,-2 -7,0 -13,-2 -17,-4 -4,-1 -7,-3 -9,-6 -2,-3 -3,-6 -3,-9l0 -472c0,-3 1,-6 3,-9 1,-3 4,-5 7,-7 4,-1 9,-3 15,-4 6,0 14,-1 23,-1 10,0 17,1 23,1 7,1 12,3 15,4 3,2 6,4 7,7 2,3 3,6 3,9l0 59c10,-18 20,-33 29,-43 9,-12 18,-22 26,-28 8,-7 17,-11 25,-14 8,-2 17,-4 25,-4 3,0 8,0 13,1 3,1 8,2 13,2 5,2 9,4 12,5 4,2 7,3 9,5 1,2 2,4 3,6 1,2 1,5 2,9 0,3 0,9 1,16 0,8 1,17 1,30zm455 429c0,5 -2,9 -5,12 -3,2 -7,5 -13,6 -7,1 -16,2 -29,2 -13,0 -23,-1 -29,-2 -6,-1 -10,-4 -13,-6 -3,-3 -3,-7 -3,-12l0 -37c-17,20 -36,37 -56,48 -21,11 -45,17 -69,17 -21,0 -41,-3 -59,-10 -17,-6 -32,-15 -45,-29 -13,-12 -23,-28 -30,-47 -7,-20 -11,-41 -11,-66 0,-28 5,-52 14,-72 9,-20 22,-37 40,-51 18,-12 40,-22 67,-29 26,-6 57,-9 92,-9l39 0 0 -29c0,-15 -1,-27 -4,-39 -3,-11 -6,-20 -12,-27 -6,-8 -13,-14 -23,-17 -9,-4 -22,-5 -36,-5 -19,0 -35,2 -49,7 -16,5 -28,11 -39,16 -11,7 -21,12 -28,17 -8,5 -14,7 -19,7 -3,0 -6,-1 -8,-3 -3,-3 -5,-6 -7,-11 -2,-4 -2,-10 -4,-17 0,-7 -1,-14 -1,-22 0,-10 1,-19 3,-25 1,-7 4,-13 8,-17 4,-6 11,-11 22,-18 10,-6 22,-11 36,-17 14,-5 29,-9 45,-12 17,-4 33,-6 51,-6 31,0 58,4 80,11 22,7 40,18 54,34 14,15 25,34 31,57 7,24 10,52 10,84l0 317zm-110 -202l-43 0c-17,0 -33,2 -45,5 -14,3 -23,8 -32,14 -8,6 -14,14 -17,23 -4,9 -6,19 -6,31 0,19 5,35 16,46 10,12 25,17 44,17 16,0 30,-5 43,-14 13,-9 26,-23 40,-42l0 -80zm517 154c0,16 -1,27 -3,36 -1,9 -3,14 -6,17 -2,4 -6,7 -12,9 -5,3 -11,5 -18,7 -7,2 -14,4 -23,4 -8,2 -16,2 -24,2 -22,0 -41,-3 -58,-9 -16,-7 -30,-18 -40,-32 -11,-14 -19,-31 -24,-52 -5,-22 -7,-47 -7,-76l0 -241 -49 0c-5,0 -9,-4 -12,-12 -3,-9 -5,-22 -5,-41 0,-11 0,-20 1,-27 1,-7 2,-12 4,-16 1,-4 3,-7 5,-9 2,-2 6,-3 8,-3l48 0 0 -105c0,-3 1,-7 2,-10 2,-3 5,-5 9,-7 4,-2 10,-4 17,-4 8,-1 16,-1 28,-1 10,0 19,0 26,1 8,0 14,2 18,4 4,2 7,4 9,7 2,3 2,7 2,10l0 105 86 0c3,0 6,1 8,3 2,2 4,5 5,9 2,4 3,9 4,16 1,7 1,16 1,27 0,19 -2,32 -5,41 -2,8 -7,12 -12,12l-87 0 0 222c0,26 4,45 11,58 6,12 18,19 36,19 6,0 11,-1 16,-2 4,-1 9,-3 13,-4 3,-2 6,-3 9,-5 2,-1 4,-1 6,-1 2,0 4,0 6,1 1,2 2,4 4,8 0,4 1,9 2,15 1,6 1,15 1,24zm504 -203c0,17 -2,28 -9,36 -6,8 -14,12 -25,12l-241 0c0,20 2,38 6,54 4,17 10,31 19,42 9,11 20,20 34,26 14,6 30,9 49,9 20,0 37,-2 52,-6 14,-3 27,-7 38,-11 11,-3 20,-7 27,-10 7,-4 13,-6 17,-6 3,0 5,1 7,2 1,1 3,4 4,7 1,3 2,7 3,13 0,6 0,13 0,22 0,8 0,15 0,20 0,6 -1,10 -2,13 0,5 -1,8 -2,10 -1,3 -3,6 -5,8 -2,3 -7,6 -16,10 -8,4 -19,9 -32,13 -14,4 -29,8 -46,11 -17,3 -36,4 -55,4 -35,0 -66,-5 -93,-15 -26,-11 -48,-27 -66,-48 -18,-22 -31,-49 -39,-82 -9,-32 -13,-71 -13,-115 0,-41 4,-80 13,-113 10,-34 23,-62 40,-86 17,-23 39,-41 64,-53 25,-12 53,-19 84,-19 34,0 62,6 86,17 23,12 42,29 57,49 15,21 26,45 34,73 7,28 10,59 10,92l0 21zm-108 -37c1,-38 -5,-67 -19,-88 -13,-22 -34,-32 -62,-32 -15,0 -27,3 -37,9 -11,6 -19,15 -27,26 -6,11 -11,23 -15,37 -4,15 -6,31 -7,48l167 0zm382 287c0,3 -1,6 -3,9 -2,3 -4,5 -9,6 -4,2 -10,4 -17,4 -7,1 -16,2 -27,2 -11,0 -20,-1 -27,-2 -7,0 -13,-2 -17,-4 -4,-1 -7,-3 -9,-6 -2,-3 -2,-6 -2,-9l0 -695c0,-4 0,-7 2,-10 2,-3 5,-5 9,-7 4,-2 10,-3 17,-4 7,-2 16,-2 27,-2 11,0 20,0 27,2 7,1 13,2 17,4 5,2 7,4 9,7 2,3 3,6 3,10l0 695zm460 -134c0,27 -4,50 -13,71 -8,21 -20,37 -36,51 -15,14 -33,24 -54,31 -21,7 -44,10 -68,10 -15,0 -30,-1 -43,-3 -14,-4 -25,-7 -36,-11 -11,-3 -19,-8 -27,-12 -7,-5 -12,-9 -15,-13 -4,-3 -6,-9 -8,-17 -2,-7 -2,-19 -2,-35 0,-10 0,-18 0,-24 1,-6 2,-12 3,-15 1,-4 3,-6 5,-8 1,0 4,-1 6,-1 4,0 8,2 15,7 6,4 14,9 23,14 10,5 21,11 34,15 12,4 26,7 42,7 10,0 19,-1 27,-3 8,-3 14,-7 20,-11 6,-5 11,-10 13,-17 4,-7 5,-16 5,-25 0,-11 -3,-20 -8,-28 -6,-7 -13,-14 -22,-19 -9,-6 -19,-11 -31,-16 -11,-5 -23,-10 -35,-16 -12,-6 -24,-13 -35,-21 -11,-8 -22,-17 -31,-28 -8,-12 -16,-25 -21,-41 -6,-16 -9,-35 -9,-57 0,-22 4,-44 12,-62 7,-19 18,-35 31,-49 15,-13 32,-23 51,-31 21,-7 43,-11 68,-11 12,0 25,1 37,3 11,3 22,5 31,8 10,3 18,6 24,10 7,4 11,7 14,10 3,3 5,5 7,7 0,4 2,7 2,11 1,3 1,7 2,13 0,5 0,12 0,20 0,10 0,18 0,24 -1,6 -2,10 -2,14 -2,4 -3,6 -5,7 -2,1 -4,2 -6,2 -3,0 -7,-2 -12,-5 -6,-4 -13,-8 -22,-12 -9,-4 -18,-9 -29,-12 -12,-4 -24,-5 -38,-5 -10,0 -19,0 -27,3 -7,3 -13,6 -18,11 -5,4 -9,10 -10,15 -3,7 -4,14 -4,21 0,10 3,20 8,27 6,8 13,14 22,19 10,6 20,11 32,16 12,5 23,11 35,16 13,6 24,13 36,21 11,7 22,17 31,29 10,10 17,24 22,39 6,16 9,35 9,56zm521 134c0,4 0,7 -2,9 -2,3 -5,5 -9,6 -5,2 -10,4 -18,4 -7,1 -17,2 -28,2 -13,0 -23,-1 -30,-2 -8,0 -14,-1 -19,-3 -5,-1 -8,-4 -11,-7 -3,-2 -5,-6 -7,-11l-132 -248 0 250c0,3 -1,6 -3,9 -2,3 -4,5 -9,6 -4,2 -10,4 -17,4 -7,1 -16,2 -27,2 -11,0 -20,-1 -27,-2 -7,0 -13,-2 -16,-4 -5,-1 -8,-3 -10,-6 -2,-3 -3,-6 -3,-9l0 -695c0,-4 1,-7 3,-10 2,-3 5,-5 10,-7 3,-2 9,-3 16,-4 7,-2 16,-2 27,-2 11,0 20,0 27,2 7,1 13,2 17,4 5,2 7,4 9,7 2,3 3,6 3,10l0 413 117 -187c3,-5 6,-9 8,-12 3,-3 7,-5 12,-7 5,-1 11,-3 18,-4 8,0 17,-1 28,-1 11,0 20,1 27,1 8,1 14,3 19,4 4,2 8,4 9,7 2,3 2,6 2,10 0,5 0,11 -3,17 -2,5 -5,12 -10,19l-115 156 134 247c4,7 6,13 8,18 2,5 2,10 2,14zm367 18l-48 166c-3,9 -10,16 -22,19 -12,4 -29,6 -52,6 -12,0 -21,-1 -28,-2 -7,-1 -12,-3 -16,-6 -4,-3 -6,-6 -6,-11 0,-4 1,-9 3,-15l53 -157c-4,-3 -8,-6 -10,-10 -4,-5 -6,-10 -8,-14l-135 -433c-4,-13 -6,-22 -6,-29 0,-6 2,-12 5,-15 4,-4 10,-6 18,-8 8,-1 19,-2 34,-2 12,0 22,0 29,1 8,0 13,2 18,4 4,2 7,5 9,10 2,4 4,10 6,18l93 316 1 0 85 -322c2,-9 5,-15 7,-19 3,-2 7,-4 14,-6 6,-1 18,-2 34,-2 13,0 24,1 32,2 9,2 14,4 19,8 4,4 6,9 6,16 0,6 -1,14 -4,23l-131 462zm-44 -722c2,-3 5,-7 8,-9 3,-3 7,-6 10,-7 5,-2 11,-2 17,-3 7,-1 16,-2 25,-2 14,0 25,1 32,3 8,1 14,3 17,6 4,2 5,5 5,9 -1,3 -2,7 -5,11l-85 122c-3,4 -5,8 -8,10 -2,1 -5,4 -9,5 -3,1 -8,3 -13,3 -6,1 -14,1 -22,1 -10,0 -18,-1 -24,-1 -6,-1 -11,-3 -13,-5 -2,-2 -3,-5 -3,-9 1,-4 2,-7 5,-12l63 -122z"/>
     <path class="fil0" d="M12557 3491c0,40 -4,77 -13,110 -9,33 -22,61 -40,86 -18,23 -41,42 -68,55 -27,13 -59,19 -95,19 -36,0 -66,-6 -92,-17 -26,-11 -48,-29 -65,-50 -17,-23 -29,-50 -38,-82 -8,-33 -12,-70 -12,-112 0,-40 4,-76 13,-110 9,-33 23,-61 41,-85 18,-24 41,-42 67,-55 27,-13 59,-20 95,-20 36,0 67,6 93,17 26,12 48,29 65,51 17,22 29,49 38,82 7,32 11,69 11,111zm-114 5c0,-23 -2,-44 -4,-64 -3,-19 -9,-36 -17,-51 -7,-14 -17,-26 -29,-34 -12,-8 -28,-11 -47,-11 -16,0 -31,3 -43,10 -13,8 -23,18 -31,32 -8,14 -14,30 -18,50 -4,20 -6,42 -6,67 0,23 2,44 5,64 3,20 8,36 16,51 7,14 17,26 30,34 12,8 27,11 45,11 18,0 33,-3 45,-11 12,-7 22,-17 31,-31 8,-14 14,-30 18,-50 3,-19 5,-42 5,-67zm671 -7c0,42 -4,80 -12,113 -8,34 -18,63 -32,86 -15,24 -33,42 -54,55 -21,12 -45,18 -72,18 -13,0 -26,-1 -37,-4 -12,-3 -23,-8 -33,-14 -11,-7 -21,-16 -31,-26 -11,-10 -21,-23 -31,-37l0 51c0,5 -1,8 -3,10 -1,3 -4,5 -8,7 -4,2 -8,3 -15,3 -6,1 -14,2 -22,2 -9,0 -17,-1 -23,-2 -6,0 -11,-1 -15,-3 -4,-2 -6,-4 -7,-7 -2,-2 -3,-5 -3,-9l0 -695c0,-4 1,-7 3,-10 1,-3 5,-5 9,-7 4,-2 10,-3 17,-4 7,-2 16,-2 27,-2 11,0 20,0 27,2 7,1 13,2 17,4 5,2 7,4 9,7 2,3 3,6 3,10l0 260c10,-11 20,-21 30,-30 10,-9 20,-16 30,-21 10,-6 20,-9 31,-12 11,-2 22,-4 34,-4 29,0 54,7 74,21 20,14 37,33 50,56 13,24 22,51 28,83 6,31 9,65 9,99zm-115 10c0,-21 -1,-39 -4,-58 -3,-19 -7,-35 -13,-50 -6,-14 -15,-26 -24,-34 -10,-9 -23,-13 -38,-13 -7,0 -14,1 -21,3 -8,3 -15,7 -23,14 -7,5 -15,13 -23,22 -8,10 -16,22 -25,36l0 156c16,23 31,42 45,54 15,12 29,19 45,19 14,0 26,-4 37,-14 10,-8 18,-19 25,-34 6,-14 11,-30 14,-48 3,-18 5,-35 5,-53zm573 157c0,10 0,17 -1,24 0,6 0,11 -1,15 -1,4 -2,8 -3,10 -1,3 -4,7 -7,10 -3,4 -10,10 -18,15 -9,7 -18,11 -30,16 -10,5 -22,8 -35,11 -12,3 -26,4 -40,4 -30,0 -57,-5 -80,-17 -24,-11 -44,-28 -60,-50 -16,-21 -28,-49 -36,-80 -8,-32 -12,-69 -12,-109 0,-48 5,-88 14,-123 11,-34 25,-63 42,-85 18,-22 39,-39 63,-50 25,-11 51,-17 80,-17 12,0 23,2 35,4 11,3 22,6 32,10 10,4 18,9 26,14 8,6 14,10 17,14 4,4 5,7 7,10 1,3 2,6 3,10 1,5 1,10 2,15 0,7 1,15 1,23 0,21 -2,35 -5,44 -3,8 -7,12 -12,12 -4,0 -10,-3 -15,-8 -6,-4 -13,-10 -21,-16 -7,-5 -16,-12 -27,-16 -11,-5 -23,-7 -38,-7 -29,0 -51,13 -66,39 -16,27 -24,66 -24,117 0,25 2,48 6,68 4,18 10,35 17,48 8,13 17,23 29,30 11,6 24,9 39,9 16,0 29,-2 40,-9 11,-5 20,-11 29,-18 8,-6 15,-12 21,-18 6,-5 10,-8 14,-8 3,0 5,1 7,3 2,2 3,5 4,9 1,5 2,11 2,19 1,7 1,16 1,28zm529 76c0,3 -1,6 -2,9 -2,3 -6,5 -10,6 -3,2 -9,4 -17,4 -7,1 -16,2 -26,2 -12,0 -21,-1 -28,-2 -7,0 -13,-2 -17,-4 -4,-1 -7,-3 -9,-6 -1,-3 -3,-6 -3,-9l0 -269c0,-23 -1,-41 -4,-54 -2,-13 -7,-24 -12,-34 -5,-9 -12,-16 -20,-21 -9,-5 -19,-8 -30,-8 -14,0 -28,6 -43,18 -15,13 -30,31 -45,54l0 314c0,3 -1,6 -3,9 -1,3 -5,5 -9,6 -4,2 -10,4 -16,4 -8,1 -17,2 -28,2 -10,0 -20,-1 -27,-2 -7,0 -13,-2 -17,-4 -4,-1 -7,-3 -9,-6 -2,-3 -3,-6 -3,-9l0 -695c0,-4 1,-7 3,-10 2,-3 5,-5 9,-7 4,-2 10,-3 17,-4 7,-2 17,-2 27,-2 11,0 20,0 28,2 6,1 12,2 16,4 4,2 8,4 9,7 2,3 3,6 3,10l0 260c19,-22 39,-39 59,-50 20,-11 40,-17 62,-17 27,0 50,6 68,16 19,11 33,25 45,44 11,17 20,39 24,64 6,24 8,54 8,88l0 290zm579 -241c0,40 -4,77 -13,110 -9,33 -23,61 -40,86 -19,23 -41,42 -69,55 -26,13 -58,19 -95,19 -35,0 -66,-6 -92,-17 -25,-11 -47,-29 -65,-50 -17,-23 -29,-50 -38,-82 -8,-33 -12,-70 -12,-112 0,-40 4,-76 14,-110 9,-33 22,-61 40,-85 18,-24 41,-42 68,-55 27,-13 59,-20 95,-20 36,0 66,6 92,17 26,12 48,29 65,51 17,22 29,49 38,82 8,32 12,69 12,111zm-114 5c0,-23 -2,-44 -5,-64 -3,-19 -8,-36 -16,-51 -7,-14 -17,-26 -29,-34 -13,-8 -28,-11 -47,-11 -17,0 -31,3 -44,10 -12,8 -22,18 -30,32 -9,14 -15,30 -19,50 -4,20 -6,42 -6,67 0,23 2,44 5,64 3,20 9,36 16,51 8,14 17,26 30,34 12,8 27,11 46,11 17,0 32,-3 44,-11 13,-7 23,-17 31,-31 8,-14 14,-30 18,-50 4,-19 6,-42 6,-67zm647 236c0,4 0,7 -1,9 -2,3 -4,5 -8,7 -4,2 -8,3 -15,3 -6,1 -13,2 -22,2 -9,0 -17,-1 -23,-2 -6,0 -10,-1 -14,-3 -4,-2 -7,-4 -8,-7 -2,-2 -3,-5 -3,-10l0 -52c-20,26 -42,47 -64,61 -22,14 -47,21 -74,21 -30,0 -56,-7 -77,-21 -21,-14 -38,-32 -51,-56 -13,-23 -22,-50 -28,-82 -6,-32 -9,-65 -9,-99 0,-43 4,-80 11,-114 8,-33 19,-62 33,-85 15,-24 33,-42 54,-55 22,-12 47,-19 75,-19 22,0 42,6 60,17 18,10 36,26 54,46l0 -254c0,-4 0,-7 2,-10 2,-2 5,-5 10,-7 4,-2 9,-3 16,-4 7,-1 16,-2 27,-2 11,0 20,1 27,2 8,1 13,2 17,4 4,2 8,5 9,7 2,3 2,6 2,10l0 693zm-110 -315c-16,-24 -32,-42 -46,-55 -14,-13 -30,-19 -46,-19 -14,0 -27,4 -37,13 -11,8 -19,20 -26,34 -6,15 -11,31 -14,49 -3,17 -5,35 -5,54 0,20 2,39 4,58 3,19 7,35 13,50 7,14 15,26 24,35 11,8 23,13 39,13 7,0 15,-1 22,-4 8,-3 15,-7 23,-13 7,-6 15,-14 23,-23 7,-11 17,-22 26,-36l0 -156z"/>
    </g>
    <g>
     <path class="fil0" d="M15532 3503c-14,0 -24,-13 -24,-29 0,-16 10,-29 24,-29l0 58zm4916 0l-4916 0 0 -58 4916 0 0 58zm0 -58c13,0 25,13 25,29 0,16 -12,29 -25,29l0 -58z"/>
    </g>
    <g>
     <path class="fil0" d="M1533 3503c-14,0 -25,-13 -25,-29 0,-16 11,-29 25,-29l0 58zm4916 0l-4916 0 0 -58 4916 0 0 58zm0 -58c13,0 24,13 24,29 0,16 -11,29 -24,29l0 -58z"/>
    </g>
    <path class="fil0" d="M2312 2671l-327 0 -516 -651 -162 0 0 -290 162 0 516 -650 327 0 -652 795 652 796zm-1098 0l-230 0 0 -1591 230 0 0 1591z"/>
   </g>
   <g>
    <g>
     <path class="fil0" d="M430 756l411 2118 -77 21 -411 -2118 77 -21 0 0zm17 -158l18 91 0 0 -2 1 -3 0 -1 2 -2 1 -3 0 -2 2 -2 2 -1 1 -2 2 -2 1 -2 3 -2 1 -1 3 -1 1 -1 2 -2 3 -1 2 -1 2 -1 3 -1 2 0 3 -1 3 -1 2 0 3 -1 2 0 4 0 2 0 3 0 2 0 3 1 3 0 3 -77 21 -1 -8 -1 -7 -1 -8 0 -7 0 -7 0 -8 1 -7 1 -7 1 -7 1 -7 2 -7 2 -7 3 -7 3 -7 2 -6 3 -6 4 -6 3 -6 4 -5 4 -6 4 -5 4 -5 5 -5 5 -4 5 -4 5 -4 6 -4 5 -3 6 -3 6 -3 6 -2 6 -1 0 0zm1418 -294l-1400 385 -18 -91 1400 -386 18 92zm133 21l-77 21 0 0 0 -3 -1 -3 -1 -2 -1 -3 -1 -2 -1 -2 -1 -3 -2 -2 -1 -2 -1 -3 -2 -1 -2 -3 -2 -1 -1 -2 -2 -1 -2 -2 -2 -1 -2 -1 -2 -2 -2 0 -2 -1 -2 -1 -2 -1 -3 -1 -2 0 -2 0 -2 0 -3 0 -2 0 -3 0 -2 0 -2 1 -18 -92 7 -1 6 -1 6 -1 7 -1 6 0 6 1 6 1 6 1 6 1 6 2 6 2 6 2 5 4 6 3 5 3 5 4 5 4 5 3 5 5 4 5 5 5 4 5 4 5 4 7 3 6 3 6 3 6 3 7 3 7 2 7 1 7 2 8 0 0zm-21 308l-56 -287 77 -21 55 287 -76 21z"/>
    </g>
    <g>
     <path class="fil0" d="M745 2967l73 -36 0 0 1 1 0 1 0 0 0 1 1 1 0 0 1 1 0 1 0 1 0 1 0 0 1 0 1 1 0 1 0 1 0 0 1 0 0 1 1 1 0 0 0 1 1 1 0 0 1 0 0 1 0 1 1 1 1 0 0 0 0 1 1 0 0 1 -52 70 -2 -1 -1 -2 -1 -1 -2 -1 0 -2 -2 -1 -1 -2 -1 -1 -2 -2 0 -2 -2 -1 0 -2 -2 -1 -1 -2 -1 -1 -1 -2 0 -2 -2 -1 0 -2 -2 -2 0 -2 -2 -2 0 -1 -1 -2 -1 -2 -1 -2 -1 -1 0 -3 -2 -1 0 -3 -1 -1 -1 -3 0 0zm-662 -2120l735 2084 -73 36 -735 -2084 0 0 73 -36zm-6 -161l30 87 0 0 -2 2 -2 0 -2 2 -1 2 -2 1 -2 2 -2 2 -2 2 -1 2 -2 1 -1 3 -2 2 -1 2 -1 3 -1 2 0 3 -1 3 -1 2 0 3 -1 2 -1 3 0 3 0 2 0 3 0 3 0 3 0 2 1 3 0 3 1 3 1 2 1 3 -73 36 -3 -7 -2 -7 -2 -7 -1 -8 -1 -7 0 -8 -1 -7 0 -7 0 -7 1 -8 0 -7 1 -7 1 -7 2 -7 2 -7 2 -7 2 -6 3 -6 3 -6 3 -7 4 -6 4 -5 3 -6 4 -5 4 -6 5 -4 5 -5 5 -5 6 -4 5 -4 6 -3 6 -4 0 0zm1353 -588l-1323 675 -30 -87 1322 -674 0 0 31 86zm134 -7l-73 37 0 0 -1 -3 -1 -3 -1 -2 -2 -2 -1 -3 -1 -2 -2 -1 -2 -3 -1 -1 -2 -2 -2 -1 -2 -2 -1 -2 -3 -1 -2 -1 -2 -1 -2 -1 -2 -1 -2 -1 -2 0 -2 -1 -3 0 -2 0 -2 0 -2 0 -2 0 -3 0 -2 1 -3 1 -2 1 -2 1 -2 0 -31 -86 6 -3 6 -3 6 -1 6 -3 6 0 6 -1 7 -1 6 0 6 0 6 1 6 1 6 0 6 2 6 2 6 2 5 3 6 2 5 3 5 4 5 4 6 4 4 4 5 5 4 5 5 5 4 6 4 6 4 6 3 6 3 6 3 7 3 7 0 0zm4 255l-77 -218 73 -37 77 218 -73 37z"/>
    </g>
    <g>
     <path class="fil0" d="M2325 669l-1437 0 0 -94 1437 0 0 0 0 94zm126 56l-79 0 0 0 0 -3 0 -3 -1 -3 0 -2 0 -3 -1 -3 -1 -2 -1 -2 -1 -3 -1 -3 -1 -2 -1 -3 -1 -1 -2 -2 -2 -3 -1 -1 -2 -3 -1 -1 -2 -2 -2 -1 -2 -2 -2 -1 -2 -1 -2 -2 -2 -1 -2 0 -3 -1 -2 -1 -2 0 -2 -1 -3 0 -2 0 0 -94 7 0 6 1 6 0 6 2 7 2 6 2 6 2 5 3 6 3 5 3 5 4 5 4 6 4 4 4 5 5 4 5 4 5 4 6 4 5 3 6 4 6 2 7 4 6 2 6 2 7 2 7 2 7 1 7 1 8 1 8 0 7 1 8 0 0zm-79 2242l0 -2242 79 0 0 2242 0 0 -79 0zm-47 149l0 -94 0 0 2 0 3 0 2 -1 2 0 2 -1 3 0 2 -1 2 -1 2 -1 2 -1 2 -2 2 -1 2 -2 2 -1 1 -2 2 -2 1 -2 2 -2 2 -3 1 -2 1 -2 1 -2 1 -3 1 -2 1 -3 1 -2 1 -2 0 -3 0 -3 1 -3 0 -2 0 -3 79 0 -1 7 0 7 -1 8 -1 7 -1 8 -2 7 -2 7 -2 7 -2 6 -4 7 -2 6 -4 6 -3 6 -4 6 -4 5 -4 5 -4 5 -5 5 -4 5 -6 4 -5 4 -5 3 -5 4 -6 3 -5 2 -6 2 -6 3 -7 1 -6 2 -6 1 -6 0 -7 0 0 0zm-1437 -94l1437 0 0 94 -1437 0 0 0 0 -94zm-126 -55l80 0 0 0 0 3 0 2 0 3 1 3 0 3 1 2 0 2 2 3 0 2 2 3 0 2 2 2 1 2 1 3 2 2 1 2 2 2 2 2 2 1 2 2 2 1 2 2 2 1 2 1 1 1 2 1 3 0 2 1 3 0 2 1 2 0 2 0 0 94 -6 0 -6 0 -7 -1 -6 -2 -6 -1 -6 -3 -6 -2 -5 -2 -6 -3 -5 -4 -6 -3 -5 -4 -4 -4 -6 -5 -4 -5 -4 -5 -5 -5 -4 -5 -3 -6 -4 -6 -3 -6 -3 -6 -3 -7 -2 -6 -3 -7 -2 -7 -1 -7 -2 -8 -1 -7 -1 -8 0 -7 -1 -7 0 0zm80 -2242l0 2242 -80 0 0 -2242 0 0 80 0zm46 -150l0 94 0 0 -2 0 -2 0 -2 1 -3 0 -2 1 -3 1 -2 0 -1 1 -2 2 -2 1 -2 1 -2 2 -2 1 -2 2 -2 1 -2 3 -1 1 -2 3 -1 2 -1 1 -2 3 0 2 -2 3 0 3 -2 2 0 2 -1 3 0 3 -1 2 0 3 0 3 0 3 -80 0 1 -8 0 -7 1 -8 1 -8 2 -7 1 -7 2 -7 3 -7 2 -6 3 -6 3 -7 3 -6 4 -6 3 -5 4 -6 5 -5 4 -5 4 -5 6 -4 4 -4 5 -4 6 -4 5 -3 6 -3 5 -3 6 -2 6 -2 6 -2 6 -2 7 0 6 -1 6 0 0 0z"/>
    </g>
   </g>
  </g>
 </g>
</svg>
