<?xml version="1.0" encoding="UTF-8"?>
<!DOCTYPE svg PUBLIC "-//W3C//DTD SVG 1.1//EN" "http://www.w3.org/Graphics/SVG/1.1/DTD/svg11.dtd">
<!-- Creator: CorelDRAW X7 -->
<svg xmlns="http://www.w3.org/2000/svg" xml:space="preserve" width="210mm" height="75.65mm" version="1.1" style="shape-rendering:geometricPrecision; text-rendering:geometricPrecision; image-rendering:optimizeQuality; fill-rule:evenodd; clip-rule:evenodd"
viewBox="0 0 21000 7565"
 xmlns:xlink="http://www.w3.org/1999/xlink">
 <defs>
  <style type="text/css">
   <![CDATA[
    .fil4 {fill:#001D60;fill-rule:nonzero}
    .fil2 {fill:#CFD9E5;fill-rule:nonzero}
    .fil1 {fill:#EAA900;fill-rule:nonzero}
    .fil3 {fill:#FFDF00;fill-rule:nonzero}
    .fil0 {fill:white;fill-rule:nonzero}
   ]]>
  </style>
 </defs>
 <g id="Vrstva_x0020_4">
  <metadata id="CorelCorpID_0Corel-Layer"/>
  <g id="_2608049370656">
   <path class="fil0" d="M8174 2714c103,-349 53,-741 -144,-1134l-55 -111c-5,-10 -14,-17 -25,-20 -10,-3 -22,-1 -31,6l-101 71c-298,212 -582,366 -889,484 48,-501 152,-996 325,-1554l71 -234c4,-14 0,-28 -10,-38 -10,-10 -24,-13 -38,-9l-192 60c-565,179 -842,341 -1090,504 -141,-219 -328,-426 -604,-668l-70 -61c-6,-7 -15,-10 -24,-10 -10,0 -18,3 -25,9l-71 62c-257,225 -448,435 -600,659 -305,-173 -676,-280 -1104,-404l-240 -69c-13,-4 -29,-1 -39,10 -10,11 -12,26 -7,40l78 200c204,523 339,916 417,1331l-2021 0c-929,0 -1685,746 -1685,1662l0 2403c0,917 756,1662 1685,1662l4506 0c929,0 1685,-745 1685,-1662l0 -2403c0,-83 -8,-165 -20,-245 150,-155 259,-339 318,-541z"/>
   <polygon class="fil1" points="3697,705 4116,2378 5383,2121 6553,2378 6856,705 5904,1146 5229,443 4631,1054 "/>
   <path class="fil2" d="M7568 4238l0 -458c-287,-253 -632,-484 -1052,-686 427,315 788,759 1052,1144z"/>
   <path class="fil2" d="M5199 7293c26,0 50,0 76,0 189,-107 361,-239 500,-398 0,0 43,168 73,383 274,-15 499,-43 685,-84 670,-1001 626,-2339 173,-3336 0,0 153,948 43,1703 0,0 -211,-304 -407,-385 0,0 432,685 -87,1659 0,0 -37,-677 -261,-1031 0,0 -818,1616 -2253,1413 0,0 162,-102 292,-404 0,0 -580,454 -1289,457 2,8 6,16 10,23l2445 0z"/>
   <path class="fil2" d="M3313 6154c649,-94 1326,-460 1773,-941 0,0 13,87 -49,267 0,0 548,-527 548,-978 0,0 66,176 80,295 0,0 224,-266 162,-1316 209,974 230,1842 -893,2383 -1145,551 -1621,290 -1621,290z"/>
   <path class="fil2" d="M3073 3605c0,0 0,309 -214,491 627,-391 1581,-447 2199,234 0,0 -761,-397 -1337,-192 -576,206 -967,341 -967,341l-344 -492c0,0 477,-189 663,-382z"/>
   <path class="fil2" d="M6742 2991c319,-100 566,-258 688,-465 0,0 -106,46 -249,23 0,0 339,-107 556,-377 239,1078 -756,1219 -995,819z"/>
   <path class="fil2" d="M6329 2667c0,0 -543,-296 -1759,-198 1100,-461 2149,57 2149,57l-390 141z"/>
   <path class="fil3" d="M4224 2215c0,0 419,-385 1639,-368 0,0 -1153,-280 -1752,33l113 335z"/>
   <path class="fil3" d="M4710 1452c-255,-252 -603,-557 -818,-536 0,0 408,318 582,658 110,-8 227,-12 347,-11 -36,-35 -73,-73 -111,-111z"/>
   <path class="fil3" d="M5631 915c-135,-151 -342,-195 -342,-195l0 881c122,19 239,45 344,79 74,-78 150,-154 232,-228 108,-141 -99,-386 -234,-537z"/>
   <path class="fil3" d="M6711 920c0,0 -360,317 -581,743 205,6 394,28 541,60l175 -871 -135 68z"/>
   <path class="fil4" d="M2394 5132c106,345 1361,202 1878,-410 -163,73 -415,199 -672,283 -547,180 -1035,174 -1068,12 -15,-70 17,-153 103,-240 -178,127 -272,255 -241,355z"/>
   <path class="fil4" d="M4038 3239c265,116 606,114 812,-65 149,-130 281,-251 506,-328 6,-2 9,-8 9,-14 -1,-6 -6,-11 -12,-11 -766,-65 -1095,64 -1315,418z"/>
   <path class="fil4" d="M7900 1681c-3,-6 -9,-11 -15,-12 -6,-2 -13,-1 -19,3 -402,282 -766,449 -1109,559 34,-533 133,-1108 347,-1801 3,-8 1,-17 -5,-23 -6,-5 -15,-8 -23,-5 -578,186 -822,345 -1136,555 -152,-277 -362,-507 -645,-757 -3,-2 -8,-2 -11,0 -279,245 -485,477 -644,742 -303,-206 -708,-324 -1176,-459 -8,-2 -17,0 -23,7 -5,6 -7,15 -4,23 265,681 425,1183 475,1842 -352,191 -539,423 -647,555 -548,121 -868,388 -1175,760 -4,5 -6,11 -5,17 93,637 418,866 985,1199 8,5 18,4 26,-2 7,-6 10,-16 7,-25 -100,-294 29,-441 261,-511 157,-47 356,-72 566,-80 222,3 388,60 423,166l144 450c66,205 -343,519 -912,702 -120,38 -238,68 -349,88 -22,4 -40,19 -49,40 -77,183 -215,401 -493,705 -5,7 -7,15 -5,23 3,7 9,13 16,15 235,55 472,81 707,78 -226,184 -489,319 -773,393 -314,81 -611,70 -743,54 -9,-1 -18,4 -22,12 -4,8 -4,18 2,25 47,55 95,106 145,156l-199 0c-33,-37 -66,-74 -97,-112l-199 -246c-11,-13 -12,-30 -3,-44 7,-11 19,-18 32,-18 2,0 7,1 9,1l308 76c76,19 588,72 1098,-182 -197,-26 -318,-60 -507,-106 -13,-4 -24,-13 -28,-26 -4,-13 -1,-27 8,-37 207,-228 451,-485 587,-771 -75,10 -154,17 -236,20 -230,-3 -364,-59 -398,-166l-145 -452c-39,-121 63,-279 264,-421 -307,-237 -502,-510 -573,-991l-9 -60c-1,-7 1,-14 5,-20l39 -48c273,-330 607,-655 1210,-802 83,-100 268,-320 578,-507 -8,-93 -20,-183 -34,-272l-2046 0c-845,0 -1532,677 -1532,1509l0 2403c0,796 629,1448 1423,1504 31,2 62,4 94,5 5,0 10,0 15,0l5 0 4506 0c845,0 1532,-677 1532,-1509l0 -2403c0,-101 -12,-199 -32,-295 371,-349 511,-889 204,-1524zm-4007 -765c279,149 526,265 817,536 218,-316 319,-525 579,-733 183,176 397,392 576,733 286,-248 582,-418 847,-532 -156,284 -242,702 -275,1235 -1030,-193 -1732,-113 -2213,60 -9,-76 -19,-152 -29,-225 391,-145 927,-227 1668,-143 -426,-232 -1247,-216 -1712,-111 -55,-281 -134,-543 -258,-820zm2449 2099c431,241 813,542 1149,882l0 2006c0,476 -268,890 -663,1108 439,-960 453,-2122 -122,-3154 391,1097 248,2324 -404,3312 -35,3 -70,6 -106,6l-132 0c-4,-285 -32,-595 -95,-910 -213,389 -519,695 -875,910l-2030 0c381,-145 706,-392 942,-705 242,-52 476,-134 697,-244 1904,-951 1317,-2205 1124,-2745 196,1074 189,1624 -1073,2306 -441,238 -936,366 -1441,367 56,-86 128,-221 151,-279 562,-109 1512,-597 1384,-995 -83,-259 -134,-419 -166,-520 -8,-26 -16,-51 -25,-75 157,12 297,28 401,45 -428,-486 -1620,-483 -2205,-85 -22,-7 -173,-55 -290,-212 329,-18 510,-428 510,-428 -542,306 -638,109 -638,109 154,-174 347,-298 595,-394 284,-96 571,-142 789,-179 9,-1 16,-8 18,-17 2,-9 -2,-19 -10,-24 -57,-36 -137,-71 -225,-99 346,-361 962,-796 2782,-519 -33,105 -113,226 -265,320 0,0 495,-66 998,-314 384,-165 620,-316 620,-316 46,980 -621,908 -621,908 386,-177 403,-496 403,-496 -392,250 -1173,430 -1177,431z"/>
   <path class="fil4" d="M12600 7082l416 0 0 -1020 443 806 443 -806 0 1020 416 0 0 -1878 -403 0 -456 858 -456 -858 -403 0 0 1878zm-907 -2012l309 -389 -427 0 -255 389 373 0zm-354 2012l429 0 0 -590 644 -1288 -483 0 -375 824 -373 -824 -486 0 644 1288 0 590zm-1637 0l429 0 0 -1502 537 0 0 -376 -1503 0 0 376 537 0 0 1502z"/>
   <path class="fil4" d="M20691 2498l309 -389 -427 0 -255 389 373 0zm-381 2012l430 0 0 -1878 -430 0 0 1878zm-1878 0l416 0 0 -1086 697 1086 390 0 0 -1878 -416 0 0 1087 -698 -1087 -389 0 0 1878zm-1423 -375l0 -1127 360 0c177,0 284,99 284,268l0 590c0,170 -107,269 -284,269l-360 0zm-429 375l805 0c376,0 698,-214 698,-644l0 -590c0,-429 -322,-644 -698,-644l-805 0 0 1878zm-1422 -617l0 -644c0,-169 107,-268 322,-268 215,0 322,99 322,268l0 644c0,169 -107,269 -322,269 -215,0 -322,-100 -322,-269zm-430 0c0,430 322,645 752,645 429,0 751,-215 751,-645l0 -644c0,-429 -322,-644 -751,-644 -430,0 -752,215 -752,644l0 644zm-1293 -362l0 -523 306 0c163,0 257,85 257,241l0 40c0,156 -94,242 -257,242l-306 0zm529 979l523 0 -454 -646c228,-81 395,-271 395,-575l0 -42c0,-414 -309,-615 -671,-615l-752 0 0 1878 430 0 0 -603 107 0 422 603zm-2067 -1486l207 735 -411 0 204 -735zm148 -526l308 -389 -426 0 -255 389 373 0zm268 2012l451 0 -577 -1878 -564 0 -577 1878 438 0 104 -375 620 0 105 375zm-3011 0l416 0 0 -1086 698 1086 389 0 0 -1878 -416 0 0 1087 -698 -1087 -389 0 0 1878z"/>
  </g>
 </g>
</svg>
