<?xml version="1.0" encoding="UTF-8"?>
<!DOCTYPE svg PUBLIC "-//W3C//DTD SVG 1.1//EN" "http://www.w3.org/Graphics/SVG/1.1/DTD/svg11.dtd">
<!-- Creator: CorelDRAW X8 -->
<svg xmlns="http://www.w3.org/2000/svg" xml:space="preserve" width="210mm" height="48.852mm" version="1.1" style="shape-rendering:geometricPrecision; text-rendering:geometricPrecision; image-rendering:optimizeQuality; fill-rule:evenodd; clip-rule:evenodd"
viewBox="0 0 21000 4885"
 xmlns:xlink="http://www.w3.org/1999/xlink">
 <defs>
  <style type="text/css">
   <![CDATA[
    .fil2 {fill:#E31E24}
    .fil3 {fill:#FEFEFE}
    .fil0 {fill:#898989;fill-rule:nonzero}
    .fil1 {fill:#E31E24;fill-rule:nonzero}
   ]]>
  </style>
 </defs>
 <g id="Vrstva_x0020_1">
  <metadata id="CorelCorpID_0Corel-Layer"/>
  <g id="_2850001727728">
   <path class="fil0" d="M20312 1888c0,128 60,192 168,192 63,0 154,-33 200,-77 30,-26 42,-57 42,-96l0 -451c0,-39 -12,-68 -42,-93 -46,-44 -137,-77 -200,-77 -108,0 -168,63 -168,189l0 413zm-280 -493c0,-209 146,-356 347,-356 121,0 238,58 292,95 14,10 51,14 51,-25l0 -486c0,-39 16,-63 61,-63l156 0c47,0 61,28 61,63l0 1613c0,37 -14,63 -61,63l-133 0c-32,0 -51,-12 -61,-38l-7 -25c-9,-23 -32,-31 -53,-14 -68,46 -185,102 -306,102 -201,0 -347,-147 -347,-354l0 -575zm-1198 -266c0,-39 16,-65 61,-65l133 0c32,0 51,14 61,40l7 23c9,24 32,31 53,17 70,-49 185,-105 306,-105 201,0 346,147 346,356l0 841c0,39 -17,63 -63,63l-154 0c-45,0 -62,-24 -62,-63l0 -761c0,-126 -60,-189 -168,-189 -63,0 -154,33 -200,77 -30,25 -42,54 -42,93l0 780c0,39 -16,63 -61,63l-156 0c-45,0 -61,-24 -61,-63l0 -1107zm-487 554c0,-266 -70,-400 -236,-400 -171,0 -241,134 -241,400 0,263 70,397 241,397 166,0 236,-134 236,-397zm-755 0c0,-416 150,-644 519,-644 361,0 515,228 515,644 0,415 -154,641 -515,641 -369,0 -519,-226 -519,-641zm-212 -882c-124,0 -158,72 -158,168l0 25c0,52 27,70 72,70l133 0c39,0 63,19 63,65l0 113c0,48 -24,65 -63,65l-133 0c-45,0 -72,19 -72,72l0 857c0,39 -17,63 -63,63l-154 0c-45,0 -63,-24 -63,-63l0 -857c0,-53 -26,-72 -71,-72l-65 0c-39,0 -63,-17 -63,-65l0 -113c0,-46 24,-65 63,-65l65 0c45,0 71,-19 71,-70l0 -28c0,-242 109,-406 422,-406l119 0c44,0 53,28 53,63l0 126c0,44 -14,52 -58,52l-98 0zm-1855 153c-31,19 -58,19 -77,-7l-38 -55c-20,-22 -14,-50 7,-66l360 -324c35,-28 61,-28 88,5l82 111c24,31 19,57 -16,80l-406 256zm-152 1413c12,-36 10,-68 3,-99l-369 -1094c-14,-40 -1,-66 39,-80l154 -55c40,-15 70,0 78,39l233 778c11,39 53,39 65,0l231 -780c12,-38 37,-52 82,-38l131 47c44,16 55,47 39,82l-565 1696c-14,38 -39,56 -83,38l-134 -47c-44,-16 -53,-44 -39,-81l135 -406zm-1494 -1193c-16,-40 -4,-66 38,-80l154 -55c40,-15 70,0 79,39l231 778c12,39 52,39 65,0l232 -780c11,-38 35,-52 81,-38l133 47c44,16 52,47 38,82l-360 1080c-11,31 -25,52 -63,52l-205 0c-38,0 -54,-21 -63,-52l-360 -1073zm-397 509c0,-266 -70,-400 -237,-400 -171,0 -241,134 -241,400 0,263 70,397 241,397 167,0 237,-134 237,-397zm-758 0c0,-416 152,-644 521,-644 361,0 515,228 515,644 0,415 -154,641 -515,641 -369,0 -521,-226 -521,-641zm-347 -1120c109,0 177,67 177,175 0,109 -68,177 -177,177 -108,0 -175,-68 -175,-177 0,-108 67,-175 175,-175zm-140 566c0,-41 18,-65 63,-65l153 0c47,0 64,24 64,65l0 1247c0,275 -117,502 -467,502l-84 0c-42,0 -63,-17 -63,-63l0 -115c0,-46 21,-63 63,-63l63 0c151,0 208,-89 208,-236l0 -1272zm-552 554c0,-266 -70,-400 -237,-400 -171,0 -241,134 -241,400 0,263 70,397 241,397 167,0 237,-134 237,-397zm-756 0c0,-416 150,-644 519,-644 363,0 517,228 517,644 0,415 -154,641 -517,641 -369,0 -519,-226 -519,-641zm-1171 -509c-14,-40 -2,-66 39,-80l154 -55c40,-15 70,0 78,39l233 778c12,39 53,39 65,0l231 -780c12,-38 36,-52 82,-38l131 47c44,16 54,47 39,82l-361 1080c-10,31 -24,52 -63,52l-204 0c-39,0 -53,-21 -63,-52l-361 -1073zm-632 822c-19,32 -3,60 37,60l389 0c40,0 64,19 64,65l0 115c0,47 -24,63 -64,63l-749 0c-39,0 -63,-16 -63,-63l0 -124c0,-30 7,-53 24,-82l480 -660c21,-33 7,-63 -35,-63l-406 0c-39,0 -63,-17 -63,-65l0 -113c0,-46 24,-65 63,-65l749 0c40,0 64,19 64,65l0 122c0,30 -7,54 -24,82l-466 663zm-848 -313c0,-266 -70,-400 -236,-400 -172,0 -242,134 -242,400 0,263 70,397 242,397 166,0 236,-134 236,-397zm-756 0c0,-416 150,-644 520,-644 360,0 514,228 514,644 0,415 -154,641 -514,641 -370,0 -520,-226 -520,-641zm-857 -848c-51,0 -74,19 -74,73l0 382c0,54 25,73 74,73l134 0c170,0 279,-112 279,-262 0,-174 -100,-266 -272,-266l-141 0zm143 -275c338,0 562,191 562,537 0,201 -89,369 -238,452 -19,8 -30,31 -18,54l270 554c19,41 7,67 -28,84l-151 72c-35,19 -61,16 -84,-28l-271 -605c-17,-34 -35,-42 -75,-42l-110 0c-51,0 -74,21 -74,71l0 527c0,44 -21,63 -61,63l-166 0c-39,0 -63,-16 -63,-63l0 -1613c0,-46 21,-63 63,-63l444 0z"/>
   <path class="fil1" d="M15898 4315c79,0 129,49 129,128 0,80 -50,131 -129,131 -79,0 -130,-51 -130,-131 0,-79 51,-128 130,-128zm-476 -9c0,-177 -448,-47 -448,-381 0,-149 107,-275 320,-275 212,0 317,112 317,275 0,31 -16,47 -44,47l-112 0c-31,0 -45,-16 -45,-47 0,-60 -41,-100 -116,-100 -77,0 -117,35 -117,93 0,169 446,45 446,381 0,151 -117,278 -327,278 -210,0 -324,-117 -324,-276 0,-33 16,-47 46,-47l112 0c31,0 45,15 45,47 0,56 47,100 121,100 73,0 126,-35 126,-95zm-723 9c79,0 130,49 130,128 0,80 -51,131 -130,131 -78,0 -129,-51 -129,-131 0,-79 51,-128 129,-128zm-663 -124c-89,0 -145,38 -145,112 0,61 37,108 119,108 56,0 114,-28 149,-63 21,-17 29,-45 29,-70l0 -58c0,-21 -8,-29 -29,-29l-123 0zm214 369c-23,0 -37,-9 -44,-28l-5 -18c-7,-17 -23,-22 -39,-10 -61,40 -133,73 -226,73 -141,0 -246,-110 -246,-264 0,-206 129,-289 400,-289l72 0c18,0 26,-7 26,-24l0 -26c0,-88 -35,-144 -129,-144 -77,0 -159,28 -229,65 -23,12 -48,5 -60,-25l-33 -75c-9,-19 -5,-45 17,-58 93,-47 209,-87 329,-87 237,0 307,142 307,357l0 507c0,32 -14,46 -44,46l-96 0zm-1663 -525l216 0c26,0 36,-11 36,-35 0,-110 -56,-175 -140,-175 -91,0 -147,75 -147,175 0,24 11,35 35,35zm-1 166c-21,0 -34,12 -30,40 16,97 93,154 175,154 73,0 136,-35 196,-64 26,-11 47,-2 59,24l34 75c10,27 1,48 -27,62 -71,38 -161,85 -276,85 -210,0 -375,-133 -375,-456 0,-338 153,-471 373,-471 228,0 333,159 333,443l0 66c0,26 -20,42 -44,42l-418 0zm-677 -551c199,0 313,117 327,299 1,30 -11,47 -42,47l-107 0c-33,0 -46,-10 -49,-31 -16,-91 -63,-140 -129,-140 -118,0 -170,94 -170,289 0,194 52,287 170,287 66,0 113,-48 129,-139 3,-21 16,-31 49,-31l107 0c31,0 43,19 42,47 -14,180 -128,299 -327,299 -268,0 -371,-173 -371,-463 0,-293 103,-464 371,-464zm-522 864c0,28 -12,46 -45,46l-111 0c-33,0 -45,-18 -45,-46l0 -799c0,-30 12,-48 45,-48l111 0c33,0 45,18 45,48l0 799zm-100 -1209c77,0 126,49 126,126 0,79 -49,128 -126,128 -78,0 -127,-49 -127,-128 0,-77 49,-126 127,-126zm-470 660c0,-93 -44,-138 -121,-138 -46,0 -112,24 -145,56 -21,17 -30,40 -30,68l0 325c0,28 9,51 30,69 33,31 99,56 145,56 77,0 121,-48 121,-139l0 -297zm-452 595c-33,0 -45,-19 -45,-46l0 -1165c0,-26 12,-46 45,-46l111 0c33,0 45,18 45,46l0 352c0,26 26,22 37,15 40,-24 124,-66 210,-66 147,0 250,105 250,255l0 417c0,149 -103,255 -250,255 -86,0 -170,-40 -221,-73 -16,-12 -31,-7 -38,10l-5 18c-7,19 -21,28 -44,28l-95 0zm-231 -46c0,27 -10,46 -43,46l-97 0c-22,0 -36,-9 -43,-28l-6 -18c-7,-17 -22,-22 -38,-10 -49,33 -133,73 -221,73 -147,0 -250,-106 -250,-255l0 -607c0,-30 12,-48 46,-48l110 0c33,0 45,18 45,48l0 547c0,91 44,139 123,139 44,0 110,-25 143,-56 21,-18 30,-41 30,-69l0 -561c0,-30 12,-48 46,-48l112 0c31,0 43,18 43,48l0 799zm-1380 -252c0,91 44,139 122,139 44,0 111,-25 144,-56 21,-18 29,-41 29,-69l0 -325c0,-28 -8,-51 -29,-68 -33,-32 -100,-56 -144,-56 -78,0 -122,45 -122,138l0 297zm-201 -357c0,-150 103,-255 250,-255 87,0 171,42 210,66 10,7 36,11 36,-15l0 -352c0,-28 13,-46 46,-46l110 0c35,0 46,20 46,46l0 1165c0,27 -11,46 -46,46l-94 0c-23,0 -37,-9 -44,-28l-5 -18c-7,-17 -23,-22 -39,-10 -49,33 -133,73 -220,73 -147,0 -250,-106 -250,-255l0 -417zm-580 -190c0,-32 16,-48 44,-48l105 0c32,0 46,18 51,48l5 49c4,19 25,21 33,7 49,-69 118,-121 216,-121 19,0 33,14 33,35l0 126c0,24 -11,40 -40,40l-28 0c-116,0 -217,107 -217,235l0 428c0,32 -16,46 -46,46l-112 0c-31,0 -44,-18 -44,-46l0 -799zm-540 476c-88,0 -144,38 -144,112 0,61 37,108 118,108 57,0 115,-28 150,-63 21,-17 30,-45 30,-70l0 -58c0,-21 -9,-29 -30,-29l-124 0zm215 369c-23,0 -37,-9 -44,-28l-5 -18c-7,-17 -23,-22 -39,-10 -61,40 -134,73 -225,73 -142,0 -247,-110 -247,-264 0,-206 130,-289 401,-289l71 0c18,0 27,-7 27,-24l0 -26c0,-88 -35,-144 -131,-144 -76,0 -158,28 -228,65 -23,12 -47,5 -59,-25l-35 -75c-9,-19 -6,-45 19,-58 93,-47 208,-87 329,-87 234,0 306,142 306,357l0 507c0,32 -14,46 -46,46l-94 0zm-1085 -1059c-37,0 -52,14 -52,53l0 276c0,39 17,53 52,53l98 0c123,0 201,-81 201,-189 0,-126 -73,-193 -196,-193l-103 0zm105 -198c243,0 406,137 406,389 0,231 -161,388 -415,388l-96 0c-37,0 -52,16 -52,53l0 381c0,32 -16,46 -44,46l-121 0c-28,0 -45,-12 -45,-46l0 -1165c0,-33 15,-46 45,-46l322 0z"/>
   <path class="fil2" d="M4736 1730c16,163 23,289 23,410 0,304 -47,574 -145,822 -121,313 -320,599 -607,873 -674,646 -1606,1041 -1615,1045l-12 5 -13 -5c-10,-4 -941,-399 -1616,-1045 -287,-274 -485,-560 -608,-873 -96,-248 -143,-518 -143,-822 0,-121 7,-247 21,-410 72,-750 313,-1553 360,-1707l7 -23 3983 0 7 23c47,154 288,955 358,1707z"/>
   <path class="fil3" d="M1611 1540c0,2 0,0 0,3 -7,23 -10,49 -36,77 -21,25 -37,30 -58,25 -21,-4 -31,-23 -31,-23 0,0 1,0 24,-18 23,-19 26,-45 26,-45 -17,26 -43,37 -64,35 -28,-4 -56,-14 -83,-54 -24,-40 -12,-74 -8,-82 3,-9 5,-16 0,-18 -7,-2 -9,4 -9,4 0,0 -9,-11 -9,-37 -2,-30 7,-47 18,-65 7,-12 15,-19 26,-23 5,0 12,-1 17,0 0,0 2,0 4,0 17,4 37,13 65,34 29,19 48,43 48,43 0,0 -13,37 -3,74 5,17 19,37 30,45 14,13 31,21 43,25z"/>
   <path class="fil3" d="M1596 1514c-13,-7 -27,-20 -37,-46 -12,-26 -5,-52 -2,-65 5,-8 5,-8 4,-14 -4,-3 -7,-10 -11,-14 -28,-33 -70,-61 -99,-70 -18,-3 -32,-3 -46,0 0,0 -5,0 -12,4 5,-9 17,-33 42,-44 9,-10 19,-28 23,-37 15,-28 29,-64 43,-108 13,-44 28,-84 47,-121 14,-30 37,-66 48,-77 12,-14 19,-35 17,-56l0 -2c-2,-19 -3,-31 2,-54 5,-21 14,-38 45,-68 34,-32 58,-56 69,-77 8,-16 14,-23 21,-44 0,0 -69,12 -105,-28 -13,-14 -21,-35 -23,-65 -2,-17 0,-38 5,-57 5,-18 12,-34 23,-44 0,0 -26,80 28,105 40,17 82,-7 101,-28 9,-11 18,-23 30,-35 -2,0 -2,-2 -2,-2l0 0c-3,-3 -45,-31 -52,-73 -7,-41 -5,-76 -9,-91 -3,-16 -14,-37 -17,-46 -4,-9 -4,-16 5,-23 9,-5 19,-10 40,2 19,12 35,33 51,49 14,16 37,30 54,42 33,23 58,37 67,40 -2,-17 -4,-36 -6,-52 -3,-28 -7,-68 -8,-74 0,-5 -4,-14 -7,-24 -6,-11 -11,-23 -14,-32 -4,-10 -7,-26 5,-33 14,-9 31,-10 52,4 20,14 34,35 55,45 19,11 63,37 108,91 26,32 44,72 49,109 5,0 12,-2 19,-2l0 0c0,0 41,-12 65,-28 32,-19 56,-53 75,-79 20,-28 76,-107 175,-121 84,-14 98,0 130,-12 31,-12 37,-14 37,-14 0,0 -20,39 -48,58 -28,17 -75,28 -113,79 -14,19 -28,47 -28,47 0,0 64,-65 148,-88 83,-22 170,-8 223,0 52,9 105,23 159,2 42,-16 47,-16 47,-16 0,0 -23,30 -42,65 -19,37 -37,68 -91,91 -49,21 -65,25 -65,25 0,0 58,7 104,7 45,0 87,-9 139,-18 51,-7 144,-21 205,2 61,24 89,49 89,49 0,0 -63,-5 -120,51 -41,35 -70,73 -95,87 -26,14 -52,25 -52,25 0,0 45,8 133,57 63,35 113,55 140,60 54,7 99,3 145,-18 24,-12 31,-12 31,-12 0,0 -47,40 -64,100 -9,26 -49,87 -100,112 -42,19 -89,14 -89,14 0,0 57,12 136,96 77,84 107,89 152,100 48,10 81,2 97,-4 0,0 -53,65 -86,100 -33,33 -88,88 -189,72 -58,-11 -67,-23 -100,-33 -31,-11 -49,-14 -79,-13 0,0 44,20 105,90 62,68 95,78 140,91 46,12 107,-6 133,-7 28,-4 58,0 58,0 0,0 -28,3 -65,52 -38,49 -92,136 -194,154 -91,16 -208,-37 -208,-37 0,0 52,67 96,91 44,23 110,28 147,21 30,-3 39,-3 39,-3 0,0 -20,3 -51,38 -30,33 -72,65 -128,72 -45,7 -103,2 -136,-19 -32,-21 -55,-46 -65,-83 -5,-21 -5,-42 -9,-61 -5,-47 -3,-143 -3,-173 -9,-269 -72,-397 -97,-451 -76,-177 -218,-315 -321,-389 -104,-75 -163,-101 -238,-128 -84,-29 -147,-42 -147,-42 0,0 61,23 145,63 152,74 233,153 322,237 87,84 154,187 194,278 63,138 73,287 77,338 3,50 5,223 10,297 6,73 39,117 76,159 35,44 103,79 103,79 -81,42 -186,98 -334,129 -240,49 -460,20 -677,-78 -91,-42 -165,-102 -165,-102 46,-66 95,-119 144,-199 73,-119 71,-198 57,-268 -14,-70 -82,-108 -82,-108 103,-70 163,-212 98,-356 -23,-49 -45,-57 -45,-57 24,52 42,89 35,164 -11,103 -67,214 -174,240 -43,9 -82,12 -131,0 -49,-14 -98,-37 -98,-37 0,0 9,11 40,33 44,30 83,39 83,39 -21,23 -39,35 -88,65 -49,29 -75,42 -101,49 -25,5 -16,40 -16,63 0,24 3,38 -5,63 -7,20 -9,19 -9,19 -14,-16 -49,-65 -49,-65 3,-9 10,-17 14,-31 5,-30 -2,-46 -7,-58 -7,-14 -21,-23 -26,-25 22,34 21,53 17,70 -2,18 -12,37 -24,48 0,0 85,117 136,178 51,63 109,124 203,199 93,76 347,238 718,219 148,-7 283,-51 386,-96 124,-56 380,-222 380,-222 94,-58 406,-243 563,-112 37,33 60,75 62,124 3,63 -25,117 -77,171 -51,55 -203,125 -338,137 0,0 -117,16 -226,5 -23,-24 -45,-56 -45,-56 17,2 50,4 50,4 49,3 139,-6 139,-6 70,-8 175,-22 273,-70 73,-35 129,-92 145,-150 9,-32 3,-65 -14,-93 -30,-45 -130,-68 -278,-9 -63,27 -98,42 -174,88 -33,19 -301,182 -427,240 -241,110 -465,157 -678,115 -214,-42 -356,-117 -475,-219 -120,-101 -180,-171 -260,-278 -55,-72 -88,-131 -98,-145 -4,-7 -18,-2 -35,-3 -16,0 -28,-7 -42,-14z"/>
   <path class="fil3" d="M1827 1583c145,135 273,181 273,181 -7,10 -51,73 -51,73 0,0 -70,-52 -131,-114 -58,-57 -105,-120 -105,-120 8,-11 14,-20 14,-20z"/>
   <path class="fil3" d="M4241 2854c-19,224 -89,392 -260,544 -147,131 -361,224 -636,245 -208,16 -397,-33 -456,-49 -61,-18 -109,-28 -147,-32 -21,0 -44,6 -60,11 -1,0 -3,0 -5,0l-23 0c-5,9 -8,16 -14,21 -29,42 -71,96 -182,94 -119,-1 -162,-10 -162,-10 0,0 -4,2 -18,5 -12,5 -82,40 -203,30 -122,-11 -227,-35 -306,-58 -81,-23 -103,-28 -130,-16 -8,6 -14,16 -8,30 19,67 40,117 68,173 24,51 59,102 101,133 42,34 79,56 88,116 5,40 -25,68 -25,68 0,0 23,19 46,19 24,0 73,-26 96,-31 25,-7 67,-16 96,52 0,0 39,18 60,34 19,14 38,45 35,106 -4,63 -11,142 -37,259 -2,11 -10,4 -14,2 -5,-4 -166,-117 -177,-124 -10,-7 -17,-12 -17,-12 0,0 -44,15 -82,-30 -39,-47 -65,-88 -102,-112 -38,-23 -114,-44 -145,-75 -32,-30 -51,-65 -75,-128 -25,-63 -74,-194 -95,-236 -19,-44 -57,-112 -92,-158 -35,-49 -41,-72 -39,-117 2,-46 23,-95 54,-131 0,0 2,-55 41,-90 38,-33 91,-52 215,-64 124,-13 204,-37 278,-77 7,-4 23,-14 26,-20 5,-5 -3,-7 -37,13 -8,7 -84,28 -164,14 -102,-16 -189,-65 -252,-126 -61,-61 -154,-165 -198,-256 -45,-91 -75,-204 -94,-257 -19,-51 -40,-108 -75,-142 -37,-33 -88,14 -104,27 -15,12 -80,66 -126,124 -12,16 -31,37 -31,51 0,10 -9,71 -19,101 -9,28 -35,54 -63,54 -28,2 -48,-7 -48,-7 0,0 4,25 44,60 39,35 67,73 60,108 -7,35 -28,44 -41,51 0,0 -3,28 -3,42 -2,35 -25,63 -54,75 -30,12 -98,35 -244,61 -40,7 -56,4 -56,4 0,0 -3,-2 -1,-11 1,-7 45,-166 49,-183 3,-16 10,-25 10,-25 0,0 -40,-31 -19,-82 21,-51 45,-80 52,-128 7,-47 4,-94 28,-148 25,-56 65,-83 107,-119 42,-37 96,-84 135,-126 40,-42 89,-137 142,-181 52,-45 110,-57 161,-49 0,0 12,4 19,-1 9,-6 45,-37 100,-14 57,26 91,84 126,120 36,37 52,63 195,137 90,45 144,89 181,126 8,-14 31,-47 66,-72 28,-19 63,-28 67,-28 5,0 5,7 5,7 5,56 19,119 24,130 2,5 14,15 14,15 -24,-131 -19,-201 -12,-264 9,-84 18,-122 35,-178 32,-95 75,-161 82,-172 83,77 196,163 324,212 189,70 408,70 611,7 168,-53 297,-105 428,-189l9 10c0,0 40,46 89,104 65,75 135,91 251,105 175,21 309,33 406,136 87,95 141,313 127,492z"/>
   <path class="fil3" d="M1659 1549c3,5 29,62 43,83 0,0 2,7 -17,7 -19,0 -39,-10 -44,-17 -3,-5 -7,-16 -7,-35 0,-18 7,-42 7,-42 0,0 5,0 12,0 0,0 4,-2 6,4z"/>
   <path class="fil2" d="M2105 712c-2,2 -5,4 -7,2 -9,-7 -23,-16 -32,-23 -26,-23 -54,-44 -82,-63 -101,-72 -143,-56 -203,-42l-3 -2c54,-35 115,-40 227,42 16,11 82,62 91,69 2,1 4,0 5,-2 11,-5 21,-11 41,-11 14,0 24,2 33,6 2,0 35,-56 51,-90 17,-38 28,-87 10,-129 0,0 33,35 12,103 -14,46 -38,96 -68,135 0,0 0,2 -2,0 0,0 -14,-7 -33,-7 -21,2 -33,9 -40,12z"/>
   <path class="fil2" d="M2868 320c0,0 -26,-7 -91,-3 -77,5 -121,24 -163,50 -44,27 -65,58 -91,76 -26,15 -54,28 -54,28 54,-6 87,-39 107,-53 70,-54 110,-72 152,-82 44,-11 140,-16 140,-16z"/>
   <path class="fil2" d="M3010 527c75,-2 117,-32 117,-32 -37,12 -90,19 -138,19 -35,0 -83,-3 -144,21 -37,16 -68,39 -86,58 -12,12 -15,19 -15,19 0,0 15,-10 42,-28 17,-12 33,-21 56,-31 57,-26 92,-25 168,-26z"/>
   <path class="fil2" d="M3274 798c45,9 71,2 71,2 0,0 -33,0 -66,-7 -32,-7 -93,-39 -149,-37 -56,0 -100,19 -131,40 -31,21 -44,44 -44,44 0,0 25,-21 49,-33 47,-25 77,-32 130,-35 54,-2 94,19 140,26z"/>
   <path class="fil2" d="M3284 1081c54,7 121,53 158,67 36,14 64,14 64,14 0,0 -36,-7 -70,-25 -35,-19 -75,-47 -127,-63 -55,-15 -104,-12 -144,0 -44,16 -61,30 -61,30 0,0 17,-3 44,-12 42,-14 80,-16 136,-11z"/>
   <path class="fil2" d="M3363 1496c19,9 40,14 56,14 28,0 49,-9 49,-9 0,0 -12,-1 -26,-1 -21,0 -42,-4 -72,-14 -28,-9 -60,-32 -75,-46 -14,-16 -41,-38 -76,-45 -36,-9 -70,1 -70,1 0,0 34,-3 77,14 18,7 35,18 51,30 9,9 33,35 86,56z"/>
   <path class="fil2" d="M1430 1493c-4,28 26,47 47,47 21,0 37,-19 23,-56 -14,-37 -51,-54 -56,-56 -6,0 -11,7 -11,7 0,0 -3,3 2,5 5,0 7,0 16,7 10,5 15,16 15,16 -10,-4 -35,2 -36,30z"/>
   <path class="fil2" d="M1716 908c0,0 -1,5 2,19 4,14 25,44 61,48 23,1 48,-9 62,-25 19,-21 15,-51 15,-51 4,0 20,0 30,-7 11,-7 19,-17 25,-29 3,-11 1,-25 1,-25 0,0 -3,7 -10,16 -5,7 -16,19 -32,21 -15,3 -35,-5 -36,-7 0,-2 -2,-2 -6,0 -3,2 -3,2 -3,2 0,0 3,12 2,24 0,12 -7,25 -20,33 -12,9 -22,9 -22,9 12,-26 12,-42 12,-54 0,-12 -7,-18 -7,-18 0,0 -9,-5 -26,-3 -23,2 -35,19 -39,23 -3,3 -10,7 -24,5 -16,0 -32,-5 -32,-5 0,0 4,5 14,14 11,8 33,10 33,10z"/>
   <path class="fil2" d="M1762 810c-23,4 -39,18 -42,30 -5,12 -9,30 -9,30 -2,1 4,1 4,1 0,0 3,-10 14,-22 17,-20 40,-23 63,-20 17,4 33,9 33,9 0,0 3,4 5,0 0,-2 -3,-3 -3,-3 0,0 -4,-4 -13,-9 -12,-7 -29,-18 -52,-16z"/>
   <path class="fil2" d="M1911 1169c54,-70 105,-145 154,-221 14,-21 29,-43 43,-66 0,0 4,-7 7,-12 2,-4 16,0 23,1 35,6 70,-14 86,-38 37,-53 10,-96 -2,-107 0,0 0,-2 0,-2 2,-1 4,-3 4,-3 15,-23 28,-49 40,-77 16,-35 26,-72 28,-105 0,-32 -16,-72 -51,-95 0,0 42,41 35,107 -7,56 -40,128 -75,173l5 7c12,14 30,58 2,95 -32,38 -72,31 -84,28 -5,0 -12,-4 -16,-5l-19 29c-14,23 -28,46 -42,69 -32,49 -65,96 -98,143 -30,40 -60,81 -91,121 -26,33 -81,100 -121,145 -19,21 -26,32 -26,32 0,0 10,1 28,-18 0,0 98,-107 170,-201z"/>
   <path class="fil2" d="M3139 3499c108,18 317,21 541,-66 201,-81 316,-210 316,-210 -89,86 -302,192 -428,222 -193,44 -343,35 -527,16 -178,-19 -215,10 -215,10 84,-19 203,13 313,28z"/>
   <path class="fil2" d="M3008 3018c91,-103 94,-243 94,-243 0,0 -12,32 -37,102 -24,68 -69,126 -108,166 -65,63 -164,115 -164,115 0,0 105,-12 215,-140z"/>
   <path class="fil2" d="M2301 3438c-33,32 -74,54 -187,70 -114,16 -245,5 -268,4 -16,0 -25,7 -25,7 0,0 168,22 312,10 164,-12 205,-58 227,-89 21,-33 28,-74 -24,-107 -53,-33 -145,-30 -145,-30 7,11 19,9 19,9 35,5 72,18 100,40 29,25 26,53 -9,86z"/>
   <path class="fil2" d="M1538 3599c-4,5 -9,18 -12,25 -9,19 -23,35 -42,43 -11,6 -19,4 -32,4 0,0 -1,5 -1,5 29,21 50,54 61,81 29,68 49,110 64,138 9,16 16,26 23,35 5,5 9,7 9,7 -72,-156 -74,-215 -77,-252 -7,-51 10,-86 10,-86 0,0 -3,0 -3,0z"/>
   <path class="fil2" d="M1655 2950c-42,4 -70,-23 -129,-93 -58,-71 -114,-166 -142,-215 -28,-49 -56,-91 -56,-91 0,0 21,51 53,116 29,64 59,122 96,185 37,61 99,151 161,151 63,0 98,-51 94,-121 -3,-65 -56,-140 -56,-140 23,56 35,98 33,133 -1,38 -17,72 -54,75z"/>
   <path class="fil2" d="M950 2339l-7 2c-5,32 -17,46 -35,67 -16,21 -42,47 -65,71 -19,20 -91,95 -91,95 0,0 84,-70 105,-89 55,-53 91,-76 119,-86 27,-11 53,-9 53,-9l2 -7c-13,2 -32,2 -53,-7 -21,-10 -28,-37 -28,-37z"/>
   <path class="fil2" d="M1725 2509c-7,5 -17,23 -17,23 0,0 47,42 92,122 37,67 51,121 51,121 -5,-45 -19,-87 -35,-124 -17,-40 -38,-88 -91,-142z"/>
   <path class="fil2" d="M3072 2345c49,50 86,133 88,145 2,14 7,14 7,14 0,-4 -2,-37 -19,-77 -16,-40 -46,-86 -84,-116 -77,-57 -133,-63 -133,-63 9,11 16,11 16,11 47,17 83,44 125,86z"/>
   <path class="fil2" d="M2077 423c-18,-3 -39,-17 -56,-47 -18,-28 -28,-72 -33,-96 -6,-21 -14,-30 -14,-30 0,0 3,14 5,19 3,16 5,41 10,69 4,28 7,40 28,70 20,28 56,38 74,29 16,-7 16,-21 16,-21 -2,2 -11,11 -30,7z"/>
   <path class="fil2" d="M1713 1332c10,-11 33,-37 49,-55 42,-49 82,-99 122,-150 70,-91 139,-203 202,-298 0,0 -6,-7 -11,-19 -7,-12 -9,-33 -5,-51 2,-5 5,-14 5,-14 4,-8 -9,-17 -14,-22 -5,-6 -19,-16 -28,-25 -73,-66 -152,-108 -231,-110 0,0 103,19 208,108 0,0 39,35 42,39 2,2 2,2 6,5 1,0 1,4 0,9 0,2 -6,10 -6,33 -1,28 14,44 14,44 0,0 2,5 -1,9 -2,1 -139,218 -214,315 -38,49 -77,96 -117,143 -16,18 -30,33 -46,51 0,0 -3,3 -5,2 -5,-4 -19,-11 -42,-13 -19,-1 -35,4 -42,6 0,1 -2,0 -2,0 0,0 -28,-32 -52,-51 -38,-28 -61,-33 -68,-33 -7,-2 -11,3 -11,3 -7,5 -3,7 0,9 7,0 11,0 30,9 30,14 42,26 56,38 24,23 37,37 40,40 5,6 9,6 12,4 4,-2 7,-4 25,-7 16,-2 31,3 35,3 7,2 14,6 16,7 1,0 3,2 5,0 7,-3 19,-21 28,-29z"/>
   <path class="fil2" d="M1974 453c21,16 36,18 49,18 22,0 33,-7 33,-7 -25,3 -70,-13 -93,-51 -9,-14 -14,-26 -17,-47 -4,0 -20,-11 -20,-11 0,2 7,35 7,37 7,23 27,49 41,61z"/>
   <path class="fil2" d="M2224 1849c-4,4 -5,6 -2,7 2,2 4,0 4,0 0,0 75,-77 133,-161 124,-178 215,-351 164,-561 -51,-210 -224,-355 -224,-355 -2,1 11,14 11,14 0,0 73,89 129,196 86,162 82,288 44,432 -42,154 -214,376 -259,428z"/>
   <path class="fil2" d="M2677 3613c26,-40 46,-149 51,-189 5,-38 16,-56 42,-108 30,-60 23,-111 23,-111 -20,67 -32,88 -55,123 -24,35 -38,68 -45,100 -9,29 -14,80 -40,147l24 38z"/>
   <path class="fil2" d="M1984 4432c2,0 5,-2 9,-3 17,-14 49,-51 72,-90 24,-43 40,-78 43,-87 9,-21 13,-32 14,-44 0,-9 -21,-19 -21,-10 2,8 -5,31 -8,40 -4,9 -21,52 -44,98 -23,47 -53,86 -67,96l2 0z"/>
   <path class="fil2" d="M520 3008c7,0 8,0 26,0 33,0 94,5 157,21 28,7 69,21 86,33l0 -14 0 -7c-82,-44 -198,-44 -247,-40 -15,0 -17,0 -24,2 -9,0 -5,3 2,5z"/>
   <path class="fil2" d="M2180 2905c-124,49 -180,110 -215,154 -46,-125 -23,-245 -12,-296 38,-168 134,-284 194,-336 98,-88 212,-133 212,-133 -137,35 -230,112 -315,205 -84,94 -119,183 -144,273 -24,91 -23,154 -3,246 3,23 10,44 19,63 0,2 0,2 0,4 23,87 -19,161 -19,161l15 -4c0,0 18,-7 28,-21 9,-10 20,-44 25,-61l0 0c38,-108 135,-168 163,-187 85,-58 190,-86 316,-61 95,19 161,64 161,64 -140,-117 -302,-120 -425,-71z"/>
   <path class="fil2" d="M2219 390c-7,4 -21,9 -39,11 5,31 -2,57 -14,78 -14,27 -38,39 -59,41 -21,3 -39,-4 -34,1 6,6 16,9 28,11 42,5 67,-14 77,-28 21,-23 30,-49 35,-67 4,-14 6,-29 6,-47z"/>
  </g>
 </g>
</svg>
