<?xml version="1.0" encoding="UTF-8"?>
<!DOCTYPE svg PUBLIC "-//W3C//DTD SVG 1.1//EN" "http://www.w3.org/Graphics/SVG/1.1/DTD/svg11.dtd">
<!-- Creator: CorelDRAW X8 -->
<svg xmlns="http://www.w3.org/2000/svg" xml:space="preserve" width="210mm" height="154.169mm" version="1.1" style="shape-rendering:geometricPrecision; text-rendering:geometricPrecision; image-rendering:optimizeQuality; fill-rule:evenodd; clip-rule:evenodd"
viewBox="0 0 21000 15417"
 xmlns:xlink="http://www.w3.org/1999/xlink">
 <defs>
  <style type="text/css">
   <![CDATA[
    .fil0 {fill:#00588D}
    .fil1 {fill:white}
   ]]>
  </style>
 </defs>
 <g id="Vrstva_x0020_1">
  <metadata id="CorelCorpID_0Corel-Layer"/>
  <g id="_3004299051200">
   <path class="fil0" d="M15441 8196l-2396 -6875 -8802 3066 2396 6876 8802 -3067zm-4941 -3387l0 0 630 0 0 1448c333,-429 807,-1027 1128,-1448l767 0 -1072 1264 1136 1874 -771 0 -811 -1453 -377 418 0 1035 -634 0 0 -3138 4 0zm-3620 0l959 0c225,734 506,1830 590,2307l4 0c68,-409 429,-1565 666,-2307l923 0 0 3142 -618 0 0 -1176 0 0 0 -1525c-140,650 -461,1810 -734,2701l-554 0c-201,-746 -534,-2067 -662,-2709l-29 0c29,365 41,1052 41,1593l0 1120 -586 0 0 -3146z"/>
   <polygon class="fil0" points="13607,0 5005,2998 5178,3500 13282,678 15569,7245 16071,7068 "/>
   <path class="fil1" d="M10496 4809l0 0 630 0 0 1448c333,-429 807,-1027 1128,-1448l767 0 -1072 1264 1136 1874 -767 0 -811 -1453 -377 418 0 1035 -634 0 0 -3138zm-3616 0l959 0c225,734 506,1830 590,2307l4 0c68,-409 429,-1565 666,-2307l923 0 0 3142 -618 0 0 -1176 0 0 0 -1525c-140,650 -461,1810 -734,2701l-554 0c-201,-746 -534,-2067 -662,-2709l-29 0c29,365 41,1052 41,1593l0 1120 -586 0 0 -3146z"/>
   <polygon class="fil0" points="16778,13165 17231,12772 17107,12599 16693,12836 16669,12836 16260,12599 16135,12772 16589,13165 "/>
   <path class="fil0" d="M2143 13310l-441 0c-101,0 -161,48 -185,148l-249 1028c-8,40 -20,96 -32,168 -12,73 -20,113 -24,121l-40 0c-20,-129 -36,-225 -52,-289l-253 -1028c-20,-96 -80,-148 -181,-148l-441 0c-109,0 -165,56 -169,168l-76 1891 438 0 60 -1706 52 0 313 1276c20,97 80,145 185,145l301 0c104,0 164,-48 184,-145l309 -1276 53 0 68 1706 429 0 -80 -1891c-4,-108 -60,-168 -169,-168z"/>
   <path class="fil0" d="M3508 13274c-333,0 -562,76 -690,228 -129,153 -193,434 -193,843 0,410 64,691 193,843 128,153 357,229 690,229 333,0 562,-76 690,-229 129,-152 193,-433 193,-843 0,-409 -64,-690 -193,-843 -128,-152 -361,-228 -690,-228zm317 1625c-56,96 -164,145 -317,145 -152,0 -261,-49 -317,-145 -56,-96 -84,-285 -84,-558 0,-273 28,-457 84,-554 56,-96 165,-148 317,-148 153,0 261,48 317,148 56,97 84,281 84,554 0,273 -28,462 -84,558z"/>
   <path class="fil0" d="M4869 14887c0,104 -65,161 -197,161l-140 0 -53 305c85,40 213,60 378,60 148,0 261,-40 345,-121 80,-80 120,-196 120,-345l0 -1637 0 0 -453 0 0 1577z"/>
   <path class="fil0" d="M6129 13707c20,-24 56,-36 108,-36l791 0 20 -337c-188,-20 -506,-28 -955,-28 -137,0 -249,36 -329,112 -81,76 -125,177 -125,305l0 1248c4,129 44,229 125,305 80,77 192,113 329,113 449,0 771,-12 955,-32l-20 -333 0 0 -791 0c-48,0 -84,-13 -108,-37 -20,-24 -32,-64 -32,-120l0 -397 823 0 0 -329 -823 0 0 -314c0,-60 8,-96 32,-120z"/>
   <path class="fil0" d="M8995 14494c-44,-73 -100,-133 -173,-181l0 -12c64,-48 117,-104 149,-165l534 -822 -494 0 -522 827 -177 0c13,-77 21,-157 21,-245l0 -586 -454 0 0 2063 454 0 0 -711c0,-52 -8,-116 -21,-196l177 0 542 907 450 0 20 -60 -506 -819z"/>
   <path class="fil0" d="M10665 13310l-430 0c-36,0 -72,12 -100,32 -32,24 -48,52 -56,88l-574 1883 36 60 409 0 149 -542 706 0 149 542 461 0 -590 -1943c-20,-80 -72,-120 -160,-120zm-470 1172l173 -630c4,-21 12,-57 24,-101 12,-44 16,-76 20,-96l80 0c4,28 16,96 40,193l173 630 -510 0 0 4z"/>
   <polygon class="fil0" points="9481,15373 9541,15373 9501,15313 "/>
   <path class="fil0" d="M12712 14421l0 -16c140,-16 240,-68 305,-156 64,-88 92,-205 92,-357 0,-233 -56,-390 -173,-478 -116,-88 -313,-132 -590,-132 -337,0 -602,8 -786,28l0 2063 449 0 0 -807 321 4c61,0 109,12 141,36 32,24 60,72 80,137l157 630 481 0 -180 -642c-45,-169 -141,-273 -297,-310zm-133 -264c-44,40 -124,60 -245,60l-329 0 0 0 0 0 0 -578 329 -4c121,0 205,20 245,60 44,40 64,116 64,229 0,112 -20,192 -64,233z"/>
   <polygon class="fil0" points="13229,13683 13847,13683 13847,15373 14305,15373 14305,13683 14919,13683 14919,13314 13229,13314 "/>
   <rect class="fil0" x="15108" y="13314" width="454" height="2063"/>
   <path class="fil0" d="M16705 15016c-148,0 -253,-49 -305,-141 -56,-96 -80,-273 -80,-530 0,-261 28,-437 80,-530 56,-96 157,-140 305,-140 225,0 418,4 582,16l40 -341c-180,-44 -389,-68 -618,-68 -321,0 -542,80 -674,240 -128,161 -193,438 -193,827 0,394 65,671 193,827 128,161 353,241 674,241 261,0 482,-28 663,-84l-41 -338c-144,12 -349,21 -626,21z"/>
   <path class="fil0" d="M18716 13310l-522 826 -176 0c16,-76 20,-156 20,-244l0 -582 -454 0 0 2063 454 0 0 -711c0,-52 -8,-116 -20,-196l176 0 546 907 510 0 -542 -883c-44,-73 -100,-133 -172,-181l0 -12c64,-48 116,-104 148,-165l518 -802 -12 -20 -474 0z"/>
   <path class="fil0" d="M20530 13310l-345 754c-24,64 -52,153 -76,261l-28 0c-32,-128 -56,-217 -76,-261l-346 -754 -449 0 -12 20 670 1360 0 683 458 0 0 -683 674 -1380 -470 0z"/>
   <polygon class="fil0" points="19186,13310 19194,13334 19210,13310 "/>
  </g>
 </g>
</svg>
