<?xml version="1.0" encoding="UTF-8"?>
<!DOCTYPE svg PUBLIC "-//W3C//DTD SVG 1.1//EN" "http://www.w3.org/Graphics/SVG/1.1/DTD/svg11.dtd">
<!-- Creator: CorelDRAW X8 -->
<svg xmlns="http://www.w3.org/2000/svg" xml:space="preserve" width="210mm" height="101.907mm" version="1.1" style="shape-rendering:geometricPrecision; text-rendering:geometricPrecision; image-rendering:optimizeQuality; fill-rule:evenodd; clip-rule:evenodd"
viewBox="0 0 21000 10191"
 xmlns:xlink="http://www.w3.org/1999/xlink">
 <defs>
  <style type="text/css">
   <![CDATA[
    .fil13 {fill:black}
    .fil9 {fill:#000316}
    .fil5 {fill:#01020B}
    .fil2 {fill:#020203}
    .fil3 {fill:#0B0000}
    .fil1 {fill:#11457E}
    .fil4 {fill:#130000}
    .fil8 {fill:#1B0101}
    .fil12 {fill:#BB2527}
    .fil0 {fill:#CB1E22}
    .fil10 {fill:#F4FFFF}
    .fil6 {fill:#F8F8F8}
    .fil7 {fill:#FBFBFB}
    .fil11 {fill:#FEF7F6}
   ]]>
  </style>
 </defs>
 <g id="Vrstva_x0020_1">
  <metadata id="CorelCorpID_0Corel-Layer"/>
  <path class="fil0" d="M14429 179l19 9c0,13 2,34 1,46 -4,39 3,-18 -4,21 -1,2 -3,10 -4,9 0,-2 -2,5 -4,8 -29,-12 -16,7 -27,-26 -5,-16 3,-31 5,-42l-787 283c-9,297 1,606 -2,905l-20 1789c-2,258 -9,597 -40,849l-4 109c37,-6 12,-13 40,6l-5 70c120,-25 271,-45 401,-62 79,-11 360,-36 415,-54 15,-107 -3,-420 -4,-551l9 -837c0,-99 -16,-191 31,-252 37,-49 209,-306 241,-323l12 40c22,5 12,3 23,8l15 7c1,1 5,3 7,4 39,15 21,-2 37,55l59 204c59,211 140,721 128,922l-111 1136c-12,90 -1,77 17,85 2,1 6,2 8,2l13 44 66 -52c236,-168 396,-325 601,-500 77,-65 66,-48 74,-176 11,-151 23,-309 33,-458 21,-302 83,-600 53,-912 -17,-179 -79,-520 -186,-672 -20,-28 -38,-42 -53,-68 -21,-33 -4,-17 -46,-41 -17,-10 -34,-18 -52,-27 -35,-17 -77,-29 -101,-56 -120,-48 -261,-129 -391,-154 -37,7 -332,416 -401,453l2 -54 -28 17 -9 -37 -41 20c-8,-193 4,-1567 41,-1633l-2 -145 -28 -1 -1 32z"/>
  <path class="fil0" d="M11721 4110c9,-3 162,52 204,61 85,19 184,25 276,23 448,-10 704,-227 867,-616 41,-98 44,-120 120,-178l38 -105c-49,27 -100,109 -137,146l20 -63c-45,21 -19,30 -67,42l22 -48c-55,31 -68,53 -148,78 -74,23 -126,21 -203,11 -117,-14 -253,-61 -331,-129 -53,-34 -98,-83 -145,-114 -134,-63 -86,-272 -77,-415 5,-96 17,-402 41,-469 55,0 93,28 126,55 41,47 72,42 113,72 23,15 63,70 82,103 24,40 39,83 57,139 112,-86 600,-177 677,-210 19,-118 -40,-350 -72,-455 -64,-217 -141,-253 -178,-339 -34,-75 -125,-69 -207,-120 -167,-43 -303,-71 -486,-80 -79,-4 -186,-17 -262,-15 -94,2 -524,449 -603,531 -89,92 -59,53 -70,214 -36,484 -66,1096 100,1550 25,68 63,136 102,185 24,30 44,44 65,71 33,42 23,51 76,75z"/>
  <path class="fil0" d="M17591 2385c15,17 10,13 29,30l38 22 -32 87c14,29 -7,2 22,28 33,30 93,50 102,56 40,26 19,3 33,42 113,104 245,526 304,725 40,135 72,276 102,412 25,111 94,348 95,434 69,-57 293,-124 398,-155 337,-102 270,-30 336,-215 29,-82 117,-359 150,-400 31,-39 94,-93 138,-138l388 -426c90,-119 134,-205 160,-393 26,-180 45,-325 -3,-505 -85,-325 -94,-202 -178,-358 -13,-28 5,-3 -20,-29 -4,-5 -15,-13 -19,-16 -27,-18 -29,-19 -66,-21 -42,40 -222,137 -288,174 -58,34 -258,134 -289,164 26,9 15,-2 41,21 42,37 12,5 23,37 31,24 22,7 30,53l-50 21c16,60 -4,7 31,38 9,8 6,2 18,17 22,25 2,-16 12,23 31,21 72,74 93,113 30,58 18,109 13,176 -11,119 -38,243 -65,350 -19,76 -143,559 -208,617l-14 -36c-42,-16 -8,16 -38,-32l-24 15c-66,-126 -247,-1095 -451,-1542 -13,-29 -25,-62 -45,-92 -19,-27 -47,-52 -46,-69 -47,-69 -138,-52 -202,-109l-219 -41c-32,46 -119,383 -147,470l-152 452z"/>
  <path class="fil0" d="M10336 2189c-19,-24 -25,-52 -36,-82l-26 58 -30 -280c-8,-264 -55,-121 -39,-265 -142,7 -620,-80 -700,-57 -28,409 -21,862 -29,1274 -5,217 -5,419 26,626 39,263 90,313 179,487 24,-4 10,-7 30,11 11,9 24,30 32,42 36,36 60,82 110,107 1,0 522,73 616,48 39,-10 130,-317 142,-352 37,-107 108,-274 129,-383 -24,-11 -21,9 -18,-19l-48 -4c5,-55 12,-44 24,-83 -55,-4 -125,-20 -168,-31 -49,-14 -115,-27 -137,-76l-27 -17c-51,-14 -48,-21 -51,-82 -3,-46 -4,-90 -7,-136 -14,-181 203,-513 253,-553 41,9 67,19 95,51 17,17 6,3 22,18 15,13 7,4 20,20 30,6 32,6 52,36 75,19 164,121 226,141 11,-101 209,-831 228,-1033l-8 -18 -40 -16c-2,-40 5,-71 23,-102 -34,5 -6,8 -44,0 -31,-6 -26,-11 -34,-17 -252,-70 -438,-17 -556,138 -54,70 -168,456 -187,574 -43,-3 -15,5 -22,-25z"/>
  <path class="fil0" d="M17191 1541c24,5 14,0 28,12 -2,80 -5,62 -29,75l-14 -59c-146,85 -360,180 -521,241 -729,273 -540,12 -649,502 9,28 -2,16 15,32l40 7 -18 96c140,-2 171,-5 301,-25l0 39c53,4 16,-11 36,21l40 -2c27,242 11,599 10,850 -1,114 -37,805 -28,839 57,-3 18,0 35,10l-4 72c133,-15 733,-111 826,-152l-45 -1205c-18,-402 -9,-821 -3,-1227l26 -20c-19,-24 -29,-68 -46,-106z"/>
  <path class="fil1" d="M15935 9799c77,-67 294,-93 327,-138 32,-68 66,-248 114,-296 43,7 177,62 202,105 2,2 5,2 6,6 1,3 5,4 6,5l48 33c11,6 23,10 31,16 35,24 14,4 30,32 61,15 112,49 145,116 35,-80 204,-284 230,-361l-120 -152c-19,-54 -52,-33 -109,-48 -91,-24 -87,-24 -183,-14l-12 -16c-41,-53 -35,5 -25,-49l-54 3c18,-75 85,-178 120,-234 57,-92 71,-154 72,-286l-313 101c1,144 47,129 -2,401 -22,121 -63,248 -103,354l-15 -47c-30,7 -9,-7 -34,13l-11 -63c-8,36 1,24 -24,44 -28,-40 -76,-571 -83,-661 -17,-220 -38,-498 6,-709 -145,35 -290,118 -407,145 -19,526 167,1500 158,1700z"/>
  <path class="fil1" d="M6887 9581l330 -17 139 -206c29,-43 18,-46 62,-53 29,26 12,4 26,39l55 32c80,62 32,-12 111,82 32,38 37,18 60,57 35,35 107,127 119,201 32,-29 36,-35 70,-61 29,-23 49,-37 77,-61 45,-42 102,-98 150,-124 -5,-73 -38,-119 -69,-178l-87 -149 -157 -31c-14,-37 9,30 2,-21 -4,-26 15,8 -17,-21 -36,-32 -5,27 -15,-16l-52 -2c12,-62 141,-169 184,-207 61,-54 121,-149 140,-264l-306 15c-11,16 -3,-2 -11,25 -2,8 -4,20 -5,29l-32 153c-63,201 -165,324 -261,482 -14,-17 -14,20 -13,-45 0,-9 6,-25 9,-36l-42 47 2 -47c-24,13 -28,20 -47,28 -11,-65 92,-614 114,-714 37,-170 73,-324 130,-488 20,-57 48,-105 63,-160 -74,0 -367,7 -409,41 -19,15 -14,-3 -35,80 -9,36 -18,67 -26,101 -121,507 -168,986 -259,1489z"/>
  <path class="fil1" d="M5644 8804c3,1 6,4 7,5l31 43c65,99 327,118 390,162 65,1 114,21 161,44 96,46 105,7 128,99 -201,74 -424,-4 -605,-92 -74,-35 -83,-76 -138,-87l-104 151c21,58 35,79 94,96 23,-15 -5,-11 31,1l122 51c188,61 413,91 606,44 171,-43 297,-200 328,-359 21,-109 -2,-105 -20,-187l-34 1c-159,-46 -344,-60 -474,-169l-72 -66c-24,-21 2,-7 -26,-19 -56,-14 -103,-86 -101,-161 57,-15 375,117 453,153 48,22 92,49 140,69 43,-105 76,-175 132,-264 -87,-5 -301,-75 -388,-102 -198,-62 -180,-81 -381,-4 -377,143 -377,479 -280,591z"/>
  <path class="fil0" d="M16420 1187c62,35 41,77 109,112 5,-1 132,38 190,38 202,1 372,-158 429,-320 66,-190 14,-478 -56,-628 -50,-106 -78,-95 -92,-147 -13,-21 17,-4 -29,-28 -23,-11 -7,-2 -27,-5 -34,-6 -32,1 -58,-26 -101,8 -191,-44 -360,64 -191,122 -274,397 -215,626 71,276 32,121 109,314z"/>
  <path class="fil1" d="M18348 9996c63,-32 189,-6 264,-34 29,-18 165,-359 173,-381 169,-457 -69,-799 -45,-1445l-415 123c-39,250 219,1172 203,1295l-176 -32c-16,64 -64,185 -68,234 -5,67 68,155 64,240z"/>
  <path class="fil1" d="M3379 8503c2,2 5,3 6,7 5,25 41,49 60,54 52,1 99,32 158,50 55,16 119,29 179,25 131,-8 206,-79 287,-127 -134,-10 -176,-105 -243,-156l-29 -17c-244,-88 33,-533 66,-549 29,19 16,-3 22,35 95,33 152,75 147,207 68,-28 247,21 327,25 24,-86 41,-144 14,-248 -25,-94 -61,-109 -97,-177 -15,-13 -51,-24 -56,-26l-174 -81c-42,-18 -52,-14 -79,-46 -88,1 -270,69 -352,99 -94,35 -80,16 -117,102 -59,137 -153,346 -183,480 -45,200 9,216 64,343z"/>
  <path class="fil1" d="M13146 9946l395 -58 -25 -709c4,-53 66,-116 97,-161 -43,-2 -23,30 -33,-55 -11,20 -1,8 -23,23l-2 -34c-67,38 -48,-38 -52,-119 -3,-72 -5,-144 -6,-215 -2,-143 0,-288 -3,-430l-370 137c1,543 34,1072 22,1621z"/>
  <path class="fil1" d="M9428 9864c53,-29 309,-30 399,-30l53 -730c10,-34 64,-71 91,-101 19,-20 18,-20 31,-43 -34,-3 -10,12 -27,-10l3 -37c-15,7 -15,3 -36,18l1 -37c-29,19 -11,15 -46,19 -9,-238 43,-538 60,-779 -64,11 -128,30 -191,44 -55,12 -144,23 -179,54 -34,46 -82,1419 -159,1632z"/>
  <path class="fil2" d="M3295 6315c36,-1 323,112 385,134 51,19 349,113 381,143 33,-6 532,151 610,174 47,14 167,33 196,68 44,-7 101,14 164,30l43 15c2,0 6,2 9,3 76,8 109,20 133,43 41,-6 680,146 779,168l593 117c30,5 67,12 99,17 35,6 79,10 106,29l118 17c3,2 7,3 10,5 45,-10 577,83 673,97 115,16 228,33 342,47 96,12 265,23 351,47 155,0 384,42 542,57 95,9 181,16 275,26 82,9 186,12 264,23 99,16 636,34 670,61 73,-11 862,29 888,45l17 -7c120,9 297,13 420,14 148,2 291,2 439,6 140,3 822,-11 891,9 70,-35 274,-16 369,-16l1151 -45 282 -21 1102 -94 225 -24 439 -54c112,-18 237,-32 355,-49 106,-15 257,-30 356,-54 44,-8 75,-20 119,-11 39,-24 120,-29 167,-38l1073 -218c2,-1 704,-180 843,-228 47,-17 83,-26 132,-41 44,-13 97,-42 138,-36 17,-14 -1,-4 33,-21 10,-4 12,-4 26,-9 50,-17 141,-54 173,-52 38,-28 79,-38 156,-66 56,-21 104,-41 156,-62 104,-42 198,-93 309,-130l27 -16c1,-1 21,-11 22,-12l139 -68c60,-31 116,-61 179,-95 66,-36 307,-173 345,-216l-62 24 -441 228c-144,78 -310,152 -461,216 -946,400 -2163,680 -3203,835 -1651,246 -3328,354 -5054,333 -3078,-37 -6706,-500 -9125,-1642 44,61 575,242 632,294z"/>
  <path class="fil1" d="M13656 8982c17,-14 17,12 26,32 26,7 -1,-5 18,9l17 14c35,-21 43,44 58,83 157,424 109,556 81,985 62,-60 322,-219 334,-286l30 -594c-2,-58 -12,-127 -26,-180 -9,-36 -58,-136 -58,-137 -25,-25 -1,-10 -45,-21 -69,-30 -214,-87 -283,-91 -27,44 -35,55 -76,90 -34,29 -54,62 -76,96z"/>
  <path class="fil1" d="M10023 8942c37,-12 30,11 31,43 32,-17 14,-2 41,6 40,14 25,-6 43,52 106,334 78,685 -17,1031 92,-48 187,-105 268,-160 130,-88 82,-62 124,-312 31,-183 91,-382 46,-570 -20,-84 -47,-94 -68,-149 -17,-15 -107,-47 -142,-63 -41,-18 -92,-53 -143,-48 -35,25 -65,56 -96,83 -33,28 -66,58 -87,87z"/>
  <path class="fil3" d="M2737 5319c41,40 175,92 248,116 98,33 192,48 307,61 301,35 464,-55 663,-89l172 -69 118 -58 88 -47 180 -111c18,-25 206,-151 254,-193 79,-53 162,-157 239,-197 17,-36 182,-189 223,-230 40,-39 75,-77 112,-118 25,-29 73,-90 106,-106 27,-58 132,-160 180,-216 35,-42 142,-181 177,-196 19,-46 55,-78 85,-115 29,-35 52,-75 85,-92 14,-36 109,-155 140,-188 35,-35 60,-24 128,-32 53,-5 107,-5 160,-8l374 -31c103,-5 226,-6 331,-15 120,-11 208,1 323,3l356 22 -12 -32c-378,-58 -925,-24 -1319,11 -148,14 -340,-4 -393,64 -276,354 -557,671 -842,983 -552,605 -1456,1269 -2331,946 -57,-21 -106,-51 -152,-63z"/>
  <path class="fil4" d="M7968 5157c-24,48 -36,28 -39,72 33,-15 89,-44 123,-46 18,-22 -5,-3 26,-23l258 -112c74,-45 271,-111 367,-145 78,-28 321,-102 379,-139l-8 -92c-2,-2 -4,-10 -4,-8 -1,2 -4,-6 -5,-8 -1,-2 -3,-6 -4,-9l-28 -136c-14,-33 -20,-75 -16,-115 -23,-29 -36,-154 -41,-195 -26,-66 -53,-339 -67,-433 -21,-143 -41,-298 -57,-449 -61,-586 -148,-1213 -216,-1812 -25,-212 -64,-439 -117,-642 -17,-65 -44,-148 -57,-218l-24 -69c-9,-10 -62,-124 -77,-151 -32,-54 -68,-109 -116,-137 73,158 116,126 204,448 141,516 192,1166 255,1709 77,666 155,1349 275,2006 18,93 49,185 59,277 -33,24 -634,232 -806,309l-264 118z"/>
  <path class="fil2" d="M2288 147c-16,27 -377,280 -436,323 -396,288 -891,741 -1172,1134 -365,512 -592,1085 -340,1751 47,125 209,432 285,484 -5,-34 -15,-38 -36,-68 -17,-23 -24,-36 -41,-62 -33,-50 -58,-82 -80,-149 -17,-9 -3,2 -17,-19 -5,-8 -11,-19 -16,-28 -15,-30 -24,-39 -23,-75 -28,-27 -47,-92 -60,-129 -18,-54 -28,-105 -42,-162l-36 -229c-20,-175 32,-452 80,-585 82,-275 218,-490 375,-715 104,-149 476,-561 598,-652 54,-41 231,-224 287,-234 18,-44 5,-22 46,-52 23,-18 32,-26 57,-46 32,-25 73,-63 113,-82 28,-32 233,-185 277,-204 41,-44 154,-114 212,-155 37,-26 69,-45 112,-73 37,-25 79,-46 108,-73 20,-9 14,-4 31,-16 30,-22 12,-5 31,-31 -126,28 -241,134 -313,147z"/>
  <path class="fil3" d="M18284 4221c-19,28 -15,9 -14,46 47,-17 111,-58 162,-60 20,-22 -9,-3 35,-24l110 -39c48,-16 110,-44 162,-40 3,-2 6,-5 8,-6l122 -40c40,-11 124,-17 144,-50 24,-40 18,-57 36,-81l57 -161 22 -67 35 -99c20,-111 69,-136 128,-199 160,-169 317,-314 460,-503 128,-167 207,-553 167,-793 -13,-78 -50,-180 -67,-261 -25,-25 -53,-85 -81,-119 -34,-39 -59,-67 -97,-94 84,156 93,33 178,358 48,180 29,325 3,505 -26,188 -70,274 -160,393l-388 426c-44,45 -107,99 -138,138 -33,41 -121,318 -150,400 -66,185 1,113 -336,215 -105,31 -329,98 -398,155z"/>
  <path class="fil1" d="M18247 7924l20 15c7,-3 104,18 162,3 51,-13 104,-51 131,-87 118,-158 -10,-286 7,-314l-33 -16c-21,-10 -9,13 -16,-8 -2,-4 -6,-2 -8,-4 -149,5 -225,14 -286,121 -70,124 -23,190 23,290z"/>
  <path class="fil3" d="M14898 4643c-1,2 -12,19 -13,20 -38,53 -29,14 -36,66 90,-41 260,-199 311,-212 20,-29 65,-72 100,-81 2,-3 5,-10 6,-8l392 -344c29,-64 13,-89 27,-152l13 -202 24 -302 47 -522 4 -103c-5,-163 -3,-291 -34,-441 -27,-135 -69,-244 -97,-362 -18,-19 -41,-73 -61,-100 -27,-39 -57,-61 -81,-92l-14 -3c15,26 33,40 53,68 107,152 169,493 186,672 30,312 -32,610 -53,912 -10,149 -22,307 -33,458 -8,128 3,111 -74,176 -205,175 -365,332 -601,500l-66 52z"/>
  <path class="fil3" d="M16433 4251c-32,33 2,9 -44,31 51,25 362,-41 445,-57 88,-16 383,-82 450,-75 20,-24 15,-11 20,-51 3,-32 -4,-29 4,-69 -17,-27 -13,-62 -14,-103l-12 -294 4 -51 -13 -45c-2,-9 -2,-35 -2,-46 -1,-37 -2,-57 4,-93 -19,-25 -14,-52 -14,-90l-2 -299c-1,-132 -11,-246 -12,-382l9 -532 0 -211c1,-46 0,-91 1,-137 0,-12 1,-60 0,-69 -5,-29 16,-37 -20,-31l-26 20c-6,406 -15,825 3,1227l45 1205c-93,41 -693,137 -826,152z"/>
  <path class="fil4" d="M3473 4557c-63,-85 -138,-128 -146,-287 -6,-116 8,-289 55,-381 10,-54 39,-117 60,-165 27,-61 63,-109 80,-161l467 -48c107,-15 478,-58 574,-42l910 -61 8 -35c-315,-16 -1468,97 -1860,136 -76,8 -126,-2 -160,58 -53,94 -101,203 -133,316 -80,286 -68,544 145,670z"/>
  <path class="fil3" d="M13597 4215c-31,49 -18,3 -42,41 217,-9 665,-133 849,-107 2,-2 7,-6 8,-4l48 -23 4 -92c-2,-2 -3,-6 -4,-8l-6 -17c-1,-3 -2,-6 -2,-10 -11,-68 7,-567 9,-631l0 -62c-1,-151 0,-302 0,-453 0,-77 1,-153 0,-230 0,-85 4,-118 57,-156l98 -143c28,-52 72,-92 86,-144l-12 -40c-32,17 -204,274 -241,323 -47,61 -31,153 -31,252l-9 837c1,131 19,444 4,551 -55,18 -336,43 -415,54 -130,17 -281,37 -401,62z"/>
  <path class="fil2" d="M900 7248c-4,-42 -13,-46 -37,-81 -24,-33 -30,-43 -49,-77 -30,-53 -72,-117 -86,-166 -38,-52 -126,-273 -155,-362 -109,-335 -244,-945 -244,-1294l-11 -243 -13 -307 2 -396 5 -97c-26,-21 -7,-13 -33,-19 -68,328 27,1358 97,1728 48,250 112,498 200,717 62,156 235,526 324,597z"/>
  <path class="fil5" d="M18740 8136c-24,646 214,988 45,1445 -8,22 -144,363 -173,381 -75,28 -201,2 -264,34l-17 19c116,12 217,-2 329,-11l22 -33 105 -241 68 -172 34 -138 14 -173c-24,-37 -29,-142 -23,-195 -12,-16 -2,3 -11,-24l-14 -79c-5,-35 -9,-64 -15,-100 -10,-63 -20,-137 -27,-201 -18,-146 -26,-294 -28,-443l-6 -121 -25 11 -14 41z"/>
  <path class="fil6" d="M7582 1610c14,5 5,-4 13,31 0,0 6,37 6,39l175 1236c4,41 11,44 13,86 -46,-3 -112,-24 -128,-35 -67,-4 -133,-24 -187,-35l-48 -11c-3,-1 -6,-2 -9,-3l-26 -7c-37,-10 -48,-12 -85,-19l-96 -18c-4,-1 -7,-2 -10,-3l-241 -57 -156 -27c-19,-4 -87,-10 -92,-23 -2,-4 -7,-2 -9,-3 -49,-6 -64,-15 -111,-12 25,34 812,184 914,207 86,20 237,65 317,68 -15,-313 -206,-1555 -288,-1853 -30,28 -18,59 -9,103 7,34 15,73 21,107 14,85 32,140 36,229z"/>
  <path class="fil3" d="M6559 2715l172 -261c19,-37 73,-131 108,-156 3,-30 6,-29 25,-61 19,-31 18,-32 44,-51 6,-42 39,-81 62,-118 23,-39 46,-76 69,-114 32,-54 104,-193 139,-222l49 -100 110 -183c28,-82 131,-221 140,-291l-20 -43c-32,36 -84,150 -112,203 -185,350 -381,661 -589,995 -48,78 -223,328 -242,394l45 8z"/>
  <path class="fil1" d="M3975 7335l28 30c43,-10 196,-98 248,-125 86,-44 183,-102 259,-130 -55,-10 -104,-21 -160,-34 -125,-28 -117,99 -289,212 -28,-13 -40,-38 -40,-39 -14,-16 -6,23 -17,-27l-41 -2c-22,-65 -26,-194 -20,-266 0,-4 2,-5 3,-8 -84,7 -180,-60 -257,-52l143 218c47,76 94,144 143,223z"/>
  <path class="fil7" d="M5247 3757c-1,47 6,22 -42,79l-38 42c-1,1 -3,4 -5,6l-86 107 -46 59 -47 80c-1,2 -3,5 -5,7l-36 44c-2,1 -3,4 -5,6l-46 57c-1,2 -3,5 -4,7 -24,31 -14,14 -35,35 -15,15 -4,4 -14,18l-204 257c-17,21 -19,20 -33,35 -25,30 28,-36 -14,19 -3,4 -15,19 -15,20 -8,10 -5,6 -14,20 -2,3 2,43 -9,15 0,-2 -2,5 -4,8l-28 -9c-24,19 -19,14 -68,21l-242 33c-4,1 -6,1 -11,1 -46,2 -48,-11 -96,6 -60,3 -143,4 -204,3 -25,-1 -138,-13 -150,-34 -79,-4 -18,1 -75,-20 -24,-9 -20,-11 -46,-9 104,27 158,80 307,89 133,8 267,-8 395,-23 346,-39 186,13 493,-345 51,-59 714,-888 731,-958l-45 0 -35 49c-46,58 -180,252 -224,275z"/>
  <path class="fil7" d="M7123 7987c5,71 8,30 -15,57 22,65 7,36 -7,46 -7,82 -42,115 -28,206l-20 1c1,35 -1,20 -3,42l-12 58c-7,34 -1,46 -19,77 2,65 -15,123 -26,187l-94 506c11,35 -12,153 -20,207 0,3 -1,6 -1,9l-9 83c-1,1 -2,3 -2,5l-5 20c-1,2 -1,6 -2,8 -1,3 -1,6 -2,10 0,3 -1,6 -2,9 -6,37 -6,34 -7,76 6,15 -32,13 22,12l16 -25c91,-503 138,-982 259,-1489 8,-34 17,-65 26,-101 21,-83 16,-65 35,-80 42,-34 335,-41 409,-41 40,-16 19,-10 28,-22 -74,-29 -188,10 -249,10 -32,0 -32,-7 -65,-3l-124 16c-10,2 -40,12 -44,13 -17,29 -16,80 -39,103z"/>
  <path class="fil3" d="M14460 1906l19 -1191c4,-72 4,-145 5,-217l5 -170c6,-25 0,-11 10,-26l-39 -11 0 2c-37,66 -49,1440 -41,1633l41 -20z"/>
  <path class="fil3" d="M11721 4110c99,65 240,105 388,116 145,1 256,-1 383,-31 57,-14 105,-30 155,-52 42,-19 93,-57 126,-62 11,-16 5,-8 18,-22l42 -39c199,-180 264,-410 298,-449l57 -171c-76,58 -79,80 -120,178 -163,389 -419,606 -867,616 -92,2 -191,-4 -276,-23 -42,-9 -195,-64 -204,-61z"/>
  <path class="fil5" d="M7644 7848c-9,12 12,6 -28,22 -15,55 -43,103 -63,160 -57,164 -93,318 -130,488 -22,100 -125,649 -114,714 19,-8 23,-15 47,-28 44,-191 82,-566 138,-775 0,-1 6,-21 8,-26 15,-33 -7,-1 14,-22 -3,-46 9,-90 26,-131 4,-19 5,-30 12,-48 18,-45 2,-11 18,-29 -1,-31 -2,-29 8,-59 10,-31 9,-27 26,-46 0,-40 48,-170 74,-184l13 -44 -49 8z"/>
  <path class="fil5" d="M11005 9872c90,67 220,116 360,133 107,14 119,-8 187,-52 43,-29 119,-70 171,-88l53 -27 12 -14c2,-1 5,-4 7,-6l33 -26c123,-101 182,-267 201,-429 1,-146 -30,-308 -129,-363 -12,24 5,14 37,77 50,100 53,232 32,341 -48,256 -180,353 -367,447 -54,27 -128,85 -165,99 -130,47 -377,-87 -432,-92z"/>
  <path class="fil5" d="M10121 10074c-32,79 -52,16 -61,88 32,-16 155,-81 179,-83 12,-13 -5,-5 26,-24 28,-17 7,-7 32,-10l53 -44c16,-11 40,-24 57,-35 39,-25 74,-58 113,-68l29 -190 23 -138c29,-231 122,-579 -81,-687 21,55 48,65 68,149 45,188 -15,387 -46,570 -42,250 6,224 -124,312 -81,55 -176,112 -268,160z"/>
  <path class="fil5" d="M13856 10105c-14,18 -14,21 -26,38 -28,38 -16,-9 -25,48 53,-18 160,-99 210,-137 34,-26 38,-35 68,-43l29 -33c29,-28 78,-73 108,-81 25,-52 22,-151 24,-224l19 -264c11,-181 4,-440 -127,-501 0,1 49,101 58,137 14,53 24,122 26,180l-30 594c-12,67 -272,226 -334,286z"/>
  <path class="fil5" d="M16184 7954c-44,211 -23,489 -6,709 7,90 55,621 83,661 25,-20 16,-8 24,-44 1,-102 -27,-263 -40,-370 -15,-123 -29,-257 -30,-379 -6,-85 -24,-333 -2,-402l29 -222c-25,-17 -10,-2 -44,-7 13,18 11,-34 11,34l-25 20z"/>
  <path class="fil5" d="M13613 9018c-31,45 -93,108 -97,161l25 709 -395 58c-21,37 -4,23 -55,35 24,34 86,7 127,0 57,-10 105,-17 163,-27 20,-4 75,-12 105,-15 13,-2 56,-5 62,-6 62,-16 26,15 46,-35 -18,-23 -14,-35 -16,-75 -1,-31 -2,-62 -3,-93 -1,-64 1,-128 -1,-193 -10,-84 -11,-224 -11,-312 0,-66 29,-81 57,-118 26,-34 48,-55 62,-93 -9,-20 -9,-46 -26,-32 -31,13 -26,14 -43,36z"/>
  <path class="fil5" d="M10002 8960c-13,23 -12,23 -31,43 -27,30 -81,67 -91,101l-53 730c-90,0 -346,1 -399,30l-46 15c2,2 6,3 7,4 2,0 6,2 8,3l49 4c67,-3 131,-18 212,-6 41,-28 156,-13 216,-13l10 -214 11 -114 12 -139c2,-44 10,-236 18,-266 7,-22 99,-112 129,-153 -1,-32 6,-55 -31,-43l-21 18z"/>
  <path class="fil3" d="M16529 1299c26,22 45,28 76,45 242,50 411,11 548,-218 20,-33 31,-55 43,-95l21 -83c11,-30 -1,-8 12,-25 -9,-64 -1,-135 -11,-200 -10,-65 -25,-108 -39,-168 -33,-148 -62,-188 -143,-282l-36 -31c14,52 42,41 92,147 70,150 122,438 56,628 -57,162 -227,321 -429,320 -58,0 -185,-39 -190,-38z"/>
  <path class="fil8" d="M18877 3301l-198 -799 -185 -591c-25,-63 -59,-126 -76,-183 -39,-34 -51,-85 -107,-115 -1,17 27,42 46,69 20,30 32,63 45,92 204,447 385,1416 451,1542l24 -15z"/>
  <path class="fil5" d="M5608 9225c96,68 258,118 398,141 85,14 176,16 266,11 88,-6 170,-39 229,-43 23,-33 10,-14 38,-36 15,-12 30,-23 44,-36 26,-24 54,-55 77,-80 33,-77 67,-100 85,-208 14,-90 -1,-156 -70,-199 18,82 41,78 20,187 -31,159 -157,316 -328,359 -193,47 -418,17 -606,-44l-122 -51c-36,-12 -8,-16 -31,-1z"/>
  <path class="fil3" d="M9853 4110c20,16 18,14 41,24 4,2 24,9 25,10l30 18c54,-4 202,17 275,23 98,8 202,7 305,8l35 -94 102 -287 120 -371 -46 -18c-21,109 -92,276 -129,383 -12,35 -103,342 -142,352 -94,25 -615,-48 -616,-48z"/>
  <path class="fil3" d="M12579 2703l-15 42 107 -33c45,-26 173,-70 229,-81l81 -23c35,-26 263,-69 322,-78 0,-105 -36,-262 -30,-325 -2,-2 -5,-9 -6,-7 0,1 -4,-6 -5,-8 -16,-32 -81,-372 -256,-491 37,86 114,122 178,339 32,105 91,337 72,455 -77,33 -565,124 -677,210z"/>
  <path class="fil7" d="M8281 9512l-2 17 49 116c1,4 3,8 5,12 42,18 1,-3 33,34 26,29 23,21 22,29 -22,-95 -103,-97 -66,-453 8,-77 19,-154 29,-232 11,-82 10,-162 63,-201 58,-42 111,-75 165,-111 195,-132 133,-105 603,-1 10,-17 8,-1 -11,-14 -41,-25 45,23 -25,-10l-40 -9c-4,-1 -7,-2 -10,-3l-49 -26 -126 -24c-45,29 -35,11 -65,6 -1,0 -32,-7 -35,-9 -28,-12 -34,16 -15,-13 -63,5 -31,0 -72,-6 -24,-3 -51,-6 -77,-10 -7,32 10,5 -27,31 -18,12 -20,10 -44,27 -27,19 -18,15 -37,30l-202 132 -57 388c-18,101 0,157 -9,300z"/>
  <path class="fil4" d="M5778 888c-27,20 -58,28 -84,53 88,-9 241,-56 317,-48 18,-15 -10,-6 22,-12 34,-7 17,-4 44,-1 30,-23 161,-36 199,-39 43,-22 181,-36 238,-29 2,-2 6,-7 7,-4l37 -11c13,-2 44,-3 60,-4l111 -5c14,-9 1,-5 26,-10l228 -17 -7 -35c-349,10 -882,79 -1198,162z"/>
  <path class="fil7" d="M18969 3140c-4,70 -48,128 -54,193l14 36c65,-58 189,-541 208,-617 27,-107 54,-231 65,-350 5,-67 17,-118 -13,-176 -21,-39 -62,-92 -93,-113 13,41 45,57 61,99 50,133 -66,550 -106,686 -14,52 -56,198 -82,242z"/>
  <path class="fil7" d="M14674 8870l-29 37c-38,45 -32,60 -68,65 -23,60 -31,55 -59,106 -6,10 -13,23 -16,30 -4,7 -10,19 -11,23l-31 72c-1,2 -2,5 -3,8l-12 34c-6,19 -14,43 -15,62 -4,47 0,115 -3,170 29,16 3,-8 18,28 20,47 8,41 52,120 2,2 4,6 5,8l11 17c3,1 8,-3 10,1 0,3 6,2 6,3 1,0 4,2 4,4 -61,-130 -102,-219 -48,-397 38,-125 102,-220 176,-305 40,-45 196,-216 251,-229l467 -23c1,-1 10,-4 17,-10 14,-11 9,-10 14,-18 -46,-28 -22,-4 -47,0 -3,0 -6,1 -10,2l-21 2c-4,0 -7,0 -11,0l-345 28c-65,7 -104,-22 -180,50l-86 98c-25,19 -9,13 -36,14z"/>
  <path class="fil7" d="M10867 9139c-14,78 -99,156 -112,317 -2,26 1,41 5,61 1,4 4,16 5,20l3 49 23 41c1,3 3,6 4,9l12 37 68 69c-197,-250 17,-576 157,-710 36,-35 234,-203 287,-212 57,-9 365,26 469,23 46,-20 13,4 38,-26 -65,1 -253,12 -302,2 -4,-1 -6,-2 -10,-3l-59 -9c-108,2 -53,-5 -127,-10 -63,-4 -40,13 -49,-6 -1,-3 -6,-1 -8,-3l-124 94c-2,2 -5,4 -6,5l-64 51c-31,21 -2,-4 -27,19l-154 168c-11,9 -19,11 -29,14z"/>
  <path class="fil3" d="M10976 2688c16,19 15,18 33,31 30,-47 150,-603 177,-736 7,-33 12,-83 33,-109 -4,-31 -5,-30 2,-63 0,-1 8,-25 8,-27 13,-30 -4,-3 14,-23l7 -93 -46 -13c-19,202 -217,932 -228,1033z"/>
  <path class="fil5" d="M4919 8730c-30,-50 -85,-106 -100,-177 83,33 143,46 237,66 42,2 296,7 336,-32 42,-67 136,-266 145,-356 -7,-82 -30,-138 -91,-182 -7,10 -15,-13 10,40 12,26 20,41 27,67 28,112 -95,340 -127,383 -25,35 -38,30 -131,41 -52,6 -118,8 -170,5 -73,-5 -263,-64 -278,-63 -5,72 92,191 142,208z"/>
  <path class="fil5" d="M8754 9428l-57 -83c50,3 110,16 166,18 66,3 125,-11 187,-6 24,-22 71,-29 101,-38 39,-13 66,-27 107,-30 24,-60 59,-206 76,-281 33,-144 -22,-172 -67,-260 -14,-1 -7,4 -25,-7 25,110 86,86 41,261 -13,49 -49,223 -78,245 -35,26 -198,66 -257,74 -116,15 -185,-3 -290,-13 0,49 53,107 96,120z"/>
  <path class="fil7" d="M4775 7895l-164 72c-15,6 -29,10 -38,19 -5,6 -15,26 -19,39 -27,84 -12,86 -33,65l-44 156c-1,3 -2,5 -3,8l-12 35c0,3 -2,5 -2,8l-9 27c-21,72 -6,48 -24,53l-32 154c-31,140 -1,188 -5,243 29,25 20,44 74,103 2,2 9,9 11,12 -129,-248 6,-537 106,-815 30,-82 29,-67 106,-100 73,-31 229,-109 296,-124 29,-17 17,1 -9,-11 -47,-23 -92,16 -161,43l-17 6c-34,13 -10,3 -21,7z"/>
  <path class="fil7" d="M3349 7900l-31 113c-20,54 -3,43 -25,43 -6,42 -6,29 -13,67 -9,41 -4,30 -8,71 -7,62 -22,49 6,139 1,3 2,6 3,9l39 84c7,10 3,5 14,21l45 56c-55,-127 -109,-143 -64,-343 30,-134 124,-343 183,-480 37,-86 23,-67 117,-102 82,-30 264,-98 352,-99l-34 -16c-27,-10 -24,-9 -50,-4l-110 30c-28,7 -29,7 -59,19l-180 62c-35,14 -41,20 -56,53 -2,3 -3,6 -4,9l-78 185c-6,13 -17,40 -21,48 -1,2 -2,5 -3,7l-23 28z"/>
  <path class="fil5" d="M17565 9053c94,-4 219,-39 295,-75 76,-37 166,-118 218,-135l7 -75c-21,-224 27,-280 -109,-415 7,46 21,41 36,85 23,66 28,342 24,352 -36,40 -169,133 -229,158 -51,21 -275,73 -291,85 25,28 24,30 49,20z"/>
  <path class="fil5" d="M19472 8579c30,-17 122,-36 227,-91 126,-67 144,-115 187,-137 23,-36 66,-51 67,-99 0,-21 -24,-122 -29,-153 -19,-116 -31,-207 -114,-254 13,45 32,57 46,114 11,46 16,93 24,136 27,143 52,143 -43,222 -287,242 -318,162 -410,232 23,27 5,15 45,30z"/>
  <path class="fil5" d="M19941 8625c-83,241 -181,341 -435,394 -156,32 -172,-7 -242,-9 139,122 327,25 472,-14 10,-15 66,-43 87,-62 25,-24 60,-57 78,-82 45,-64 69,-142 90,-223l8 -65 1 -15 -7 -95c-3,14 -14,53 -20,85 -9,43 -18,52 -32,86z"/>
  <path class="fil7" d="M10669 1470l-83 62c-31,24 -39,29 -65,61l-60 111c-41,111 -119,373 -125,485 7,30 -21,22 22,25 19,-118 133,-504 187,-574 118,-155 304,-208 556,-138 -50,-69 46,32 -16,-17 -36,-27 -84,-26 -144,-37l-19 -4c-137,-26 -185,41 -253,26z"/>
  <path class="fil7" d="M17719 1839c-5,48 -130,479 -172,525l44 21 152 -452c28,-87 115,-424 147,-470l219 41 24 -6c-35,-3 -30,-1 -63,-12 -72,-25 -28,-5 -31,-22 -29,0 -24,-2 -42,-4l-70 -13c-34,-6 -48,-5 -81,-26l-93 327c-1,3 -2,6 -3,9l-5 18c-3,9 -5,17 -8,26l-18 38z"/>
  <path class="fil5" d="M18023 9165c-70,140 -110,216 -246,281 -214,102 -368,40 -453,37l3 12c18,4 9,1 30,11 156,67 397,41 531,-65 32,-25 27,-29 58,-38 20,-44 53,-69 80,-121 26,-50 36,-86 55,-135l13 -71 8 -57c-23,-14 -45,105 -79,146z"/>
  <path class="fil7" d="M5677 8293l-78 123c-1,2 -2,5 -3,8l-46 203c4,46 0,7 8,38 17,62 30,105 86,139 -97,-112 -97,-448 280,-591 201,-77 183,-58 381,4 87,27 301,97 388,102l18 -5 -259 -73c-19,-8 2,41 -21,-11 -2,-5 -7,-3 -10,-6l-44 4c-69,-13 3,-7 -76,-27l-189 -54c-33,-12 -49,17 -24,-19 -52,3 -20,2 -47,7 0,0 -28,7 -29,7l-249 105c-33,25 -45,39 -86,46z"/>
  <path class="fil7" d="M16716 8487c-3,2 -6,5 -9,7l-253 88c-3,1 -6,2 -9,2 -15,4 -26,4 -39,6l30 154c13,73 -10,153 -24,242l-55 222c-15,50 -30,64 -27,122l15 47c40,-106 81,-233 103,-354 49,-272 3,-257 2,-401l313 -101c19,-26 14,-27 9,-42 -38,18 -8,22 -56,8z"/>
  <path class="fil1" d="M8708 8420l12 12 470 -337 -223 -11c-49,49 -216,308 -259,336z"/>
  <path class="fil7" d="M7396 9204c-3,11 -9,27 -9,36 -1,65 -1,28 13,45 96,-158 198,-281 261,-482l32 -153c1,-9 3,-21 5,-29 8,-27 0,-9 11,-25l306 -15c34,-21 10,1 26,-29 -138,-5 -240,18 -370,13 -5,14 -4,21 -9,41 -24,107 -9,112 -57,233l-36 77c-1,3 -2,6 -3,8 -2,3 -3,6 -4,8l-138 243c-1,2 -3,5 -5,7l-23 22z"/>
  <path class="fil5" d="M9957 8134c-17,241 -69,541 -60,779 35,-4 17,0 46,-19l24 -357c7,-47 -3,-20 14,-42 -6,-47 -2,-209 23,-238l5 -144 -10 -30 -28 2 10 35c-18,12 -4,3 -24,14z"/>
  <path class="fil3" d="M10366 3193l4 -33c-10,-15 -5,-2 -11,-27l-13 -202c12,-114 194,-387 250,-483l60 25c-28,-32 -54,-42 -95,-51 -50,40 -267,372 -253,553 3,46 4,90 7,136 3,61 0,68 51,82z"/>
  <path class="fil5" d="M15935 9799c-16,12 4,8 -20,11 -47,4 -2,5 -15,-5l4 33c59,-6 365,-112 407,-142l29 -96c13,-66 48,-145 73,-203l165 73c-25,-43 -159,-98 -202,-105 -48,48 -82,228 -114,296 -33,45 -250,71 -327,138z"/>
  <path class="fil4" d="M12237 3218c-44,-100 -50,-55 -47,-197 2,-77 8,-152 13,-229 4,-75 19,-392 44,-435l35 26 45 6c-33,-27 -71,-55 -126,-55 -24,67 -36,373 -41,469 -9,143 -57,352 77,415z"/>
  <path class="fil5" d="M13513 8136c-6,30 -6,35 -19,52 3,142 1,287 3,430 1,71 3,143 6,215 4,81 -15,157 52,119l-12 -458 -7 -361 -23 3z"/>
  <path class="fil5" d="M6693 8319c-56,89 -89,159 -132,264 -48,-20 -92,-47 -140,-69 -78,-36 -396,-168 -453,-153 -2,75 45,147 101,161 -30,-51 -44,-64 -58,-131 81,6 512,175 547,217l47 15c9,-39 22,-68 39,-102l37 -68c11,-15 8,-12 19,-21 5,-56 44,-61 47,-127l-36 9 -18 5z"/>
  <path class="fil5" d="M9163 9525c-18,19 -27,30 -57,42 -39,81 -164,188 -284,214 -77,17 -142,16 -221,5 -41,-5 -164,-42 -177,-33 63,78 312,79 428,70 92,-35 117,-37 191,-95 45,-57 130,-117 151,-206l-31 3z"/>
  <path class="fil5" d="M8015 8581c-19,115 -79,210 -140,264 -43,38 -172,145 -184,207l52 2c122,-144 304,-230 329,-494l-31 -8c-16,30 8,8 -26,29z"/>
  <path class="fil5" d="M7789 9716c-18,41 3,21 -21,23 28,42 -9,17 25,33 40,-26 128,-106 165,-116 25,-38 117,-112 150,-135 1,-2 3,-5 4,-6l13 -19c17,-25 0,4 12,-20l-45 -114c-21,-28 -47,-85 -71,-120 -30,-45 -51,-61 -91,-99l87 149c31,59 64,105 69,178 -48,26 -105,82 -150,124 -28,24 -48,38 -77,61 -34,26 -38,32 -70,61z"/>
  <path class="fil5" d="M6887 9581l-16 25c-54,1 -16,3 -22,-12l-19 0 9 28 49 8 179 -20c64,-5 126,-2 191,-12 15,-7 122,-201 186,-254 -14,-35 3,-13 -26,-39 -44,7 -33,10 -62,53l-139 206 -330 17z"/>
  <path class="fil6" d="M14513 1886c-5,26 11,1 -16,40l-2 54c69,-37 364,-446 401,-453 130,25 271,106 391,154l7 -12 -315 -136c-51,-12 -81,-34 -129,-36 -83,78 -258,345 -337,389z"/>
  <path class="fil5" d="M5259 8784c3,49 -17,37 -59,61l-136 102c-213,134 -380,37 -501,2 -51,-15 -16,-9 -32,1 61,46 158,61 210,88 72,10 122,18 191,8 66,-9 116,-40 159,-44 22,-36 34,-30 72,-59 28,-21 42,-40 69,-53 14,-27 60,-92 83,-121l-56 15z"/>
  <path class="fil2" d="M9242 8080l-52 15 -470 337c63,50 56,29 181,-64 47,-34 84,-62 132,-97 92,-69 172,-130 260,-198l-51 7z"/>
  <path class="fil2" d="M4003 7365c5,25 0,18 11,35 66,8 87,-41 152,-49 28,-35 86,-55 131,-77 46,-24 92,-53 141,-70l171 -96 -47 -1 -52 3c-76,28 -173,86 -259,130 -52,27 -205,115 -248,125z"/>
  <path class="fil2" d="M16763 8521c-1,132 -15,194 -72,286 -35,56 -102,159 -120,234l54 -3c94,-219 208,-244 180,-566l-33 7c5,15 10,16 -9,42z"/>
  <path class="fil9" d="M4138 8469c-15,41 2,10 -28,29 -18,12 -15,7 -41,14 -81,48 -156,119 -287,127 -60,4 -124,-9 -179,-25 -59,-18 -106,-49 -158,-50 71,62 201,96 315,112 45,0 88,0 128,-9 44,-10 66,-27 106,-31 42,-60 112,-56 230,-219l-86 52z"/>
  <path class="fil5" d="M4032 8032l-23 9c-6,24 55,16 83,17 109,4 211,29 312,38l25 -62c-9,-104 20,-139 -24,-245 -27,-64 -80,-133 -129,-157 36,68 72,83 97,177 27,104 10,162 -14,248 -80,-4 -259,-53 -327,-25z"/>
  <path class="fil5" d="M11329 9612c-27,-30 -69,-64 -74,-116 -21,-17 -19,-15 -31,-50 -44,-126 -23,-328 60,-425l80 21 50 26c-31,-47 -118,-77 -177,-81 -154,229 -71,566 92,625z"/>
  <path class="fil5" d="M18267 7939c38,64 176,54 242,25 41,-18 66,-38 90,-70 32,-43 29,-51 48,-92l14 -26 -5 -68c-19,-85 -29,-129 -89,-167 -17,28 111,156 -7,314 -27,36 -80,74 -131,87 -58,15 -155,-6 -162,-3z"/>
  <path class="fil7" d="M19404 1609c-5,27 11,-1 -16,20 -8,7 -15,10 -29,17 -50,25 -14,20 -54,18 -54,54 -55,40 -121,81 -2,2 -5,3 -7,5l-110 62c-9,5 -8,5 -22,12 -28,14 -66,31 -93,50 16,7 8,11 13,20l26 9c31,-30 231,-130 289,-164 66,-37 246,-134 288,-174 -29,-25 -18,-4 -15,-33 -3,2 -7,2 -9,6l-62 36c-33,20 -32,26 -78,35z"/>
  <path class="fil2" d="M16844 9678l9 51c64,-42 120,-176 166,-205 28,-72 78,-112 104,-183 -36,-29 -52,-60 -83,-92 -34,-36 -52,-54 -86,-84l120 152c-26,77 -195,281 -230,361z"/>
  <path class="fil5" d="M3797 8339c-27,-34 -46,-57 -62,-105 -17,-130 117,-299 150,-409 -6,-38 7,-16 -22,-35 -33,16 -310,461 -66,549z"/>
  <path class="fil5" d="M8683 9204l70 -322 82 25c-11,-18 -16,-27 -49,-41 -63,-26 -77,-14 -91,31 -3,10 -8,36 -10,46 -43,222 -85,250 -2,261z"/>
  <path class="fil5" d="M17505 8917l-24 -318c78,-8 91,1 154,20 -1,-2 -4,-9 -4,-7 -1,2 -4,-5 -5,-6 -44,-45 -129,-56 -187,-38 -11,52 16,284 25,348l41 1z"/>
  <path class="fil4" d="M10300 2107c-1,-76 -10,-145 -13,-222 -1,-32 -5,-76 -10,-104 -16,-85 -23,1 -29,-90 -8,-61 16,-90 -43,-82l0 11c-16,144 31,1 39,265l30 280 26 -58z"/>
  <path class="fil5" d="M19393 8449l-55 -248c-2,-7 -8,-36 -8,-37 -3,-80 149,-28 183,-15 -35,-53 -153,-84 -224,-47 -18,43 49,274 64,339l40 8z"/>
  <path class="fil5" d="M4830 8420c12,-43 46,-114 65,-158 12,-30 22,-52 34,-81 15,-38 13,-52 46,-69 26,-18 -40,-30 -59,-31 -24,39 -131,280 -131,325l45 14z"/>
  <path class="fil7" d="M18188 7849c2,3 11,17 12,19 35,54 -4,-4 16,24l24 32 7 0c-46,-100 -93,-166 -23,-290 61,-107 137,-116 286,-121 -41,-2 -14,-3 -23,-7 -41,-14 -81,-21 -133,-13l-77 32c-24,17 -79,72 -97,109l-7 16c-1,2 -2,5 -3,8l-7 25c0,3 0,6 0,9 -2,20 -3,81 -1,97 3,23 21,56 26,60z"/>
  <path class="fil7" d="M17544 8967c52,8 194,-39 256,-50 4,-98 -28,-182 -72,-236 0,47 -4,-6 2,30 7,44 34,77 36,176l-69 19c-3,1 -6,2 -9,2l-90 16c-28,9 -18,-1 -30,23 -33,3 -31,-13 -24,20z"/>
  <path class="fil10" d="M8715 9225l6 28 223 16c51,-8 11,3 30,-15 53,-72 13,-222 -29,-269 -11,32 -4,-12 0,23 28,237 -6,147 5,235 -48,-5 -96,6 -133,-1l-102 -17z"/>
  <path class="fil7" d="M19425 8460l9 36c77,-7 177,-63 247,-83 -2,-94 -51,-176 -97,-221 3,33 -4,-1 6,21 16,39 73,136 50,168l-96 44c-3,1 -6,2 -9,3 -10,4 -28,10 -49,18 -39,14 -4,11 -61,14z"/>
  <path class="fil7" d="M9978 8913l-3 37c17,22 -7,7 27,10l21 -18c21,-29 54,-59 87,-87 31,-27 61,-58 96,-83l24 -16c0,0 -1,-20 -36,-18 -34,1 -77,50 -96,70 -56,62 -21,21 -64,53 -24,18 -26,31 -56,52z"/>
  <path class="fil7" d="M4864 8455l250 74c67,-134 70,-258 -28,-348 6,32 -3,0 15,33 1,3 7,12 8,16 16,32 26,63 21,100 -1,10 -36,168 -44,151 -1,-2 -4,6 -6,9 -18,14 -80,-6 -93,-10l-123 -25z"/>
  <path class="fil5" d="M4004 7222l-26 -285 -32 9c-1,3 -3,4 -3,8 -6,72 -2,201 20,266l41 2z"/>
  <path class="fil8" d="M16043 2447l-5 3 -15 21c105,4 223,31 321,-10l0 -39c-130,20 -161,23 -301,25z"/>
  <path class="fil7" d="M5534 9002l-7 30c-12,26 -43,46 -55,91 3,0 7,-1 8,2 1,4 13,4 14,4 19,3 -12,11 20,0l104 -151c-2,-3 -5,-6 -6,-7l-13 -14c-13,-12 -11,-9 -19,-15 -15,32 -2,11 -18,32 -22,28 -8,10 -28,28z"/>
  <path class="fil9" d="M11788 8843c-11,20 -22,41 -31,69 43,19 15,21 55,4 24,-35 38,-59 55,-103l-41 4c-25,30 8,6 -38,26z"/>
  <path class="fil3" d="M10698 3317c-12,39 -19,28 -24,83l48 4 2 -5 21 -69c-5,-42 12,-18 -12,-37 -3,2 -14,10 -15,11l-20 13z"/>
  <path class="fil3" d="M11196 1637l19 -111 -36 -7c-18,31 -25,62 -23,102l40 16z"/>
  <path class="fil4" d="M13107 3292c-14,36 -24,50 -43,80l-22 48c48,-12 22,-21 67,-42l36 -101c-3,0 -7,2 -9,2 -1,1 -6,2 -8,3l-21 10z"/>
  <path class="fil6" d="M16038 2450l5 -3 18 -96 -40 -7c-8,26 -6,21 -10,48 -6,39 3,20 -12,52l39 6z"/>
  <path class="fil6" d="M19009 2043c25,4 10,7 26,-8l50 -21c-8,-46 1,-29 -30,-53 -28,54 -22,28 -74,52l28 30z"/>
  <path class="fil11" d="M17626 2524l32 -87 -38 -22 -4 22c-1,2 -2,6 -3,8 -1,2 -2,6 -3,8 -9,24 -14,25 -19,52l35 19z"/>
  <path class="fil12" d="M13107 3292l21 -10c2,-1 7,-2 8,-3 2,0 6,-2 9,-2l40 -128c-69,56 -39,70 -78,143z"/>
  <path class="fil3" d="M14415 204c-2,11 -10,26 -5,42 11,33 -2,14 27,26 2,-3 4,-10 4,-8 1,1 3,-7 4,-9 7,-39 0,18 4,-21 1,-12 -1,-33 -1,-46l-19 -9 -14 25z"/>
  <path class="fil3" d="M17176 1569l14 59c24,-13 27,5 29,-75 -14,-12 -4,-7 -28,-12l-15 28z"/>
  <path class="fil0" d="M8979 4453c-120,-657 -198,-1340 -275,-2006 -63,-543 -114,-1193 -255,-1709 -88,-322 -131,-290 -204,-448l-60 -54c-32,-16 -20,0 -60,-23 -528,-248 -1509,-30 -2074,156 -178,59 -138,30 -219,181 -150,280 -38,154 -166,234 19,19 4,12 42,11 26,-1 16,-15 49,-2l48 26 -27 69c316,-83 849,-152 1198,-162l7 35c39,10 15,-10 26,22l47 0c-17,102 -418,848 -496,977l-552 908c-78,4 -276,-38 -363,-52 -119,-19 -249,-28 -373,-38 -757,-65 -1390,30 -1992,456 -333,237 -599,483 -819,833 -198,313 -277,590 -134,965 38,99 91,188 152,257 76,27 150,205 258,230 46,12 95,42 152,63 875,323 1779,-341 2331,-946 285,-312 566,-629 842,-983 53,-68 245,-50 393,-64 394,-35 941,-69 1319,-11l12 32 34 21c55,3 46,32 51,186l57 1307c1,39 0,79 2,117 3,83 -6,48 34,69l4 47 264 -118c172,-77 773,-285 806,-309 -10,-92 -41,-184 -59,-277zm-1445 -3282c82,298 273,1540 288,1853 -80,-3 -231,-48 -317,-68 -102,-23 -889,-173 -914,-207l-32 -34 -45 -8c19,-66 194,-316 242,-394 208,-334 404,-645 589,-995 28,-53 80,-167 112,-203l20 43 57 13zm-1983 2262c-17,70 -680,899 -731,958 -307,358 -147,306 -493,345 -128,15 -262,31 -395,23 -149,-9 -203,-62 -307,-89 -49,-26 -46,-26 -79,-60 -24,-24 -45,-41 -73,-53 -213,-126 -225,-384 -145,-670 32,-113 80,-222 133,-316 34,-60 84,-50 160,-58 392,-39 1545,-152 1860,-136l-8 35 35 2 -2 19 45 0z"/>
  <path class="fil1" d="M19061 8594c74,247 130,286 166,381 2,2 5,2 7,6 1,6 10,11 12,13 13,12 -8,-2 18,16 70,2 86,41 242,9 254,-53 352,-153 435,-394 -75,30 -99,79 -226,72 -63,-3 -165,-39 -209,-90 -17,-26 -10,-16 -34,-28 -40,-15 -22,-3 -45,-30 92,-70 123,10 410,-232 95,-79 70,-79 43,-222 -8,-43 -13,-90 -24,-136 -14,-57 -33,-69 -46,-114l-24 -12c-258,-2 -201,-2 -476,72 -142,38 -128,16 -174,101 -117,217 -185,228 -140,378 20,66 45,143 65,210zm332 -145l-40 -8c-15,-65 -82,-296 -64,-339 71,-37 189,-6 224,47l71 43c46,45 95,127 97,221 -70,20 -170,76 -247,83l-9 -36c-31,7 -13,10 -32,-11z"/>
  <path class="fil1" d="M18036 8790c4,-10 -1,-286 -24,-352 -15,-44 -29,-39 -36,-85 -47,0 -20,12 -50,-13 -186,-2 -293,10 -475,30 -118,13 -109,38 -163,105 -173,216 -184,182 -162,336 10,75 23,149 36,225 20,120 63,310 124,385 34,27 22,14 38,62 85,3 239,65 453,-37 136,-65 176,-141 246,-281 -102,23 -138,82 -271,29 -94,-37 -139,-95 -187,-141 -25,10 -24,8 -49,-20 16,-12 240,-64 291,-85 60,-25 193,-118 229,-158zm-308 -109c44,54 76,138 72,236 -62,11 -204,58 -256,50l-39 -50 -41 -1c-9,-64 -36,-296 -25,-348 58,-18 143,-7 187,38 1,1 4,8 5,6 0,-2 3,5 4,7 2,2 5,4 7,5 78,48 58,-4 86,57z"/>
  <path class="fil1" d="M8825 9494c-33,-31 -21,-37 -48,-56 -6,-4 -8,-6 -9,-8 -3,0 -7,0 -14,-2 -43,-13 -96,-71 -96,-120 105,10 174,28 290,13 59,-8 222,-48 257,-74 29,-22 65,-196 78,-245 45,-175 -16,-151 -41,-261 -40,-1 -31,3 -60,-19 -138,-30 -230,-54 -296,-70 -2,0 -5,0 -7,-1 -153,-35 -164,-20 -300,72 -54,36 -107,69 -165,111 -53,39 -52,119 -63,201 -10,78 -21,155 -29,232 -36,345 39,357 64,445 4,4 2,3 2,8l28 26 8 7c13,-9 136,28 177,33 79,11 144,12 221,-5 120,-26 245,-133 284,-214 -89,20 -176,24 -239,-39l-4 -4 -38 -30zm-104 -241l-6 -28 -32 -21c-83,-11 -41,-39 2,-261 2,-10 7,-36 10,-46 14,-45 28,-57 91,-31 33,14 38,23 49,41l30 19c79,38 42,-9 80,59 42,47 82,197 29,269 -19,18 21,7 -30,15l-223 -16z"/>
  <path class="fil1" d="M11814 8930c0,1 -1,0 0,0zm-782 102c-140,134 -354,460 -157,710l15 12c9,9 6,5 18,19l75 101 22 -2c55,5 302,139 432,92 37,-14 111,-72 165,-99 187,-94 319,-191 367,-447 21,-109 18,-241 -32,-341 -32,-63 -49,-53 -37,-77 -32,-58 -5,-1 -56,-36 -2,-1 -21,-21 -23,-25 -4,-7 -6,-9 -7,-9 0,-1 0,-4 -2,-14 -40,17 -12,15 -55,-4 9,-28 20,-49 31,-69 -104,3 -412,-32 -469,-23 -53,9 -251,177 -287,212zm297 580c-163,-59 -246,-396 -92,-625 59,4 146,34 177,81 20,27 40,24 77,53l39 24c173,128 109,387 82,607 -77,-2 -161,-37 -208,-81 -22,-16 -22,-17 -40,-33 -8,-7 -11,-10 -20,-16 -1,-1 -6,-1 -7,-5 -1,-4 -5,-4 -8,-5z"/>
  <path class="fil1" d="M4484 8893c-1,-5 10,4 0,0zm435 -163c-50,-17 -147,-136 -142,-208 15,-1 205,58 278,63 52,3 118,1 170,-5 93,-11 106,-6 131,-41 32,-43 155,-271 127,-383 -7,-26 -15,-41 -27,-67 -25,-53 -17,-30 -10,-40 -34,-50 -10,-19 -71,-36 -29,-8 -43,-17 -68,-28 -72,-25 -278,-96 -324,-135 -67,15 -223,93 -296,124 -77,33 -76,18 -106,100 -100,278 -235,567 -106,815 4,2 7,4 9,4 0,3 2,8 8,18 0,2 1,5 2,6 18,30 10,18 37,33 16,-10 -19,-16 32,-1 121,35 288,132 501,-2l136 -102c-106,6 -178,-2 -231,-71 -37,-48 -27,-36 -50,-44zm195 -201l-250 -74c-15,-19 -1,-12 -34,-35l-45 -14c0,-45 107,-286 131,-325 19,1 85,13 59,31 17,16 36,29 55,38 11,6 23,11 32,16 27,14 7,1 24,15 98,90 95,214 28,348z"/>
  <path class="fil13" d="M1567 5413c126,57 313,185 461,265 34,18 67,38 103,57 68,37 507,247 532,286 2419,1142 6047,1605 9125,1642 1726,21 3403,-87 5054,-333 1040,-155 2257,-435 3203,-835 151,-64 317,-138 461,-216l441 -228 28 -14c-35,-37 52,-44 -63,-24 -17,3 -35,17 -48,24l-608 252 -8 3 -60 22c-83,40 -271,96 -356,123 -110,34 -256,91 -381,113 -88,48 -927,239 -1083,273 -377,82 -778,130 -1158,205 -196,39 -406,56 -601,91 -227,40 -1641,177 -1853,174 -619,62 -1287,69 -1913,77 -326,4 -666,8 -986,-3 -159,-6 -867,-7 -955,-37 -95,19 -956,-54 -1122,-66 -360,-27 -715,-73 -1075,-108 -241,-24 -1955,-269 -2040,-333 -93,3 -474,-93 -582,-118 -186,-45 -388,-105 -569,-140l-358 -102c-48,-13 -81,-17 -113,-40 -80,-1 -846,-255 -874,-290 -56,1 -104,-28 -159,-49 -48,-18 -114,-27 -144,-64 -36,0 -165,-48 -199,-80 -28,-1 -49,-10 -76,-21 -7,-3 -25,-11 -32,-15 -29,-17 -11,-4 -29,-22 -32,0 -254,-89 -290,-125 -87,-5 -902,-451 -974,-510 -96,-50 -259,-155 -333,-217 -35,-12 -116,-74 -151,-100 -48,-37 -90,-57 -148,-99 -10,-6 -28,-18 -37,-25l-80 -68c-56,-35 -94,-50 -151,-103 -55,-53 -233,-186 -233,-227 -52,-21 -66,-45 -113,-93l-291 -318c-54,-73 -107,-110 -104,-158 -76,-52 -238,-359 -285,-484 -252,-666 -25,-1239 340,-1751 281,-393 776,-846 1172,-1134 59,-43 420,-296 436,-323l-83 41c-24,9 -9,1 -31,12l-173 79c-17,10 -3,3 -29,17l-7 4 -107 54c-21,12 -7,5 -30,16l-702 465c-105,90 -222,184 -306,289l-381 511c-15,26 -7,11 -19,29l-123 229 -3 8 -87 223c-14,41 -24,74 -43,118 -36,82 -52,178 -75,267 -51,204 -55,391 -84,602 -10,69 -17,88 -11,139 29,235 -25,426 9,646l6 479c0,64 16,95 11,161 -5,72 0,54 1,136 1,73 10,99 11,160 9,314 33,622 75,932l96 580c37,188 110,473 191,642l307 551c25,28 16,18 35,46 41,61 109,87 102,169l18 29c12,14 15,16 30,29 27,23 31,23 62,52 36,34 99,70 128,105l51 26c116,81 42,17 133,74l513 309c137,81 414,214 561,288l588 258c137,55 275,109 412,163l1681 519 1010 215c81,14 169,18 242,35 124,28 481,65 628,81 49,5 95,11 134,13 290,15 534,34 825,34 83,0 164,10 260,12l-197 -20c-175,-11 -915,-88 -1009,-131 -194,-20 -426,-76 -614,-116 -206,-44 -403,-89 -604,-140 -145,-37 -1102,-296 -1142,-346 -53,-1 -421,-125 -461,-154 -102,-23 -444,-165 -563,-212 -123,-50 -444,-181 -542,-235l-197 -94c-105,-24 -1022,-530 -1151,-637 -38,-28 -77,-51 -110,-74l-82 -53 -21 -12c-135,-75 -135,-86 -252,-185 -27,-23 -26,-26 -47,-45l-203 -236c-26,-41 -21,-14 -19,-56 -89,-71 -262,-441 -324,-597 -88,-219 -152,-467 -200,-717 -70,-370 -165,-1400 -97,-1728 26,6 7,-2 33,19 53,59 91,128 140,188 51,63 86,111 139,170l304 317c34,17 23,13 52,49 45,25 89,74 128,115l467 335 5 3 20 11z"/>
  <path class="fil5" d="M14661 9774l6 18c42,4 291,141 492,101 53,-10 92,-64 180,-121l171 -123c20,-22 37,-37 56,-64 18,-25 21,-48 41,-61 31,-118 71,-168 69,-318 -12,-170 -44,-261 -145,-351 10,66 134,175 90,442 -51,302 -205,347 -355,460 -94,71 -101,99 -174,103 -126,7 -242,-18 -355,-63 -78,-31 -57,-36 -76,-23z"/>
  <path class="fil5" d="M14955 9462c-25,-31 -46,-46 -52,-91 -29,-23 -35,-51 -45,-95 -9,-40 -16,-79 -17,-120 -1,-90 27,-162 53,-228 92,7 122,31 190,59 -35,-51 -139,-97 -233,-92 -46,108 -70,192 -45,329 11,60 26,104 55,152l68 82c40,25 13,12 26,4z"/>
  <path class="fil5" d="M15410 8676c-5,8 0,7 -14,18 -7,6 -16,9 -17,10l-19 62 50 5 49 -107 -49 12z"/>
  <path class="fil1" d="M15212 9065c51,61 78,145 92,241 11,75 14,247 -12,311 -9,5 -8,6 -29,8 -147,16 -294,-155 -308,-163 -13,8 14,21 -26,-4l-68 -82c-29,-48 -44,-92 -55,-152 -25,-137 -1,-221 45,-329 94,-5 198,41 233,92l37 26c18,8 18,4 34,11 52,23 8,22 57,41zm-551 709c19,-13 -2,-8 76,23 113,45 229,70 355,63 73,-4 80,-32 174,-103 150,-113 304,-158 355,-460 44,-267 -80,-376 -90,-442 -7,-11 33,-27 -27,-15 -35,-6 -48,-5 -68,-29l-26 -40 -50 -5 19 -62 -467 23c-55,13 -211,184 -251,229 -74,85 -138,180 -176,305 -54,178 -13,267 48,397l31 26c8,10 14,24 22,35 24,35 34,44 75,55z"/>
  <path class="fil5" d="M14661 9774l6 18c42,4 291,141 492,101 53,-10 92,-64 180,-121l171 -123c20,-22 37,-37 56,-64 18,-25 21,-48 41,-61 31,-118 71,-168 69,-318 -12,-170 -44,-261 -145,-351 10,66 134,175 90,442 -51,302 -205,347 -355,460 -94,71 -101,99 -174,103 -126,7 -242,-18 -355,-63 -78,-31 -57,-36 -76,-23z"/>
  <path class="fil5" d="M14955 9462c-25,-31 -46,-46 -52,-91 -29,-23 -35,-51 -45,-95 -9,-40 -16,-79 -17,-120 -1,-90 27,-162 53,-228 92,7 122,31 190,59 -35,-51 -139,-97 -233,-92 -46,108 -70,192 -45,329 11,60 26,104 55,152l68 82c40,25 13,12 26,4z"/>
  <path class="fil5" d="M15410 8676c-5,8 0,7 -14,18 -7,6 -16,9 -17,10l-19 62 50 5 49 -107 -49 12z"/>
  <path class="fil1" d="M15212 9065c51,61 78,145 92,241 11,75 14,247 -12,311 -9,5 -8,6 -29,8 -147,16 -294,-155 -308,-163 -13,8 14,21 -26,-4l-68 -82c-29,-48 -44,-92 -55,-152 -25,-137 -1,-221 45,-329 94,-5 198,41 233,92l37 26c18,8 18,4 34,11 52,23 8,22 57,41zm-551 709c19,-13 -2,-8 76,23 113,45 229,70 355,63 73,-4 80,-32 174,-103 150,-113 304,-158 355,-460 44,-267 -80,-376 -90,-442 -7,-11 33,-27 -27,-15 -35,-6 -48,-5 -68,-29l-26 -40 -50 -5 19 -62 -467 23c-55,13 -211,184 -251,229 -74,85 -138,180 -176,305 -54,178 -13,267 48,397l31 26c8,10 14,24 22,35 24,35 34,44 75,55z"/>
 </g>
</svg>
