<?xml version="1.0" encoding="UTF-8"?>
<!DOCTYPE svg PUBLIC "-//W3C//DTD SVG 1.1//EN" "http://www.w3.org/Graphics/SVG/1.1/DTD/svg11.dtd">
<!-- Creator: CorelDRAW X7 -->
<svg xmlns="http://www.w3.org/2000/svg" xml:space="preserve" width="210mm" height="210mm" version="1.1" style="shape-rendering:geometricPrecision; text-rendering:geometricPrecision; image-rendering:optimizeQuality; fill-rule:evenodd; clip-rule:evenodd"
viewBox="0 0 21000 21000"
 xmlns:xlink="http://www.w3.org/1999/xlink">
 <defs>
  <style type="text/css">
   <![CDATA[
    .fil3 {fill:#004F6F}
    .fil2 {fill:#C43E4B}
    .fil1 {fill:#CBCED4}
    .fil0 {fill:white}
   ]]>
  </style>
 </defs>
 <g id="Vrstva_x0020_1">
  <metadata id="CorelCorpID_0Corel-Layer"/>
  <g id="_2430930310320">
   <g>
    <path class="fil0" d="M16856 9270l1134 168c41,-903 107,-1812 115,-2719 6,-832 53,-2004 12,-2798 -80,-33 -184,-88 -267,-129 -87,-42 -181,-82 -273,-123 -195,-85 -371,-158 -565,-238 -973,-403 -2012,-719 -3042,-969 -119,-29 -579,-141 -669,-135 -1,13 226,277 260,313 32,33 39,48 81,76 35,24 54,37 84,61 289,233 362,660 423,769 32,58 91,127 113,178 76,-21 94,-54 201,-57 387,-12 506,372 668,558 66,76 160,210 241,251 83,-37 118,-112 341,-143 290,-38 493,77 661,278 109,131 70,171 151,204 252,102 367,328 388,672 16,256 -45,568 -346,604 10,75 16,151 50,198 39,57 47,120 73,158 11,16 110,82 136,104 53,41 81,57 123,106 214,250 354,648 409,1003 58,380 -353,360 -410,510 -22,60 -47,109 -81,159 -34,50 -79,85 -105,124 41,189 33,219 27,418 -2,67 23,131 38,195 13,59 14,160 29,204z"/>
    <path class="fil0" d="M18627 10434l642 128c24,11 12,-1 25,22l0 1067c-109,-12 -239,-45 -348,-67 -41,-8 -297,-42 -319,-81l0 -1069zm-105 1170l876 178 2 -1302 -877 -176 -1 1300z"/>
    <path class="fil1" d="M10502 18214c-10,-21 -454,-135 -509,-152 -171,-52 -342,-106 -505,-163 -470,-164 -966,-358 -1404,-581 -310,-159 -549,-301 -832,-495 -68,-46 -124,-88 -196,-138l-543 -449c-235,-216 -429,-451 -629,-698 -209,-258 -668,-1021 -715,-1278 33,23 67,66 100,98 148,145 371,360 528,495 136,116 301,270 441,374l226 181c770,598 1685,1191 2627,1444 86,23 425,115 504,80 40,-17 85,-65 88,-124 7,-105 -126,-188 -177,-233 -35,-30 -67,-65 -102,-96 -275,-245 -1122,-1127 -1296,-1357l-185 -222c-59,-69 -126,-154 -181,-227 -119,-156 -232,-304 -345,-470 -69,-102 -292,-424 -320,-498 37,17 163,132 202,168 129,118 271,226 395,335l513 417c334,258 714,555 1061,787 99,67 224,165 333,232 120,73 841,550 921,556l0 -818 -402 -456c-36,-43 -60,-77 -93,-116 -35,-40 -67,-72 -96,-112 -119,-157 -245,-313 -359,-477 -33,-47 -54,-78 -86,-123 -24,-34 -65,-107 -83,-125l1119 826 0 -1119c995,-12 1920,36 2907,83 294,14 634,31 927,65 61,-36 493,-185 600,-246 -1933,-180 -3858,-226 -5820,-176 -1387,35 -2834,153 -4209,321 -448,55 -889,126 -1331,185 81,363 440,984 655,1306l339 454c284,342 433,495 764,814 164,157 657,588 853,724l453 330c577,401 1074,693 1714,1043 340,187 698,350 1056,521 269,128 740,324 1039,435 12,4 27,11 37,14 11,3 16,2 16,2l0 -1341z"/>
    <path class="fil1" d="M10546 1174c-85,105 -176,316 -206,482 -170,46 -330,61 -505,100 -170,38 -299,95 -437,169 -69,38 -124,81 -181,123 -103,75 -75,55 -227,73 -1607,186 -2899,545 -4399,1076 -488,173 -1022,405 -1498,622 -72,33 -144,74 -210,102 -42,769 5,2004 13,2819 4,455 32,913 44,1368 12,433 47,850 66,1275 4,70 0,61 17,78l1185 -181c44,-55 74,-53 135,-83 14,-91 -23,-140 -3,-204 21,-68 90,-61 28,-148 -122,-171 -144,-113 -92,-313 29,-110 11,-98 3,-195 -7,-80 35,-112 19,-204 -39,-230 5,-200 31,-394 21,-159 -42,-254 -29,-414 16,-188 47,-207 6,-402 -57,-278 29,-427 19,-643 -3,-52 -1,-156 -47,-186 -59,141 -59,375 -62,542 -1,86 -75,207 -10,387 13,37 34,77 33,124 -2,79 -69,147 -140,164 -105,25 -141,-60 -161,-144 -22,-92 12,-204 -10,-272 -16,-50 -42,-44 -45,-113 -3,-52 11,-88 8,-145 -9,-166 -61,-409 -12,-558 27,-79 62,-142 81,-224 18,-76 28,-185 45,-267 44,-217 14,-529 235,-684 106,-75 157,-14 160,-167 -192,-107 -368,-581 54,-768 157,-69 350,-97 496,2 80,54 80,83 131,183 20,41 87,68 123,189 58,199 -244,340 -85,431 139,80 174,-67 372,244 57,88 348,462 431,499 70,31 177,-36 218,-72 -15,-91 -49,-190 -14,-285 33,-88 167,-170 250,-251 108,-104 521,-451 646,-545 51,-38 234,-190 300,-204 171,-35 -23,226 459,-176 200,-167 114,-277 193,-381 38,-51 66,-9 148,-133 37,-55 70,-116 100,-182 111,-248 70,-163 295,-279 210,-108 468,-328 644,-495 209,-198 373,-362 696,-444 219,-55 472,-58 681,-164 95,-48 77,-72 104,-189 36,-155 87,-285 177,-386 45,-50 98,-83 157,-126 156,-111 317,-370 531,-302 219,70 466,382 511,638 41,235 -40,383 -43,513 101,1 225,38 347,45 122,6 226,43 321,91 430,215 603,653 824,785 162,96 262,297 324,480 46,137 43,170 113,284 57,92 274,408 369,435 117,33 97,-182 194,-197 98,-14 193,104 229,160 55,86 104,163 163,245 102,143 174,204 289,316 56,55 37,67 73,135 122,27 230,22 328,-69 25,-22 63,-151 314,-124 215,24 362,260 417,462 192,-24 264,67 302,241 16,74 28,181 25,259 -3,93 -16,173 -96,184 -61,-44 -75,-162 -118,-234 -30,-49 -43,-46 -109,-67 -50,-16 -84,-44 -128,-60 -20,60 -46,103 -82,136 -87,82 -52,-9 -95,137 -30,101 68,201 172,254 76,38 127,212 130,318 3,91 5,106 55,164 73,85 34,65 41,171l258 188c94,69 137,124 204,246 70,126 218,528 214,693 -107,64 -293,130 -349,214 -41,61 -48,187 -148,270 -23,19 -61,40 -84,62 -118,116 22,237 17,457 -2,101 -19,156 2,261 16,79 40,145 48,229l317 45c-15,-44 -16,-145 -29,-204 -15,-64 -40,-128 -38,-195 6,-199 14,-229 -27,-418 26,-39 71,-74 105,-124 34,-50 59,-99 81,-159 57,-150 468,-130 410,-510 -55,-355 -195,-753 -409,-1003 -42,-49 -70,-65 -123,-106 -26,-22 -125,-88 -136,-104 -26,-38 -34,-101 -73,-158 -34,-47 -40,-123 -50,-198 301,-36 362,-348 346,-604 -21,-344 -136,-570 -388,-672 -81,-33 -42,-73 -151,-204 -168,-201 -371,-316 -661,-278 -223,31 -258,106 -341,143 -81,-41 -175,-175 -241,-251 -162,-186 -281,-570 -668,-558 -107,3 -125,36 -201,57 -22,-51 -81,-120 -113,-178 -61,-109 -134,-536 -423,-769 -30,-24 -49,-37 -84,-61 -42,-28 -49,-43 -81,-76 -34,-36 -261,-300 -260,-313 -142,-128 -123,-176 -404,-349 -167,-103 -333,-173 -562,-190 -2,-403 1,-194 -69,-507l-136 -239c-24,-38 -55,-72 -81,-107 -106,-147 -361,-339 -584,-354 -165,-11 -298,56 -416,144 -66,49 -173,172 -302,262 -119,83 -118,86 -201,187z"/>
    <path class="fil1" d="M5725 9096l1534 -133c-47,-69 -113,-120 -120,-238 -10,-167 -3,-498 71,-642 29,-56 286,-325 336,-386 110,-134 411,-436 517,-569 51,-65 117,-122 167,-187 26,-34 54,-63 83,-95l255 -278c75,-82 296,-297 348,-372 57,-82 117,-114 73,-247 -80,-239 -12,-155 -36,-299 -29,-164 -50,-162 42,-274 37,-46 122,-148 128,-225 3,-47 -20,-84 -17,-155 2,-57 12,-110 12,-168 -2,-168 -120,-78 -222,-71 -71,4 -69,-38 -145,-12 -74,25 -51,32 -147,39 -114,9 -392,134 -434,290 -42,157 -224,279 -362,358 -154,88 -223,250 -356,355 -62,49 -158,87 -222,132 -72,52 -139,100 -209,156 -43,34 -155,120 -217,141 -73,25 -186,-83 -224,-116 -77,-68 -185,-199 -245,-287 -25,-37 -48,-83 -81,-108 -90,56 -221,287 -398,232 -79,-24 -146,-78 -203,-121 -94,-71 -60,-67 -190,-126 -6,214 64,353 73,419 31,206 -11,285 -36,461 -24,166 24,346 -1,480 -29,159 -78,41 -35,452 18,175 85,396 -4,543 -24,40 -40,35 -38,81 3,58 34,147 39,222 14,208 -17,246 78,424 35,67 36,108 64,186 37,107 84,84 122,138z"/>
    <path class="fil1" d="M15071 7170c-152,310 -153,442 -155,826 -14,-10 -7,-4 -20,-16l-198 -200c-46,-42 -66,-58 -114,-94 -38,-29 -63,-71 -94,-116l-331 -515c-110,-178 -216,-344 -326,-520 -168,-270 -215,-275 -250,-602 39,17 45,31 81,62 130,113 583,163 748,165 19,20 27,35 49,60 295,318 422,197 540,212 38,196 83,236 94,282 10,36 1,80 6,120 18,134 70,129 55,180 -4,15 -72,130 -85,156zm-376 1851l334 34c14,-94 58,-180 79,-272 26,-111 28,-204 24,-323 117,38 113,63 204,113 114,62 154,42 233,53 81,11 16,204 6,269l-105 202 307 36 63 8c21,-59 64,-279 72,-348 14,-106 -14,-270 -41,-369 -35,-126 -162,-115 -301,-110 -99,3 -147,-61 -207,-102 -34,-23 -48,-14 -77,-28 -115,-58 -51,-597 -9,-714 39,-106 81,-182 133,-275 45,-83 159,-227 137,-277 -47,-56 -128,-55 -138,-128 -5,-44 20,-71 23,-105 4,-41 -25,-54 -48,-92 -108,-176 -50,-275 -113,-451 -65,-183 -208,-24 -391,-9 -71,6 -144,-71 -174,-105 -49,-53 -48,-151 -48,-236 -120,0 -208,142 -746,-14 -84,-25 -184,-156 -232,-217 -154,-194 -102,-176 -34,-294 -80,-10 -180,-3 -242,-47 -93,-67 5,-142 20,-206 -100,-12 -205,-24 -305,-41 -82,-15 -216,-28 -251,-104 -40,-86 -78,-154 -131,-214 -30,-34 -141,-155 -225,-108 15,57 65,53 88,119 28,78 37,76 95,125 177,152 159,100 178,251 19,146 185,475 246,620 17,43 39,122 56,153 24,45 58,73 85,133 68,153 -9,282 234,634 138,199 373,586 506,799 54,85 108,179 168,261l182 257c35,36 109,65 232,195 174,185 282,338 228,602 -13,65 -39,102 -58,160 -28,83 1,91 -57,165z"/>
    <path class="fil1" d="M8991 8872c171,8 841,-17 1076,-21l433 2 0 -891c0,-151 -21,-193 38,-249 99,-97 188,-190 288,-287 55,-54 223,-255 258,-314 46,16 67,52 116,103 156,168 68,81 163,234 28,45 45,75 79,120 94,125 432,554 538,663l542 638 13 23 385 10c-15,-42 -73,-106 -104,-150 -32,-47 -78,-109 -110,-150 -77,-96 -152,-195 -232,-291l-248 -274c-153,-158 -458,-531 -582,-724 -34,-54 -62,-121 -95,-166 -90,-126 -179,-187 -249,-273 -37,-45 -78,-93 -105,-156 -20,-48 -26,-115 -39,-149 -16,-43 -5,-25 -35,-44 -56,15 -70,82 -114,163 -29,54 -75,118 -113,168l-250 315 -1444 1480c-48,52 -173,154 -209,220z"/>
    <path class="fil1" d="M15766 15769c-433,209 -955,406 -1472,537 -468,118 -1317,266 -1701,-19 -490,-365 227,-1103 411,-1273 293,-272 515,-438 853,-662l312 -192c-366,157 -818,447 -1148,674 -309,211 -752,601 -950,887 -162,236 -361,627 -62,857 462,355 1531,91 2053,-68 312,-96 597,-208 889,-333 204,-87 635,-296 815,-408z"/>
    <path class="fil1" d="M13269 16971c0,6 509,1324 589,1474 93,6 477,-73 572,-103 -78,-267 -509,-1378 -585,-1487 -192,42 -371,83 -576,116z"/>
    <path class="fil1" d="M15122 13756c66,-15 130,-37 193,-56 531,-160 2013,-448 2085,330 21,219 -105,491 -225,664 -10,14 -15,21 -26,37 -10,15 -29,33 -27,47 3,20 68,-60 77,-70 159,-179 335,-380 409,-625 120,-402 -147,-582 -481,-646 -333,-64 -757,-11 -1081,55 -186,38 -741,179 -924,264z"/>
    <path class="fil1" d="M12779 17009c11,63 587,1445 609,1473 66,4 188,12 239,-15 8,-17 -537,-1331 -594,-1469l-254 11z"/>
    <path class="fil1" d="M4733 9212l490 -59c-15,-58 -38,-115 -45,-178 -12,-102 41,-102 -33,-153 -110,-76 -50,-39 -128,-302 -36,-122 14,-257 18,-380 3,-75 -19,-329 -55,-372 -74,34 -83,242 -82,340 6,491 -204,844 -165,1104z"/>
    <path class="fil1" d="M14987 5602c82,70 252,5 253,-115 1,-65 -21,-63 -66,-79 -38,33 -47,66 -83,100 -33,32 -73,58 -104,94z"/>
   </g>
   <g>
    <path class="fil2" d="M14987 5602c31,-36 71,-62 104,-94 36,-34 45,-67 83,-100 45,16 67,14 66,79 -1,120 -171,185 -253,115zm-10779 3678l525 -68c-39,-260 171,-613 165,-1104 -1,-98 8,-306 82,-340 36,43 58,297 55,372 -4,123 -54,258 -18,380 78,263 18,226 128,302 74,51 21,51 33,153 7,63 30,120 45,178l502 -57c-38,-54 -85,-31 -122,-138 -28,-78 -29,-119 -64,-186 -95,-178 -64,-216 -78,-424 -5,-75 -36,-164 -39,-222 -2,-46 14,-41 38,-81 89,-147 22,-368 4,-543 -43,-411 6,-293 35,-452 25,-134 -23,-314 1,-480 25,-176 67,-255 36,-461 -9,-66 -79,-205 -73,-419 130,59 96,55 190,126 57,43 124,97 203,121 177,55 308,-176 398,-232 33,25 56,71 81,108 60,88 168,219 245,287 38,33 151,141 224,116 62,-21 174,-107 217,-141 70,-56 137,-104 209,-156 64,-45 160,-83 222,-132 133,-105 202,-267 356,-355 138,-79 320,-201 362,-358 42,-156 320,-281 434,-290 96,-7 73,-14 147,-39 76,-26 74,16 145,12 102,-7 220,-97 222,71 0,58 -10,111 -12,168 -3,71 20,108 17,155 -6,77 -91,179 -128,225 -92,112 -71,110 -42,274 24,144 -44,60 36,299 44,133 -16,165 -73,247 -52,75 -273,290 -348,372l-255 278c-29,32 -57,61 -83,95 -50,65 -116,122 -167,187 -106,133 -407,435 -517,569 -50,61 -307,330 -336,386 -74,144 -81,475 -71,642 7,118 73,169 120,238 121,-19 288,-23 415,-30 149,-8 289,-18 439,-25 268,-12 616,-48 878,-36 36,-66 161,-168 209,-220l1444 -1480 250 -315c38,-50 84,-114 113,-168 44,-81 58,-148 114,-163 30,19 19,1 35,44 13,34 19,101 39,149 27,63 68,111 105,156 70,86 159,147 249,273 33,45 61,112 95,166 124,193 429,566 582,724l248 274c80,96 155,195 232,291 32,41 78,103 110,150 31,44 85,104 104,150 125,-6 314,11 444,22 149,13 296,17 442,28 297,21 591,46 889,68 58,-74 29,-82 57,-165 19,-58 45,-95 58,-160 54,-264 -54,-417 -228,-602 -123,-130 -197,-159 -232,-195l-182 -257c-60,-82 -114,-176 -168,-261 -133,-213 -368,-600 -506,-799 -243,-352 -166,-481 -234,-634 -27,-60 -61,-88 -85,-133 -17,-31 -39,-110 -56,-153 -61,-145 -227,-474 -246,-620 -19,-151 -1,-99 -178,-251 -58,-49 -67,-47 -95,-125 -23,-66 -73,-62 -88,-119 84,-47 195,74 225,108 53,60 91,128 131,214 35,76 169,89 251,104 100,17 205,29 305,41 -15,64 -113,139 -20,206 62,44 162,37 242,47 -68,118 -120,100 34,294 48,61 148,192 232,217 538,156 626,14 746,14 0,85 -1,183 48,236 30,34 103,111 174,105 183,-15 326,-174 391,9 63,176 5,275 113,451 23,38 52,51 48,92 -3,34 -28,61 -23,105 10,73 91,72 138,128 22,50 -92,194 -137,277 -52,93 -94,169 -133,275 -42,117 -106,656 9,714 29,14 43,5 77,28 60,41 108,105 207,102 139,-5 266,-16 301,110 27,99 55,263 41,369 -8,69 -51,289 -72,348l699 84c-8,-84 -32,-150 -48,-229 -21,-105 -4,-160 -2,-261 5,-220 -135,-341 -17,-457 23,-22 61,-43 84,-62 100,-83 107,-209 148,-270 56,-84 242,-150 349,-214 4,-165 -144,-567 -214,-693 -67,-122 -110,-177 -204,-246l-258 -188c-7,-106 32,-86 -41,-171 -50,-58 -52,-73 -55,-164 -3,-106 -54,-280 -130,-318 -104,-53 -202,-153 -172,-254 43,-146 8,-55 95,-137 36,-33 62,-76 82,-136 44,16 78,44 128,60 66,21 79,18 109,67 43,72 57,190 118,234 80,-11 93,-91 96,-184 3,-78 -9,-185 -25,-259 -38,-174 -110,-265 -302,-241 -55,-202 -202,-438 -417,-462 -251,-27 -289,102 -314,124 -98,91 -206,96 -328,69 -36,-68 -17,-80 -73,-135 -115,-112 -187,-173 -289,-316 -59,-82 -108,-159 -163,-245 -36,-56 -131,-174 -229,-160 -97,15 -77,230 -194,197 -95,-27 -312,-343 -369,-435 -70,-114 -67,-147 -113,-284 -62,-183 -162,-384 -324,-480 -221,-132 -394,-570 -824,-785 -95,-48 -199,-85 -321,-91 -122,-7 -246,-44 -347,-45 3,-130 84,-278 43,-513 -45,-256 -292,-568 -511,-638 -214,-68 -375,191 -531,302 -59,43 -112,76 -157,126 -90,101 -141,231 -177,386 -27,117 -9,141 -104,189 -209,106 -462,109 -681,164 -323,82 -487,246 -696,444 -176,167 -434,387 -644,495 -225,116 -184,31 -295,279 -30,66 -63,127 -100,182 -82,124 -110,82 -148,133 -79,104 7,214 -193,381 -482,402 -288,141 -459,176 -66,14 -249,166 -300,204 -125,94 -538,441 -646,545 -83,81 -217,163 -250,251 -35,95 -1,194 14,285 -41,36 -148,103 -218,72 -83,-37 -374,-411 -431,-499 -198,-311 -233,-164 -372,-244 -159,-91 143,-232 85,-431 -36,-121 -103,-148 -123,-189 -51,-100 -51,-129 -131,-183 -146,-99 -339,-71 -496,-2 -422,187 -246,661 -54,768 -3,153 -54,92 -160,167 -221,155 -191,467 -235,684 -17,82 -27,191 -45,267 -19,82 -54,145 -81,224 -49,149 3,392 12,558 3,57 -11,93 -8,145 3,69 29,63 45,113 22,68 -12,180 10,272 20,84 56,169 161,144 71,-17 138,-85 140,-164 1,-47 -20,-87 -33,-124 -65,-180 9,-301 10,-387 3,-167 3,-401 62,-542 46,30 44,134 47,186 10,216 -76,365 -19,643 41,195 10,214 -6,402 -13,160 50,255 29,414 -26,194 -70,164 -31,394 16,92 -26,124 -19,204 8,97 26,85 -3,195 -52,200 -30,142 92,313 62,87 -7,80 -28,148 -20,64 17,113 3,204 -61,30 -91,28 -135,83z"/>
    <path class="fil2" d="M10546 1174c83,-101 82,-104 201,-187 129,-90 236,-213 302,-262 118,-88 251,-155 416,-144 223,15 478,207 584,354 26,35 57,69 81,107l136 239c163,3 741,100 934,133 828,140 1807,384 2590,627 831,257 1556,528 2343,863 252,108 491,227 735,340 22,327 12,1237 8,1606 -5,532 -8,1066 -25,1598l-92 2339c-11,255 -43,521 -45,773 115,68 1056,155 1331,320 156,94 295,245 359,466 55,191 32,579 32,801 0,321 14,3264 -8,3314l-2095 96c1,37 233,507 270,588 104,226 218,372 133,672 -75,268 -218,444 -350,621l-378 394c-469,396 -436,371 -993,741 -163,108 -366,214 -553,314 -578,306 -1236,564 -1887,725 -175,43 -361,81 -541,105 -103,15 -88,13 -163,58 -1086,646 -1986,1098 -3201,1582 -178,71 -154,75 -333,3 -208,-84 -414,-165 -616,-251 -408,-174 -799,-362 -1188,-556 -602,-299 -1106,-593 -1661,-939 -473,-296 -1229,-835 -1629,-1192 -48,-43 -77,-61 -118,-100 -246,-236 -410,-368 -672,-645 -38,-39 -69,-66 -103,-105 -35,-41 -73,-74 -105,-115l-150 -174c-20,-25 -27,-34 -52,-63 -35,-41 -69,-77 -99,-120 -61,-89 -187,-237 -282,-376 -211,-307 -475,-723 -626,-1118l-2466 -100c-19,-59 -6,-2986 -6,-3317 0,-496 -88,-979 388,-1270 167,-102 428,-137 643,-182 111,-22 641,-115 695,-146 -21,-514 -70,-1029 -87,-1545 -17,-525 -38,-1051 -54,-1578 -16,-533 -19,-1069 -25,-1604 -5,-374 -14,-1287 8,-1620 318,-147 556,-265 896,-409 2050,-870 4616,-1571 6872,-1652 168,-6 492,-32 646,-9zm808 -1108l132 0c185,12 371,74 551,181 68,41 151,98 205,151l333 377c29,35 87,31 139,39 322,47 760,108 1062,180 49,11 105,22 147,31 807,174 1609,376 2391,638l267 88c87,35 178,59 264,91l1030 391c336,134 661,283 988,432 291,133 523,210 520,545l11 1525c0,388 -11,745 -11,1128l-10 282c0,92 3,190 0,282 -1,55 -11,71 -11,135 0,46 0,91 0,136 0,49 0,98 1,147 0,60 -8,76 -11,125 -9,168 7,401 -17,558 -13,86 3,184 -10,271l-15 267c-2,48 1,99 1,147 -1,58 -11,67 -12,125 -1,100 -9,166 -9,272 0,63 -11,76 -12,135 -1,139 -20,256 -20,397 390,91 825,116 1152,363 43,32 72,51 109,89l136 146c107,122 185,265 234,424 25,84 61,206 61,315l0 4136c0,241 -265,370 -481,368l-1336 62c13,54 46,107 69,158 127,282 93,641 -25,919 -45,108 -91,194 -145,293 -27,48 -60,91 -92,138 -114,173 -253,342 -400,488l-225 214c-193,178 -410,341 -624,493 -397,282 -824,531 -1267,738 -55,26 -97,43 -150,70 -256,130 -525,217 -794,323 -263,104 -571,190 -855,252 -99,22 -491,89 -547,121l-1143 644c-125,63 -247,134 -373,190 -27,12 -44,22 -70,35 -98,47 -202,105 -296,143 -105,42 -199,96 -308,141l-617 270c-107,46 -205,82 -314,126 -264,106 -403,189 -696,84 -386,-138 -889,-348 -1249,-526l-1484 -752c-250,-129 -596,-344 -833,-493l-1196 -820c-45,-34 -80,-63 -124,-95 -168,-126 -328,-266 -491,-397 -80,-65 -150,-143 -232,-206 -121,-93 -292,-273 -404,-380l-82 -84c-2,-2 -4,-4 -5,-6l-10 -11c-90,-103 -202,-194 -284,-301 -24,-31 -29,-34 -54,-61 -23,-24 -25,-33 -47,-57 -296,-316 -627,-784 -843,-1163l-230 -427 -2237 -84c-184,-5 -406,-171 -406,-365l0 -4126c0,-179 57,-378 140,-528 56,-100 116,-202 197,-284 365,-369 705,-412 1194,-508 61,-12 96,-27 161,-27 0,-183 -21,-359 -31,-543 -3,-47 2,-99 0,-146l-21 -408c0,-63 -10,-76 -11,-135 -1,-48 4,-97 -2,-144 -16,-110 -11,-420 -18,-556 -3,-50 -11,-72 -11,-136l-10 -564c0,-61 -10,-71 -11,-125 -3,-96 1,-197 1,-293 -1,-63 -11,-76 -12,-135l-10 -2444c0,-253 -29,-537 150,-687 91,-76 402,-222 544,-280l1159 -491 1384 -486c424,-134 846,-262 1280,-370 517,-129 1018,-231 1538,-331 426,-83 1033,-163 1456,-195 70,-6 124,-6 193,-16 62,-9 141,-6 195,-14l394 -24c143,-4 263,-1 398,-9 62,-4 87,-45 133,-76 121,-82 217,-193 335,-281 187,-141 387,-215 589,-229z"/>
   </g>
   <g>
    <path class="fil3" d="M13033 16998c57,138 602,1452 594,1469 -51,27 -173,19 -239,15 -22,-28 -598,-1410 -609,-1473l254 -11zm236 -27c205,-33 384,-74 576,-116 33,47 388,979 444,1121 42,108 109,256 141,366 -95,30 -479,109 -572,103 -80,-150 -589,-1468 -589,-1474zm2497 -1202c-180,112 -611,321 -815,408 -292,125 -577,237 -889,333 -522,159 -1591,423 -2053,68 -299,-230 -100,-621 62,-857 198,-286 641,-676 950,-887 330,-227 782,-517 1148,-674l-312 192c-338,224 -560,390 -853,662 -184,170 -901,908 -411,1273 384,285 1233,137 1701,19 517,-131 1039,-328 1472,-537zm-644 -2013c183,-85 738,-226 924,-264 324,-66 748,-119 1081,-55 334,64 601,244 481,646 -74,245 -250,446 -409,625 -9,10 -74,90 -77,70 -2,-14 17,-32 27,-47 11,-16 16,-23 26,-37 120,-173 246,-445 225,-664 -72,-778 -1554,-490 -2085,-330 -63,19 -127,41 -193,56zm-1161 262c-119,60 -234,122 -348,185 -323,179 -687,421 -973,646 -53,41 -99,84 -148,123 -203,164 -370,334 -534,531l-170 228c-46,73 -107,182 -141,266 -154,383 -54,504 93,819 104,220 706,1523 786,1627 80,104 92,76 131,130 -90,71 -927,466 -1039,518 -233,106 -906,430 -1116,464 -14,2 -29,-7 -53,-16 -299,-111 -770,-307 -1039,-435 -358,-171 -716,-334 -1056,-521 -640,-350 -1137,-642 -1714,-1043l-453 -330c-196,-136 -689,-567 -853,-724 -331,-319 -480,-472 -764,-814l-339 -454c-215,-322 -574,-943 -655,-1306 442,-59 883,-130 1331,-185 1375,-168 2822,-286 4209,-321 1962,-50 3887,-4 5820,176 -18,14 -338,139 -505,205 -159,62 -318,154 -470,231zm2495 -4397l478 70 1 3222 859 109 -1 452c-43,-28 -23,-33 -113,-91 -354,-233 -817,-202 -1225,-173l1 -3589zm-13164 3946c62,-1013 193,-2063 288,-3077 19,-201 13,-410 121,-548 117,-148 219,-171 466,-204 98,-13 528,-81 588,-70l329 3663 -470 57 -78 -941 -670 93 -88 950 -486 77zm14861 -3714l393 74c127,25 254,51 383,76 78,16 526,87 569,132 62,67 146,189 209,260 57,64 63,57 62,167 -4,458 8,926 -1,1380 -34,28 -72,58 -109,87 -74,57 -148,157 -223,143 -251,-48 -576,-131 -809,-161l-1 1647 -473 -99 0 -3706zm-5826 -523l482 27 -1 1157 671 72 1 -1200 492 24 0 3714 -492 -24 -1 -2015 -671 -73 0 2055 -482 -25 1 -3712zm-10845 2901l-217 -167c-22,-17 -34,-41 -34,-69l0 -64 0 -1369c0,-13 4,-24 13,-34l272 -321c7,-8 15,-13 25,-15l1004 -204c14,-3 27,0 38,9l254 219c10,9 15,20 15,34l-2 710 -475 -101 -1 -336 -670 139 2 1076 831 -265c14,-4 29,-2 40,8l259 199c11,9 17,21 17,35l0 1553c1,98 6,78 -43,138l-227 272c-13,16 -29,26 -50,30l-862 177c-170,34 -139,39 -245,-50 -61,-51 -121,-95 -177,-142 -12,-11 -18,-24 -18,-40l0 -971 474 91 0 618 669 -131 0 -1268 -812 253c-28,9 -57,4 -80,-14zm12990 -2793l1627 150 0 486 -1148 -104 0 713 474 61 108 482 -582 -52 0 1534 1149 106 -3 447c-150,40 -242,17 -399,2l-1226 -111 0 -3714zm-5415 -98l1 486 -1138 50 0 716 466 -24 109 487 -575 25 0 1534 1137 -48 0 486 -1627 72 0 -3714 1627 -70zm1725 1450l276 208c11,9 17,21 17,35 1,250 12,1671 -14,1714 -17,28 -168,169 -203,205 -103,104 -69,78 -332,79 -131,1 -725,21 -805,1 -40,-10 -90,-67 -121,-98 -62,-62 -180,-162 -184,-219l0 -1004 487 199 1 637 681 -6 -1 -1265 -659 84c-225,31 -188,49 -279,-42 -237,-237 -227,-177 -226,-338 2,-398 -15,-965 -1,-1316 3,-65 100,-140 168,-208 154,-154 102,-140 238,-140l927 0c10,0 19,3 27,9l281 218c11,9 17,21 17,35l0 762 -492 -193 0 -332 -681 -1 0 1077 846 -109c11,-2 22,1 32,8zm-4630 1018l338 -2316 485 -47c-15,173 -51,364 -76,540l-232 1609c-51,356 -103,717 -154,1076 -31,214 -29,335 -160,456 -123,115 -317,119 -518,129l-533 -3667 522 -44 328 2264zm6114 -10527c70,313 67,104 69,507 229,17 395,87 562,190 281,173 262,221 404,349 90,-6 550,106 669,135 1030,250 2069,566 3042,969 194,80 370,153 565,238 92,41 186,81 273,123 83,41 187,96 267,129 41,794 -6,1966 -12,2798 -8,907 -74,1816 -115,2719l-1134 -168 -317 -45 -762 -92 -347 -41c-78,-8 -254,-20 -287,-25l-448 -46c-298,-22 -592,-47 -889,-68 -146,-11 -293,-15 -442,-28 -130,-11 -319,-28 -444,-22 -81,-3 -492,-10 -550,-27l-1199 -22c-235,13 -805,-8 -1104,-3 -235,4 -905,29 -1076,21 -262,-12 -610,24 -878,36 -150,7 -290,17 -439,25 -127,7 -294,11 -415,30l-1534 133 -502 57 -490 59 -525 68 -1185 181c-17,-17 -13,-8 -17,-78 -19,-425 -54,-842 -66,-1275 -12,-455 -40,-913 -44,-1368 -8,-815 -55,-2050 -13,-2819 66,-28 138,-69 210,-102 476,-217 1010,-449 1498,-622 1500,-531 2792,-890 4399,-1076 152,-18 124,2 227,-73 57,-42 112,-85 181,-123 138,-74 267,-131 437,-169 175,-39 335,-54 505,-100 30,-166 121,-377 206,-482 -154,-23 -478,3 -646,9 -2256,81 -4822,782 -6872,1652 -340,144 -578,262 -896,409 -22,333 -13,1246 -8,1620 6,535 9,1071 25,1604 16,527 37,1053 54,1578 17,516 66,1031 87,1545 -54,31 -584,124 -695,146 -215,45 -476,80 -643,182 -476,291 -388,774 -388,1270 0,331 -13,3258 6,3317l2466 100c151,395 415,811 626,1118 95,139 221,287 282,376 30,43 64,79 99,120 25,29 32,38 52,63l150 174c32,41 70,74 105,115 34,39 65,66 103,105 262,277 426,409 672,645 41,39 70,57 118,100 400,357 1156,896 1629,1192 555,346 1059,640 1661,939 389,194 780,382 1188,556 202,86 408,167 616,251 179,72 155,68 333,-3 1215,-484 2115,-936 3201,-1582 75,-45 60,-43 163,-58 180,-24 366,-62 541,-105 651,-161 1309,-419 1887,-725 187,-100 390,-206 553,-314 557,-370 524,-345 993,-741l378 -394c132,-177 275,-353 350,-621 85,-300 -29,-446 -133,-672 -37,-81 -269,-551 -270,-588l2095 -96c22,-50 8,-2993 8,-3314 0,-222 23,-610 -32,-801 -64,-221 -203,-372 -359,-466 -275,-165 -1216,-252 -1331,-320 2,-252 34,-518 45,-773l92 -2339c17,-532 20,-1066 25,-1598 4,-369 14,-1279 -8,-1606 -244,-113 -483,-232 -735,-340 -787,-335 -1512,-606 -2343,-863 -783,-243 -1762,-487 -2590,-627 -193,-33 -771,-130 -934,-133z"/>
    <polygon class="fil3" points="18627,11511 19294,11651 19294,10569 18627,10430 "/>
    <polygon class="fil3" points="4079,10238 3913,12035 4495,11959 4350,10207 "/>
   </g>
   <g>
    <path class="fil1" d="M18522 10302l877 184 0 1301 -877 -184 0 -1301zm0 1575c153,26 873,203 942,180 20,-6 183,-150 198,-168l0 -1243c1,-85 15,-125 -29,-176l-133 -170c-90,-112 -25,-84 -200,-116 -323,-63 -750,-155 -1044,-221l0 1946 266 56 0 -88z"/>
    <polygon class="fil1" points="12429,11320 12702,11329 12702,10895 13587,10991 13587,11374 13861,11395 13861,9514 13587,9501 13587,10709 12702,10614 12704,9454 12429,9441 "/>
    <path class="fil1" d="M9762 11273l931 -120 0 129 276 0 0 -142c0,-15 -6,-27 -17,-35l-245 -187c-10,-7 -20,-10 -32,-9l-878 114 0 -1320 897 0 0 381 275 102 -1 -533c0,-14 -5,-26 -16,-35l-248 -192c-9,-6 -15,-11 -25,-11l-864 0c-12,0 -23,5 -31,14l-252 261c-8,8 -12,19 -12,30l0 1320c0,12 4,22 13,31l193 195c10,10 22,9 36,7z"/>
    <path class="fil1" d="M2478 11844l0 151 264 -43 0 -187c0,-14 -6,-26 -17,-34 -57,-45 -114,-90 -171,-135 -12,-10 -26,-12 -41,-8l-911 299 -2 -1314 878 -178 0 387 264 51 0 -536c0,-14 -5,-25 -15,-34l-170 -146c-11,-9 -24,-13 -37,-10l-895 182c-44,10 -36,8 -61,31l-217 256c-10,12 -10,33 -10,50l0 1340c0,16 7,31 21,41l139 108c14,11 31,14 47,9l934 -280z"/>
    <path class="fil1" d="M3561 11813l266 -40 154 -1627 442 -59 142 1582 278 -42 -166 -1853c-118,16 -267,31 -383,49 -208,32 -294,13 -457,119 -126,83 -132,329 -141,445 -38,474 -102,955 -135,1426z"/>
    <polygon class="fil1" points="7530,9510 7530,11378 7811,11365 7811,10978 8366,10953 8307,10678 7811,10702 7811,9779 8959,9725 8959,9446 "/>
    <polygon class="fil1" points="14577,11448 14850,11475 14850,11064 15398,11123 15339,10838 14849,10775 14849,9850 15996,9957 15995,9680 14578,9553 "/>
    <polygon class="fil1" points="6308,11461 6580,11451 6854,9561 6580,9584 "/>
    <polygon class="fil1" points="16561,11664 16829,11699 16829,9778 16561,9741 "/>
    <polygon class="fil1" points="5440,9686 5708,11534 5986,11508 5717,9658 "/>
   </g>
  </g>
 </g>
</svg>
