<?xml version="1.0" encoding="UTF-8"?>
<!DOCTYPE svg PUBLIC "-//W3C//DTD SVG 1.1//EN" "http://www.w3.org/Graphics/SVG/1.1/DTD/svg11.dtd">
<!-- Creator: CorelDRAW X7 -->
<svg xmlns="http://www.w3.org/2000/svg" xml:space="preserve" width="210mm" height="63.5mm" version="1.1" style="shape-rendering:geometricPrecision; text-rendering:geometricPrecision; image-rendering:optimizeQuality; fill-rule:evenodd; clip-rule:evenodd"
viewBox="0 0 21000 6350"
 xmlns:xlink="http://www.w3.org/1999/xlink">
 <defs>
  <style type="text/css">
   <![CDATA[
    .fil0 {fill:black}
    .fil1 {fill:#FF6600}
    .fil2 {fill:#FFFFFE}
   ]]>
  </style>
 </defs>
 <g id="Vrstva_x0020_1">
  <metadata id="CorelCorpID_0Corel-Layer"/>
  <g id="_2738241139664">
   <path class="fil0" d="M9705 2620c-1,161 -40,298 -120,409 -79,113 -188,203 -327,272 -140,70 -303,119 -491,151 -202,32 -405,47 -609,45 0,57 9,109 27,155 19,45 50,84 93,116 42,32 99,56 170,74 71,18 160,26 268,27 126,0 247,-13 360,-40 105,-24 185,-48 239,-72l-121 501c-45,14 -94,27 -147,40 -137,33 -285,49 -446,49 -180,0 -335,-24 -465,-70 -129,-46 -235,-110 -317,-193 -81,-82 -142,-182 -179,-291 -37,-113 -56,-237 -55,-373 0,-183 31,-361 93,-533 59,-167 151,-321 271,-451 119,-130 263,-234 432,-312 170,-79 363,-118 582,-117 217,0 396,54 534,162l208 451zm10261 -62c35,-16 71,-26 111,-31 40,-4 75,-6 107,-6 142,0 260,11 353,33 93,23 176,51 248,86l215 -459c-79,-38 -185,-71 -320,-100 -134,-29 -281,-44 -442,-44 -326,-1 -571,68 -733,207 -164,138 -246,323 -246,554 0,82 11,153 33,213 22,60 54,113 99,159 44,46 99,86 165,121 67,35 144,69 232,100 73,29 133,54 180,74 47,21 85,42 111,62 27,21 46,42 57,64 11,23 16,48 16,77 0,59 -31,111 -95,155 -63,45 -178,66 -346,66 -155,0 -287,-21 -397,-63 -53,-19 -105,-40 -156,-63l-121 504c29,11 60,22 95,33 73,22 158,41 255,57 99,16 212,24 342,25 180,0 335,-22 464,-65 130,-44 235,-102 316,-173 81,-71 140,-150 178,-239 39,-88 58,-178 58,-270 0,-88 -10,-164 -30,-227 -20,-62 -54,-119 -99,-166 -46,-48 -103,-91 -170,-129 -79,-43 -161,-81 -245,-114 -64,-23 -127,-48 -189,-76 -47,-23 -83,-44 -109,-65 -25,-20 -42,-41 -49,-61 -8,-24 -13,-49 -12,-74 0,-41 12,-75 36,-101 24,-27 53,-49 88,-64zm-1934 881c-16,79 -24,141 -24,185 -1,95 31,158 96,190 65,32 138,47 221,48 85,0 173,-10 263,-30 89,-21 177,-48 263,-83l0 7 -128 529c-64,21 -132,38 -203,51 -119,22 -237,33 -353,32 -253,0 -442,-55 -566,-164 -125,-110 -187,-269 -186,-477 0,-109 15,-217 43,-322l110 -454 76 -317 1 0 5 -24 10 -39 -1 0 117 -485 105 -434 670 -335 -193 772 848 3 -120 483 -843 -3 -211 867zm-413 -1377l-5 26 -117 482 -9 36c-83,-9 -168,-13 -252,-13 -85,0 -169,5 -253,16 -82,10 -162,28 -240,54l-398 1648 -582 -1 502 -2080c149,-59 309,-105 482,-138 172,-33 334,-49 486,-48 153,0 282,6 386,18zm-3024 2306c-266,0 -463,-77 -592,-229 -129,-152 -193,-354 -193,-607 0,-190 30,-374 87,-554 55,-175 140,-338 252,-483 112,-142 253,-259 414,-343 164,-86 354,-129 568,-128 231,0 417,71 557,212 140,141 210,351 209,629 0,186 -28,371 -82,549 -51,175 -135,338 -245,483 -110,142 -249,259 -409,342l-566 129zm120 -507c95,0 179,-29 252,-85 75,-59 139,-131 188,-213 53,-86 93,-179 119,-277 26,-91 40,-186 41,-281 1,-149 -20,-266 -63,-351 -43,-85 -130,-128 -263,-129 -90,0 -178,29 -249,85 -76,58 -140,130 -188,213 -52,86 -91,179 -118,277 -26,91 -39,186 -40,281 -1,149 20,266 63,351l258 129zm-1023 -1026c0,195 -30,385 -87,568 -54,177 -142,342 -259,485 -116,140 -263,252 -440,335 -177,83 -384,125 -621,124 -63,0 -112,-2 -147,-5 -30,-3 -60,-7 -90,-14l-117 474 -652 277 0 0 708 -2903c67,-28 138,-52 214,-71 76,-19 153,-34 230,-47 74,-11 148,-20 223,-25 71,-5 135,-7 192,-7 294,1 508,76 644,227l202 582zm-573 41c0,-48 -5,-94 -14,-138 -9,-43 -27,-83 -52,-119 -26,-34 -62,-62 -109,-83 -47,-21 -109,-31 -185,-31 -63,0 -116,3 -159,9 -39,5 -77,13 -116,23l-316 1298c16,6 33,10 52,10l62 0c129,0 246,-26 351,-77 102,-50 192,-122 263,-211 72,-88 126,-191 164,-310l59 -371zm-2505 -1012c83,-53 185,-80 305,-80 155,1 288,19 398,54 111,35 202,78 275,128l248 -449c-40,-24 -80,-46 -121,-67 -57,-29 -117,-53 -178,-72 -78,-24 -158,-43 -239,-57 -101,-17 -203,-25 -306,-24 -347,-1 -615,83 -803,251 -189,169 -283,392 -284,670 0,114 14,210 42,289 26,75 65,144 115,204 49,57 108,107 175,148 68,41 142,82 220,123 64,32 123,64 178,95 55,33 103,67 144,105 41,38 74,80 97,126 24,46 36,97 35,154 0,76 -15,139 -45,190 -30,50 -71,92 -119,125 -53,34 -111,58 -173,71 -69,14 -139,21 -209,21 -78,0 -155,-8 -232,-23 -128,-24 -251,-67 -367,-126 -49,-26 -89,-48 -121,-67l-1 3 -126 520c60,34 122,62 187,84 73,26 159,48 258,67 100,19 213,29 339,29 379,1 673,-82 880,-251 207,-168 312,-414 312,-736 0,-117 -16,-218 -49,-303 -30,-82 -76,-158 -134,-224 -59,-65 -128,-121 -204,-166 -78,-47 -165,-93 -260,-138 -101,-44 -187,-94 -258,-150 -70,-55 -106,-137 -106,-245 1,-132 43,-225 127,-279zm-1464 835c0,-73 -26,-128 -78,-168 -51,-40 -125,-60 -220,-60 -145,-1 -283,49 -415,148 -132,99 -223,258 -274,475 199,1 363,-11 491,-36 128,-25 228,-57 301,-97 73,-39 123,-82 152,-129l43 -133z"/>
   <path class="fil1" d="M6313 3175c0,1743 -1413,3156 -3157,3156 -1743,0 -3156,-1413 -3156,-3156 0,-1743 1413,-3156 3156,-3156 1744,0 3157,1413 3157,3156z"/>
   <path class="fil2" d="M3789 1598c0,83 -17,165 -48,241 -32,77 -79,146 -137,205 -59,59 -128,105 -205,137 -77,32 -159,48 -242,48 -125,0 -247,-37 -351,-106 -103,-70 -184,-168 -232,-284 -48,-115 -61,-242 -36,-365 24,-122 84,-235 173,-323 88,-88 201,-149 323,-173 123,-24 250,-12 365,36 115,48 214,129 283,233 70,104 107,226 107,351z"/>
   <path class="fil2" d="M5045 3006c18,129 -51,250 -115,357 -149,248 -344,468 -544,675 -235,246 -485,477 -741,700 164,133 331,264 500,392l-17 17 -334 334 -96 95c-3,3 -142,-110 -154,-119 -63,-49 -125,-98 -187,-148 -537,-427 -1067,-875 -1532,-1381 -184,-200 -367,-414 -492,-658 -29,-56 -56,-114 -64,-178 -9,-77 7,-154 45,-221 75,-128 209,-181 346,-215 313,-79 642,-89 964,-103 252,-12 506,-11 758,-8 317,4 635,16 950,54 73,8 146,19 219,33 38,8 75,16 112,26 32,8 68,14 97,29 142,51 270,159 285,319l0 0zm-1839 1283c207,-179 410,-364 606,-556 162,-160 321,-325 461,-504 -89,-11 -179,-20 -268,-25 -333,-24 -667,-30 -1000,-27 -321,3 -644,12 -963,52 152,195 327,374 504,546 104,102 211,201 319,299 56,51 113,101 170,151 30,27 60,53 90,79l24 21c5,9 11,9 16,0 14,-12 27,-24 41,-36l0 0z"/>
  </g>
 </g>
</svg>
