<?xml version="1.0" encoding="UTF-8"?>
<!DOCTYPE svg PUBLIC "-//W3C//DTD SVG 1.1//EN" "http://www.w3.org/Graphics/SVG/1.1/DTD/svg11.dtd">
<!-- Creator: CorelDRAW X8 -->
<svg xmlns="http://www.w3.org/2000/svg" xml:space="preserve" width="210mm" height="210mm" version="1.1" style="shape-rendering:geometricPrecision; text-rendering:geometricPrecision; image-rendering:optimizeQuality; fill-rule:evenodd; clip-rule:evenodd"
viewBox="0 0 21000 21000"
 xmlns:xlink="http://www.w3.org/1999/xlink">
 <defs>
  <style type="text/css">
   <![CDATA[
    .fil0 {fill:#E4142D}
    .fil1 {fill:white;fill-rule:nonzero}
   ]]>
  </style>
 </defs>
 <g id="Vrstva_x0020_1">
  <metadata id="CorelCorpID_0Corel-Layer"/>
  <g id="_1767007703584">
   <polygon class="fil0" points="14,14 20986,14 20986,20986 14,20986 "/>
   <path class="fil1" d="M14076 5936l-4718 5640c-58,-167 -125,-333 -199,-490 -706,-1495 -1985,-2152 -3007,-2683 -174,-92 -341,-175 -490,-258 -598,-332 -756,-905 -656,-1312 58,-216 199,-407 407,-548 332,-233 839,-349 1453,-349l9 0c3338,0 5631,0 7201,0zm3654 -1711c0,0 0,0 -10855,0 0,0 -9,0 -9,0 -4161,0 -4535,4037 -2026,5415 1910,1055 4294,1637 2392,7135l10498 -12550 0 0z"/>
  </g>
 </g>
</svg>
