<?xml version="1.0" encoding="UTF-8"?>
<!DOCTYPE svg PUBLIC "-//W3C//DTD SVG 1.1//EN" "http://www.w3.org/Graphics/SVG/1.1/DTD/svg11.dtd">
<!-- Creator: CorelDRAW X7 -->
<svg xmlns="http://www.w3.org/2000/svg" xml:space="preserve" width="210mm" height="90mm" version="1.1" style="shape-rendering:geometricPrecision; text-rendering:geometricPrecision; image-rendering:optimizeQuality; fill-rule:evenodd; clip-rule:evenodd"
viewBox="0 0 21000 9000"
 xmlns:xlink="http://www.w3.org/1999/xlink">
 <defs>
  <style type="text/css">
   <![CDATA[
    .fil0 {fill:#977F53}
   ]]>
  </style>
 </defs>
 <g id="Vrstva_x0020_1">
  <metadata id="CorelCorpID_0Corel-Layer"/>
  <polygon class="fil0" points="50,3166 50,7680 3268,8946 3268,6506 2180,6933 2180,7353 1138,6943 1138,3903 1501,3760 1501,2595 "/>
  <polygon class="fil0" points="3995,4681 2951,5091 2951,1647 3995,2057 3995,2478 5083,2902 5083,1320 1863,54 1863,6684 5083,5418 5083,3838 3995,4262 "/>
  <polygon class="fil0" points="7382,4117 8035,4117 8035,4320 7164,4320 7164,2585 7382,2585 "/>
  <polygon class="fil0" points="8852,2789 8852,3352 9450,3352 9450,3555 8852,3555 8852,4117 9505,4117 9505,4320 8636,4320 8636,2585 9506,2585 9506,2789 "/>
  <path class="fil0" d="M10934 3100l0 -162c0,-136 -109,-176 -272,-176 -163,0 -273,40 -273,176l0 1033c0,135 109,176 273,176 163,0 272,-41 272,-176l0 -416 -272 0 0 -203 489 0 0 616c0,271 -217,379 -489,379 -272,0 -491,-108 -491,-379l0 -1033c0,-271 218,-380 491,-380 272,0 489,109 489,380l0 162 -217 3z"/>
  <polygon class="fil0" points="12050,2789 12050,3352 12648,3352 12648,3555 12050,3555 12050,4117 12703,4117 12703,4320 11832,4320 11832,2585 12703,2585 12703,2789 "/>
  <polygon class="fil0" points="14159,3710 14159,2585 14377,2585 14377,4347 14322,4347 13615,3195 13615,4320 13397,4320 13397,2558 13451,2558 "/>
  <path class="fil0" d="M16064 2965l0 975c0,271 -218,380 -490,380l-489 0 0 -1735 489 0c272,0 490,109 490,380zm-218 0c0,-136 -108,-176 -272,-176l-272 0 0 1328 272 0c164,0 272,-41 272,-176l0 -976z"/>
  <path class="fil0" d="M17752 4266l0 57 -213 0 -90 -459 -484 0 -92 459 -210 0 0 -57 335 -1681 416 0 338 1681zm-346 -610l-173 -867 -54 0 -173 867 400 0z"/>
  <path class="fil0" d="M19065 3710l240 556 0 57 -212 0 -253 -586 -244 0 0 583 -218 0 0 -1735 461 0c272,0 461,95 461,353l0 445c6,73 -15,146 -58,206 -43,60 -105,103 -177,121zm22 -772c0,-122 -109,-149 -245,-149l-245 0 0 746 245 0c136,0 245,-27 245,-150l0 -447z"/>
  <polygon class="fil0" points="20950,2585 20950,2639 20514,3737 20514,4320 20297,4320 20297,3737 19861,2639 19861,2585 20071,2585 20405,3426 20736,2585 "/>
  <path class="fil0" d="M7845 5735l0 -273c0,-81 -82,-108 -191,-108 -109,0 -190,27 -190,108l0 975c0,81 81,108 190,108 109,0 191,-27 191,-108l0 -271 326 0 0 271c0,298 -218,407 -518,407 -301,0 -519,-109 -519,-407l0 -975c0,-298 218,-407 519,-407 300,0 518,109 518,407l0 273 -326 0z"/>
  <path class="fil0" d="M11410 6750l0 67 -321 0 -63 -407 -374 0 -65 407 -318 0 0 -67 261 -1668 620 0 260 1668zm-430 -637l-115 -732 -54 0 -115 732 284 0z"/>
  <path class="fil0" d="M14325 6221l201 529 0 67 -323 0 -209 -542 -121 0 0 542 -326 0 0 -1735 489 0c273,0 490,109 490,380l0 434c4,68 -13,136 -49,194 -36,58 -89,104 -152,131zm-452 -244l163 0c110,0 164,-27 164,-109l0 -379c0,-82 -54,-108 -164,-108l-163 0 0 596z"/>
  <path class="fil0" d="M17740 5489l0 921c0,299 -218,407 -519,407l-518 0 0 -1735 518 0c299,0 519,109 519,407zm-327 0c0,-82 -81,-108 -190,-108l-191 0 0 1138 189 0c109,0 190,-27 190,-109l2 -921z"/>
  <path class="fil0" d="M20909 6275l0 163c0,298 -218,406 -518,406 -301,0 -519,-108 -519,-406l0 -190 327 0 0 190c0,81 81,108 190,108 108,0 190,-27 190,-108l0 -163c0,-68 -54,-95 -190,-162 -217,-109 -490,-190 -490,-489l0 -189c0,-271 218,-380 490,-380 272,0 490,109 490,380l0 217 -327 0 0 -190c0,-81 -54,-108 -163,-108 -110,0 -163,27 -163,108l0 162c0,82 54,109 163,163 248,120 520,203 520,488z"/>
 </g>
</svg>
